<?xml version="1.0" encoding="utf-8" standalone="no"?>
<!DOCTYPE svg PUBLIC "-//W3C//DTD SVG 1.1//EN"
  "http://www.w3.org/Graphics/SVG/1.1/DTD/svg11.dtd">
<svg xmlns:xlink="http://www.w3.org/1999/xlink" width="698.457301pt" height="1781.478375pt" viewBox="0 0 698.457301 1781.478375" xmlns="http://www.w3.org/2000/svg" version="1.1">
 <metadata>
  <rdf:RDF xmlns:dc="http://purl.org/dc/elements/1.1/" xmlns:cc="http://creativecommons.org/ns#" xmlns:rdf="http://www.w3.org/1999/02/22-rdf-syntax-ns#">
   <cc:Work>
    <dc:type rdf:resource="http://purl.org/dc/dcmitype/StillImage"/>
    <dc:date>2026-02-24T17:20:53.992876</dc:date>
    <dc:format>image/svg+xml</dc:format>
    <dc:creator>
     <cc:Agent>
      <dc:title>Matplotlib v3.9.2, https://matplotlib.org/</dc:title>
     </cc:Agent>
    </dc:creator>
   </cc:Work>
  </rdf:RDF>
 </metadata>
 <defs>
  <style type="text/css">*{stroke-linejoin: round; stroke-linecap: butt}</style>
 </defs>
 <g id="figure_1">
  <g id="patch_1">
   <path d="M 0 1781.478375 
L 698.457301 1781.478375 
L 698.457301 0 
L 0 0 
z
" style="fill: #ffffff"/>
  </g>
  <g id="axes_1">
   <g id="patch_2">
    <path d="M 121.404375 1774.278375 
L 679.404375 1774.278375 
L 679.404375 111.078375 
L 121.404375 111.078375 
z
" style="fill: #ffffff"/>
   </g>
   <g id="matplotlib.axis_1">
    <g id="xtick_1">
     <g id="line2d_1">
      <defs>
       <path id="mf6def56fb0" d="M 0 0 
L 0 -3.5 
" style="stroke: #000000; stroke-width: 0.8"/>
      </defs>
      <g>
       <use xlink:href="#mf6def56fb0" x="146.768011" y="111.078375" style="stroke: #000000; stroke-width: 0.8"/>
      </g>
     </g>
     <g id="text_1">
      <!-- 300.0 -->
      <g transform="translate(109.551449 98.671187) scale(0.26 -0.26)">
       <defs>
        <path id="DejaVuSans-33" d="M 2597 2516 
Q 3050 2419 3304 2112 
Q 3559 1806 3559 1356 
Q 3559 666 3084 287 
Q 2609 -91 1734 -91 
Q 1441 -91 1130 -33 
Q 819 25 488 141 
L 488 750 
Q 750 597 1062 519 
Q 1375 441 1716 441 
Q 2309 441 2620 675 
Q 2931 909 2931 1356 
Q 2931 1769 2642 2001 
Q 2353 2234 1838 2234 
L 1294 2234 
L 1294 2753 
L 1863 2753 
Q 2328 2753 2575 2939 
Q 2822 3125 2822 3475 
Q 2822 3834 2567 4026 
Q 2313 4219 1838 4219 
Q 1578 4219 1281 4162 
Q 984 4106 628 3988 
L 628 4550 
Q 988 4650 1302 4700 
Q 1616 4750 1894 4750 
Q 2613 4750 3031 4423 
Q 3450 4097 3450 3541 
Q 3450 3153 3228 2886 
Q 3006 2619 2597 2516 
z
" transform="scale(0.015625)"/>
        <path id="DejaVuSans-30" d="M 2034 4250 
Q 1547 4250 1301 3770 
Q 1056 3291 1056 2328 
Q 1056 1369 1301 889 
Q 1547 409 2034 409 
Q 2525 409 2770 889 
Q 3016 1369 3016 2328 
Q 3016 3291 2770 3770 
Q 2525 4250 2034 4250 
z
M 2034 4750 
Q 2819 4750 3233 4129 
Q 3647 3509 3647 2328 
Q 3647 1150 3233 529 
Q 2819 -91 2034 -91 
Q 1250 -91 836 529 
Q 422 1150 422 2328 
Q 422 3509 836 4129 
Q 1250 4750 2034 4750 
z
" transform="scale(0.015625)"/>
        <path id="DejaVuSans-2e" d="M 684 794 
L 1344 794 
L 1344 0 
L 684 0 
L 684 794 
z
" transform="scale(0.015625)"/>
       </defs>
       <use xlink:href="#DejaVuSans-33"/>
       <use xlink:href="#DejaVuSans-30" x="63.623047"/>
       <use xlink:href="#DejaVuSans-30" x="127.246094"/>
       <use xlink:href="#DejaVuSans-2e" x="190.869141"/>
       <use xlink:href="#DejaVuSans-30" x="222.65625"/>
      </g>
     </g>
    </g>
    <g id="xtick_2">
     <g id="line2d_2">
      <g>
       <use xlink:href="#mf6def56fb0" x="231.313466" y="111.078375" style="stroke: #000000; stroke-width: 0.8"/>
      </g>
     </g>
     <g id="text_2">
      <!-- 400.0 -->
      <g transform="translate(194.096903 98.671187) scale(0.26 -0.26)">
       <defs>
        <path id="DejaVuSans-34" d="M 2419 4116 
L 825 1625 
L 2419 1625 
L 2419 4116 
z
M 2253 4666 
L 3047 4666 
L 3047 1625 
L 3713 1625 
L 3713 1100 
L 3047 1100 
L 3047 0 
L 2419 0 
L 2419 1100 
L 313 1100 
L 313 1709 
L 2253 4666 
z
" transform="scale(0.015625)"/>
       </defs>
       <use xlink:href="#DejaVuSans-34"/>
       <use xlink:href="#DejaVuSans-30" x="63.623047"/>
       <use xlink:href="#DejaVuSans-30" x="127.246094"/>
       <use xlink:href="#DejaVuSans-2e" x="190.869141"/>
       <use xlink:href="#DejaVuSans-30" x="222.65625"/>
      </g>
     </g>
    </g>
    <g id="xtick_3">
     <g id="line2d_3">
      <g>
       <use xlink:href="#mf6def56fb0" x="315.85892" y="111.078375" style="stroke: #000000; stroke-width: 0.8"/>
      </g>
     </g>
     <g id="text_3">
      <!-- 500.0 -->
      <g transform="translate(278.642358 98.671187) scale(0.26 -0.26)">
       <defs>
        <path id="DejaVuSans-35" d="M 691 4666 
L 3169 4666 
L 3169 4134 
L 1269 4134 
L 1269 2991 
Q 1406 3038 1543 3061 
Q 1681 3084 1819 3084 
Q 2600 3084 3056 2656 
Q 3513 2228 3513 1497 
Q 3513 744 3044 326 
Q 2575 -91 1722 -91 
Q 1428 -91 1123 -41 
Q 819 9 494 109 
L 494 744 
Q 775 591 1075 516 
Q 1375 441 1709 441 
Q 2250 441 2565 725 
Q 2881 1009 2881 1497 
Q 2881 1984 2565 2268 
Q 2250 2553 1709 2553 
Q 1456 2553 1204 2497 
Q 953 2441 691 2322 
L 691 4666 
z
" transform="scale(0.015625)"/>
       </defs>
       <use xlink:href="#DejaVuSans-35"/>
       <use xlink:href="#DejaVuSans-30" x="63.623047"/>
       <use xlink:href="#DejaVuSans-30" x="127.246094"/>
       <use xlink:href="#DejaVuSans-2e" x="190.869141"/>
       <use xlink:href="#DejaVuSans-30" x="222.65625"/>
      </g>
     </g>
    </g>
    <g id="xtick_4">
     <g id="line2d_4">
      <g>
       <use xlink:href="#mf6def56fb0" x="400.404375" y="111.078375" style="stroke: #000000; stroke-width: 0.8"/>
      </g>
     </g>
     <g id="text_4">
      <!-- 600.0 -->
      <g transform="translate(363.187812 98.671187) scale(0.26 -0.26)">
       <defs>
        <path id="DejaVuSans-36" d="M 2113 2584 
Q 1688 2584 1439 2293 
Q 1191 2003 1191 1497 
Q 1191 994 1439 701 
Q 1688 409 2113 409 
Q 2538 409 2786 701 
Q 3034 994 3034 1497 
Q 3034 2003 2786 2293 
Q 2538 2584 2113 2584 
z
M 3366 4563 
L 3366 3988 
Q 3128 4100 2886 4159 
Q 2644 4219 2406 4219 
Q 1781 4219 1451 3797 
Q 1122 3375 1075 2522 
Q 1259 2794 1537 2939 
Q 1816 3084 2150 3084 
Q 2853 3084 3261 2657 
Q 3669 2231 3669 1497 
Q 3669 778 3244 343 
Q 2819 -91 2113 -91 
Q 1303 -91 875 529 
Q 447 1150 447 2328 
Q 447 3434 972 4092 
Q 1497 4750 2381 4750 
Q 2619 4750 2861 4703 
Q 3103 4656 3366 4563 
z
" transform="scale(0.015625)"/>
       </defs>
       <use xlink:href="#DejaVuSans-36"/>
       <use xlink:href="#DejaVuSans-30" x="63.623047"/>
       <use xlink:href="#DejaVuSans-30" x="127.246094"/>
       <use xlink:href="#DejaVuSans-2e" x="190.869141"/>
       <use xlink:href="#DejaVuSans-30" x="222.65625"/>
      </g>
     </g>
    </g>
    <g id="xtick_5">
     <g id="line2d_5">
      <g>
       <use xlink:href="#mf6def56fb0" x="484.94983" y="111.078375" style="stroke: #000000; stroke-width: 0.8"/>
      </g>
     </g>
     <g id="text_5">
      <!-- 700.0 -->
      <g transform="translate(447.733267 98.671187) scale(0.26 -0.26)">
       <defs>
        <path id="DejaVuSans-37" d="M 525 4666 
L 3525 4666 
L 3525 4397 
L 1831 0 
L 1172 0 
L 2766 4134 
L 525 4134 
L 525 4666 
z
" transform="scale(0.015625)"/>
       </defs>
       <use xlink:href="#DejaVuSans-37"/>
       <use xlink:href="#DejaVuSans-30" x="63.623047"/>
       <use xlink:href="#DejaVuSans-30" x="127.246094"/>
       <use xlink:href="#DejaVuSans-2e" x="190.869141"/>
       <use xlink:href="#DejaVuSans-30" x="222.65625"/>
      </g>
     </g>
    </g>
    <g id="xtick_6">
     <g id="line2d_6">
      <g>
       <use xlink:href="#mf6def56fb0" x="569.495284" y="111.078375" style="stroke: #000000; stroke-width: 0.8"/>
      </g>
     </g>
     <g id="text_6">
      <!-- 800.0 -->
      <g transform="translate(532.278722 98.671187) scale(0.26 -0.26)">
       <defs>
        <path id="DejaVuSans-38" d="M 2034 2216 
Q 1584 2216 1326 1975 
Q 1069 1734 1069 1313 
Q 1069 891 1326 650 
Q 1584 409 2034 409 
Q 2484 409 2743 651 
Q 3003 894 3003 1313 
Q 3003 1734 2745 1975 
Q 2488 2216 2034 2216 
z
M 1403 2484 
Q 997 2584 770 2862 
Q 544 3141 544 3541 
Q 544 4100 942 4425 
Q 1341 4750 2034 4750 
Q 2731 4750 3128 4425 
Q 3525 4100 3525 3541 
Q 3525 3141 3298 2862 
Q 3072 2584 2669 2484 
Q 3125 2378 3379 2068 
Q 3634 1759 3634 1313 
Q 3634 634 3220 271 
Q 2806 -91 2034 -91 
Q 1263 -91 848 271 
Q 434 634 434 1313 
Q 434 1759 690 2068 
Q 947 2378 1403 2484 
z
M 1172 3481 
Q 1172 3119 1398 2916 
Q 1625 2713 2034 2713 
Q 2441 2713 2670 2916 
Q 2900 3119 2900 3481 
Q 2900 3844 2670 4047 
Q 2441 4250 2034 4250 
Q 1625 4250 1398 4047 
Q 1172 3844 1172 3481 
z
" transform="scale(0.015625)"/>
       </defs>
       <use xlink:href="#DejaVuSans-38"/>
       <use xlink:href="#DejaVuSans-30" x="63.623047"/>
       <use xlink:href="#DejaVuSans-30" x="127.246094"/>
       <use xlink:href="#DejaVuSans-2e" x="190.869141"/>
       <use xlink:href="#DejaVuSans-30" x="222.65625"/>
      </g>
     </g>
    </g>
    <g id="xtick_7">
     <g id="line2d_7">
      <g>
       <use xlink:href="#mf6def56fb0" x="654.040739" y="111.078375" style="stroke: #000000; stroke-width: 0.8"/>
      </g>
     </g>
     <g id="text_7">
      <!-- 900.0 -->
      <g transform="translate(616.824176 98.671187) scale(0.26 -0.26)">
       <defs>
        <path id="DejaVuSans-39" d="M 703 97 
L 703 672 
Q 941 559 1184 500 
Q 1428 441 1663 441 
Q 2288 441 2617 861 
Q 2947 1281 2994 2138 
Q 2813 1869 2534 1725 
Q 2256 1581 1919 1581 
Q 1219 1581 811 2004 
Q 403 2428 403 3163 
Q 403 3881 828 4315 
Q 1253 4750 1959 4750 
Q 2769 4750 3195 4129 
Q 3622 3509 3622 2328 
Q 3622 1225 3098 567 
Q 2575 -91 1691 -91 
Q 1453 -91 1209 -44 
Q 966 3 703 97 
z
M 1959 2075 
Q 2384 2075 2632 2365 
Q 2881 2656 2881 3163 
Q 2881 3666 2632 3958 
Q 2384 4250 1959 4250 
Q 1534 4250 1286 3958 
Q 1038 3666 1038 3163 
Q 1038 2656 1286 2365 
Q 1534 2075 1959 2075 
z
" transform="scale(0.015625)"/>
       </defs>
       <use xlink:href="#DejaVuSans-39"/>
       <use xlink:href="#DejaVuSans-30" x="63.623047"/>
       <use xlink:href="#DejaVuSans-30" x="127.246094"/>
       <use xlink:href="#DejaVuSans-2e" x="190.869141"/>
       <use xlink:href="#DejaVuSans-30" x="222.65625"/>
      </g>
     </g>
    </g>
    <g id="text_8">
     <!-- $\mathbf{CH}_{\mathbf{4}}\ \mathbf{[ppbv]}$ -->
     <g transform="translate(308.304375 66.91525) scale(0.3 -0.3)">
      <defs>
       <path id="DejaVuSans-Bold-43" d="M 4288 256 
Q 3956 84 3597 -3 
Q 3238 -91 2847 -91 
Q 1681 -91 1000 561 
Q 319 1213 319 2328 
Q 319 3447 1000 4098 
Q 1681 4750 2847 4750 
Q 3238 4750 3597 4662 
Q 3956 4575 4288 4403 
L 4288 3438 
Q 3953 3666 3628 3772 
Q 3303 3878 2944 3878 
Q 2300 3878 1931 3465 
Q 1563 3053 1563 2328 
Q 1563 1606 1931 1193 
Q 2300 781 2944 781 
Q 3303 781 3628 887 
Q 3953 994 4288 1222 
L 4288 256 
z
" transform="scale(0.015625)"/>
       <path id="DejaVuSans-Bold-48" d="M 588 4666 
L 1791 4666 
L 1791 2888 
L 3566 2888 
L 3566 4666 
L 4769 4666 
L 4769 0 
L 3566 0 
L 3566 1978 
L 1791 1978 
L 1791 0 
L 588 0 
L 588 4666 
z
" transform="scale(0.015625)"/>
       <path id="DejaVuSans-Bold-34" d="M 2356 3675 
L 1038 1722 
L 2356 1722 
L 2356 3675 
z
M 2156 4666 
L 3494 4666 
L 3494 1722 
L 4159 1722 
L 4159 850 
L 3494 850 
L 3494 0 
L 2356 0 
L 2356 850 
L 288 850 
L 288 1881 
L 2156 4666 
z
" transform="scale(0.015625)"/>
       <path id="DejaVuSans-Bold-5b" d="M 550 4863 
L 2491 4863 
L 2491 4159 
L 1613 4159 
L 1613 -141 
L 2491 -141 
L 2491 -844 
L 550 -844 
L 550 4863 
z
" transform="scale(0.015625)"/>
       <path id="DejaVuSans-Bold-70" d="M 1656 506 
L 1656 -1331 
L 538 -1331 
L 538 3500 
L 1656 3500 
L 1656 2988 
Q 1888 3294 2169 3439 
Q 2450 3584 2816 3584 
Q 3463 3584 3878 3070 
Q 4294 2556 4294 1747 
Q 4294 938 3878 423 
Q 3463 -91 2816 -91 
Q 2450 -91 2169 54 
Q 1888 200 1656 506 
z
M 2400 2772 
Q 2041 2772 1848 2508 
Q 1656 2244 1656 1747 
Q 1656 1250 1848 986 
Q 2041 722 2400 722 
Q 2759 722 2948 984 
Q 3138 1247 3138 1747 
Q 3138 2247 2948 2509 
Q 2759 2772 2400 2772 
z
" transform="scale(0.015625)"/>
       <path id="DejaVuSans-Bold-62" d="M 2400 722 
Q 2759 722 2948 984 
Q 3138 1247 3138 1747 
Q 3138 2247 2948 2509 
Q 2759 2772 2400 2772 
Q 2041 2772 1848 2508 
Q 1656 2244 1656 1747 
Q 1656 1250 1848 986 
Q 2041 722 2400 722 
z
M 1656 2988 
Q 1888 3294 2169 3439 
Q 2450 3584 2816 3584 
Q 3463 3584 3878 3070 
Q 4294 2556 4294 1747 
Q 4294 938 3878 423 
Q 3463 -91 2816 -91 
Q 2450 -91 2169 54 
Q 1888 200 1656 506 
L 1656 0 
L 538 0 
L 538 4863 
L 1656 4863 
L 1656 2988 
z
" transform="scale(0.015625)"/>
       <path id="DejaVuSans-Bold-76" d="M 97 3500 
L 1216 3500 
L 2088 1081 
L 2956 3500 
L 4078 3500 
L 2700 0 
L 1472 0 
L 97 3500 
z
" transform="scale(0.015625)"/>
       <path id="DejaVuSans-Bold-5d" d="M 2375 -844 
L 434 -844 
L 434 -141 
L 1313 -141 
L 1313 4159 
L 434 4159 
L 434 4863 
L 2375 4863 
L 2375 -844 
z
" transform="scale(0.015625)"/>
      </defs>
      <use xlink:href="#DejaVuSans-Bold-43" transform="translate(0 0.015625)"/>
      <use xlink:href="#DejaVuSans-Bold-48" transform="translate(73.388672 0.015625)"/>
      <use xlink:href="#DejaVuSans-Bold-34" transform="translate(158.037109 -16.390625) scale(0.7)"/>
      <use xlink:href="#DejaVuSans-Bold-5b" transform="translate(241.947917 0.015625)"/>
      <use xlink:href="#DejaVuSans-Bold-70" transform="translate(287.651042 0.015625)"/>
      <use xlink:href="#DejaVuSans-Bold-70" transform="translate(359.233074 0.015625)"/>
      <use xlink:href="#DejaVuSans-Bold-62" transform="translate(430.815105 0.015625)"/>
      <use xlink:href="#DejaVuSans-Bold-76" transform="translate(502.397136 0.015625)"/>
      <use xlink:href="#DejaVuSans-Bold-5d" transform="translate(567.582683 0.015625)"/>
     </g>
    </g>
   </g>
   <g id="matplotlib.axis_2">
    <g id="ytick_1">
     <g id="line2d_8">
      <path d="M 121.404375 336.222334 
L 679.404375 336.222334 
" clip-path="url(#p941dd16c04)" style="fill: none; stroke: #cccccc; stroke-linecap: square"/>
     </g>
     <g id="line2d_9">
      <defs>
       <path id="m7236974507" d="M 0 0 
L -3.5 0 
" style="stroke: #000000; stroke-width: 0.8"/>
      </defs>
      <g>
       <use xlink:href="#m7236974507" x="121.404375" y="336.222334" style="stroke: #000000; stroke-width: 0.8"/>
      </g>
     </g>
     <g id="text_9">
      <!-- 500 -->
      <g transform="translate(64.776875 346.100303) scale(0.26 -0.26)">
       <use xlink:href="#DejaVuSans-35"/>
       <use xlink:href="#DejaVuSans-30" x="63.623047"/>
       <use xlink:href="#DejaVuSans-30" x="127.246094"/>
      </g>
     </g>
    </g>
    <g id="ytick_2">
     <g id="line2d_10">
      <path d="M 121.404375 617.188688 
L 679.404375 617.188688 
" clip-path="url(#p941dd16c04)" style="fill: none; stroke: #cccccc; stroke-linecap: square"/>
     </g>
     <g id="line2d_11">
      <g>
       <use xlink:href="#m7236974507" x="121.404375" y="617.188688" style="stroke: #000000; stroke-width: 0.8"/>
      </g>
     </g>
     <g id="text_10">
      <!-- 1000 -->
      <g transform="translate(48.234375 627.066656) scale(0.26 -0.26)">
       <defs>
        <path id="DejaVuSans-31" d="M 794 531 
L 1825 531 
L 1825 4091 
L 703 3866 
L 703 4441 
L 1819 4666 
L 2450 4666 
L 2450 531 
L 3481 531 
L 3481 0 
L 794 0 
L 794 531 
z
" transform="scale(0.015625)"/>
       </defs>
       <use xlink:href="#DejaVuSans-31"/>
       <use xlink:href="#DejaVuSans-30" x="63.623047"/>
       <use xlink:href="#DejaVuSans-30" x="127.246094"/>
       <use xlink:href="#DejaVuSans-30" x="190.869141"/>
      </g>
     </g>
    </g>
    <g id="ytick_3">
     <g id="line2d_12">
      <path d="M 121.404375 898.155042 
L 679.404375 898.155042 
" clip-path="url(#p941dd16c04)" style="fill: none; stroke: #cccccc; stroke-linecap: square"/>
     </g>
     <g id="line2d_13">
      <g>
       <use xlink:href="#m7236974507" x="121.404375" y="898.155042" style="stroke: #000000; stroke-width: 0.8"/>
      </g>
     </g>
     <g id="text_11">
      <!-- 1500 -->
      <g transform="translate(48.234375 908.03301) scale(0.26 -0.26)">
       <use xlink:href="#DejaVuSans-31"/>
       <use xlink:href="#DejaVuSans-35" x="63.623047"/>
       <use xlink:href="#DejaVuSans-30" x="127.246094"/>
       <use xlink:href="#DejaVuSans-30" x="190.869141"/>
      </g>
     </g>
    </g>
    <g id="ytick_4">
     <g id="line2d_14">
      <path d="M 121.404375 1179.121396 
L 679.404375 1179.121396 
" clip-path="url(#p941dd16c04)" style="fill: none; stroke: #cccccc; stroke-linecap: square"/>
     </g>
     <g id="line2d_15">
      <g>
       <use xlink:href="#m7236974507" x="121.404375" y="1179.121396" style="stroke: #000000; stroke-width: 0.8"/>
      </g>
     </g>
     <g id="text_12">
      <!-- 2000 -->
      <g transform="translate(48.234375 1188.999364) scale(0.26 -0.26)">
       <defs>
        <path id="DejaVuSans-32" d="M 1228 531 
L 3431 531 
L 3431 0 
L 469 0 
L 469 531 
Q 828 903 1448 1529 
Q 2069 2156 2228 2338 
Q 2531 2678 2651 2914 
Q 2772 3150 2772 3378 
Q 2772 3750 2511 3984 
Q 2250 4219 1831 4219 
Q 1534 4219 1204 4116 
Q 875 4013 500 3803 
L 500 4441 
Q 881 4594 1212 4672 
Q 1544 4750 1819 4750 
Q 2544 4750 2975 4387 
Q 3406 4025 3406 3419 
Q 3406 3131 3298 2873 
Q 3191 2616 2906 2266 
Q 2828 2175 2409 1742 
Q 1991 1309 1228 531 
z
" transform="scale(0.015625)"/>
       </defs>
       <use xlink:href="#DejaVuSans-32"/>
       <use xlink:href="#DejaVuSans-30" x="63.623047"/>
       <use xlink:href="#DejaVuSans-30" x="127.246094"/>
       <use xlink:href="#DejaVuSans-30" x="190.869141"/>
      </g>
     </g>
    </g>
    <g id="ytick_5">
     <g id="line2d_16">
      <path d="M 121.404375 1460.08775 
L 679.404375 1460.08775 
" clip-path="url(#p941dd16c04)" style="fill: none; stroke: #cccccc; stroke-linecap: square"/>
     </g>
     <g id="line2d_17">
      <g>
       <use xlink:href="#m7236974507" x="121.404375" y="1460.08775" style="stroke: #000000; stroke-width: 0.8"/>
      </g>
     </g>
     <g id="text_13">
      <!-- 2500 -->
      <g transform="translate(48.234375 1469.965718) scale(0.26 -0.26)">
       <use xlink:href="#DejaVuSans-32"/>
       <use xlink:href="#DejaVuSans-35" x="63.623047"/>
       <use xlink:href="#DejaVuSans-30" x="127.246094"/>
       <use xlink:href="#DejaVuSans-30" x="190.869141"/>
      </g>
     </g>
    </g>
    <g id="ytick_6">
     <g id="line2d_18">
      <path d="M 121.404375 1741.054104 
L 679.404375 1741.054104 
" clip-path="url(#p941dd16c04)" style="fill: none; stroke: #cccccc; stroke-linecap: square"/>
     </g>
     <g id="line2d_19">
      <g>
       <use xlink:href="#m7236974507" x="121.404375" y="1741.054104" style="stroke: #000000; stroke-width: 0.8"/>
      </g>
     </g>
     <g id="text_14">
      <!-- 3000 -->
      <g transform="translate(48.234375 1750.932072) scale(0.26 -0.26)">
       <use xlink:href="#DejaVuSans-33"/>
       <use xlink:href="#DejaVuSans-30" x="63.623047"/>
       <use xlink:href="#DejaVuSans-30" x="127.246094"/>
       <use xlink:href="#DejaVuSans-30" x="190.869141"/>
      </g>
     </g>
    </g>
    <g id="ytick_7">
     <g id="line2d_20">
      <defs>
       <path id="meb81737b84" d="M 0 0 
L -4 0 
" style="stroke: #000000; stroke-width: 0.8"/>
      </defs>
      <g>
       <use xlink:href="#meb81737b84" x="121.404375" y="111.449251" style="stroke: #000000; stroke-width: 0.8"/>
      </g>
     </g>
    </g>
    <g id="ytick_8">
     <g id="line2d_21">
      <g>
       <use xlink:href="#meb81737b84" x="121.404375" y="167.642521" style="stroke: #000000; stroke-width: 0.8"/>
      </g>
     </g>
    </g>
    <g id="ytick_9">
     <g id="line2d_22">
      <g>
       <use xlink:href="#meb81737b84" x="121.404375" y="223.835792" style="stroke: #000000; stroke-width: 0.8"/>
      </g>
     </g>
    </g>
    <g id="ytick_10">
     <g id="line2d_23">
      <g>
       <use xlink:href="#meb81737b84" x="121.404375" y="280.029063" style="stroke: #000000; stroke-width: 0.8"/>
      </g>
     </g>
    </g>
    <g id="ytick_11">
     <g id="line2d_24">
      <g>
       <use xlink:href="#meb81737b84" x="121.404375" y="392.415605" style="stroke: #000000; stroke-width: 0.8"/>
      </g>
     </g>
    </g>
    <g id="ytick_12">
     <g id="line2d_25">
      <g>
       <use xlink:href="#meb81737b84" x="121.404375" y="448.608875" style="stroke: #000000; stroke-width: 0.8"/>
      </g>
     </g>
    </g>
    <g id="ytick_13">
     <g id="line2d_26">
      <g>
       <use xlink:href="#meb81737b84" x="121.404375" y="504.802146" style="stroke: #000000; stroke-width: 0.8"/>
      </g>
     </g>
    </g>
    <g id="ytick_14">
     <g id="line2d_27">
      <g>
       <use xlink:href="#meb81737b84" x="121.404375" y="560.995417" style="stroke: #000000; stroke-width: 0.8"/>
      </g>
     </g>
    </g>
    <g id="ytick_15">
     <g id="line2d_28">
      <g>
       <use xlink:href="#meb81737b84" x="121.404375" y="673.381959" style="stroke: #000000; stroke-width: 0.8"/>
      </g>
     </g>
    </g>
    <g id="ytick_16">
     <g id="line2d_29">
      <g>
       <use xlink:href="#meb81737b84" x="121.404375" y="729.575229" style="stroke: #000000; stroke-width: 0.8"/>
      </g>
     </g>
    </g>
    <g id="ytick_17">
     <g id="line2d_30">
      <g>
       <use xlink:href="#meb81737b84" x="121.404375" y="785.7685" style="stroke: #000000; stroke-width: 0.8"/>
      </g>
     </g>
    </g>
    <g id="ytick_18">
     <g id="line2d_31">
      <g>
       <use xlink:href="#meb81737b84" x="121.404375" y="841.961771" style="stroke: #000000; stroke-width: 0.8"/>
      </g>
     </g>
    </g>
    <g id="ytick_19">
     <g id="line2d_32">
      <g>
       <use xlink:href="#meb81737b84" x="121.404375" y="954.348313" style="stroke: #000000; stroke-width: 0.8"/>
      </g>
     </g>
    </g>
    <g id="ytick_20">
     <g id="line2d_33">
      <g>
       <use xlink:href="#meb81737b84" x="121.404375" y="1010.541583" style="stroke: #000000; stroke-width: 0.8"/>
      </g>
     </g>
    </g>
    <g id="ytick_21">
     <g id="line2d_34">
      <g>
       <use xlink:href="#meb81737b84" x="121.404375" y="1066.734854" style="stroke: #000000; stroke-width: 0.8"/>
      </g>
     </g>
    </g>
    <g id="ytick_22">
     <g id="line2d_35">
      <g>
       <use xlink:href="#meb81737b84" x="121.404375" y="1122.928125" style="stroke: #000000; stroke-width: 0.8"/>
      </g>
     </g>
    </g>
    <g id="ytick_23">
     <g id="line2d_36">
      <g>
       <use xlink:href="#meb81737b84" x="121.404375" y="1235.314666" style="stroke: #000000; stroke-width: 0.8"/>
      </g>
     </g>
    </g>
    <g id="ytick_24">
     <g id="line2d_37">
      <g>
       <use xlink:href="#meb81737b84" x="121.404375" y="1291.507937" style="stroke: #000000; stroke-width: 0.8"/>
      </g>
     </g>
    </g>
    <g id="ytick_25">
     <g id="line2d_38">
      <g>
       <use xlink:href="#meb81737b84" x="121.404375" y="1347.701208" style="stroke: #000000; stroke-width: 0.8"/>
      </g>
     </g>
    </g>
    <g id="ytick_26">
     <g id="line2d_39">
      <g>
       <use xlink:href="#meb81737b84" x="121.404375" y="1403.894479" style="stroke: #000000; stroke-width: 0.8"/>
      </g>
     </g>
    </g>
    <g id="ytick_27">
     <g id="line2d_40">
      <g>
       <use xlink:href="#meb81737b84" x="121.404375" y="1516.28102" style="stroke: #000000; stroke-width: 0.8"/>
      </g>
     </g>
    </g>
    <g id="ytick_28">
     <g id="line2d_41">
      <g>
       <use xlink:href="#meb81737b84" x="121.404375" y="1572.474291" style="stroke: #000000; stroke-width: 0.8"/>
      </g>
     </g>
    </g>
    <g id="ytick_29">
     <g id="line2d_42">
      <g>
       <use xlink:href="#meb81737b84" x="121.404375" y="1628.667562" style="stroke: #000000; stroke-width: 0.8"/>
      </g>
     </g>
    </g>
    <g id="ytick_30">
     <g id="line2d_43">
      <g>
       <use xlink:href="#meb81737b84" x="121.404375" y="1684.860833" style="stroke: #000000; stroke-width: 0.8"/>
      </g>
     </g>
    </g>
    <g id="text_15">
     <!-- Depth [m] -->
     <g transform="translate(29.995312 1028.452594) rotate(-90) scale(0.3 -0.3)">
      <defs>
       <path id="DejaVuSans-Bold-44" d="M 1791 3756 
L 1791 909 
L 2222 909 
Q 2959 909 3348 1275 
Q 3738 1641 3738 2338 
Q 3738 3031 3350 3393 
Q 2963 3756 2222 3756 
L 1791 3756 
z
M 588 4666 
L 1856 4666 
Q 2919 4666 3439 4514 
Q 3959 4363 4331 4000 
Q 4659 3684 4818 3271 
Q 4978 2859 4978 2338 
Q 4978 1809 4818 1395 
Q 4659 981 4331 666 
Q 3956 303 3431 151 
Q 2906 0 1856 0 
L 588 0 
L 588 4666 
z
" transform="scale(0.015625)"/>
       <path id="DejaVuSans-Bold-65" d="M 4031 1759 
L 4031 1441 
L 1416 1441 
Q 1456 1047 1700 850 
Q 1944 653 2381 653 
Q 2734 653 3104 758 
Q 3475 863 3866 1075 
L 3866 213 
Q 3469 63 3072 -14 
Q 2675 -91 2278 -91 
Q 1328 -91 801 392 
Q 275 875 275 1747 
Q 275 2603 792 3093 
Q 1309 3584 2216 3584 
Q 3041 3584 3536 3087 
Q 4031 2591 4031 1759 
z
M 2881 2131 
Q 2881 2450 2695 2645 
Q 2509 2841 2209 2841 
Q 1884 2841 1681 2658 
Q 1478 2475 1428 2131 
L 2881 2131 
z
" transform="scale(0.015625)"/>
       <path id="DejaVuSans-Bold-74" d="M 1759 4494 
L 1759 3500 
L 2913 3500 
L 2913 2700 
L 1759 2700 
L 1759 1216 
Q 1759 972 1856 886 
Q 1953 800 2241 800 
L 2816 800 
L 2816 0 
L 1856 0 
Q 1194 0 917 276 
Q 641 553 641 1216 
L 641 2700 
L 84 2700 
L 84 3500 
L 641 3500 
L 641 4494 
L 1759 4494 
z
" transform="scale(0.015625)"/>
       <path id="DejaVuSans-Bold-68" d="M 4056 2131 
L 4056 0 
L 2931 0 
L 2931 347 
L 2931 1625 
Q 2931 2084 2911 2256 
Q 2891 2428 2841 2509 
Q 2775 2619 2662 2680 
Q 2550 2741 2406 2741 
Q 2056 2741 1856 2470 
Q 1656 2200 1656 1722 
L 1656 0 
L 538 0 
L 538 4863 
L 1656 4863 
L 1656 2988 
Q 1909 3294 2193 3439 
Q 2478 3584 2822 3584 
Q 3428 3584 3742 3212 
Q 4056 2841 4056 2131 
z
" transform="scale(0.015625)"/>
       <path id="DejaVuSans-Bold-20" transform="scale(0.015625)"/>
       <path id="DejaVuSans-Bold-6d" d="M 3781 2919 
Q 3994 3244 4286 3414 
Q 4578 3584 4928 3584 
Q 5531 3584 5847 3212 
Q 6163 2841 6163 2131 
L 6163 0 
L 5038 0 
L 5038 1825 
Q 5041 1866 5042 1909 
Q 5044 1953 5044 2034 
Q 5044 2406 4934 2573 
Q 4825 2741 4581 2741 
Q 4263 2741 4089 2478 
Q 3916 2216 3909 1719 
L 3909 0 
L 2784 0 
L 2784 1825 
Q 2784 2406 2684 2573 
Q 2584 2741 2328 2741 
Q 2006 2741 1831 2477 
Q 1656 2213 1656 1722 
L 1656 0 
L 531 0 
L 531 3500 
L 1656 3500 
L 1656 2988 
Q 1863 3284 2130 3434 
Q 2397 3584 2719 3584 
Q 3081 3584 3359 3409 
Q 3638 3234 3781 2919 
z
" transform="scale(0.015625)"/>
      </defs>
      <use xlink:href="#DejaVuSans-Bold-44"/>
      <use xlink:href="#DejaVuSans-Bold-65" x="83.007812"/>
      <use xlink:href="#DejaVuSans-Bold-70" x="150.830078"/>
      <use xlink:href="#DejaVuSans-Bold-74" x="222.412109"/>
      <use xlink:href="#DejaVuSans-Bold-68" x="270.214844"/>
      <use xlink:href="#DejaVuSans-Bold-20" x="341.40625"/>
      <use xlink:href="#DejaVuSans-Bold-5b" x="376.220703"/>
      <use xlink:href="#DejaVuSans-Bold-6d" x="421.923828"/>
      <use xlink:href="#DejaVuSans-Bold-5d" x="526.123047"/>
     </g>
    </g>
   </g>
   <g id="line2d_44">
    <path d="M 659.95892 111.078375 
L 537.114375 112.896227 
L 470.323466 114.132479 
L 463.813466 115.172055 
L 471.676193 116.973049 
L 437.858011 118.768424 
L 472.268011 120.004676 
L 456.796193 121.830957 
L 467.618011 123.165548 
L 437.012557 123.334127 
L 440.140739 125.258747 
L 420.441648 126.494999 
L 429.741648 127.843637 
L 437.350739 129.335569 
L 424.66892 130.821881 
L 417.313466 132.676259 
L 426.867102 134.33396 
L 427.205284 135.825891 
L 420.103466 137.312203 
L 407.168011 138.857518 
L 411.395284 139.897094 
L 411.64892 141.698088 
L 403.532557 143.802526 
L 407.75983 145.038778 
L 401.841648 146.314365 
L 397.868011 148.129408 
L 393.387102 149.711249 
L 397.445284 151.009313 
L 393.387102 152.495625 
L 383.495284 154.310668 
L 382.058011 155.54692 
L 380.95892 156.842175 
L 377.323466 159.368062 
L 380.113466 160.491928 
L 373.096193 161.72818 
L 384.594375 163.332498 
L 377.323466 165.240259 
L 381.550739 168.218502 
L 381.804375 169.513757 
L 384.087102 169.589618 
L 374.195284 170.803393 
L 374.44892 172.854447 
L 373.096193 174.399762 
L 379.85983 175.695017 
L 369.122557 175.773688 
L 375.294375 176.622206 
L 381.212557 179.09471 
L 373.096193 179.173381 
L 374.787102 180.271959 
L 368.023466 181.817274 
L 368.023466 183.165912 
L 369.122557 185.287208 
L 369.376193 186.453219 
L 373.096193 187.998534 
L 367.431648 190.20131 
L 369.122557 191.159405 
L 365.14892 192.634479 
L 361.25983 194.488857 
L 370.813466 196.073507 
L 371.65892 197.340665 
L 373.603466 199.124801 
L 374.787102 200.670116 
L 387.130739 201.347245 
L 379.268011 203.510686 
L 369.968011 205.924187 
L 384.340739 206.542313 
L 380.113466 207.890952 
L 380.95892 210.251069 
L 383.495284 211.487321 
L 390.005284 212.473513 
L 406.322557 214.617286 
L 396.430739 215.814203 
L 403.194375 217.08979 
L 406.322557 220.562534 
L 408.605284 222.304526 
L 406.576193 223.540778 
L 415.876193 225.145095 
L 401.841648 226.69041 
L 410.296193 228.485785 
L 408.605284 230.0311 
L 418.15892 230.70542 
L 419.596193 231.326355 
L 419.84983 232.87167 
L 420.103466 233.470128 
L 415.36892 233.796049 
L 409.450739 234.667045 
L 411.987102 235.369461 
L 417.313466 235.650427 
L 398.45983 235.981968 
L 410.803466 236.319127 
L 391.104375 236.616952 
L 412.240739 236.937253 
L 420.94892 237.518854 
L 427.712557 238.122931 
L 405.223466 238.434804 
L 443.522557 239.359183 
L 434.476193 239.668246 
L 435.82892 240.609484 
L 434.814375 240.828637 
L 442.085284 242.39362 
L 450.878011 243.938935 
L 445.805284 245.23419 
L 448.84892 246.779505 
L 450.286193 248.265817 
L 449.018011 250.120195 
L 448.84892 251.415449 
L 459.586193 252.972003 
L 455.105284 255.065202 
L 455.35892 255.992391 
L 453.921648 257.287646 
L 462.714375 259.083021 
L 469.985284 262.541717 
L 470.830739 263.718966 
L 464.912557 265.632347 
L 469.985284 267.118659 
L 472.268011 268.413914 
L 466.34983 269.647356 
L 483.25892 271.791129 
L 466.34983 273.336444 
L 474.804375 274.286111 
L 452.230739 276.390549 
L 444.368011 277.916196 
L 456.204375 279.481179 
L 468.632557 280.776433 
L 462.376193 282.571808 
L 487.486193 284.097456 
L 428.558011 286.280564 
L 446.312557 287.207753 
L 455.105284 288.503008 
L 289.64983 291.902701 
L 288.550739 295.246201 
L 296.667102 296.459975 
L 301.232557 297.715895 
L 283.985284 299.320213 
L 287.705284 300.806525 
L 351.368011 304.265221 
L 423.231648 305.751533 
L 437.012557 307.046788 
L 439.295284 308.5331 
L 452.56892 310.137417 
L 445.467102 311.935602 
L 439.041648 313.823696 
L 416.214375 315.641548 
L 411.395284 316.318677 
L 425.768011 317.849944 
L 410.296193 319.100244 
L 382.058011 321.016435 
L 286.014375 324.663378 
L 282.886193 327.135882 
L 281.44892 328.911589 
L 293.285284 330.476572 
L 295.314375 331.462764 
L 274.431648 333.876265 
L 275.023466 335.480583 
L 278.65892 336.966895 
L 293.285284 339.748462 
L 247.123466 341.274109 
L 254.394375 342.837406 
L 235.287102 344.360243 
L 238.330739 347.214861 
L 215.503466 347.29297 
L 207.04892 350.607811 
L 217.532557 352.091313 
L 202.821648 353.613589 
L 207.04892 354.55876 
L 210.430739 356.6986 
L 206.795284 358.260211 
L 213.305284 360.718104 
L 202.314375 363.484499 
L 211.868011 364.42967 
L 192.253466 365.76707 
L 210.76892 367.514119 
L 210.430739 368.498063 
L 215.080739 370.598567 
L 212.967102 372.121405 
L 192.16892 375.205853 
L 194.95892 376.770836 
L 195.212557 378.677474 
L 193.521648 379.967109 
L 237.485284 384.229931 
L 222.85892 386.972162 
L 222.605284 389.164824 
L 229.622557 391.632832 
L 197.495284 394.100279 
L 221.75983 396.568287 
L 205.696193 400.269738 
L 193.268011 403.01197 
L 220.322557 409.197725 
L 227.847102 411.651685 
L 253.54892 413.841537 
L 230.468011 416.601188 
L 243.14983 418.776992 
L 204.005284 423.987232 
L 230.721648 427.699921 
L 239.514375 431.406991 
L 224.296193 433.582795 
L 241.45892 436.056423 
L 239.091648 442.228129 
L 258.368011 444.979352 
L 268.767102 447.155155 
L 297.850739 449.622602 
L 247.377102 450.856606 
L 254.986193 453.613448 
L 306.55892 455.808919 
L 327.94892 458.259508 
L 268.513466 461.977816 
L 266.230739 464.445825 
L 305.967102 466.896413 
L 346.54892 470.872649 
L 363.796193 473.127123 
L 299.795284 475.813724 
L 267.668011 478.017624 
L 266.230739 483.227864 
L 268.25983 485.404229 
L 254.140739 486.637671 
L 250.167102 489.374846 
L 255.831648 491.034795 
L 242.304375 492.807131 
L 246.278011 494.125425 
L 247.96892 495.274577 
L 286.014375 497.224484 
L 242.896193 500.315113 
L 290.495284 506.788578 
L 284.577102 509.587003 
L 240.867102 512.677633 
L 254.394375 515.801979 
L 283.478011 519.167956 
L 287.705284 521.949523 
L 315.267102 525.023295 
L 327.695284 528.422988 
L 309.940739 531.221412 
L 262.341648 537.41953 
L 243.14983 540.493302 
L 260.904375 543.583932 
L 285.422557 546.966767 
L 290.241648 553.148027 
L 309.940739 555.946452 
L 328.540739 559.053939 
L 330.231648 562.127711 
L 351.95983 568.311781 
L 341.222557 571.399601 
L 326.84983 574.490231 
L 263.440739 577.580861 
L 295.314375 583.762121 
L 282.632557 586.852751 
L 301.486193 589.957429 
L 354.74983 593.03401 
L 351.114375 599.21527 
L 332.514375 602.3059 
L 361.513466 605.39653 
L 335.304375 608.48716 
L 252.44983 614.66842 
L 253.54892 617.759049 
L 252.703466 620.849679 
L 258.114375 623.940309 
L 256.677102 630.121569 
L 268.513466 633.212199 
L 302.331648 636.302829 
L 260.05892 639.390649 
L 279.250739 645.574718 
L 268.513466 648.940695 
L 272.994375 651.755978 
L 275.86892 654.846608 
L 278.65892 661.027868 
L 282.040739 664.118498 
L 273.83983 667.209128 
L 292.778011 670.299758 
L 272.487102 676.497875 
L 258.368011 679.571647 
L 279.758011 682.662277 
L 271.641648 685.752907 
L 289.64983 691.934167 
L 296.15983 695.024797 
L 244.587102 698.115427 
L 266.56892 707.387316 
L 292.186193 710.477946 
L 273.83983 713.568576 
L 296.413466 716.659206 
L 328.540739 722.840466 
L 346.295284 725.931096 
L 345.703466 729.021726 
L 357.53983 732.112356 
L 396.430739 738.293615 
L 405.054375 741.384245 
L 414.185284 744.474875 
L 425.176193 747.565505 
L 303.430739 753.746765 
L 285.422557 756.837395 
L 273.83983 759.928025 
L 275.530739 763.018654 
L 288.804375 769.199914 
L 271.895284 772.290544 
L 298.696193 775.381174 
L 317.803466 778.471804 
L 317.803466 781.562434 
L 310.532557 784.653064 
L 284.830739 787.760552 
L 269.35892 790.834323 
L 282.632557 793.924953 
L 271.303466 800.106213 
L 262.84892 803.196843 
L 264.286193 806.287473 
L 261.496193 809.378103 
L 262.003466 815.559363 
L 266.822557 818.649993 
L 276.122557 821.740622 
L 303.76892 824.831252 
L 308.24983 831.012512 
L 319.832557 834.103142 
L 325.412557 837.193772 
L 335.896193 840.284402 
L 341.476193 846.465662 
L 355.595284 849.556291 
L 355.595284 852.646921 
L 351.621648 855.737551 
L 292.43983 861.918811 
L 314.421648 865.009441 
L 365.740739 868.100071 
L 384.594375 871.190701 
L 415.36892 877.371961 
L 396.430739 880.46259 
L 301.486193 883.55322 
L 282.040739 886.64385 
L 322.36892 892.82511 
L 323.214375 895.91574 
L 319.832557 899.00637 
L 312.730739 902.097 
L 277.813466 908.278259 
L 287.705284 911.368889 
L 291.087102 914.459519 
L 316.958011 923.731409 
L 316.704375 926.822039 
L 319.494375 929.912669 
L 352.805284 933.003299 
L 356.440739 939.184558 
L 382.396193 942.275188 
L 381.550739 945.365818 
L 392.541648 948.748653 
L 379.85983 954.637708 
L 392.541648 957.728338 
L 398.713466 960.818968 
L 411.395284 963.909598 
L 406.576193 970.090857 
L 399.55892 973.181487 
L 406.153466 976.555893 
L 413.086193 979.362747 
L 418.412557 985.544007 
L 427.45892 988.926842 
L 435.65983 991.725267 
L 439.887102 994.815896 
L 450.878011 1000.997156 
L 443.776193 1004.087786 
L 439.295284 1007.178416 
L 465.504375 1010.269046 
L 497.631648 1016.450306 
L 503.803466 1019.540936 
L 437.604375 1022.639995 
L 346.887102 1025.722195 
L 328.540739 1031.903455 
L 315.267102 1035.272242 
L 331.077102 1038.084715 
L 309.940739 1041.175345 
L 283.13983 1047.356605 
L 282.294375 1050.447235 
L 321.185284 1053.546293 
L 262.003466 1056.628494 
L 238.66892 1063.076672 
L 226.832557 1066.487604 
L 236.132557 1069.300077 
L 258.621648 1072.081644 
L 196.64983 1078.262904 
L 210.430739 1081.620452 
L 232.412557 1084.461021 
L 210.430739 1087.534793 
L 249.068011 1093.980161 
L 291.087102 1096.806683 
L 258.95983 1100.161421 
L 234.94892 1102.987943 
L 253.041648 1109.433311 
L 232.581648 1112.268261 
L 225.64892 1115.350462 
L 236.978011 1118.441092 
L 239.768011 1124.622352 
L 265.131648 1127.712982 
L 244.24892 1130.803612 
L 251.350739 1134.152731 
L 245.686193 1140.075501 
L 217.363466 1143.17456 
L 259.213466 1146.256761 
L 298.358011 1149.347391 
L 297.25892 1155.528651 
L 271.472557 1158.62771 
L 298.94983 1161.709911 
L 259.213466 1164.800541 
L 291.594375 1170.983486 
L 315.013466 1174.07243 
L 358.385284 1177.16306 
L 298.358011 1180.50656 
L 312.730739 1186.710297 
L 339.278011 1189.52558 
L 342.913466 1192.891557 
L 295.314375 1195.70684 
L 270.204375 1201.888099 
L 252.44983 1204.978729 
L 258.621648 1208.069359 
L 291.340739 1211.452194 
L 310.194375 1217.341249 
L 305.45983 1220.431879 
L 344.604375 1223.522509 
L 370.221648 1226.613139 
L 408.267102 1232.794398 
L 423.485284 1235.885028 
L 348.831648 1239.267863 
L 348.578011 1242.358493 
L 261.496193 1248.247548 
L 283.731648 1251.338178 
L 307.404375 1254.428808 
L 304.868011 1257.519437 
L 328.540739 1264.00976 
L 343.167102 1266.791327 
L 371.067102 1269.881957 
L 382.903466 1272.972587 
L 388.314375 1279.153847 
L 367.685284 1285.335106 
L 320.678011 1288.425736 
L 303.092557 1573.668398 
L 392.034375 1578.613406 
L 406.153466 1583.558414 
L 445.382557 1588.503422 
L 491.290739 1593.423143 
L 493.150739 1599.629689 
L 476.74892 1604.574697 
L 417.05983 1607.311309 
L 425.42983 1607.894596 
L 424.161648 1608.283453 
L 460.178011 1609.126352 
L 458.064375 1609.747288 
L 449.102557 1610.387891 
L 446.735284 1611.093117 
L 462.883466 1612.218668 
L 466.51892 1612.849156 
L 475.734375 1613.228461 
L 471.422557 1614.07417 
L 461.108011 1614.678247 
L 475.988011 1615.082839 
L 441.493466 1616.038124 
L 419.173466 1616.54555 
L 403.363466 1617.167609 
L 404.800739 1617.784611 
L 386.961648 1617.892502 
L 313.745284 1618.106037 
L 322.36892 1618.57806 
L 279.166193 1619.043341 
L 280.941648 1619.647418 
L 241.036193 1620.257115 
L 241.966193 1620.645973 
L 236.132557 1621.491681 
L 214.48892 1622.028327 
L 225.902557 1622.736362 
L 222.182557 1623.118477 
L 224.127102 1623.736603 
L 214.911648 1624.354729 
L 214.911648 1624.972854 
L 218.378011 1625.59098 
L 226.832557 1626.209106 
L 224.127102 1626.613698 
L 235.118011 1627.445358 
L 231.313466 1627.776899 
L 263.018011 1628.400644 
L 264.286193 1629.277259 
L 308.24983 1629.631277 
L 254.394375 1629.881337 
L 238.66892 1630.249403 
L 275.277102 1630.499463 
L 294.130739 1630.934961 
L 321.185284 1631.131637 
L 254.394375 1631.485655 
L 221.75983 1632.103781 
L 215.24983 1632.721907 
L 217.532557 1633.345652 
L 233.596193 1633.958158 
L 253.54892 1634.576284 
L 304.022557 1634.834774 
L 288.550739 1635.19441 
L 260.05892 1635.458519 
L 241.797102 1635.818156 
L 238.330739 1636.430662 
L 229.622557 1637.048788 
L 238.66892 1637.666914 
L 251.858011 1637.931023 
L 333.951648 1638.29066 
L 284.577102 1638.549149 
L 308.503466 1638.903166 
L 271.641648 1639.53815 
L 266.822557 1640.139418 
L 308.165284 1640.763164 
L 308.503466 1641.004795 
L 256.423466 1641.37567 
L 267.414375 1641.993796 
L 300.894375 1642.611922 
L 300.471648 1643.235668 
L 265.131648 1643.848174 
L 294.46892 1645.084426 
L 319.325284 1645.708171 
L 339.531648 1646.938804 
L 312.477102 1647.55693 
L 342.152557 1648.183485 
L 318.987102 1648.439164 
L 308.841648 1648.793182 
L 319.494375 1649.411308 
L 321.523466 1650.029434 
L 329.724375 1650.653179 
L 352.805284 1651.265686 
L 352.213466 1651.883812 
L 373.941648 1652.501938 
L 385.693466 1653.125683 
L 386.285284 1653.73257 
L 413.33983 1654.356316 
L 420.695284 1654.974442 
L 389.836193 1655.598187 
L 365.14892 1656.210694 
L 386.877102 1656.8232 
L 344.858011 1657.446946 
L 316.281648 1658.070691 
L 315.85892 1658.683198 
L 330.231648 1659.301324 
L 312.223466 1659.91945 
L 327.94892 1660.543195 
L 334.205284 1661.155702 
L 329.63983 1661.773828 
L 320.931648 1662.391954 
L 323.552557 1663.015699 
L 315.267102 1663.628205 
L 312.223466 1664.246331 
L 325.750739 1664.864457 
L 334.374375 1665.505061 
L 330.485284 1666.100709 
L 328.794375 1666.718835 
L 357.286193 1667.349886 
L 371.997102 1667.960707 
L 336.14983 1668.573213 
L 382.903466 1669.191339 
L 401.503466 1669.809465 
L 377.746193 1670.433211 
L 385.186193 1671.045717 
L 344.012557 1672.281969 
L 332.42983 1672.905714 
L 311.631648 1673.518221 
L 304.868011 1674.136347 
L 304.022557 1674.754473 
L 305.967102 1675.378218 
L 312.730739 1675.990725 
L 332.176193 1677.243835 
L 301.232557 1677.491085 
L 296.751648 1677.850722 
L 316.958011 1678.109211 
L 322.622557 1678.463229 
L 322.030739 1679.081355 
L 326.258011 1679.699481 
L 315.098011 1680.323226 
L 336.14983 1682.171985 
L 334.374375 1682.79573 
L 345.44983 1683.408237 
L 329.386193 1684.026363 
L 344.350739 1684.644489 
L 330.908011 1685.268234 
L 344.350739 1685.880741 
L 347.986193 1686.498867 
L 350.522557 1687.116993 
L 331.330739 1688.353245 
L 332.514375 1688.617353 
L 285.16892 1688.971371 
L 265.723466 1689.589497 
L 273.417102 1690.213242 
L 248.476193 1690.825749 
L 250.167102 1691.443875 
L 280.34983 1692.062 
L 273.07892 1692.685746 
L 307.658011 1693.31511 
L 313.06892 1693.916378 
L 288.212557 1694.180487 
L 271.895284 1694.534504 
L 244.24892 1694.798613 
L 230.975284 1695.15825 
L 223.704375 1695.770756 
L 238.077102 1696.388882 
L 235.287102 1697.007008 
L 253.718011 1697.630754 
L 238.66892 1698.861386 
L 222.85892 1699.479512 
L 259.636193 1700.128545 
L 278.912557 1700.715764 
L 292.186193 1701.33389 
L 296.667102 1701.952016 
L 308.080739 1702.575761 
L 267.668011 1702.834251 
L 257.776193 1703.188268 
L 291.594375 1703.806394 
L 316.450739 1704.42452 
L 332.260739 1705.048265 
L 364.303466 1705.660772 
L 381.550739 1706.278898 
L 379.521648 1706.897024 
L 312.223466 1708.133276 
L 267.414375 1708.751402 
L 267.414375 1709.369528 
L 309.34892 1710.600161 
L 316.958011 1711.223906 
L 329.132557 1711.842032 
L 324.905284 1712.10614 
L 285.676193 1712.724266 
L 302.078011 1713.370489 
L 304.022557 1713.69641 
L 313.322557 1714.314536 
L 311.293466 1714.938281 
L 343.167102 1715.550788 
L 340.123466 1716.168914 
L 361.513466 1716.78704 
L 357.70892 1717.410785 
L 382.64983 1718.023292 
L 384.594375 1718.641418 
L 391.358011 1719.265163 
L 380.536193 1719.883289 
L 423.231648 1720.495796 
L 415.622557 1721.130779 
L 422.386193 1721.732047 
L 417.313466 1722.355793 
L 403.194375 1722.968299 
L 413.086193 1723.586425 
L 411.395284 1724.204551 
L 390.681648 1724.828297 
L 391.94983 1725.440803 
L 391.104375 1726.058929 
L 390.005284 1726.677055 
L 383.326193 1727.300801 
L 397.868011 1727.913307 
L 395.331648 1728.531433 
L 409.112557 1729.166417 
L 403.617102 1729.773305 
L 412.240739 1730.385811 
L 410.54983 1731.003937 
L 411.64892 1731.622063 
L 399.051648 1732.245808 
L 416.890739 1732.863934 
L 404.631648 1733.476441 
L 400.404375 1734.094567 
L 383.918011 1734.718312 
L 391.358011 1735.330819 
L 386.877102 1735.948945 
L 397.614375 1736.567071 
L 382.565284 1737.190816 
L 402.095284 1737.803323 
L 401.841648 1738.421449 
L 415.876193 1739.039575 
L 407.75983 1739.66332 
L 333.35983 1739.921809 
L 320.086193 1740.275827 
L 302.585284 1740.893953 
L 305.967102 1741.512079 
L 300.97892 1742.135824 
L 290.74892 1743.984583 
L 274.600739 1744.608328 
L 288.804375 1745.220835 
L 299.203466 1745.838961 
L 255.23983 1746.148024 
L 301.486193 1747.080832 
L 348.578011 1748.311465 
L 284.577102 1748.575573 
L 272.14892 1748.929591 
L 286.268011 1749.553336 
L 353.05892 1750.165843 
L 344.858011 1750.789588 
L 351.621648 1751.402094 
L 337.756193 1752.02584 
L 318.395284 1752.638346 
L 343.505284 1753.256472 
L 347.732557 1753.874598 
L 381.71983 1754.498344 
L 380.705284 1754.756833 
L 394.232557 1755.728976 
L 417.05983 1756.347102 
L 400.996193 1756.970848 
L 417.567102 1757.583354 
L 414.777102 1758.20148 
L 409.704375 1758.819606 
L 403.617102 1759.443352 
L 402.34892 1760.055858 
L 408.267102 1760.673984 
L 422.978011 1760.938093 
L 451.723466 1761.306158 
L 376.478011 1761.915855 
L 377.323466 1762.174344 
L 297.512557 1762.528362 
L 293.877102 1762.79247 
L 219.730739 1763.146488 
L 193.85983 1763.764614 
L 211.360739 1764.388359 
L 198.087102 1765.000866 
L 208.73983 1765.607753 
L 208.486193 1766.237118 
L 205.442557 1766.860863 
L 219.730739 1767.119352 
L 255.578011 1767.47337 
L 255.578011 1768.091496 
L 253.041648 1768.765815 
L 243.488011 1769.333367 
L 238.922557 1769.945874 
L 228.523466 1770.564 
L 243.14983 1771.182126 
L 229.876193 1771.434995 
L 183.545284 1771.805871 
L 196.903466 1772.418378 
L 232.750739 1773.036504 
L 218.03983 1773.65463 
L 242.811648 1774.278375 
L 242.811648 1774.278375 
" clip-path="url(#p941dd16c04)" style="fill: none; stroke: #000000; stroke-linecap: square"/>
   </g>
   <g id="patch_3">
    <path d="M 121.404375 1774.278375 
L 121.404375 111.078375 
" style="fill: none; stroke: #000000; stroke-width: 0.8; stroke-linejoin: miter; stroke-linecap: square"/>
   </g>
   <g id="patch_4">
    <path d="M 679.404375 1774.278375 
L 679.404375 111.078375 
" style="fill: none; stroke: #000000; stroke-width: 0.8; stroke-linejoin: miter; stroke-linecap: square"/>
   </g>
   <g id="patch_5">
    <path d="M 121.404375 1774.278375 
L 679.404375 1774.278375 
" style="fill: none; stroke: #000000; stroke-width: 0.8; stroke-linejoin: miter; stroke-linecap: square"/>
   </g>
   <g id="patch_6">
    <path d="M 121.404375 111.078375 
L 679.404375 111.078375 
" style="fill: none; stroke: #000000; stroke-width: 0.8; stroke-linejoin: miter; stroke-linecap: square"/>
   </g>
   <g id="text_16">
    <!-- EPICA – CH₄ -->
    <g transform="translate(302.890313 29.995312) scale(0.3 -0.3)">
     <defs>
      <path id="DejaVuSans-Bold-45" d="M 588 4666 
L 3834 4666 
L 3834 3756 
L 1791 3756 
L 1791 2888 
L 3713 2888 
L 3713 1978 
L 1791 1978 
L 1791 909 
L 3903 909 
L 3903 0 
L 588 0 
L 588 4666 
z
" transform="scale(0.015625)"/>
      <path id="DejaVuSans-Bold-50" d="M 588 4666 
L 2584 4666 
Q 3475 4666 3951 4270 
Q 4428 3875 4428 3144 
Q 4428 2409 3951 2014 
Q 3475 1619 2584 1619 
L 1791 1619 
L 1791 0 
L 588 0 
L 588 4666 
z
M 1791 3794 
L 1791 2491 
L 2456 2491 
Q 2806 2491 2997 2661 
Q 3188 2831 3188 3144 
Q 3188 3456 2997 3625 
Q 2806 3794 2456 3794 
L 1791 3794 
z
" transform="scale(0.015625)"/>
      <path id="DejaVuSans-Bold-49" d="M 588 4666 
L 1791 4666 
L 1791 0 
L 588 0 
L 588 4666 
z
" transform="scale(0.015625)"/>
      <path id="DejaVuSans-Bold-41" d="M 3419 850 
L 1538 850 
L 1241 0 
L 31 0 
L 1759 4666 
L 3194 4666 
L 4922 0 
L 3713 0 
L 3419 850 
z
M 1838 1716 
L 3116 1716 
L 2478 3572 
L 1838 1716 
z
" transform="scale(0.015625)"/>
      <path id="DejaVuSans-Bold-2013" d="M 344 2156 
L 2856 2156 
L 2856 1350 
L 344 1350 
L 344 2156 
z
" transform="scale(0.015625)"/>
      <path id="DejaVuSans-Bold-2084" d="M 1397 1976 
L 650 966 
L 1397 966 
L 1397 1976 
z
M 1341 2585 
L 2116 2585 
L 2116 966 
L 2544 966 
L 2544 482 
L 2116 482 
L 2116 -24 
L 1397 -24 
L 1397 482 
L 175 482 
L 175 1007 
L 1341 2585 
z
" transform="scale(0.015625)"/>
     </defs>
     <use xlink:href="#DejaVuSans-Bold-45"/>
     <use xlink:href="#DejaVuSans-Bold-50" x="68.310547"/>
     <use xlink:href="#DejaVuSans-Bold-49" x="141.601562"/>
     <use xlink:href="#DejaVuSans-Bold-43" x="178.808594"/>
     <use xlink:href="#DejaVuSans-Bold-41" x="252.197266"/>
     <use xlink:href="#DejaVuSans-Bold-20" x="329.589844"/>
     <use xlink:href="#DejaVuSans-Bold-2013" x="364.404297"/>
     <use xlink:href="#DejaVuSans-Bold-20" x="414.404297"/>
     <use xlink:href="#DejaVuSans-Bold-43" x="449.21875"/>
     <use xlink:href="#DejaVuSans-Bold-48" x="522.607422"/>
     <use xlink:href="#DejaVuSans-Bold-2084" x="606.298828"/>
    </g>
   </g>
  </g>
 </g>
 <defs>
  <clipPath id="p941dd16c04">
   <rect x="121.404375" y="111.078375" width="558" height="1663.2"/>
  </clipPath>
 </defs>
</svg>
