<?xml version="1.0" encoding="utf-8" standalone="no"?>
<!DOCTYPE svg PUBLIC "-//W3C//DTD SVG 1.1//EN"
  "http://www.w3.org/Graphics/SVG/1.1/DTD/svg11.dtd">
<svg xmlns:xlink="http://www.w3.org/1999/xlink" width="682.149176pt" height="1781.478375pt" viewBox="0 0 682.149176 1781.478375" xmlns="http://www.w3.org/2000/svg" version="1.1">
 <metadata>
  <rdf:RDF xmlns:dc="http://purl.org/dc/elements/1.1/" xmlns:cc="http://creativecommons.org/ns#" xmlns:rdf="http://www.w3.org/1999/02/22-rdf-syntax-ns#">
   <cc:Work>
    <dc:type rdf:resource="http://purl.org/dc/dcmitype/StillImage"/>
    <dc:date>2026-02-24T17:27:10.921932</dc:date>
    <dc:format>image/svg+xml</dc:format>
    <dc:creator>
     <cc:Agent>
      <dc:title>Matplotlib v3.9.2, https://matplotlib.org/</dc:title>
     </cc:Agent>
    </dc:creator>
   </cc:Work>
  </rdf:RDF>
 </metadata>
 <defs>
  <style type="text/css">*{stroke-linejoin: round; stroke-linecap: butt}</style>
 </defs>
 <g id="figure_1">
  <g id="patch_1">
   <path d="M 0 1781.478375 
L 682.149176 1781.478375 
L 682.149176 0 
L 0 0 
z
" style="fill: #ffffff"/>
  </g>
  <g id="axes_1">
   <g id="patch_2">
    <path d="M 105.09625 1774.278375 
L 663.09625 1774.278375 
L 663.09625 111.078375 
L 105.09625 111.078375 
z
" style="fill: #ffffff"/>
   </g>
   <g id="patch_3">
    <path d="M 105.09625 111.078375 
L 663.09625 111.078375 
L 663.09625 146.974095 
L 105.09625 146.974095 
z
" clip-path="url(#p45cfb438f4)" style="fill: #fddbc7"/>
   </g>
   <g id="patch_4">
    <path d="M 105.09625 146.974095 
L 663.09625 146.974095 
L 663.09625 185.433796 
L 105.09625 185.433796 
z
" clip-path="url(#p45cfb438f4)" style="fill: #d6e8f7"/>
   </g>
   <g id="patch_5">
    <path d="M 105.09625 185.433796 
L 663.09625 185.433796 
L 663.09625 257.225237 
L 105.09625 257.225237 
z
" clip-path="url(#p45cfb438f4)" style="fill: #fef0e6"/>
   </g>
   <g id="patch_6">
    <path d="M 105.09625 257.225237 
L 663.09625 257.225237 
L 663.09625 293.120957 
L 105.09625 293.120957 
z
" clip-path="url(#p45cfb438f4)" style="fill: #d6e8f7"/>
   </g>
   <g id="patch_7">
    <path d="M 105.09625 293.120957 
L 663.09625 293.120957 
L 663.09625 444.395779 
L 105.09625 444.395779 
z
" clip-path="url(#p45cfb438f4)" style="fill: #fddbc7"/>
   </g>
   <g id="patch_8">
    <path d="M 105.09625 444.395779 
L 663.09625 444.395779 
L 663.09625 600.79856 
L 105.09625 600.79856 
z
" clip-path="url(#p45cfb438f4)" style="fill: #d6e8f7"/>
   </g>
   <g id="patch_9">
    <path d="M 105.09625 600.79856 
L 663.09625 600.79856 
L 663.09625 734.125522 
L 105.09625 734.125522 
z
" clip-path="url(#p45cfb438f4)" style="fill: #fddbc7"/>
   </g>
   <g id="patch_10">
    <path d="M 105.09625 734.125522 
L 663.09625 734.125522 
L 663.09625 880.272383 
L 105.09625 880.272383 
z
" clip-path="url(#p45cfb438f4)" style="fill: #d6e8f7"/>
   </g>
   <g id="patch_11">
    <path d="M 105.09625 880.272383 
L 663.09625 880.272383 
L 663.09625 975.139644 
L 105.09625 975.139644 
z
" clip-path="url(#p45cfb438f4)" style="fill: #fddbc7"/>
   </g>
   <g id="patch_12">
    <path d="M 105.09625 975.139644 
L 663.09625 975.139644 
L 663.09625 1070.006905 
L 105.09625 1070.006905 
z
" clip-path="url(#p45cfb438f4)" style="fill: #d6e8f7"/>
   </g>
   <g id="patch_13">
    <path d="M 105.09625 1070.006905 
L 663.09625 1070.006905 
L 663.09625 1198.205906 
L 105.09625 1198.205906 
z
" clip-path="url(#p45cfb438f4)" style="fill: #fddbc7"/>
   </g>
   <g id="patch_14">
    <path d="M 105.09625 1198.205906 
L 663.09625 1198.205906 
L 663.09625 1462.295849 
L 105.09625 1462.295849 
z
" clip-path="url(#p45cfb438f4)" style="fill: #d6e8f7"/>
   </g>
   <g id="patch_15">
    <path d="M 105.09625 1462.295849 
L 663.09625 1462.295849 
L 663.09625 1508.44749 
L 105.09625 1508.44749 
z
" clip-path="url(#p45cfb438f4)" style="fill: #fddbc7"/>
   </g>
   <g id="patch_16">
    <path d="M 105.09625 1508.44749 
L 663.09625 1508.44749 
L 663.09625 1703.309972 
L 105.09625 1703.309972 
z
" clip-path="url(#p45cfb438f4)" style="fill: #fddbc7"/>
   </g>
   <g id="patch_17">
    <path d="M 105.09625 1703.309972 
L 663.09625 1703.309972 
L 663.09625 1844.328873 
L 105.09625 1844.328873 
z
" clip-path="url(#p45cfb438f4)" style="fill: #d6e8f7"/>
   </g>
   <g id="matplotlib.axis_1">
    <g id="xtick_1">
     <g id="line2d_1">
      <defs>
       <path id="m9f0e025c50" d="M 0 0 
L 0 -3.5 
" style="stroke: #000000; stroke-width: 0.8"/>
      </defs>
      <g>
       <use xlink:href="#m9f0e025c50" x="130.459886" y="111.078375" style="stroke: #000000; stroke-width: 0.8"/>
      </g>
     </g>
     <g id="text_1">
      <!-- 300.0 -->
      <g transform="translate(93.243324 98.671187) scale(0.26 -0.26)">
       <defs>
        <path id="DejaVuSans-33" d="M 2597 2516 
Q 3050 2419 3304 2112 
Q 3559 1806 3559 1356 
Q 3559 666 3084 287 
Q 2609 -91 1734 -91 
Q 1441 -91 1130 -33 
Q 819 25 488 141 
L 488 750 
Q 750 597 1062 519 
Q 1375 441 1716 441 
Q 2309 441 2620 675 
Q 2931 909 2931 1356 
Q 2931 1769 2642 2001 
Q 2353 2234 1838 2234 
L 1294 2234 
L 1294 2753 
L 1863 2753 
Q 2328 2753 2575 2939 
Q 2822 3125 2822 3475 
Q 2822 3834 2567 4026 
Q 2313 4219 1838 4219 
Q 1578 4219 1281 4162 
Q 984 4106 628 3988 
L 628 4550 
Q 988 4650 1302 4700 
Q 1616 4750 1894 4750 
Q 2613 4750 3031 4423 
Q 3450 4097 3450 3541 
Q 3450 3153 3228 2886 
Q 3006 2619 2597 2516 
z
" transform="scale(0.015625)"/>
        <path id="DejaVuSans-30" d="M 2034 4250 
Q 1547 4250 1301 3770 
Q 1056 3291 1056 2328 
Q 1056 1369 1301 889 
Q 1547 409 2034 409 
Q 2525 409 2770 889 
Q 3016 1369 3016 2328 
Q 3016 3291 2770 3770 
Q 2525 4250 2034 4250 
z
M 2034 4750 
Q 2819 4750 3233 4129 
Q 3647 3509 3647 2328 
Q 3647 1150 3233 529 
Q 2819 -91 2034 -91 
Q 1250 -91 836 529 
Q 422 1150 422 2328 
Q 422 3509 836 4129 
Q 1250 4750 2034 4750 
z
" transform="scale(0.015625)"/>
        <path id="DejaVuSans-2e" d="M 684 794 
L 1344 794 
L 1344 0 
L 684 0 
L 684 794 
z
" transform="scale(0.015625)"/>
       </defs>
       <use xlink:href="#DejaVuSans-33"/>
       <use xlink:href="#DejaVuSans-30" x="63.623047"/>
       <use xlink:href="#DejaVuSans-30" x="127.246094"/>
       <use xlink:href="#DejaVuSans-2e" x="190.869141"/>
       <use xlink:href="#DejaVuSans-30" x="222.65625"/>
      </g>
     </g>
    </g>
    <g id="xtick_2">
     <g id="line2d_2">
      <g>
       <use xlink:href="#m9f0e025c50" x="215.005341" y="111.078375" style="stroke: #000000; stroke-width: 0.8"/>
      </g>
     </g>
     <g id="text_2">
      <!-- 400.0 -->
      <g transform="translate(177.788778 98.671187) scale(0.26 -0.26)">
       <defs>
        <path id="DejaVuSans-34" d="M 2419 4116 
L 825 1625 
L 2419 1625 
L 2419 4116 
z
M 2253 4666 
L 3047 4666 
L 3047 1625 
L 3713 1625 
L 3713 1100 
L 3047 1100 
L 3047 0 
L 2419 0 
L 2419 1100 
L 313 1100 
L 313 1709 
L 2253 4666 
z
" transform="scale(0.015625)"/>
       </defs>
       <use xlink:href="#DejaVuSans-34"/>
       <use xlink:href="#DejaVuSans-30" x="63.623047"/>
       <use xlink:href="#DejaVuSans-30" x="127.246094"/>
       <use xlink:href="#DejaVuSans-2e" x="190.869141"/>
       <use xlink:href="#DejaVuSans-30" x="222.65625"/>
      </g>
     </g>
    </g>
    <g id="xtick_3">
     <g id="line2d_3">
      <g>
       <use xlink:href="#m9f0e025c50" x="299.550795" y="111.078375" style="stroke: #000000; stroke-width: 0.8"/>
      </g>
     </g>
     <g id="text_3">
      <!-- 500.0 -->
      <g transform="translate(262.334233 98.671187) scale(0.26 -0.26)">
       <defs>
        <path id="DejaVuSans-35" d="M 691 4666 
L 3169 4666 
L 3169 4134 
L 1269 4134 
L 1269 2991 
Q 1406 3038 1543 3061 
Q 1681 3084 1819 3084 
Q 2600 3084 3056 2656 
Q 3513 2228 3513 1497 
Q 3513 744 3044 326 
Q 2575 -91 1722 -91 
Q 1428 -91 1123 -41 
Q 819 9 494 109 
L 494 744 
Q 775 591 1075 516 
Q 1375 441 1709 441 
Q 2250 441 2565 725 
Q 2881 1009 2881 1497 
Q 2881 1984 2565 2268 
Q 2250 2553 1709 2553 
Q 1456 2553 1204 2497 
Q 953 2441 691 2322 
L 691 4666 
z
" transform="scale(0.015625)"/>
       </defs>
       <use xlink:href="#DejaVuSans-35"/>
       <use xlink:href="#DejaVuSans-30" x="63.623047"/>
       <use xlink:href="#DejaVuSans-30" x="127.246094"/>
       <use xlink:href="#DejaVuSans-2e" x="190.869141"/>
       <use xlink:href="#DejaVuSans-30" x="222.65625"/>
      </g>
     </g>
    </g>
    <g id="xtick_4">
     <g id="line2d_4">
      <g>
       <use xlink:href="#m9f0e025c50" x="384.09625" y="111.078375" style="stroke: #000000; stroke-width: 0.8"/>
      </g>
     </g>
     <g id="text_4">
      <!-- 600.0 -->
      <g transform="translate(346.879687 98.671187) scale(0.26 -0.26)">
       <defs>
        <path id="DejaVuSans-36" d="M 2113 2584 
Q 1688 2584 1439 2293 
Q 1191 2003 1191 1497 
Q 1191 994 1439 701 
Q 1688 409 2113 409 
Q 2538 409 2786 701 
Q 3034 994 3034 1497 
Q 3034 2003 2786 2293 
Q 2538 2584 2113 2584 
z
M 3366 4563 
L 3366 3988 
Q 3128 4100 2886 4159 
Q 2644 4219 2406 4219 
Q 1781 4219 1451 3797 
Q 1122 3375 1075 2522 
Q 1259 2794 1537 2939 
Q 1816 3084 2150 3084 
Q 2853 3084 3261 2657 
Q 3669 2231 3669 1497 
Q 3669 778 3244 343 
Q 2819 -91 2113 -91 
Q 1303 -91 875 529 
Q 447 1150 447 2328 
Q 447 3434 972 4092 
Q 1497 4750 2381 4750 
Q 2619 4750 2861 4703 
Q 3103 4656 3366 4563 
z
" transform="scale(0.015625)"/>
       </defs>
       <use xlink:href="#DejaVuSans-36"/>
       <use xlink:href="#DejaVuSans-30" x="63.623047"/>
       <use xlink:href="#DejaVuSans-30" x="127.246094"/>
       <use xlink:href="#DejaVuSans-2e" x="190.869141"/>
       <use xlink:href="#DejaVuSans-30" x="222.65625"/>
      </g>
     </g>
    </g>
    <g id="xtick_5">
     <g id="line2d_5">
      <g>
       <use xlink:href="#m9f0e025c50" x="468.641705" y="111.078375" style="stroke: #000000; stroke-width: 0.8"/>
      </g>
     </g>
     <g id="text_5">
      <!-- 700.0 -->
      <g transform="translate(431.425142 98.671187) scale(0.26 -0.26)">
       <defs>
        <path id="DejaVuSans-37" d="M 525 4666 
L 3525 4666 
L 3525 4397 
L 1831 0 
L 1172 0 
L 2766 4134 
L 525 4134 
L 525 4666 
z
" transform="scale(0.015625)"/>
       </defs>
       <use xlink:href="#DejaVuSans-37"/>
       <use xlink:href="#DejaVuSans-30" x="63.623047"/>
       <use xlink:href="#DejaVuSans-30" x="127.246094"/>
       <use xlink:href="#DejaVuSans-2e" x="190.869141"/>
       <use xlink:href="#DejaVuSans-30" x="222.65625"/>
      </g>
     </g>
    </g>
    <g id="xtick_6">
     <g id="line2d_6">
      <g>
       <use xlink:href="#m9f0e025c50" x="553.187159" y="111.078375" style="stroke: #000000; stroke-width: 0.8"/>
      </g>
     </g>
     <g id="text_6">
      <!-- 800.0 -->
      <g transform="translate(515.970597 98.671187) scale(0.26 -0.26)">
       <defs>
        <path id="DejaVuSans-38" d="M 2034 2216 
Q 1584 2216 1326 1975 
Q 1069 1734 1069 1313 
Q 1069 891 1326 650 
Q 1584 409 2034 409 
Q 2484 409 2743 651 
Q 3003 894 3003 1313 
Q 3003 1734 2745 1975 
Q 2488 2216 2034 2216 
z
M 1403 2484 
Q 997 2584 770 2862 
Q 544 3141 544 3541 
Q 544 4100 942 4425 
Q 1341 4750 2034 4750 
Q 2731 4750 3128 4425 
Q 3525 4100 3525 3541 
Q 3525 3141 3298 2862 
Q 3072 2584 2669 2484 
Q 3125 2378 3379 2068 
Q 3634 1759 3634 1313 
Q 3634 634 3220 271 
Q 2806 -91 2034 -91 
Q 1263 -91 848 271 
Q 434 634 434 1313 
Q 434 1759 690 2068 
Q 947 2378 1403 2484 
z
M 1172 3481 
Q 1172 3119 1398 2916 
Q 1625 2713 2034 2713 
Q 2441 2713 2670 2916 
Q 2900 3119 2900 3481 
Q 2900 3844 2670 4047 
Q 2441 4250 2034 4250 
Q 1625 4250 1398 4047 
Q 1172 3844 1172 3481 
z
" transform="scale(0.015625)"/>
       </defs>
       <use xlink:href="#DejaVuSans-38"/>
       <use xlink:href="#DejaVuSans-30" x="63.623047"/>
       <use xlink:href="#DejaVuSans-30" x="127.246094"/>
       <use xlink:href="#DejaVuSans-2e" x="190.869141"/>
       <use xlink:href="#DejaVuSans-30" x="222.65625"/>
      </g>
     </g>
    </g>
    <g id="xtick_7">
     <g id="line2d_7">
      <g>
       <use xlink:href="#m9f0e025c50" x="637.732614" y="111.078375" style="stroke: #000000; stroke-width: 0.8"/>
      </g>
     </g>
     <g id="text_7">
      <!-- 900.0 -->
      <g transform="translate(600.516051 98.671187) scale(0.26 -0.26)">
       <defs>
        <path id="DejaVuSans-39" d="M 703 97 
L 703 672 
Q 941 559 1184 500 
Q 1428 441 1663 441 
Q 2288 441 2617 861 
Q 2947 1281 2994 2138 
Q 2813 1869 2534 1725 
Q 2256 1581 1919 1581 
Q 1219 1581 811 2004 
Q 403 2428 403 3163 
Q 403 3881 828 4315 
Q 1253 4750 1959 4750 
Q 2769 4750 3195 4129 
Q 3622 3509 3622 2328 
Q 3622 1225 3098 567 
Q 2575 -91 1691 -91 
Q 1453 -91 1209 -44 
Q 966 3 703 97 
z
M 1959 2075 
Q 2384 2075 2632 2365 
Q 2881 2656 2881 3163 
Q 2881 3666 2632 3958 
Q 2384 4250 1959 4250 
Q 1534 4250 1286 3958 
Q 1038 3666 1038 3163 
Q 1038 2656 1286 2365 
Q 1534 2075 1959 2075 
z
" transform="scale(0.015625)"/>
       </defs>
       <use xlink:href="#DejaVuSans-39"/>
       <use xlink:href="#DejaVuSans-30" x="63.623047"/>
       <use xlink:href="#DejaVuSans-30" x="127.246094"/>
       <use xlink:href="#DejaVuSans-2e" x="190.869141"/>
       <use xlink:href="#DejaVuSans-30" x="222.65625"/>
      </g>
     </g>
    </g>
    <g id="text_8">
     <!-- $\mathbf{CH}_{\mathbf{4}}\ \mathbf{[ppbv]}$ -->
     <g transform="translate(291.99625 66.91525) scale(0.3 -0.3)">
      <defs>
       <path id="DejaVuSans-Bold-43" d="M 4288 256 
Q 3956 84 3597 -3 
Q 3238 -91 2847 -91 
Q 1681 -91 1000 561 
Q 319 1213 319 2328 
Q 319 3447 1000 4098 
Q 1681 4750 2847 4750 
Q 3238 4750 3597 4662 
Q 3956 4575 4288 4403 
L 4288 3438 
Q 3953 3666 3628 3772 
Q 3303 3878 2944 3878 
Q 2300 3878 1931 3465 
Q 1563 3053 1563 2328 
Q 1563 1606 1931 1193 
Q 2300 781 2944 781 
Q 3303 781 3628 887 
Q 3953 994 4288 1222 
L 4288 256 
z
" transform="scale(0.015625)"/>
       <path id="DejaVuSans-Bold-48" d="M 588 4666 
L 1791 4666 
L 1791 2888 
L 3566 2888 
L 3566 4666 
L 4769 4666 
L 4769 0 
L 3566 0 
L 3566 1978 
L 1791 1978 
L 1791 0 
L 588 0 
L 588 4666 
z
" transform="scale(0.015625)"/>
       <path id="DejaVuSans-Bold-34" d="M 2356 3675 
L 1038 1722 
L 2356 1722 
L 2356 3675 
z
M 2156 4666 
L 3494 4666 
L 3494 1722 
L 4159 1722 
L 4159 850 
L 3494 850 
L 3494 0 
L 2356 0 
L 2356 850 
L 288 850 
L 288 1881 
L 2156 4666 
z
" transform="scale(0.015625)"/>
       <path id="DejaVuSans-Bold-5b" d="M 550 4863 
L 2491 4863 
L 2491 4159 
L 1613 4159 
L 1613 -141 
L 2491 -141 
L 2491 -844 
L 550 -844 
L 550 4863 
z
" transform="scale(0.015625)"/>
       <path id="DejaVuSans-Bold-70" d="M 1656 506 
L 1656 -1331 
L 538 -1331 
L 538 3500 
L 1656 3500 
L 1656 2988 
Q 1888 3294 2169 3439 
Q 2450 3584 2816 3584 
Q 3463 3584 3878 3070 
Q 4294 2556 4294 1747 
Q 4294 938 3878 423 
Q 3463 -91 2816 -91 
Q 2450 -91 2169 54 
Q 1888 200 1656 506 
z
M 2400 2772 
Q 2041 2772 1848 2508 
Q 1656 2244 1656 1747 
Q 1656 1250 1848 986 
Q 2041 722 2400 722 
Q 2759 722 2948 984 
Q 3138 1247 3138 1747 
Q 3138 2247 2948 2509 
Q 2759 2772 2400 2772 
z
" transform="scale(0.015625)"/>
       <path id="DejaVuSans-Bold-62" d="M 2400 722 
Q 2759 722 2948 984 
Q 3138 1247 3138 1747 
Q 3138 2247 2948 2509 
Q 2759 2772 2400 2772 
Q 2041 2772 1848 2508 
Q 1656 2244 1656 1747 
Q 1656 1250 1848 986 
Q 2041 722 2400 722 
z
M 1656 2988 
Q 1888 3294 2169 3439 
Q 2450 3584 2816 3584 
Q 3463 3584 3878 3070 
Q 4294 2556 4294 1747 
Q 4294 938 3878 423 
Q 3463 -91 2816 -91 
Q 2450 -91 2169 54 
Q 1888 200 1656 506 
L 1656 0 
L 538 0 
L 538 4863 
L 1656 4863 
L 1656 2988 
z
" transform="scale(0.015625)"/>
       <path id="DejaVuSans-Bold-76" d="M 97 3500 
L 1216 3500 
L 2088 1081 
L 2956 3500 
L 4078 3500 
L 2700 0 
L 1472 0 
L 97 3500 
z
" transform="scale(0.015625)"/>
       <path id="DejaVuSans-Bold-5d" d="M 2375 -844 
L 434 -844 
L 434 -141 
L 1313 -141 
L 1313 4159 
L 434 4159 
L 434 4863 
L 2375 4863 
L 2375 -844 
z
" transform="scale(0.015625)"/>
      </defs>
      <use xlink:href="#DejaVuSans-Bold-43" transform="translate(0 0.015625)"/>
      <use xlink:href="#DejaVuSans-Bold-48" transform="translate(73.388672 0.015625)"/>
      <use xlink:href="#DejaVuSans-Bold-34" transform="translate(158.037109 -16.390625) scale(0.7)"/>
      <use xlink:href="#DejaVuSans-Bold-5b" transform="translate(241.947917 0.015625)"/>
      <use xlink:href="#DejaVuSans-Bold-70" transform="translate(287.651042 0.015625)"/>
      <use xlink:href="#DejaVuSans-Bold-70" transform="translate(359.233074 0.015625)"/>
      <use xlink:href="#DejaVuSans-Bold-62" transform="translate(430.815105 0.015625)"/>
      <use xlink:href="#DejaVuSans-Bold-76" transform="translate(502.397136 0.015625)"/>
      <use xlink:href="#DejaVuSans-Bold-5d" transform="translate(567.582683 0.015625)"/>
     </g>
    </g>
   </g>
   <g id="matplotlib.axis_2">
    <g id="ytick_1">
     <g id="line2d_8">
      <path d="M 105.09625 111.078375 
L 663.09625 111.078375 
" clip-path="url(#p45cfb438f4)" style="fill: none; stroke: #cccccc; stroke-linecap: square"/>
     </g>
     <g id="line2d_9">
      <defs>
       <path id="m264b2dc009" d="M 0 0 
L -3.5 0 
" style="stroke: #000000; stroke-width: 0.8"/>
      </defs>
      <g>
       <use xlink:href="#m264b2dc009" x="105.09625" y="111.078375" style="stroke: #000000; stroke-width: 0.8"/>
      </g>
     </g>
     <g id="text_9">
      <!-- 0 -->
      <g transform="translate(81.55375 120.956344) scale(0.26 -0.26)">
       <use xlink:href="#DejaVuSans-30"/>
      </g>
     </g>
    </g>
    <g id="ytick_2">
     <g id="line2d_10">
      <path d="M 105.09625 367.476378 
L 663.09625 367.476378 
" clip-path="url(#p45cfb438f4)" style="fill: none; stroke: #cccccc; stroke-linecap: square"/>
     </g>
     <g id="line2d_11">
      <g>
       <use xlink:href="#m264b2dc009" x="105.09625" y="367.476378" style="stroke: #000000; stroke-width: 0.8"/>
      </g>
     </g>
     <g id="text_10">
      <!-- 100 -->
      <g transform="translate(48.46875 377.354346) scale(0.26 -0.26)">
       <defs>
        <path id="DejaVuSans-31" d="M 794 531 
L 1825 531 
L 1825 4091 
L 703 3866 
L 703 4441 
L 1819 4666 
L 2450 4666 
L 2450 531 
L 3481 531 
L 3481 0 
L 794 0 
L 794 531 
z
" transform="scale(0.015625)"/>
       </defs>
       <use xlink:href="#DejaVuSans-31"/>
       <use xlink:href="#DejaVuSans-30" x="63.623047"/>
       <use xlink:href="#DejaVuSans-30" x="127.246094"/>
      </g>
     </g>
    </g>
    <g id="ytick_3">
     <g id="line2d_12">
      <path d="M 105.09625 623.87438 
L 663.09625 623.87438 
" clip-path="url(#p45cfb438f4)" style="fill: none; stroke: #cccccc; stroke-linecap: square"/>
     </g>
     <g id="line2d_13">
      <g>
       <use xlink:href="#m264b2dc009" x="105.09625" y="623.87438" style="stroke: #000000; stroke-width: 0.8"/>
      </g>
     </g>
     <g id="text_11">
      <!-- 200 -->
      <g transform="translate(48.46875 633.752349) scale(0.26 -0.26)">
       <defs>
        <path id="DejaVuSans-32" d="M 1228 531 
L 3431 531 
L 3431 0 
L 469 0 
L 469 531 
Q 828 903 1448 1529 
Q 2069 2156 2228 2338 
Q 2531 2678 2651 2914 
Q 2772 3150 2772 3378 
Q 2772 3750 2511 3984 
Q 2250 4219 1831 4219 
Q 1534 4219 1204 4116 
Q 875 4013 500 3803 
L 500 4441 
Q 881 4594 1212 4672 
Q 1544 4750 1819 4750 
Q 2544 4750 2975 4387 
Q 3406 4025 3406 3419 
Q 3406 3131 3298 2873 
Q 3191 2616 2906 2266 
Q 2828 2175 2409 1742 
Q 1991 1309 1228 531 
z
" transform="scale(0.015625)"/>
       </defs>
       <use xlink:href="#DejaVuSans-32"/>
       <use xlink:href="#DejaVuSans-30" x="63.623047"/>
       <use xlink:href="#DejaVuSans-30" x="127.246094"/>
      </g>
     </g>
    </g>
    <g id="ytick_4">
     <g id="line2d_14">
      <path d="M 105.09625 880.272383 
L 663.09625 880.272383 
" clip-path="url(#p45cfb438f4)" style="fill: none; stroke: #cccccc; stroke-linecap: square"/>
     </g>
     <g id="line2d_15">
      <g>
       <use xlink:href="#m264b2dc009" x="105.09625" y="880.272383" style="stroke: #000000; stroke-width: 0.8"/>
      </g>
     </g>
     <g id="text_12">
      <!-- 300 -->
      <g transform="translate(48.46875 890.150352) scale(0.26 -0.26)">
       <use xlink:href="#DejaVuSans-33"/>
       <use xlink:href="#DejaVuSans-30" x="63.623047"/>
       <use xlink:href="#DejaVuSans-30" x="127.246094"/>
      </g>
     </g>
    </g>
    <g id="ytick_5">
     <g id="line2d_16">
      <path d="M 105.09625 1136.670386 
L 663.09625 1136.670386 
" clip-path="url(#p45cfb438f4)" style="fill: none; stroke: #cccccc; stroke-linecap: square"/>
     </g>
     <g id="line2d_17">
      <g>
       <use xlink:href="#m264b2dc009" x="105.09625" y="1136.670386" style="stroke: #000000; stroke-width: 0.8"/>
      </g>
     </g>
     <g id="text_13">
      <!-- 400 -->
      <g transform="translate(48.46875 1146.548355) scale(0.26 -0.26)">
       <use xlink:href="#DejaVuSans-34"/>
       <use xlink:href="#DejaVuSans-30" x="63.623047"/>
       <use xlink:href="#DejaVuSans-30" x="127.246094"/>
      </g>
     </g>
    </g>
    <g id="ytick_6">
     <g id="line2d_18">
      <path d="M 105.09625 1393.068389 
L 663.09625 1393.068389 
" clip-path="url(#p45cfb438f4)" style="fill: none; stroke: #cccccc; stroke-linecap: square"/>
     </g>
     <g id="line2d_19">
      <g>
       <use xlink:href="#m264b2dc009" x="105.09625" y="1393.068389" style="stroke: #000000; stroke-width: 0.8"/>
      </g>
     </g>
     <g id="text_14">
      <!-- 500 -->
      <g transform="translate(48.46875 1402.946357) scale(0.26 -0.26)">
       <use xlink:href="#DejaVuSans-35"/>
       <use xlink:href="#DejaVuSans-30" x="63.623047"/>
       <use xlink:href="#DejaVuSans-30" x="127.246094"/>
      </g>
     </g>
    </g>
    <g id="ytick_7">
     <g id="line2d_20">
      <path d="M 105.09625 1649.466391 
L 663.09625 1649.466391 
" clip-path="url(#p45cfb438f4)" style="fill: none; stroke: #cccccc; stroke-linecap: square"/>
     </g>
     <g id="line2d_21">
      <g>
       <use xlink:href="#m264b2dc009" x="105.09625" y="1649.466391" style="stroke: #000000; stroke-width: 0.8"/>
      </g>
     </g>
     <g id="text_15">
      <!-- 600 -->
      <g transform="translate(48.46875 1659.34436) scale(0.26 -0.26)">
       <use xlink:href="#DejaVuSans-36"/>
       <use xlink:href="#DejaVuSans-30" x="63.623047"/>
       <use xlink:href="#DejaVuSans-30" x="127.246094"/>
      </g>
     </g>
    </g>
    <g id="ytick_8">
     <g id="line2d_22">
      <defs>
       <path id="m7858215e2c" d="M 0 0 
L -4 0 
" style="stroke: #000000; stroke-width: 0.8"/>
      </defs>
      <g>
       <use xlink:href="#m7858215e2c" x="105.09625" y="162.357976" style="stroke: #000000; stroke-width: 0.8"/>
      </g>
     </g>
    </g>
    <g id="ytick_9">
     <g id="line2d_23">
      <g>
       <use xlink:href="#m7858215e2c" x="105.09625" y="213.637576" style="stroke: #000000; stroke-width: 0.8"/>
      </g>
     </g>
    </g>
    <g id="ytick_10">
     <g id="line2d_24">
      <g>
       <use xlink:href="#m7858215e2c" x="105.09625" y="264.917177" style="stroke: #000000; stroke-width: 0.8"/>
      </g>
     </g>
    </g>
    <g id="ytick_11">
     <g id="line2d_25">
      <g>
       <use xlink:href="#m7858215e2c" x="105.09625" y="316.196777" style="stroke: #000000; stroke-width: 0.8"/>
      </g>
     </g>
    </g>
    <g id="ytick_12">
     <g id="line2d_26">
      <g>
       <use xlink:href="#m7858215e2c" x="105.09625" y="418.755978" style="stroke: #000000; stroke-width: 0.8"/>
      </g>
     </g>
    </g>
    <g id="ytick_13">
     <g id="line2d_27">
      <g>
       <use xlink:href="#m7858215e2c" x="105.09625" y="470.035579" style="stroke: #000000; stroke-width: 0.8"/>
      </g>
     </g>
    </g>
    <g id="ytick_14">
     <g id="line2d_28">
      <g>
       <use xlink:href="#m7858215e2c" x="105.09625" y="521.315179" style="stroke: #000000; stroke-width: 0.8"/>
      </g>
     </g>
    </g>
    <g id="ytick_15">
     <g id="line2d_29">
      <g>
       <use xlink:href="#m7858215e2c" x="105.09625" y="572.59478" style="stroke: #000000; stroke-width: 0.8"/>
      </g>
     </g>
    </g>
    <g id="ytick_16">
     <g id="line2d_30">
      <g>
       <use xlink:href="#m7858215e2c" x="105.09625" y="675.153981" style="stroke: #000000; stroke-width: 0.8"/>
      </g>
     </g>
    </g>
    <g id="ytick_17">
     <g id="line2d_31">
      <g>
       <use xlink:href="#m7858215e2c" x="105.09625" y="726.433582" style="stroke: #000000; stroke-width: 0.8"/>
      </g>
     </g>
    </g>
    <g id="ytick_18">
     <g id="line2d_32">
      <g>
       <use xlink:href="#m7858215e2c" x="105.09625" y="777.713182" style="stroke: #000000; stroke-width: 0.8"/>
      </g>
     </g>
    </g>
    <g id="ytick_19">
     <g id="line2d_33">
      <g>
       <use xlink:href="#m7858215e2c" x="105.09625" y="828.992783" style="stroke: #000000; stroke-width: 0.8"/>
      </g>
     </g>
    </g>
    <g id="ytick_20">
     <g id="line2d_34">
      <g>
       <use xlink:href="#m7858215e2c" x="105.09625" y="931.551984" style="stroke: #000000; stroke-width: 0.8"/>
      </g>
     </g>
    </g>
    <g id="ytick_21">
     <g id="line2d_35">
      <g>
       <use xlink:href="#m7858215e2c" x="105.09625" y="982.831584" style="stroke: #000000; stroke-width: 0.8"/>
      </g>
     </g>
    </g>
    <g id="ytick_22">
     <g id="line2d_36">
      <g>
       <use xlink:href="#m7858215e2c" x="105.09625" y="1034.111185" style="stroke: #000000; stroke-width: 0.8"/>
      </g>
     </g>
    </g>
    <g id="ytick_23">
     <g id="line2d_37">
      <g>
       <use xlink:href="#m7858215e2c" x="105.09625" y="1085.390785" style="stroke: #000000; stroke-width: 0.8"/>
      </g>
     </g>
    </g>
    <g id="ytick_24">
     <g id="line2d_38">
      <g>
       <use xlink:href="#m7858215e2c" x="105.09625" y="1187.949986" style="stroke: #000000; stroke-width: 0.8"/>
      </g>
     </g>
    </g>
    <g id="ytick_25">
     <g id="line2d_39">
      <g>
       <use xlink:href="#m7858215e2c" x="105.09625" y="1239.229587" style="stroke: #000000; stroke-width: 0.8"/>
      </g>
     </g>
    </g>
    <g id="ytick_26">
     <g id="line2d_40">
      <g>
       <use xlink:href="#m7858215e2c" x="105.09625" y="1290.509187" style="stroke: #000000; stroke-width: 0.8"/>
      </g>
     </g>
    </g>
    <g id="ytick_27">
     <g id="line2d_41">
      <g>
       <use xlink:href="#m7858215e2c" x="105.09625" y="1341.788788" style="stroke: #000000; stroke-width: 0.8"/>
      </g>
     </g>
    </g>
    <g id="ytick_28">
     <g id="line2d_42">
      <g>
       <use xlink:href="#m7858215e2c" x="105.09625" y="1444.347989" style="stroke: #000000; stroke-width: 0.8"/>
      </g>
     </g>
    </g>
    <g id="ytick_29">
     <g id="line2d_43">
      <g>
       <use xlink:href="#m7858215e2c" x="105.09625" y="1495.62759" style="stroke: #000000; stroke-width: 0.8"/>
      </g>
     </g>
    </g>
    <g id="ytick_30">
     <g id="line2d_44">
      <g>
       <use xlink:href="#m7858215e2c" x="105.09625" y="1546.90719" style="stroke: #000000; stroke-width: 0.8"/>
      </g>
     </g>
    </g>
    <g id="ytick_31">
     <g id="line2d_45">
      <g>
       <use xlink:href="#m7858215e2c" x="105.09625" y="1598.186791" style="stroke: #000000; stroke-width: 0.8"/>
      </g>
     </g>
    </g>
    <g id="ytick_32">
     <g id="line2d_46">
      <g>
       <use xlink:href="#m7858215e2c" x="105.09625" y="1700.745992" style="stroke: #000000; stroke-width: 0.8"/>
      </g>
     </g>
    </g>
    <g id="ytick_33">
     <g id="line2d_47">
      <g>
       <use xlink:href="#m7858215e2c" x="105.09625" y="1752.025592" style="stroke: #000000; stroke-width: 0.8"/>
      </g>
     </g>
    </g>
    <g id="text_16">
     <!-- Age [ka BP] -->
     <g transform="translate(29.995313 1041.877594) rotate(-90) scale(0.3 -0.3)">
      <defs>
       <path id="DejaVuSans-Bold-41" d="M 3419 850 
L 1538 850 
L 1241 0 
L 31 0 
L 1759 4666 
L 3194 4666 
L 4922 0 
L 3713 0 
L 3419 850 
z
M 1838 1716 
L 3116 1716 
L 2478 3572 
L 1838 1716 
z
" transform="scale(0.015625)"/>
       <path id="DejaVuSans-Bold-67" d="M 2919 594 
Q 2688 288 2409 144 
Q 2131 0 1766 0 
Q 1125 0 706 504 
Q 288 1009 288 1791 
Q 288 2575 706 3076 
Q 1125 3578 1766 3578 
Q 2131 3578 2409 3434 
Q 2688 3291 2919 2981 
L 2919 3500 
L 4044 3500 
L 4044 353 
Q 4044 -491 3511 -936 
Q 2978 -1381 1966 -1381 
Q 1638 -1381 1331 -1331 
Q 1025 -1281 716 -1178 
L 716 -306 
Q 1009 -475 1290 -558 
Q 1572 -641 1856 -641 
Q 2406 -641 2662 -400 
Q 2919 -159 2919 353 
L 2919 594 
z
M 2181 2772 
Q 1834 2772 1640 2515 
Q 1447 2259 1447 1791 
Q 1447 1309 1634 1061 
Q 1822 813 2181 813 
Q 2531 813 2725 1069 
Q 2919 1325 2919 1791 
Q 2919 2259 2725 2515 
Q 2531 2772 2181 2772 
z
" transform="scale(0.015625)"/>
       <path id="DejaVuSans-Bold-65" d="M 4031 1759 
L 4031 1441 
L 1416 1441 
Q 1456 1047 1700 850 
Q 1944 653 2381 653 
Q 2734 653 3104 758 
Q 3475 863 3866 1075 
L 3866 213 
Q 3469 63 3072 -14 
Q 2675 -91 2278 -91 
Q 1328 -91 801 392 
Q 275 875 275 1747 
Q 275 2603 792 3093 
Q 1309 3584 2216 3584 
Q 3041 3584 3536 3087 
Q 4031 2591 4031 1759 
z
M 2881 2131 
Q 2881 2450 2695 2645 
Q 2509 2841 2209 2841 
Q 1884 2841 1681 2658 
Q 1478 2475 1428 2131 
L 2881 2131 
z
" transform="scale(0.015625)"/>
       <path id="DejaVuSans-Bold-20" transform="scale(0.015625)"/>
       <path id="DejaVuSans-Bold-6b" d="M 538 4863 
L 1656 4863 
L 1656 2216 
L 2944 3500 
L 4244 3500 
L 2534 1894 
L 4378 0 
L 3022 0 
L 1656 1459 
L 1656 0 
L 538 0 
L 538 4863 
z
" transform="scale(0.015625)"/>
       <path id="DejaVuSans-Bold-61" d="M 2106 1575 
Q 1756 1575 1579 1456 
Q 1403 1338 1403 1106 
Q 1403 894 1545 773 
Q 1688 653 1941 653 
Q 2256 653 2472 879 
Q 2688 1106 2688 1447 
L 2688 1575 
L 2106 1575 
z
M 3816 1997 
L 3816 0 
L 2688 0 
L 2688 519 
Q 2463 200 2181 54 
Q 1900 -91 1497 -91 
Q 953 -91 614 226 
Q 275 544 275 1050 
Q 275 1666 698 1953 
Q 1122 2241 2028 2241 
L 2688 2241 
L 2688 2328 
Q 2688 2594 2478 2717 
Q 2269 2841 1825 2841 
Q 1466 2841 1156 2769 
Q 847 2697 581 2553 
L 581 3406 
Q 941 3494 1303 3539 
Q 1666 3584 2028 3584 
Q 2975 3584 3395 3211 
Q 3816 2838 3816 1997 
z
" transform="scale(0.015625)"/>
       <path id="DejaVuSans-Bold-42" d="M 2456 2859 
Q 2741 2859 2887 2984 
Q 3034 3109 3034 3353 
Q 3034 3594 2887 3720 
Q 2741 3847 2456 3847 
L 1791 3847 
L 1791 2859 
L 2456 2859 
z
M 2497 819 
Q 2859 819 3042 972 
Q 3225 1125 3225 1434 
Q 3225 1738 3044 1889 
Q 2863 2041 2497 2041 
L 1791 2041 
L 1791 819 
L 2497 819 
z
M 3616 2497 
Q 4003 2384 4215 2081 
Q 4428 1778 4428 1338 
Q 4428 663 3972 331 
Q 3516 0 2584 0 
L 588 0 
L 588 4666 
L 2394 4666 
Q 3366 4666 3802 4372 
Q 4238 4078 4238 3431 
Q 4238 3091 4078 2852 
Q 3919 2613 3616 2497 
z
" transform="scale(0.015625)"/>
       <path id="DejaVuSans-Bold-50" d="M 588 4666 
L 2584 4666 
Q 3475 4666 3951 4270 
Q 4428 3875 4428 3144 
Q 4428 2409 3951 2014 
Q 3475 1619 2584 1619 
L 1791 1619 
L 1791 0 
L 588 0 
L 588 4666 
z
M 1791 3794 
L 1791 2491 
L 2456 2491 
Q 2806 2491 2997 2661 
Q 3188 2831 3188 3144 
Q 3188 3456 2997 3625 
Q 2806 3794 2456 3794 
L 1791 3794 
z
" transform="scale(0.015625)"/>
      </defs>
      <use xlink:href="#DejaVuSans-Bold-41"/>
      <use xlink:href="#DejaVuSans-Bold-67" x="77.392578"/>
      <use xlink:href="#DejaVuSans-Bold-65" x="148.974609"/>
      <use xlink:href="#DejaVuSans-Bold-20" x="216.796875"/>
      <use xlink:href="#DejaVuSans-Bold-5b" x="251.611328"/>
      <use xlink:href="#DejaVuSans-Bold-6b" x="297.314453"/>
      <use xlink:href="#DejaVuSans-Bold-61" x="363.818359"/>
      <use xlink:href="#DejaVuSans-Bold-20" x="431.298828"/>
      <use xlink:href="#DejaVuSans-Bold-42" x="466.113281"/>
      <use xlink:href="#DejaVuSans-Bold-50" x="542.333984"/>
      <use xlink:href="#DejaVuSans-Bold-5d" x="615.625"/>
     </g>
    </g>
   </g>
   <g id="text_17">
    <!-- MIS 1 -->
    <g style="fill: #8b1a00" transform="translate(607.41625 133.441235) scale(0.16 -0.16)">
     <defs>
      <path id="DejaVuSans-Bold-4d" d="M 588 4666 
L 2119 4666 
L 3181 2169 
L 4250 4666 
L 5778 4666 
L 5778 0 
L 4641 0 
L 4641 3413 
L 3566 897 
L 2803 897 
L 1728 3413 
L 1728 0 
L 588 0 
L 588 4666 
z
" transform="scale(0.015625)"/>
      <path id="DejaVuSans-Bold-49" d="M 588 4666 
L 1791 4666 
L 1791 0 
L 588 0 
L 588 4666 
z
" transform="scale(0.015625)"/>
      <path id="DejaVuSans-Bold-53" d="M 3834 4519 
L 3834 3531 
Q 3450 3703 3084 3790 
Q 2719 3878 2394 3878 
Q 1963 3878 1756 3759 
Q 1550 3641 1550 3391 
Q 1550 3203 1689 3098 
Q 1828 2994 2194 2919 
L 2706 2816 
Q 3484 2659 3812 2340 
Q 4141 2022 4141 1434 
Q 4141 663 3683 286 
Q 3225 -91 2284 -91 
Q 1841 -91 1394 -6 
Q 947 78 500 244 
L 500 1259 
Q 947 1022 1364 901 
Q 1781 781 2169 781 
Q 2563 781 2772 912 
Q 2981 1044 2981 1288 
Q 2981 1506 2839 1625 
Q 2697 1744 2272 1838 
L 1806 1941 
Q 1106 2091 782 2419 
Q 459 2747 459 3303 
Q 459 4000 909 4375 
Q 1359 4750 2203 4750 
Q 2588 4750 2994 4692 
Q 3400 4634 3834 4519 
z
" transform="scale(0.015625)"/>
      <path id="DejaVuSans-Bold-31" d="M 750 831 
L 1813 831 
L 1813 3847 
L 722 3622 
L 722 4441 
L 1806 4666 
L 2950 4666 
L 2950 831 
L 4013 831 
L 4013 0 
L 750 0 
L 750 831 
z
" transform="scale(0.015625)"/>
     </defs>
     <use xlink:href="#DejaVuSans-Bold-4d"/>
     <use xlink:href="#DejaVuSans-Bold-49" x="99.511719"/>
     <use xlink:href="#DejaVuSans-Bold-53" x="136.71875"/>
     <use xlink:href="#DejaVuSans-Bold-20" x="208.740234"/>
     <use xlink:href="#DejaVuSans-Bold-31" x="243.554688"/>
    </g>
   </g>
   <g id="text_18">
    <!-- MIS 2 -->
    <g style="fill: #003f6b" transform="translate(607.41625 170.618946) scale(0.16 -0.16)">
     <defs>
      <path id="DejaVuSans-Bold-32" d="M 1844 884 
L 3897 884 
L 3897 0 
L 506 0 
L 506 884 
L 2209 2388 
Q 2438 2594 2547 2791 
Q 2656 2988 2656 3200 
Q 2656 3528 2436 3728 
Q 2216 3928 1850 3928 
Q 1569 3928 1234 3808 
Q 900 3688 519 3450 
L 519 4475 
Q 925 4609 1322 4679 
Q 1719 4750 2100 4750 
Q 2938 4750 3402 4381 
Q 3866 4013 3866 3353 
Q 3866 2972 3669 2642 
Q 3472 2313 2841 1759 
L 1844 884 
z
" transform="scale(0.015625)"/>
     </defs>
     <use xlink:href="#DejaVuSans-Bold-4d"/>
     <use xlink:href="#DejaVuSans-Bold-49" x="99.511719"/>
     <use xlink:href="#DejaVuSans-Bold-53" x="136.71875"/>
     <use xlink:href="#DejaVuSans-Bold-20" x="208.740234"/>
     <use xlink:href="#DejaVuSans-Bold-32" x="243.554688"/>
    </g>
   </g>
   <g id="text_19">
    <!-- MIS 3 -->
    <g style="fill: #8b1a00" transform="translate(607.41625 225.744516) scale(0.16 -0.16)">
     <defs>
      <path id="DejaVuSans-Bold-33" d="M 2981 2516 
Q 3453 2394 3698 2092 
Q 3944 1791 3944 1325 
Q 3944 631 3412 270 
Q 2881 -91 1863 -91 
Q 1503 -91 1142 -33 
Q 781 25 428 141 
L 428 1069 
Q 766 900 1098 814 
Q 1431 728 1753 728 
Q 2231 728 2486 893 
Q 2741 1059 2741 1369 
Q 2741 1688 2480 1852 
Q 2219 2016 1709 2016 
L 1228 2016 
L 1228 2791 
L 1734 2791 
Q 2188 2791 2409 2933 
Q 2631 3075 2631 3366 
Q 2631 3634 2415 3781 
Q 2200 3928 1806 3928 
Q 1516 3928 1219 3862 
Q 922 3797 628 3669 
L 628 4550 
Q 984 4650 1334 4700 
Q 1684 4750 2022 4750 
Q 2931 4750 3382 4451 
Q 3834 4153 3834 3553 
Q 3834 3144 3618 2883 
Q 3403 2622 2981 2516 
z
" transform="scale(0.015625)"/>
     </defs>
     <use xlink:href="#DejaVuSans-Bold-4d"/>
     <use xlink:href="#DejaVuSans-Bold-49" x="99.511719"/>
     <use xlink:href="#DejaVuSans-Bold-53" x="136.71875"/>
     <use xlink:href="#DejaVuSans-Bold-20" x="208.740234"/>
     <use xlink:href="#DejaVuSans-Bold-33" x="243.554688"/>
    </g>
   </g>
   <g id="text_20">
    <!-- MIS 4 -->
    <g style="fill: #003f6b" transform="translate(607.41625 279.588097) scale(0.16 -0.16)">
     <use xlink:href="#DejaVuSans-Bold-4d"/>
     <use xlink:href="#DejaVuSans-Bold-49" x="99.511719"/>
     <use xlink:href="#DejaVuSans-Bold-53" x="136.71875"/>
     <use xlink:href="#DejaVuSans-Bold-20" x="208.740234"/>
     <use xlink:href="#DejaVuSans-Bold-34" x="243.554688"/>
    </g>
   </g>
   <g id="text_21">
    <!-- MIS 5 -->
    <g style="fill: #8b1a00" transform="translate(607.41625 373.173368) scale(0.16 -0.16)">
     <defs>
      <path id="DejaVuSans-Bold-35" d="M 678 4666 
L 3669 4666 
L 3669 3781 
L 1638 3781 
L 1638 3059 
Q 1775 3097 1914 3117 
Q 2053 3138 2203 3138 
Q 3056 3138 3531 2711 
Q 4006 2284 4006 1522 
Q 4006 766 3489 337 
Q 2972 -91 2053 -91 
Q 1656 -91 1267 -14 
Q 878 63 494 219 
L 494 1166 
Q 875 947 1217 837 
Q 1559 728 1863 728 
Q 2300 728 2551 942 
Q 2803 1156 2803 1522 
Q 2803 1891 2551 2103 
Q 2300 2316 1863 2316 
Q 1603 2316 1309 2248 
Q 1016 2181 678 2041 
L 678 4666 
z
" transform="scale(0.015625)"/>
     </defs>
     <use xlink:href="#DejaVuSans-Bold-4d"/>
     <use xlink:href="#DejaVuSans-Bold-49" x="99.511719"/>
     <use xlink:href="#DejaVuSans-Bold-53" x="136.71875"/>
     <use xlink:href="#DejaVuSans-Bold-20" x="208.740234"/>
     <use xlink:href="#DejaVuSans-Bold-35" x="243.554688"/>
    </g>
   </g>
   <g id="text_22">
    <!-- MIS 6 -->
    <g style="fill: #003f6b" transform="translate(607.41625 527.012169) scale(0.16 -0.16)">
     <defs>
      <path id="DejaVuSans-Bold-36" d="M 2316 2303 
Q 2000 2303 1842 2098 
Q 1684 1894 1684 1484 
Q 1684 1075 1842 870 
Q 2000 666 2316 666 
Q 2634 666 2792 870 
Q 2950 1075 2950 1484 
Q 2950 1894 2792 2098 
Q 2634 2303 2316 2303 
z
M 3803 4544 
L 3803 3681 
Q 3506 3822 3243 3889 
Q 2981 3956 2731 3956 
Q 2194 3956 1894 3657 
Q 1594 3359 1544 2772 
Q 1750 2925 1990 3001 
Q 2231 3078 2516 3078 
Q 3231 3078 3670 2659 
Q 4109 2241 4109 1563 
Q 4109 813 3618 361 
Q 3128 -91 2303 -91 
Q 1394 -91 895 523 
Q 397 1138 397 2266 
Q 397 3422 980 4083 
Q 1563 4744 2578 4744 
Q 2900 4744 3203 4694 
Q 3506 4644 3803 4544 
z
" transform="scale(0.015625)"/>
     </defs>
     <use xlink:href="#DejaVuSans-Bold-4d"/>
     <use xlink:href="#DejaVuSans-Bold-49" x="99.511719"/>
     <use xlink:href="#DejaVuSans-Bold-53" x="136.71875"/>
     <use xlink:href="#DejaVuSans-Bold-20" x="208.740234"/>
     <use xlink:href="#DejaVuSans-Bold-36" x="243.554688"/>
    </g>
   </g>
   <g id="text_23">
    <!-- MIS 7 -->
    <g style="fill: #8b1a00" transform="translate(607.41625 671.877041) scale(0.16 -0.16)">
     <defs>
      <path id="DejaVuSans-Bold-37" d="M 428 4666 
L 3944 4666 
L 3944 3988 
L 2125 0 
L 953 0 
L 2675 3781 
L 428 3781 
L 428 4666 
z
" transform="scale(0.015625)"/>
     </defs>
     <use xlink:href="#DejaVuSans-Bold-4d"/>
     <use xlink:href="#DejaVuSans-Bold-49" x="99.511719"/>
     <use xlink:href="#DejaVuSans-Bold-53" x="136.71875"/>
     <use xlink:href="#DejaVuSans-Bold-20" x="208.740234"/>
     <use xlink:href="#DejaVuSans-Bold-37" x="243.554688"/>
    </g>
   </g>
   <g id="text_24">
    <!-- MIS 8 -->
    <g style="fill: #003f6b" transform="translate(607.41625 811.613952) scale(0.16 -0.16)">
     <defs>
      <path id="DejaVuSans-Bold-38" d="M 2228 2088 
Q 1891 2088 1709 1903 
Q 1528 1719 1528 1375 
Q 1528 1031 1709 848 
Q 1891 666 2228 666 
Q 2563 666 2741 848 
Q 2919 1031 2919 1375 
Q 2919 1722 2741 1905 
Q 2563 2088 2228 2088 
z
M 1350 2484 
Q 925 2613 709 2878 
Q 494 3144 494 3541 
Q 494 4131 934 4440 
Q 1375 4750 2228 4750 
Q 3075 4750 3515 4442 
Q 3956 4134 3956 3541 
Q 3956 3144 3739 2878 
Q 3522 2613 3097 2484 
Q 3572 2353 3814 2058 
Q 4056 1763 4056 1313 
Q 4056 619 3595 264 
Q 3134 -91 2228 -91 
Q 1319 -91 855 264 
Q 391 619 391 1313 
Q 391 1763 633 2058 
Q 875 2353 1350 2484 
z
M 1631 3419 
Q 1631 3141 1786 2991 
Q 1941 2841 2228 2841 
Q 2509 2841 2662 2991 
Q 2816 3141 2816 3419 
Q 2816 3697 2662 3845 
Q 2509 3994 2228 3994 
Q 1941 3994 1786 3844 
Q 1631 3694 1631 3419 
z
" transform="scale(0.015625)"/>
     </defs>
     <use xlink:href="#DejaVuSans-Bold-4d"/>
     <use xlink:href="#DejaVuSans-Bold-49" x="99.511719"/>
     <use xlink:href="#DejaVuSans-Bold-53" x="136.71875"/>
     <use xlink:href="#DejaVuSans-Bold-20" x="208.740234"/>
     <use xlink:href="#DejaVuSans-Bold-38" x="243.554688"/>
    </g>
   </g>
   <g id="text_25">
    <!-- MIS 9 -->
    <g style="fill: #8b1a00" transform="translate(607.41625 932.121014) scale(0.16 -0.16)">
     <defs>
      <path id="DejaVuSans-Bold-39" d="M 641 103 
L 641 966 
Q 928 831 1190 764 
Q 1453 697 1709 697 
Q 2247 697 2547 995 
Q 2847 1294 2900 1881 
Q 2688 1725 2447 1647 
Q 2206 1569 1925 1569 
Q 1209 1569 770 1986 
Q 331 2403 331 3084 
Q 331 3838 820 4291 
Q 1309 4744 2131 4744 
Q 3044 4744 3544 4128 
Q 4044 3513 4044 2388 
Q 4044 1231 3459 570 
Q 2875 -91 1856 -91 
Q 1528 -91 1228 -42 
Q 928 6 641 103 
z
M 2125 2350 
Q 2441 2350 2600 2554 
Q 2759 2759 2759 3169 
Q 2759 3575 2600 3781 
Q 2441 3988 2125 3988 
Q 1809 3988 1650 3781 
Q 1491 3575 1491 3169 
Q 1491 2759 1650 2554 
Q 1809 2350 2125 2350 
z
" transform="scale(0.015625)"/>
     </defs>
     <use xlink:href="#DejaVuSans-Bold-4d"/>
     <use xlink:href="#DejaVuSans-Bold-49" x="99.511719"/>
     <use xlink:href="#DejaVuSans-Bold-53" x="136.71875"/>
     <use xlink:href="#DejaVuSans-Bold-20" x="208.740234"/>
     <use xlink:href="#DejaVuSans-Bold-39" x="243.554688"/>
    </g>
   </g>
   <g id="text_26">
    <!-- MIS 10 -->
    <g style="fill: #003f6b" transform="translate(596.28375 1026.988275) scale(0.16 -0.16)">
     <defs>
      <path id="DejaVuSans-Bold-30" d="M 2944 2338 
Q 2944 3213 2780 3570 
Q 2616 3928 2228 3928 
Q 1841 3928 1675 3570 
Q 1509 3213 1509 2338 
Q 1509 1453 1675 1090 
Q 1841 728 2228 728 
Q 2613 728 2778 1090 
Q 2944 1453 2944 2338 
z
M 4147 2328 
Q 4147 1169 3647 539 
Q 3147 -91 2228 -91 
Q 1306 -91 806 539 
Q 306 1169 306 2328 
Q 306 3491 806 4120 
Q 1306 4750 2228 4750 
Q 3147 4750 3647 4120 
Q 4147 3491 4147 2328 
z
" transform="scale(0.015625)"/>
     </defs>
     <use xlink:href="#DejaVuSans-Bold-4d"/>
     <use xlink:href="#DejaVuSans-Bold-49" x="99.511719"/>
     <use xlink:href="#DejaVuSans-Bold-53" x="136.71875"/>
     <use xlink:href="#DejaVuSans-Bold-20" x="208.740234"/>
     <use xlink:href="#DejaVuSans-Bold-31" x="243.554688"/>
     <use xlink:href="#DejaVuSans-Bold-30" x="313.134766"/>
    </g>
   </g>
   <g id="text_27">
    <!-- MIS 11 -->
    <g style="fill: #8b1a00" transform="translate(596.28375 1138.521406) scale(0.16 -0.16)">
     <use xlink:href="#DejaVuSans-Bold-4d"/>
     <use xlink:href="#DejaVuSans-Bold-49" x="99.511719"/>
     <use xlink:href="#DejaVuSans-Bold-53" x="136.71875"/>
     <use xlink:href="#DejaVuSans-Bold-20" x="208.740234"/>
     <use xlink:href="#DejaVuSans-Bold-31" x="243.554688"/>
     <use xlink:href="#DejaVuSans-Bold-31" x="313.134766"/>
    </g>
   </g>
   <g id="text_28">
    <!-- MIS 12 -->
    <g style="fill: #003f6b" transform="translate(596.28375 1334.665878) scale(0.16 -0.16)">
     <use xlink:href="#DejaVuSans-Bold-4d"/>
     <use xlink:href="#DejaVuSans-Bold-49" x="99.511719"/>
     <use xlink:href="#DejaVuSans-Bold-53" x="136.71875"/>
     <use xlink:href="#DejaVuSans-Bold-20" x="208.740234"/>
     <use xlink:href="#DejaVuSans-Bold-31" x="243.554688"/>
     <use xlink:href="#DejaVuSans-Bold-32" x="313.134766"/>
    </g>
   </g>
   <g id="text_29">
    <!-- MIS 13 -->
    <g style="fill: #8b1a00" transform="translate(596.28375 1489.78667) scale(0.16 -0.16)">
     <use xlink:href="#DejaVuSans-Bold-4d"/>
     <use xlink:href="#DejaVuSans-Bold-49" x="99.511719"/>
     <use xlink:href="#DejaVuSans-Bold-53" x="136.71875"/>
     <use xlink:href="#DejaVuSans-Bold-20" x="208.740234"/>
     <use xlink:href="#DejaVuSans-Bold-31" x="243.554688"/>
     <use xlink:href="#DejaVuSans-Bold-33" x="313.134766"/>
    </g>
   </g>
   <g id="text_30">
    <!-- MIS 15 -->
    <g style="fill: #8b1a00" transform="translate(596.28375 1610.293731) scale(0.16 -0.16)">
     <use xlink:href="#DejaVuSans-Bold-4d"/>
     <use xlink:href="#DejaVuSans-Bold-49" x="99.511719"/>
     <use xlink:href="#DejaVuSans-Bold-53" x="136.71875"/>
     <use xlink:href="#DejaVuSans-Bold-20" x="208.740234"/>
     <use xlink:href="#DejaVuSans-Bold-31" x="243.554688"/>
     <use xlink:href="#DejaVuSans-Bold-35" x="313.134766"/>
    </g>
   </g>
   <g id="text_31">
    <!-- MIS 16 -->
    <g style="fill: #003f6b" transform="translate(596.28375 1743.209173) scale(0.16 -0.16)">
     <use xlink:href="#DejaVuSans-Bold-4d"/>
     <use xlink:href="#DejaVuSans-Bold-49" x="99.511719"/>
     <use xlink:href="#DejaVuSans-Bold-53" x="136.71875"/>
     <use xlink:href="#DejaVuSans-Bold-20" x="208.740234"/>
     <use xlink:href="#DejaVuSans-Bold-31" x="243.554688"/>
     <use xlink:href="#DejaVuSans-Bold-36" x="313.134766"/>
    </g>
   </g>
   <g id="line2d_48">
    <path d="M 643.650795 111.078375 
L 454.015341 111.621939 
L 447.505341 111.796289 
L 455.368068 112.103967 
L 421.549886 112.393697 
L 455.959886 112.544972 
L 440.488068 112.814189 
L 451.309886 113.047512 
L 420.704432 113.06546 
L 423.832614 113.319294 
L 404.133523 113.51672 
L 421.042614 113.939777 
L 408.360795 114.157715 
L 401.005341 114.424369 
L 410.558977 114.673075 
L 410.897159 114.896141 
L 403.795341 115.106388 
L 390.859886 115.367914 
L 395.087159 115.524316 
L 395.340795 115.834558 
L 387.224432 116.160183 
L 391.451705 116.38325 
L 385.533523 116.549908 
L 377.078977 117.144752 
L 381.137159 117.37551 
L 377.078977 117.621652 
L 367.187159 117.89087 
L 361.015341 118.711344 
L 363.805341 118.872874 
L 356.788068 119.111324 
L 368.28625 119.36003 
L 361.015341 119.70104 
L 365.242614 120.131788 
L 365.49625 120.362547 
L 367.778977 120.375367 
L 357.887159 120.600997 
L 358.140795 120.929186 
L 356.788068 121.19584 
L 363.551705 121.426598 
L 352.814432 121.436854 
L 358.98625 121.583001 
L 364.904432 121.972726 
L 356.788068 121.993238 
L 358.478977 122.182972 
L 351.715341 122.480394 
L 351.715341 122.682949 
L 353.068068 123.223948 
L 356.788068 123.49573 
L 351.123523 123.857251 
L 352.814432 124.029038 
L 344.951705 124.621318 
L 354.505341 124.890535 
L 355.350795 125.103346 
L 358.478977 125.64691 
L 370.822614 125.721265 
L 353.659886 126.528919 
L 368.032614 126.610966 
L 363.805341 126.880184 
L 364.650795 127.277601 
L 367.187159 127.480155 
L 390.014432 128.057051 
L 380.122614 128.241657 
L 386.88625 128.469852 
L 390.014432 129.141614 
L 392.297159 129.431344 
L 390.268068 129.687742 
L 399.568068 129.987728 
L 385.533523 130.280021 
L 393.988068 130.564623 
L 392.297159 130.862045 
L 401.850795 130.951784 
L 403.288068 131.087675 
L 403.541705 131.405609 
L 403.795341 131.49022 
L 393.142614 131.695338 
L 395.678977 131.836357 
L 401.005341 131.900457 
L 374.79625 132.079935 
L 404.640795 132.23121 
L 411.404432 132.354281 
L 388.915341 132.428637 
L 427.214432 132.597859 
L 418.168068 132.646575 
L 419.520795 132.81067 
L 418.50625 132.841437 
L 425.777159 133.154243 
L 434.569886 133.390129 
L 429.497159 133.646527 
L 432.540795 133.908053 
L 433.978068 134.195219 
L 432.709886 134.513152 
L 432.540795 134.772114 
L 443.278068 135.043896 
L 438.797159 135.384906 
L 439.050795 135.551564 
L 437.613523 135.731043 
L 446.40625 136.048976 
L 453.677159 136.57972 
L 454.522614 136.779711 
L 448.604432 137.059185 
L 455.959886 137.482241 
L 450.041705 137.713 
L 466.950795 138.036061 
L 450.041705 138.289895 
L 458.49625 138.46681 
L 435.922614 138.830895 
L 428.059886 139.115497 
L 452.324432 139.587269 
L 446.068068 139.900074 
L 471.178068 140.159036 
L 412.249886 140.523122 
L 438.797159 140.900027 
L 273.341705 141.499998 
L 272.242614 142.064074 
L 280.358977 142.328164 
L 284.924432 142.599945 
L 267.677159 142.899931 
L 271.397159 143.243504 
L 335.059886 144.022954 
L 406.923523 144.394731 
L 420.704432 144.707537 
L 422.987159 145.058802 
L 436.260795 145.435707 
L 422.733523 146.274129 
L 395.087159 146.812565 
L 409.459886 147.20229 
L 365.749886 147.87918 
L 269.70625 148.694526 
L 266.578068 149.19963 
L 265.140795 149.627815 
L 276.977159 149.986772 
L 279.00625 150.240606 
L 258.123523 150.79699 
L 258.715341 151.166203 
L 262.350795 151.553364 
L 276.977159 152.284098 
L 230.815341 152.691771 
L 238.08625 153.104572 
L 218.978977 153.507116 
L 222.022614 154.404509 
L 199.195341 154.435277 
L 190.740795 155.494201 
L 201.224432 155.932642 
L 186.513523 156.537741 
L 190.740795 156.858238 
L 194.122614 157.647944 
L 190.487159 158.319707 
L 196.997159 159.276072 
L 186.00625 160.360635 
L 195.559886 160.732412 
L 175.945341 161.309308 
L 194.460795 162.027222 
L 194.122614 162.381051 
L 198.772614 163.268188 
L 196.658977 163.839956 
L 175.860795 165.11169 
L 178.650795 165.742429 
L 178.904432 166.493675 
L 177.213523 167.001343 
L 221.177159 168.791001 
L 206.550795 169.867873 
L 206.297159 170.680655 
L 213.314432 171.76009 
L 181.187159 172.724147 
L 205.451705 173.772815 
L 176.959886 176.323975 
L 204.014432 178.967438 
L 211.538977 180.062258 
L 237.240795 181.01093 
L 214.159886 182.123698 
L 226.841705 182.915967 
L 187.697159 184.987663 
L 214.413523 186.436312 
L 223.20625 187.797785 
L 207.988068 188.700306 
L 225.150795 189.715642 
L 222.783523 192.243727 
L 242.059886 193.31547 
L 252.458977 194.153892 
L 281.542614 195.179484 
L 231.068977 195.610233 
L 238.678068 196.712744 
L 290.250795 197.576805 
L 311.640795 198.599833 
L 252.205341 199.966435 
L 249.922614 200.948439 
L 289.658977 201.886856 
L 330.240795 203.425244 
L 347.488068 204.332893 
L 283.487159 205.312333 
L 251.359886 206.107167 
L 249.922614 207.881441 
L 251.951705 208.56346 
L 237.832614 208.97626 
L 233.858977 210.00698 
L 239.523523 210.614644 
L 225.99625 211.363326 
L 229.969886 211.919709 
L 231.660795 212.414558 
L 269.70625 213.270927 
L 226.588068 214.711884 
L 274.187159 217.452778 
L 268.268977 218.670669 
L 224.558977 219.896251 
L 238.08625 221.214137 
L 267.169886 222.708937 
L 271.397159 223.852473 
L 298.958977 225.088311 
L 311.387159 226.26005 
L 293.632614 227.170263 
L 246.033523 229.224011 
L 226.841705 230.375238 
L 244.59625 231.56236 
L 269.114432 232.995625 
L 273.933523 235.47243 
L 293.632614 236.569813 
L 312.232614 237.787704 
L 313.923523 239.013286 
L 335.651705 241.277281 
L 324.914432 242.428508 
L 310.541705 243.548967 
L 247.132614 244.554047 
L 279.00625 246.861629 
L 266.324432 248.051316 
L 285.178068 249.256387 
L 338.441705 250.553761 
L 334.80625 252.986978 
L 316.20625 254.076669 
L 345.205341 255.184308 
L 318.99625 256.253488 
L 236.141705 258.394411 
L 237.240795 259.455899 
L 236.395341 260.573794 
L 241.80625 261.760917 
L 240.368977 264.214646 
L 252.205341 265.558172 
L 286.023523 267.027332 
L 243.750795 268.563156 
L 262.942614 271.416866 
L 252.205341 273.093709 
L 256.68625 274.585945 
L 259.560795 276.173049 
L 262.350795 279.280593 
L 265.732614 280.901028 
L 257.531705 282.531719 
L 276.469886 284.170103 
L 256.178977 286.77767 
L 242.059886 288.013509 
L 263.449886 289.35447 
L 255.333523 290.833887 
L 273.341705 293.669649 
L 279.851705 294.905487 
L 228.278977 296.051586 
L 235.549886 297.220761 
L 250.260795 300.028319 
L 275.878068 301.425688 
L 257.531705 302.764086 
L 280.105341 304.174275 
L 312.232614 306.86389 
L 329.987159 308.176648 
L 329.395341 309.456074 
L 341.231705 310.691912 
L 380.122614 313.163589 
L 397.877159 315.455787 
L 408.868068 316.560862 
L 287.122614 318.683838 
L 269.114432 319.758145 
L 257.531705 320.873477 
L 259.222614 322.050344 
L 272.49625 324.524584 
L 255.587159 325.821958 
L 282.388068 327.280863 
L 301.495341 328.803867 
L 301.495341 330.355075 
L 294.224432 331.860131 
L 268.522614 333.216477 
L 253.050795 334.57795 
L 266.324432 336.029163 
L 254.995341 339.075171 
L 246.540795 340.534076 
L 247.978068 341.921189 
L 245.188068 343.374965 
L 245.695341 346.187652 
L 250.514432 347.579893 
L 259.814432 348.879831 
L 287.460795 350.269508 
L 291.941705 353.10527 
L 303.524432 354.512895 
L 309.104432 355.912828 
L 319.588068 357.258917 
L 325.168068 360.107499 
L 339.287159 361.515124 
L 339.287159 362.843266 
L 335.313523 364.202175 
L 276.131705 367.043065 
L 298.113523 368.509662 
L 349.432614 370.053178 
L 368.28625 371.589002 
L 399.060795 374.765773 
L 380.122614 376.404156 
L 285.178068 378.088691 
L 265.732614 379.77579 
L 306.060795 383.326902 
L 306.90625 385.147328 
L 303.524432 386.911346 
L 296.422614 388.647161 
L 261.505341 392.141866 
L 271.397159 393.767429 
L 274.778977 395.359661 
L 300.649886 399.736374 
L 300.39625 401.167075 
L 303.18625 402.500345 
L 336.497159 403.772079 
L 340.132614 406.269396 
L 366.088068 407.45139 
L 365.242614 408.607745 
L 376.233523 409.943579 
L 363.551705 412.187061 
L 376.233523 413.353672 
L 382.405341 414.515155 
L 395.087159 415.640743 
L 390.268068 417.879097 
L 383.250795 418.955969 
L 389.845341 420.176423 
L 396.778068 421.214835 
L 402.104432 423.327555 
L 419.351705 425.706928 
L 423.578977 426.888923 
L 434.569886 429.365728 
L 427.468068 430.493879 
L 422.987159 431.593826 
L 449.19625 432.65275 
L 481.323523 434.491124 
L 487.495341 435.360313 
L 421.29625 436.27309 
L 330.578977 437.201251 
L 312.232614 439.067828 
L 298.958977 440.190851 
L 314.768977 441.190803 
L 293.632614 442.342031 
L 266.831705 444.900883 
L 265.98625 446.405939 
L 304.877159 448.136625 
L 245.695341 449.933975 
L 222.360795 454.746566 
L 210.524432 457.656683 
L 219.824432 460.079644 
L 242.313523 462.566705 
L 180.341705 468.28438 
L 194.122614 471.407308 
L 216.104432 473.94052 
L 194.122614 476.650647 
L 232.759886 482.396527 
L 274.778977 484.850255 
L 242.651705 487.770629 
L 218.640795 490.20641 
L 236.733523 495.439493 
L 216.273523 497.836814 
L 209.340795 500.685396 
L 220.669886 503.690381 
L 223.459886 509.908032 
L 248.823523 512.854045 
L 227.940795 515.325722 
L 235.042614 518.281991 
L 229.378068 523.58943 
L 201.055341 526.571338 
L 242.905341 529.694266 
L 282.049886 532.768478 
L 280.950795 538.209244 
L 255.164432 541.014238 
L 282.641705 544.070502 
L 242.905341 546.924212 
L 275.28625 552.911105 
L 298.705341 556.059673 
L 342.077159 559.172344 
L 282.049886 562.643973 
L 296.422614 569.356473 
L 322.969886 572.612728 
L 326.605341 576.684328 
L 279.00625 580.055962 
L 253.89625 586.804357 
L 236.141705 589.296546 
L 242.313523 591.893858 
L 275.032614 595.283439 
L 293.88625 600.901119 
L 289.151705 604.162502 
L 328.29625 607.029032 
L 353.913523 609.754542 
L 391.958977 614.444062 
L 407.177159 616.654213 
L 332.523523 619.123325 
L 332.269886 621.453983 
L 245.188068 626.743474 
L 267.423523 629.792046 
L 291.09625 632.763699 
L 288.559886 635.422546 
L 312.232614 640.9069 
L 326.858977 643.214482 
L 354.758977 645.647699 
L 366.595341 648.021944 
L 372.00625 652.916582 
L 361.860795 655.501074 
L 351.377159 657.962495 
L 304.369886 660.247001 
L 286.784432 1115.773949 
L 375.72625 1125.391438 
L 389.845341 1134.001283 
L 429.074432 1141.852189 
L 474.982614 1149.336447 
L 476.842614 1158.597543 
L 460.440795 1166.640748 
L 400.751705 1171.422571 
L 409.121705 1172.466111 
L 407.853523 1173.173769 
L 443.869886 1174.683954 
L 441.75625 1175.778773 
L 432.794432 1176.93 
L 430.427159 1178.19917 
L 439.388977 1179.235018 
L 446.575341 1180.275994 
L 450.210795 1181.455425 
L 459.42625 1182.175903 
L 455.114432 1183.839926 
L 444.799886 1185.129608 
L 459.679886 1185.998798 
L 439.219886 1187.314119 
L 402.865341 1189.157621 
L 387.055341 1190.437047 
L 388.492614 1191.580582 
L 370.653523 1191.775445 
L 297.437159 1192.157478 
L 306.060795 1193.008719 
L 262.858068 1193.900984 
L 264.633523 1195.126566 
L 224.728068 1196.434196 
L 225.658068 1197.336717 
L 219.824432 1199.526356 
L 198.180795 1201.026285 
L 209.594432 1203.1749 
L 205.874432 1204.44407 
L 207.818977 1206.764472 
L 198.603523 1209.354092 
L 198.603523 1211.964223 
L 202.069886 1214.492308 
L 210.524432 1217.028084 
L 207.818977 1218.720311 
L 218.809886 1222.299627 
L 215.005341 1223.707252 
L 246.709886 1226.345587 
L 247.724432 1228.927515 
L 247.978068 1230.006951 
L 291.941705 1231.294069 
L 238.08625 1232.186334 
L 222.360795 1233.458068 
L 258.968977 1234.334949 
L 277.822614 1235.886157 
L 304.877159 1236.622019 
L 238.08625 1237.950161 
L 205.451705 1240.239795 
L 198.941705 1242.437126 
L 201.224432 1244.731888 
L 217.288068 1247.021522 
L 237.240795 1249.295773 
L 287.714432 1250.247009 
L 272.242614 1251.544383 
L 243.750795 1252.485364 
L 225.488977 1253.692998 
L 222.022614 1255.782642 
L 213.314432 1258.023561 
L 222.360795 1260.461906 
L 235.549886 1261.541341 
L 317.643523 1263.013066 
L 268.268977 1264.079681 
L 292.195341 1265.512946 
L 255.333523 1267.930779 
L 250.514432 1270.133238 
L 291.857159 1272.533123 
L 292.195341 1273.504872 
L 240.115341 1275.038132 
L 251.10625 1277.520065 
L 284.58625 1279.922514 
L 284.163523 1282.209584 
L 248.823523 1284.199233 
L 262.350795 1285.983763 
L 278.160795 1287.83752 
L 303.017159 1289.998955 
L 323.223523 1293.957741 
L 296.168977 1295.726887 
L 325.844432 1297.706279 
L 302.678977 1298.560085 
L 292.533523 1299.760027 
L 303.18625 1301.75224 
L 305.215341 1303.631637 
L 313.41625 1305.487959 
L 336.497159 1307.285309 
L 335.905341 1309.095479 
L 357.633523 1310.897957 
L 369.385341 1312.702999 
L 369.977159 1314.405481 
L 397.031705 1316.100272 
L 404.387159 1317.730963 
L 373.528068 1319.343707 
L 348.840795 1320.917991 
L 370.568977 1322.499966 
L 328.549886 1324.153733 
L 299.973523 1325.876728 
L 299.550795 1327.597159 
L 313.923523 1329.335537 
L 295.915341 1331.094427 
L 311.640795 1332.896905 
L 317.897159 1334.650668 
L 313.331705 1336.422378 
L 304.623523 1338.235112 
L 307.244432 1340.060665 
L 298.958977 1341.863143 
L 295.915341 1343.729721 
L 309.442614 1345.64245 
L 318.06625 1347.650046 
L 314.177159 1349.544828 
L 312.48625 1351.490888 
L 340.978068 1353.454897 
L 355.688977 1355.324039 
L 319.841705 1357.254716 
L 366.595341 1359.277696 
L 385.195341 1361.25196 
L 361.438068 1363.213405 
L 368.878068 1365.233821 
L 347.488068 1367.41064 
L 327.704432 1369.641303 
L 316.121705 1371.892478 
L 295.323523 1374.059041 
L 288.559886 1376.238424 
L 287.714432 1378.45883 
L 289.658977 1380.702313 
L 296.422614 1382.856056 
L 305.468977 1384.999543 
L 315.868068 1387.145595 
L 284.924432 1387.97376 
L 280.443523 1389.189087 
L 300.649886 1390.063404 
L 306.314432 1391.224887 
L 305.722614 1393.227355 
L 309.949886 1395.224696 
L 298.789886 1397.2246 
L 319.841705 1403.057655 
L 318.06625 1405.003716 
L 329.141705 1406.908753 
L 313.078068 1408.936861 
L 328.042614 1411.016249 
L 314.599886 1413.152044 
L 328.042614 1415.326299 
L 331.678068 1417.503118 
L 334.214432 1419.656861 
L 323.984432 1421.790093 
L 315.022614 1423.869481 
L 316.20625 1424.736106 
L 268.860795 1425.905281 
L 249.415341 1428.023128 
L 257.108977 1430.371734 
L 232.168068 1432.830591 
L 233.858977 1435.427903 
L 264.041705 1438.138029 
L 256.770795 1440.835336 
L 291.349886 1443.550591 
L 296.760795 1446.088932 
L 271.904432 1447.211955 
L 255.587159 1448.722139 
L 227.940795 1449.852854 
L 214.667159 1451.437394 
L 207.39625 1454.201364 
L 221.768977 1456.957643 
L 218.978977 1459.695974 
L 237.409886 1462.462508 
L 230.477159 1465.354677 
L 222.360795 1468.413506 
L 206.550795 1471.377467 
L 243.328068 1474.408091 
L 262.604432 1477.07463 
L 275.878068 1479.605278 
L 280.358977 1482.064135 
L 291.772614 1484.712727 
L 251.359886 1485.846006 
L 241.468068 1487.30491 
L 275.28625 1489.733 
L 300.142614 1491.973918 
L 315.952614 1494.035358 
L 347.995341 1496.025007 
L 365.242614 1498.14029 
L 363.213523 1500.417104 
L 325.50625 1503.101591 
L 295.915341 1505.409173 
L 251.10625 1508.155196 
L 251.10625 1510.924294 
L 293.040795 1516.111226 
L 300.649886 1518.641874 
L 312.824432 1521.067399 
L 308.597159 1522.105811 
L 269.368068 1524.495441 
L 285.769886 1526.946606 
L 287.714432 1528.161932 
L 297.014432 1530.366955 
L 294.985341 1532.474547 
L 326.858977 1534.548806 
L 323.815341 1536.617938 
L 345.205341 1538.689634 
L 341.400795 1540.779278 
L 366.341705 1542.745851 
L 368.28625 1544.717551 
L 375.049886 1546.73284 
L 364.228068 1548.722488 
L 406.923523 1550.648037 
L 399.314432 1552.635122 
L 406.078068 1554.499135 
L 401.005341 1556.424684 
L 386.88625 1558.339977 
L 396.778068 1560.270654 
L 395.087159 1562.175691 
L 374.373523 1564.160212 
L 375.641705 1566.12422 
L 374.79625 1568.088229 
L 373.697159 1570.031726 
L 367.018068 1571.970095 
L 381.559886 1573.885388 
L 379.023523 1575.841705 
L 392.804432 1577.872377 
L 387.308977 1579.864589 
L 395.932614 1581.84911 
L 394.241705 1583.887474 
L 395.340795 1585.964298 
L 382.743523 1588.087273 
L 400.582614 1590.158969 
L 388.323523 1592.15631 
L 384.09625 1594.176726 
L 367.609886 1596.222782 
L 375.049886 1598.279094 
L 370.568977 1600.404633 
L 381.30625 1602.507097 
L 366.257159 1604.542897 
L 385.787159 1606.417167 
L 385.533523 1608.270924 
L 399.568068 1610.106734 
L 391.451705 1612.034847 
L 317.051705 1612.860448 
L 303.778068 1614.070647 
L 286.277159 1616.334641 
L 289.658977 1618.860162 
L 284.670795 1621.747203 
L 274.440795 1630.903176 
L 258.292614 1634.113279 
L 272.49625 1637.10288 
L 282.895341 1639.795059 
L 238.931705 1641.071921 
L 285.178068 1645.228132 
L 307.751705 1648.040818 
L 332.269886 1650.725305 
L 268.268977 1651.814997 
L 255.840795 1653.261082 
L 269.959886 1656.058384 
L 295.915341 1657.366014 
L 336.750795 1659.163364 
L 328.549886 1662.301675 
L 335.313523 1665.270764 
L 321.448068 1668.193701 
L 302.087159 1670.978184 
L 327.197159 1673.729334 
L 331.424432 1676.388182 
L 365.411705 1678.90601 
L 364.397159 1679.905962 
L 377.924432 1683.498098 
L 400.751705 1685.654405 
L 384.688068 1687.813277 
L 401.258977 1689.874716 
L 398.468977 1691.936156 
L 393.39625 1694.002724 
L 387.308977 1696.143648 
L 386.040795 1698.325595 
L 391.958977 1700.535745 
L 406.669886 1701.47929 
L 435.415341 1702.794612 
L 399.568068 1703.681749 
L 360.169886 1704.963739 
L 361.015341 1705.902156 
L 281.204432 1707.179018 
L 277.568977 1708.112306 
L 203.422614 1709.355837 
L 177.551705 1711.612139 
L 195.052614 1714.345342 
L 181.778977 1717.714412 
L 192.431705 1721.47577 
L 192.178068 1725.524295 
L 189.134432 1729.572819 
L 203.422614 1731.28043 
L 239.269886 1733.623908 
L 239.269886 1737.526285 
L 236.733523 1741.541478 
L 227.179886 1744.890036 
L 222.614432 1748.441148 
L 212.215341 1752.04354 
L 226.841705 1755.66388 
L 213.568068 1757.120221 
L 167.237159 1759.161149 
L 180.595341 1762.612266 
L 216.442614 1766.340293 
L 201.731705 1770.30677 
L 226.503523 1774.278375 
L 226.503523 1774.278375 
" clip-path="url(#p45cfb438f4)" style="fill: none; stroke: #000000; stroke-linecap: square"/>
   </g>
   <g id="line2d_49">
    <path d="M 304.369886 660.257257 
L 286.784432 1115.773949 
" clip-path="url(#p45cfb438f4)" style="fill: none; stroke-dasharray: 5,4; stroke-dashoffset: 0; stroke: #000000"/>
   </g>
   <g id="patch_18">
    <path d="M 105.09625 1774.278375 
L 105.09625 111.078375 
" style="fill: none; stroke: #000000; stroke-width: 0.8; stroke-linejoin: miter; stroke-linecap: square"/>
   </g>
   <g id="patch_19">
    <path d="M 663.09625 1774.278375 
L 663.09625 111.078375 
" style="fill: none; stroke: #000000; stroke-width: 0.8; stroke-linejoin: miter; stroke-linecap: square"/>
   </g>
   <g id="patch_20">
    <path d="M 105.09625 1774.278375 
L 663.09625 1774.278375 
" style="fill: none; stroke: #000000; stroke-width: 0.8; stroke-linejoin: miter; stroke-linecap: square"/>
   </g>
   <g id="patch_21">
    <path d="M 105.09625 111.078375 
L 663.09625 111.078375 
" style="fill: none; stroke: #000000; stroke-width: 0.8; stroke-linejoin: miter; stroke-linecap: square"/>
   </g>
   <g id="text_32">
    <!-- EPICA  CH -->
    <g transform="translate(286.582188 29.995312) scale(0.3 -0.3)">
     <defs>
      <path id="DejaVuSans-Bold-45" d="M 588 4666 
L 3834 4666 
L 3834 3756 
L 1791 3756 
L 1791 2888 
L 3713 2888 
L 3713 1978 
L 1791 1978 
L 1791 909 
L 3903 909 
L 3903 0 
L 588 0 
L 588 4666 
z
" transform="scale(0.015625)"/>
      <path id="DejaVuSans-Bold-2013" d="M 344 2156 
L 2856 2156 
L 2856 1350 
L 344 1350 
L 344 2156 
z
" transform="scale(0.015625)"/>
      <path id="DejaVuSans-Bold-2084" d="M 1397 1976 
L 650 966 
L 1397 966 
L 1397 1976 
z
M 1341 2585 
L 2116 2585 
L 2116 966 
L 2544 966 
L 2544 482 
L 2116 482 
L 2116 -24 
L 1397 -24 
L 1397 482 
L 175 482 
L 175 1007 
L 1341 2585 
z
" transform="scale(0.015625)"/>
     </defs>
     <use xlink:href="#DejaVuSans-Bold-45"/>
     <use xlink:href="#DejaVuSans-Bold-50" x="68.310547"/>
     <use xlink:href="#DejaVuSans-Bold-49" x="141.601562"/>
     <use xlink:href="#DejaVuSans-Bold-43" x="178.808594"/>
     <use xlink:href="#DejaVuSans-Bold-41" x="252.197266"/>
     <use xlink:href="#DejaVuSans-Bold-20" x="329.589844"/>
     <use xlink:href="#DejaVuSans-Bold-2013" x="364.404297"/>
     <use xlink:href="#DejaVuSans-Bold-20" x="414.404297"/>
     <use xlink:href="#DejaVuSans-Bold-43" x="449.21875"/>
     <use xlink:href="#DejaVuSans-Bold-48" x="522.607422"/>
     <use xlink:href="#DejaVuSans-Bold-2084" x="606.298828"/>
    </g>
   </g>
  </g>
 </g>
 <defs>
  <clipPath id="p45cfb438f4">
   <rect x="105.09625" y="111.078375" width="558" height="1663.2"/>
  </clipPath>
 </defs>
</svg>
