<?xml version="1.0" encoding="utf-8" standalone="no"?>
<!DOCTYPE svg PUBLIC "-//W3C//DTD SVG 1.1//EN"
  "http://www.w3.org/Graphics/SVG/1.1/DTD/svg11.dtd">
<svg xmlns:xlink="http://www.w3.org/1999/xlink" width="682.149176pt" height="1807.959344pt" viewBox="0 0 682.149176 1807.959344" xmlns="http://www.w3.org/2000/svg" version="1.1">
 <metadata>
  <rdf:RDF xmlns:dc="http://purl.org/dc/elements/1.1/" xmlns:cc="http://creativecommons.org/ns#" xmlns:rdf="http://www.w3.org/1999/02/22-rdf-syntax-ns#">
   <cc:Work>
    <dc:type rdf:resource="http://purl.org/dc/dcmitype/StillImage"/>
    <dc:date>2026-02-24T23:09:05.214033</dc:date>
    <dc:format>image/svg+xml</dc:format>
    <dc:creator>
     <cc:Agent>
      <dc:title>Matplotlib v3.9.2, https://matplotlib.org/</dc:title>
     </cc:Agent>
    </dc:creator>
   </cc:Work>
  </rdf:RDF>
 </metadata>
 <defs>
  <style type="text/css">*{stroke-linejoin: round; stroke-linecap: butt}</style>
 </defs>
 <g id="figure_1">
  <g id="patch_1">
   <path d="M 0 1807.959344 
L 682.149176 1807.959344 
L 682.149176 0 
L 0 0 
z
" style="fill: #ffffff"/>
  </g>
  <g id="axes_1">
   <g id="patch_2">
    <path d="M 105.09625 1768.158437 
L 663.09625 1768.158437 
L 663.09625 104.958437 
L 105.09625 104.958437 
z
" style="fill: #ffffff"/>
   </g>
   <g id="patch_3">
    <path d="M 105.09625 104.958437 
L 663.09625 104.958437 
L 663.09625 140.854158 
L 105.09625 140.854158 
z
" clip-path="url(#pe75ba490a0)" style="fill: #fddbc7"/>
   </g>
   <g id="patch_4">
    <path d="M 105.09625 140.854158 
L 663.09625 140.854158 
L 663.09625 179.313858 
L 105.09625 179.313858 
z
" clip-path="url(#pe75ba490a0)" style="fill: #d6e8f7"/>
   </g>
   <g id="patch_5">
    <path d="M 105.09625 179.313858 
L 663.09625 179.313858 
L 663.09625 251.105299 
L 105.09625 251.105299 
z
" clip-path="url(#pe75ba490a0)" style="fill: #fef0e6"/>
   </g>
   <g id="patch_6">
    <path d="M 105.09625 251.105299 
L 663.09625 251.105299 
L 663.09625 287.001019 
L 105.09625 287.001019 
z
" clip-path="url(#pe75ba490a0)" style="fill: #d6e8f7"/>
   </g>
   <g id="patch_7">
    <path d="M 105.09625 287.001019 
L 663.09625 287.001019 
L 663.09625 438.275841 
L 105.09625 438.275841 
z
" clip-path="url(#pe75ba490a0)" style="fill: #fddbc7"/>
   </g>
   <g id="patch_8">
    <path d="M 105.09625 438.275841 
L 663.09625 438.275841 
L 663.09625 594.678623 
L 105.09625 594.678623 
z
" clip-path="url(#pe75ba490a0)" style="fill: #d6e8f7"/>
   </g>
   <g id="patch_9">
    <path d="M 105.09625 594.678623 
L 663.09625 594.678623 
L 663.09625 728.005584 
L 105.09625 728.005584 
z
" clip-path="url(#pe75ba490a0)" style="fill: #fddbc7"/>
   </g>
   <g id="patch_10">
    <path d="M 105.09625 728.005584 
L 663.09625 728.005584 
L 663.09625 874.152446 
L 105.09625 874.152446 
z
" clip-path="url(#pe75ba490a0)" style="fill: #d6e8f7"/>
   </g>
   <g id="patch_11">
    <path d="M 105.09625 874.152446 
L 663.09625 874.152446 
L 663.09625 969.019707 
L 105.09625 969.019707 
z
" clip-path="url(#pe75ba490a0)" style="fill: #fddbc7"/>
   </g>
   <g id="patch_12">
    <path d="M 105.09625 969.019707 
L 663.09625 969.019707 
L 663.09625 1063.886968 
L 105.09625 1063.886968 
z
" clip-path="url(#pe75ba490a0)" style="fill: #d6e8f7"/>
   </g>
   <g id="patch_13">
    <path d="M 105.09625 1063.886968 
L 663.09625 1063.886968 
L 663.09625 1192.085969 
L 105.09625 1192.085969 
z
" clip-path="url(#pe75ba490a0)" style="fill: #fddbc7"/>
   </g>
   <g id="patch_14">
    <path d="M 105.09625 1192.085969 
L 663.09625 1192.085969 
L 663.09625 1456.175912 
L 105.09625 1456.175912 
z
" clip-path="url(#pe75ba490a0)" style="fill: #d6e8f7"/>
   </g>
   <g id="patch_15">
    <path d="M 105.09625 1456.175912 
L 663.09625 1456.175912 
L 663.09625 1502.327552 
L 105.09625 1502.327552 
z
" clip-path="url(#pe75ba490a0)" style="fill: #fddbc7"/>
   </g>
   <g id="patch_16">
    <path d="M 105.09625 1502.327552 
L 663.09625 1502.327552 
L 663.09625 1697.190034 
L 105.09625 1697.190034 
z
" clip-path="url(#pe75ba490a0)" style="fill: #fddbc7"/>
   </g>
   <g id="patch_17">
    <path d="M 105.09625 1697.190034 
L 663.09625 1697.190034 
L 663.09625 1838.208936 
L 105.09625 1838.208936 
z
" clip-path="url(#pe75ba490a0)" style="fill: #d6e8f7"/>
   </g>
   <g id="matplotlib.axis_1">
    <g id="xtick_1">
     <g id="line2d_1">
      <defs>
       <path id="m7eb4fed656" d="M 0 0 
L 0 -3.5 
" style="stroke: #000000; stroke-width: 0.8"/>
      </defs>
      <g>
       <use xlink:href="#m7eb4fed656" x="130.459886" y="104.958437" style="stroke: #000000; stroke-width: 0.8"/>
      </g>
     </g>
     <g id="text_1">
      <!-- 300.0 -->
      <g transform="translate(93.243324 92.55125) scale(0.26 -0.26)">
       <defs>
        <path id="DejaVuSans-33" d="M 2597 2516 
Q 3050 2419 3304 2112 
Q 3559 1806 3559 1356 
Q 3559 666 3084 287 
Q 2609 -91 1734 -91 
Q 1441 -91 1130 -33 
Q 819 25 488 141 
L 488 750 
Q 750 597 1062 519 
Q 1375 441 1716 441 
Q 2309 441 2620 675 
Q 2931 909 2931 1356 
Q 2931 1769 2642 2001 
Q 2353 2234 1838 2234 
L 1294 2234 
L 1294 2753 
L 1863 2753 
Q 2328 2753 2575 2939 
Q 2822 3125 2822 3475 
Q 2822 3834 2567 4026 
Q 2313 4219 1838 4219 
Q 1578 4219 1281 4162 
Q 984 4106 628 3988 
L 628 4550 
Q 988 4650 1302 4700 
Q 1616 4750 1894 4750 
Q 2613 4750 3031 4423 
Q 3450 4097 3450 3541 
Q 3450 3153 3228 2886 
Q 3006 2619 2597 2516 
z
" transform="scale(0.015625)"/>
        <path id="DejaVuSans-30" d="M 2034 4250 
Q 1547 4250 1301 3770 
Q 1056 3291 1056 2328 
Q 1056 1369 1301 889 
Q 1547 409 2034 409 
Q 2525 409 2770 889 
Q 3016 1369 3016 2328 
Q 3016 3291 2770 3770 
Q 2525 4250 2034 4250 
z
M 2034 4750 
Q 2819 4750 3233 4129 
Q 3647 3509 3647 2328 
Q 3647 1150 3233 529 
Q 2819 -91 2034 -91 
Q 1250 -91 836 529 
Q 422 1150 422 2328 
Q 422 3509 836 4129 
Q 1250 4750 2034 4750 
z
" transform="scale(0.015625)"/>
        <path id="DejaVuSans-2e" d="M 684 794 
L 1344 794 
L 1344 0 
L 684 0 
L 684 794 
z
" transform="scale(0.015625)"/>
       </defs>
       <use xlink:href="#DejaVuSans-33"/>
       <use xlink:href="#DejaVuSans-30" x="63.623047"/>
       <use xlink:href="#DejaVuSans-30" x="127.246094"/>
       <use xlink:href="#DejaVuSans-2e" x="190.869141"/>
       <use xlink:href="#DejaVuSans-30" x="222.65625"/>
      </g>
     </g>
    </g>
    <g id="xtick_2">
     <g id="line2d_2">
      <g>
       <use xlink:href="#m7eb4fed656" x="215.005341" y="104.958437" style="stroke: #000000; stroke-width: 0.8"/>
      </g>
     </g>
     <g id="text_2">
      <!-- 400.0 -->
      <g transform="translate(177.788778 92.55125) scale(0.26 -0.26)">
       <defs>
        <path id="DejaVuSans-34" d="M 2419 4116 
L 825 1625 
L 2419 1625 
L 2419 4116 
z
M 2253 4666 
L 3047 4666 
L 3047 1625 
L 3713 1625 
L 3713 1100 
L 3047 1100 
L 3047 0 
L 2419 0 
L 2419 1100 
L 313 1100 
L 313 1709 
L 2253 4666 
z
" transform="scale(0.015625)"/>
       </defs>
       <use xlink:href="#DejaVuSans-34"/>
       <use xlink:href="#DejaVuSans-30" x="63.623047"/>
       <use xlink:href="#DejaVuSans-30" x="127.246094"/>
       <use xlink:href="#DejaVuSans-2e" x="190.869141"/>
       <use xlink:href="#DejaVuSans-30" x="222.65625"/>
      </g>
     </g>
    </g>
    <g id="xtick_3">
     <g id="line2d_3">
      <g>
       <use xlink:href="#m7eb4fed656" x="299.550795" y="104.958437" style="stroke: #000000; stroke-width: 0.8"/>
      </g>
     </g>
     <g id="text_3">
      <!-- 500.0 -->
      <g transform="translate(262.334233 92.55125) scale(0.26 -0.26)">
       <defs>
        <path id="DejaVuSans-35" d="M 691 4666 
L 3169 4666 
L 3169 4134 
L 1269 4134 
L 1269 2991 
Q 1406 3038 1543 3061 
Q 1681 3084 1819 3084 
Q 2600 3084 3056 2656 
Q 3513 2228 3513 1497 
Q 3513 744 3044 326 
Q 2575 -91 1722 -91 
Q 1428 -91 1123 -41 
Q 819 9 494 109 
L 494 744 
Q 775 591 1075 516 
Q 1375 441 1709 441 
Q 2250 441 2565 725 
Q 2881 1009 2881 1497 
Q 2881 1984 2565 2268 
Q 2250 2553 1709 2553 
Q 1456 2553 1204 2497 
Q 953 2441 691 2322 
L 691 4666 
z
" transform="scale(0.015625)"/>
       </defs>
       <use xlink:href="#DejaVuSans-35"/>
       <use xlink:href="#DejaVuSans-30" x="63.623047"/>
       <use xlink:href="#DejaVuSans-30" x="127.246094"/>
       <use xlink:href="#DejaVuSans-2e" x="190.869141"/>
       <use xlink:href="#DejaVuSans-30" x="222.65625"/>
      </g>
     </g>
    </g>
    <g id="xtick_4">
     <g id="line2d_4">
      <g>
       <use xlink:href="#m7eb4fed656" x="384.09625" y="104.958437" style="stroke: #000000; stroke-width: 0.8"/>
      </g>
     </g>
     <g id="text_4">
      <!-- 600.0 -->
      <g transform="translate(346.879687 92.55125) scale(0.26 -0.26)">
       <defs>
        <path id="DejaVuSans-36" d="M 2113 2584 
Q 1688 2584 1439 2293 
Q 1191 2003 1191 1497 
Q 1191 994 1439 701 
Q 1688 409 2113 409 
Q 2538 409 2786 701 
Q 3034 994 3034 1497 
Q 3034 2003 2786 2293 
Q 2538 2584 2113 2584 
z
M 3366 4563 
L 3366 3988 
Q 3128 4100 2886 4159 
Q 2644 4219 2406 4219 
Q 1781 4219 1451 3797 
Q 1122 3375 1075 2522 
Q 1259 2794 1537 2939 
Q 1816 3084 2150 3084 
Q 2853 3084 3261 2657 
Q 3669 2231 3669 1497 
Q 3669 778 3244 343 
Q 2819 -91 2113 -91 
Q 1303 -91 875 529 
Q 447 1150 447 2328 
Q 447 3434 972 4092 
Q 1497 4750 2381 4750 
Q 2619 4750 2861 4703 
Q 3103 4656 3366 4563 
z
" transform="scale(0.015625)"/>
       </defs>
       <use xlink:href="#DejaVuSans-36"/>
       <use xlink:href="#DejaVuSans-30" x="63.623047"/>
       <use xlink:href="#DejaVuSans-30" x="127.246094"/>
       <use xlink:href="#DejaVuSans-2e" x="190.869141"/>
       <use xlink:href="#DejaVuSans-30" x="222.65625"/>
      </g>
     </g>
    </g>
    <g id="xtick_5">
     <g id="line2d_5">
      <g>
       <use xlink:href="#m7eb4fed656" x="468.641705" y="104.958437" style="stroke: #000000; stroke-width: 0.8"/>
      </g>
     </g>
     <g id="text_5">
      <!-- 700.0 -->
      <g transform="translate(431.425142 92.55125) scale(0.26 -0.26)">
       <defs>
        <path id="DejaVuSans-37" d="M 525 4666 
L 3525 4666 
L 3525 4397 
L 1831 0 
L 1172 0 
L 2766 4134 
L 525 4134 
L 525 4666 
z
" transform="scale(0.015625)"/>
       </defs>
       <use xlink:href="#DejaVuSans-37"/>
       <use xlink:href="#DejaVuSans-30" x="63.623047"/>
       <use xlink:href="#DejaVuSans-30" x="127.246094"/>
       <use xlink:href="#DejaVuSans-2e" x="190.869141"/>
       <use xlink:href="#DejaVuSans-30" x="222.65625"/>
      </g>
     </g>
    </g>
    <g id="xtick_6">
     <g id="line2d_6">
      <g>
       <use xlink:href="#m7eb4fed656" x="553.187159" y="104.958437" style="stroke: #000000; stroke-width: 0.8"/>
      </g>
     </g>
     <g id="text_6">
      <!-- 800.0 -->
      <g transform="translate(515.970597 92.55125) scale(0.26 -0.26)">
       <defs>
        <path id="DejaVuSans-38" d="M 2034 2216 
Q 1584 2216 1326 1975 
Q 1069 1734 1069 1313 
Q 1069 891 1326 650 
Q 1584 409 2034 409 
Q 2484 409 2743 651 
Q 3003 894 3003 1313 
Q 3003 1734 2745 1975 
Q 2488 2216 2034 2216 
z
M 1403 2484 
Q 997 2584 770 2862 
Q 544 3141 544 3541 
Q 544 4100 942 4425 
Q 1341 4750 2034 4750 
Q 2731 4750 3128 4425 
Q 3525 4100 3525 3541 
Q 3525 3141 3298 2862 
Q 3072 2584 2669 2484 
Q 3125 2378 3379 2068 
Q 3634 1759 3634 1313 
Q 3634 634 3220 271 
Q 2806 -91 2034 -91 
Q 1263 -91 848 271 
Q 434 634 434 1313 
Q 434 1759 690 2068 
Q 947 2378 1403 2484 
z
M 1172 3481 
Q 1172 3119 1398 2916 
Q 1625 2713 2034 2713 
Q 2441 2713 2670 2916 
Q 2900 3119 2900 3481 
Q 2900 3844 2670 4047 
Q 2441 4250 2034 4250 
Q 1625 4250 1398 4047 
Q 1172 3844 1172 3481 
z
" transform="scale(0.015625)"/>
       </defs>
       <use xlink:href="#DejaVuSans-38"/>
       <use xlink:href="#DejaVuSans-30" x="63.623047"/>
       <use xlink:href="#DejaVuSans-30" x="127.246094"/>
       <use xlink:href="#DejaVuSans-2e" x="190.869141"/>
       <use xlink:href="#DejaVuSans-30" x="222.65625"/>
      </g>
     </g>
    </g>
    <g id="xtick_7">
     <g id="line2d_7">
      <g>
       <use xlink:href="#m7eb4fed656" x="637.732614" y="104.958437" style="stroke: #000000; stroke-width: 0.8"/>
      </g>
     </g>
     <g id="text_7">
      <!-- 900.0 -->
      <g transform="translate(600.516051 92.55125) scale(0.26 -0.26)">
       <defs>
        <path id="DejaVuSans-39" d="M 703 97 
L 703 672 
Q 941 559 1184 500 
Q 1428 441 1663 441 
Q 2288 441 2617 861 
Q 2947 1281 2994 2138 
Q 2813 1869 2534 1725 
Q 2256 1581 1919 1581 
Q 1219 1581 811 2004 
Q 403 2428 403 3163 
Q 403 3881 828 4315 
Q 1253 4750 1959 4750 
Q 2769 4750 3195 4129 
Q 3622 3509 3622 2328 
Q 3622 1225 3098 567 
Q 2575 -91 1691 -91 
Q 1453 -91 1209 -44 
Q 966 3 703 97 
z
M 1959 2075 
Q 2384 2075 2632 2365 
Q 2881 2656 2881 3163 
Q 2881 3666 2632 3958 
Q 2384 4250 1959 4250 
Q 1534 4250 1286 3958 
Q 1038 3666 1038 3163 
Q 1038 2656 1286 2365 
Q 1534 2075 1959 2075 
z
" transform="scale(0.015625)"/>
       </defs>
       <use xlink:href="#DejaVuSans-39"/>
       <use xlink:href="#DejaVuSans-30" x="63.623047"/>
       <use xlink:href="#DejaVuSans-30" x="127.246094"/>
       <use xlink:href="#DejaVuSans-2e" x="190.869141"/>
       <use xlink:href="#DejaVuSans-30" x="222.65625"/>
      </g>
     </g>
    </g>
    <g id="text_8">
     <!-- $\mathbf{CH}_{\mathbf{4}}\ \mathbf{[ppbv]}$ -->
     <g transform="translate(291.99625 60.795312) scale(0.3 -0.3)">
      <defs>
       <path id="DejaVuSans-Bold-43" d="M 4288 256 
Q 3956 84 3597 -3 
Q 3238 -91 2847 -91 
Q 1681 -91 1000 561 
Q 319 1213 319 2328 
Q 319 3447 1000 4098 
Q 1681 4750 2847 4750 
Q 3238 4750 3597 4662 
Q 3956 4575 4288 4403 
L 4288 3438 
Q 3953 3666 3628 3772 
Q 3303 3878 2944 3878 
Q 2300 3878 1931 3465 
Q 1563 3053 1563 2328 
Q 1563 1606 1931 1193 
Q 2300 781 2944 781 
Q 3303 781 3628 887 
Q 3953 994 4288 1222 
L 4288 256 
z
" transform="scale(0.015625)"/>
       <path id="DejaVuSans-Bold-48" d="M 588 4666 
L 1791 4666 
L 1791 2888 
L 3566 2888 
L 3566 4666 
L 4769 4666 
L 4769 0 
L 3566 0 
L 3566 1978 
L 1791 1978 
L 1791 0 
L 588 0 
L 588 4666 
z
" transform="scale(0.015625)"/>
       <path id="DejaVuSans-Bold-34" d="M 2356 3675 
L 1038 1722 
L 2356 1722 
L 2356 3675 
z
M 2156 4666 
L 3494 4666 
L 3494 1722 
L 4159 1722 
L 4159 850 
L 3494 850 
L 3494 0 
L 2356 0 
L 2356 850 
L 288 850 
L 288 1881 
L 2156 4666 
z
" transform="scale(0.015625)"/>
       <path id="DejaVuSans-Bold-5b" d="M 550 4863 
L 2491 4863 
L 2491 4159 
L 1613 4159 
L 1613 -141 
L 2491 -141 
L 2491 -844 
L 550 -844 
L 550 4863 
z
" transform="scale(0.015625)"/>
       <path id="DejaVuSans-Bold-70" d="M 1656 506 
L 1656 -1331 
L 538 -1331 
L 538 3500 
L 1656 3500 
L 1656 2988 
Q 1888 3294 2169 3439 
Q 2450 3584 2816 3584 
Q 3463 3584 3878 3070 
Q 4294 2556 4294 1747 
Q 4294 938 3878 423 
Q 3463 -91 2816 -91 
Q 2450 -91 2169 54 
Q 1888 200 1656 506 
z
M 2400 2772 
Q 2041 2772 1848 2508 
Q 1656 2244 1656 1747 
Q 1656 1250 1848 986 
Q 2041 722 2400 722 
Q 2759 722 2948 984 
Q 3138 1247 3138 1747 
Q 3138 2247 2948 2509 
Q 2759 2772 2400 2772 
z
" transform="scale(0.015625)"/>
       <path id="DejaVuSans-Bold-62" d="M 2400 722 
Q 2759 722 2948 984 
Q 3138 1247 3138 1747 
Q 3138 2247 2948 2509 
Q 2759 2772 2400 2772 
Q 2041 2772 1848 2508 
Q 1656 2244 1656 1747 
Q 1656 1250 1848 986 
Q 2041 722 2400 722 
z
M 1656 2988 
Q 1888 3294 2169 3439 
Q 2450 3584 2816 3584 
Q 3463 3584 3878 3070 
Q 4294 2556 4294 1747 
Q 4294 938 3878 423 
Q 3463 -91 2816 -91 
Q 2450 -91 2169 54 
Q 1888 200 1656 506 
L 1656 0 
L 538 0 
L 538 4863 
L 1656 4863 
L 1656 2988 
z
" transform="scale(0.015625)"/>
       <path id="DejaVuSans-Bold-76" d="M 97 3500 
L 1216 3500 
L 2088 1081 
L 2956 3500 
L 4078 3500 
L 2700 0 
L 1472 0 
L 97 3500 
z
" transform="scale(0.015625)"/>
       <path id="DejaVuSans-Bold-5d" d="M 2375 -844 
L 434 -844 
L 434 -141 
L 1313 -141 
L 1313 4159 
L 434 4159 
L 434 4863 
L 2375 4863 
L 2375 -844 
z
" transform="scale(0.015625)"/>
      </defs>
      <use xlink:href="#DejaVuSans-Bold-43" transform="translate(0 0.015625)"/>
      <use xlink:href="#DejaVuSans-Bold-48" transform="translate(73.388672 0.015625)"/>
      <use xlink:href="#DejaVuSans-Bold-34" transform="translate(158.037109 -16.390625) scale(0.7)"/>
      <use xlink:href="#DejaVuSans-Bold-5b" transform="translate(241.947917 0.015625)"/>
      <use xlink:href="#DejaVuSans-Bold-70" transform="translate(287.651042 0.015625)"/>
      <use xlink:href="#DejaVuSans-Bold-70" transform="translate(359.233074 0.015625)"/>
      <use xlink:href="#DejaVuSans-Bold-62" transform="translate(430.815105 0.015625)"/>
      <use xlink:href="#DejaVuSans-Bold-76" transform="translate(502.397136 0.015625)"/>
      <use xlink:href="#DejaVuSans-Bold-5d" transform="translate(567.582683 0.015625)"/>
     </g>
    </g>
   </g>
   <g id="matplotlib.axis_2">
    <g id="ytick_1">
     <g id="line2d_8">
      <path d="M 105.09625 104.958437 
L 663.09625 104.958437 
" clip-path="url(#pe75ba490a0)" style="fill: none; stroke: #cccccc; stroke-linecap: square"/>
     </g>
     <g id="line2d_9">
      <defs>
       <path id="mdca12936b5" d="M 0 0 
L -3.5 0 
" style="stroke: #000000; stroke-width: 0.8"/>
      </defs>
      <g>
       <use xlink:href="#mdca12936b5" x="105.09625" y="104.958437" style="stroke: #000000; stroke-width: 0.8"/>
      </g>
     </g>
     <g id="text_9">
      <!-- 0 -->
      <g transform="translate(81.55375 114.836406) scale(0.26 -0.26)">
       <use xlink:href="#DejaVuSans-30"/>
      </g>
     </g>
    </g>
    <g id="ytick_2">
     <g id="line2d_10">
      <path d="M 105.09625 361.35644 
L 663.09625 361.35644 
" clip-path="url(#pe75ba490a0)" style="fill: none; stroke: #cccccc; stroke-linecap: square"/>
     </g>
     <g id="line2d_11">
      <g>
       <use xlink:href="#mdca12936b5" x="105.09625" y="361.35644" style="stroke: #000000; stroke-width: 0.8"/>
      </g>
     </g>
     <g id="text_10">
      <!-- 100 -->
      <g transform="translate(48.46875 371.234409) scale(0.26 -0.26)">
       <defs>
        <path id="DejaVuSans-31" d="M 794 531 
L 1825 531 
L 1825 4091 
L 703 3866 
L 703 4441 
L 1819 4666 
L 2450 4666 
L 2450 531 
L 3481 531 
L 3481 0 
L 794 0 
L 794 531 
z
" transform="scale(0.015625)"/>
       </defs>
       <use xlink:href="#DejaVuSans-31"/>
       <use xlink:href="#DejaVuSans-30" x="63.623047"/>
       <use xlink:href="#DejaVuSans-30" x="127.246094"/>
      </g>
     </g>
    </g>
    <g id="ytick_3">
     <g id="line2d_12">
      <path d="M 105.09625 617.754443 
L 663.09625 617.754443 
" clip-path="url(#pe75ba490a0)" style="fill: none; stroke: #cccccc; stroke-linecap: square"/>
     </g>
     <g id="line2d_13">
      <g>
       <use xlink:href="#mdca12936b5" x="105.09625" y="617.754443" style="stroke: #000000; stroke-width: 0.8"/>
      </g>
     </g>
     <g id="text_11">
      <!-- 200 -->
      <g transform="translate(48.46875 627.632412) scale(0.26 -0.26)">
       <defs>
        <path id="DejaVuSans-32" d="M 1228 531 
L 3431 531 
L 3431 0 
L 469 0 
L 469 531 
Q 828 903 1448 1529 
Q 2069 2156 2228 2338 
Q 2531 2678 2651 2914 
Q 2772 3150 2772 3378 
Q 2772 3750 2511 3984 
Q 2250 4219 1831 4219 
Q 1534 4219 1204 4116 
Q 875 4013 500 3803 
L 500 4441 
Q 881 4594 1212 4672 
Q 1544 4750 1819 4750 
Q 2544 4750 2975 4387 
Q 3406 4025 3406 3419 
Q 3406 3131 3298 2873 
Q 3191 2616 2906 2266 
Q 2828 2175 2409 1742 
Q 1991 1309 1228 531 
z
" transform="scale(0.015625)"/>
       </defs>
       <use xlink:href="#DejaVuSans-32"/>
       <use xlink:href="#DejaVuSans-30" x="63.623047"/>
       <use xlink:href="#DejaVuSans-30" x="127.246094"/>
      </g>
     </g>
    </g>
    <g id="ytick_4">
     <g id="line2d_14">
      <path d="M 105.09625 874.152446 
L 663.09625 874.152446 
" clip-path="url(#pe75ba490a0)" style="fill: none; stroke: #cccccc; stroke-linecap: square"/>
     </g>
     <g id="line2d_15">
      <g>
       <use xlink:href="#mdca12936b5" x="105.09625" y="874.152446" style="stroke: #000000; stroke-width: 0.8"/>
      </g>
     </g>
     <g id="text_12">
      <!-- 300 -->
      <g transform="translate(48.46875 884.030414) scale(0.26 -0.26)">
       <use xlink:href="#DejaVuSans-33"/>
       <use xlink:href="#DejaVuSans-30" x="63.623047"/>
       <use xlink:href="#DejaVuSans-30" x="127.246094"/>
      </g>
     </g>
    </g>
    <g id="ytick_5">
     <g id="line2d_16">
      <path d="M 105.09625 1130.550448 
L 663.09625 1130.550448 
" clip-path="url(#pe75ba490a0)" style="fill: none; stroke: #cccccc; stroke-linecap: square"/>
     </g>
     <g id="line2d_17">
      <g>
       <use xlink:href="#mdca12936b5" x="105.09625" y="1130.550448" style="stroke: #000000; stroke-width: 0.8"/>
      </g>
     </g>
     <g id="text_13">
      <!-- 400 -->
      <g transform="translate(48.46875 1140.428417) scale(0.26 -0.26)">
       <use xlink:href="#DejaVuSans-34"/>
       <use xlink:href="#DejaVuSans-30" x="63.623047"/>
       <use xlink:href="#DejaVuSans-30" x="127.246094"/>
      </g>
     </g>
    </g>
    <g id="ytick_6">
     <g id="line2d_18">
      <path d="M 105.09625 1386.948451 
L 663.09625 1386.948451 
" clip-path="url(#pe75ba490a0)" style="fill: none; stroke: #cccccc; stroke-linecap: square"/>
     </g>
     <g id="line2d_19">
      <g>
       <use xlink:href="#mdca12936b5" x="105.09625" y="1386.948451" style="stroke: #000000; stroke-width: 0.8"/>
      </g>
     </g>
     <g id="text_14">
      <!-- 500 -->
      <g transform="translate(48.46875 1396.82642) scale(0.26 -0.26)">
       <use xlink:href="#DejaVuSans-35"/>
       <use xlink:href="#DejaVuSans-30" x="63.623047"/>
       <use xlink:href="#DejaVuSans-30" x="127.246094"/>
      </g>
     </g>
    </g>
    <g id="ytick_7">
     <g id="line2d_20">
      <path d="M 105.09625 1643.346454 
L 663.09625 1643.346454 
" clip-path="url(#pe75ba490a0)" style="fill: none; stroke: #cccccc; stroke-linecap: square"/>
     </g>
     <g id="line2d_21">
      <g>
       <use xlink:href="#mdca12936b5" x="105.09625" y="1643.346454" style="stroke: #000000; stroke-width: 0.8"/>
      </g>
     </g>
     <g id="text_15">
      <!-- 600 -->
      <g transform="translate(48.46875 1653.224423) scale(0.26 -0.26)">
       <use xlink:href="#DejaVuSans-36"/>
       <use xlink:href="#DejaVuSans-30" x="63.623047"/>
       <use xlink:href="#DejaVuSans-30" x="127.246094"/>
      </g>
     </g>
    </g>
    <g id="ytick_8">
     <g id="line2d_22">
      <defs>
       <path id="mc5de14e98f" d="M 0 0 
L -4 0 
" style="stroke: #000000; stroke-width: 0.8"/>
      </defs>
      <g>
       <use xlink:href="#mc5de14e98f" x="105.09625" y="156.238038" style="stroke: #000000; stroke-width: 0.8"/>
      </g>
     </g>
    </g>
    <g id="ytick_9">
     <g id="line2d_23">
      <g>
       <use xlink:href="#mc5de14e98f" x="105.09625" y="207.517639" style="stroke: #000000; stroke-width: 0.8"/>
      </g>
     </g>
    </g>
    <g id="ytick_10">
     <g id="line2d_24">
      <g>
       <use xlink:href="#mc5de14e98f" x="105.09625" y="258.797239" style="stroke: #000000; stroke-width: 0.8"/>
      </g>
     </g>
    </g>
    <g id="ytick_11">
     <g id="line2d_25">
      <g>
       <use xlink:href="#mc5de14e98f" x="105.09625" y="310.07684" style="stroke: #000000; stroke-width: 0.8"/>
      </g>
     </g>
    </g>
    <g id="ytick_12">
     <g id="line2d_26">
      <g>
       <use xlink:href="#mc5de14e98f" x="105.09625" y="412.636041" style="stroke: #000000; stroke-width: 0.8"/>
      </g>
     </g>
    </g>
    <g id="ytick_13">
     <g id="line2d_27">
      <g>
       <use xlink:href="#mc5de14e98f" x="105.09625" y="463.915641" style="stroke: #000000; stroke-width: 0.8"/>
      </g>
     </g>
    </g>
    <g id="ytick_14">
     <g id="line2d_28">
      <g>
       <use xlink:href="#mc5de14e98f" x="105.09625" y="515.195242" style="stroke: #000000; stroke-width: 0.8"/>
      </g>
     </g>
    </g>
    <g id="ytick_15">
     <g id="line2d_29">
      <g>
       <use xlink:href="#mc5de14e98f" x="105.09625" y="566.474842" style="stroke: #000000; stroke-width: 0.8"/>
      </g>
     </g>
    </g>
    <g id="ytick_16">
     <g id="line2d_30">
      <g>
       <use xlink:href="#mc5de14e98f" x="105.09625" y="669.034043" style="stroke: #000000; stroke-width: 0.8"/>
      </g>
     </g>
    </g>
    <g id="ytick_17">
     <g id="line2d_31">
      <g>
       <use xlink:href="#mc5de14e98f" x="105.09625" y="720.313644" style="stroke: #000000; stroke-width: 0.8"/>
      </g>
     </g>
    </g>
    <g id="ytick_18">
     <g id="line2d_32">
      <g>
       <use xlink:href="#mc5de14e98f" x="105.09625" y="771.593245" style="stroke: #000000; stroke-width: 0.8"/>
      </g>
     </g>
    </g>
    <g id="ytick_19">
     <g id="line2d_33">
      <g>
       <use xlink:href="#mc5de14e98f" x="105.09625" y="822.872845" style="stroke: #000000; stroke-width: 0.8"/>
      </g>
     </g>
    </g>
    <g id="ytick_20">
     <g id="line2d_34">
      <g>
       <use xlink:href="#mc5de14e98f" x="105.09625" y="925.432046" style="stroke: #000000; stroke-width: 0.8"/>
      </g>
     </g>
    </g>
    <g id="ytick_21">
     <g id="line2d_35">
      <g>
       <use xlink:href="#mc5de14e98f" x="105.09625" y="976.711647" style="stroke: #000000; stroke-width: 0.8"/>
      </g>
     </g>
    </g>
    <g id="ytick_22">
     <g id="line2d_36">
      <g>
       <use xlink:href="#mc5de14e98f" x="105.09625" y="1027.991247" style="stroke: #000000; stroke-width: 0.8"/>
      </g>
     </g>
    </g>
    <g id="ytick_23">
     <g id="line2d_37">
      <g>
       <use xlink:href="#mc5de14e98f" x="105.09625" y="1079.270848" style="stroke: #000000; stroke-width: 0.8"/>
      </g>
     </g>
    </g>
    <g id="ytick_24">
     <g id="line2d_38">
      <g>
       <use xlink:href="#mc5de14e98f" x="105.09625" y="1181.830049" style="stroke: #000000; stroke-width: 0.8"/>
      </g>
     </g>
    </g>
    <g id="ytick_25">
     <g id="line2d_39">
      <g>
       <use xlink:href="#mc5de14e98f" x="105.09625" y="1233.109649" style="stroke: #000000; stroke-width: 0.8"/>
      </g>
     </g>
    </g>
    <g id="ytick_26">
     <g id="line2d_40">
      <g>
       <use xlink:href="#mc5de14e98f" x="105.09625" y="1284.38925" style="stroke: #000000; stroke-width: 0.8"/>
      </g>
     </g>
    </g>
    <g id="ytick_27">
     <g id="line2d_41">
      <g>
       <use xlink:href="#mc5de14e98f" x="105.09625" y="1335.668851" style="stroke: #000000; stroke-width: 0.8"/>
      </g>
     </g>
    </g>
    <g id="ytick_28">
     <g id="line2d_42">
      <g>
       <use xlink:href="#mc5de14e98f" x="105.09625" y="1438.228052" style="stroke: #000000; stroke-width: 0.8"/>
      </g>
     </g>
    </g>
    <g id="ytick_29">
     <g id="line2d_43">
      <g>
       <use xlink:href="#mc5de14e98f" x="105.09625" y="1489.507652" style="stroke: #000000; stroke-width: 0.8"/>
      </g>
     </g>
    </g>
    <g id="ytick_30">
     <g id="line2d_44">
      <g>
       <use xlink:href="#mc5de14e98f" x="105.09625" y="1540.787253" style="stroke: #000000; stroke-width: 0.8"/>
      </g>
     </g>
    </g>
    <g id="ytick_31">
     <g id="line2d_45">
      <g>
       <use xlink:href="#mc5de14e98f" x="105.09625" y="1592.066853" style="stroke: #000000; stroke-width: 0.8"/>
      </g>
     </g>
    </g>
    <g id="ytick_32">
     <g id="line2d_46">
      <g>
       <use xlink:href="#mc5de14e98f" x="105.09625" y="1694.626054" style="stroke: #000000; stroke-width: 0.8"/>
      </g>
     </g>
    </g>
    <g id="ytick_33">
     <g id="line2d_47">
      <g>
       <use xlink:href="#mc5de14e98f" x="105.09625" y="1745.905655" style="stroke: #000000; stroke-width: 0.8"/>
      </g>
     </g>
    </g>
    <g id="text_16">
     <!-- Age [ka BP] -->
     <g transform="translate(29.995313 1035.757656) rotate(-90) scale(0.3 -0.3)">
      <defs>
       <path id="DejaVuSans-Bold-41" d="M 3419 850 
L 1538 850 
L 1241 0 
L 31 0 
L 1759 4666 
L 3194 4666 
L 4922 0 
L 3713 0 
L 3419 850 
z
M 1838 1716 
L 3116 1716 
L 2478 3572 
L 1838 1716 
z
" transform="scale(0.015625)"/>
       <path id="DejaVuSans-Bold-67" d="M 2919 594 
Q 2688 288 2409 144 
Q 2131 0 1766 0 
Q 1125 0 706 504 
Q 288 1009 288 1791 
Q 288 2575 706 3076 
Q 1125 3578 1766 3578 
Q 2131 3578 2409 3434 
Q 2688 3291 2919 2981 
L 2919 3500 
L 4044 3500 
L 4044 353 
Q 4044 -491 3511 -936 
Q 2978 -1381 1966 -1381 
Q 1638 -1381 1331 -1331 
Q 1025 -1281 716 -1178 
L 716 -306 
Q 1009 -475 1290 -558 
Q 1572 -641 1856 -641 
Q 2406 -641 2662 -400 
Q 2919 -159 2919 353 
L 2919 594 
z
M 2181 2772 
Q 1834 2772 1640 2515 
Q 1447 2259 1447 1791 
Q 1447 1309 1634 1061 
Q 1822 813 2181 813 
Q 2531 813 2725 1069 
Q 2919 1325 2919 1791 
Q 2919 2259 2725 2515 
Q 2531 2772 2181 2772 
z
" transform="scale(0.015625)"/>
       <path id="DejaVuSans-Bold-65" d="M 4031 1759 
L 4031 1441 
L 1416 1441 
Q 1456 1047 1700 850 
Q 1944 653 2381 653 
Q 2734 653 3104 758 
Q 3475 863 3866 1075 
L 3866 213 
Q 3469 63 3072 -14 
Q 2675 -91 2278 -91 
Q 1328 -91 801 392 
Q 275 875 275 1747 
Q 275 2603 792 3093 
Q 1309 3584 2216 3584 
Q 3041 3584 3536 3087 
Q 4031 2591 4031 1759 
z
M 2881 2131 
Q 2881 2450 2695 2645 
Q 2509 2841 2209 2841 
Q 1884 2841 1681 2658 
Q 1478 2475 1428 2131 
L 2881 2131 
z
" transform="scale(0.015625)"/>
       <path id="DejaVuSans-Bold-20" transform="scale(0.015625)"/>
       <path id="DejaVuSans-Bold-6b" d="M 538 4863 
L 1656 4863 
L 1656 2216 
L 2944 3500 
L 4244 3500 
L 2534 1894 
L 4378 0 
L 3022 0 
L 1656 1459 
L 1656 0 
L 538 0 
L 538 4863 
z
" transform="scale(0.015625)"/>
       <path id="DejaVuSans-Bold-61" d="M 2106 1575 
Q 1756 1575 1579 1456 
Q 1403 1338 1403 1106 
Q 1403 894 1545 773 
Q 1688 653 1941 653 
Q 2256 653 2472 879 
Q 2688 1106 2688 1447 
L 2688 1575 
L 2106 1575 
z
M 3816 1997 
L 3816 0 
L 2688 0 
L 2688 519 
Q 2463 200 2181 54 
Q 1900 -91 1497 -91 
Q 953 -91 614 226 
Q 275 544 275 1050 
Q 275 1666 698 1953 
Q 1122 2241 2028 2241 
L 2688 2241 
L 2688 2328 
Q 2688 2594 2478 2717 
Q 2269 2841 1825 2841 
Q 1466 2841 1156 2769 
Q 847 2697 581 2553 
L 581 3406 
Q 941 3494 1303 3539 
Q 1666 3584 2028 3584 
Q 2975 3584 3395 3211 
Q 3816 2838 3816 1997 
z
" transform="scale(0.015625)"/>
       <path id="DejaVuSans-Bold-42" d="M 2456 2859 
Q 2741 2859 2887 2984 
Q 3034 3109 3034 3353 
Q 3034 3594 2887 3720 
Q 2741 3847 2456 3847 
L 1791 3847 
L 1791 2859 
L 2456 2859 
z
M 2497 819 
Q 2859 819 3042 972 
Q 3225 1125 3225 1434 
Q 3225 1738 3044 1889 
Q 2863 2041 2497 2041 
L 1791 2041 
L 1791 819 
L 2497 819 
z
M 3616 2497 
Q 4003 2384 4215 2081 
Q 4428 1778 4428 1338 
Q 4428 663 3972 331 
Q 3516 0 2584 0 
L 588 0 
L 588 4666 
L 2394 4666 
Q 3366 4666 3802 4372 
Q 4238 4078 4238 3431 
Q 4238 3091 4078 2852 
Q 3919 2613 3616 2497 
z
" transform="scale(0.015625)"/>
       <path id="DejaVuSans-Bold-50" d="M 588 4666 
L 2584 4666 
Q 3475 4666 3951 4270 
Q 4428 3875 4428 3144 
Q 4428 2409 3951 2014 
Q 3475 1619 2584 1619 
L 1791 1619 
L 1791 0 
L 588 0 
L 588 4666 
z
M 1791 3794 
L 1791 2491 
L 2456 2491 
Q 2806 2491 2997 2661 
Q 3188 2831 3188 3144 
Q 3188 3456 2997 3625 
Q 2806 3794 2456 3794 
L 1791 3794 
z
" transform="scale(0.015625)"/>
      </defs>
      <use xlink:href="#DejaVuSans-Bold-41"/>
      <use xlink:href="#DejaVuSans-Bold-67" x="77.392578"/>
      <use xlink:href="#DejaVuSans-Bold-65" x="148.974609"/>
      <use xlink:href="#DejaVuSans-Bold-20" x="216.796875"/>
      <use xlink:href="#DejaVuSans-Bold-5b" x="251.611328"/>
      <use xlink:href="#DejaVuSans-Bold-6b" x="297.314453"/>
      <use xlink:href="#DejaVuSans-Bold-61" x="363.818359"/>
      <use xlink:href="#DejaVuSans-Bold-20" x="431.298828"/>
      <use xlink:href="#DejaVuSans-Bold-42" x="466.113281"/>
      <use xlink:href="#DejaVuSans-Bold-50" x="542.333984"/>
      <use xlink:href="#DejaVuSans-Bold-5d" x="615.625"/>
     </g>
    </g>
   </g>
   <g id="text_17">
    <!-- MIS 1 -->
    <g style="fill: #8b1a00" transform="translate(607.41625 127.321298) scale(0.16 -0.16)">
     <defs>
      <path id="DejaVuSans-Bold-4d" d="M 588 4666 
L 2119 4666 
L 3181 2169 
L 4250 4666 
L 5778 4666 
L 5778 0 
L 4641 0 
L 4641 3413 
L 3566 897 
L 2803 897 
L 1728 3413 
L 1728 0 
L 588 0 
L 588 4666 
z
" transform="scale(0.015625)"/>
      <path id="DejaVuSans-Bold-49" d="M 588 4666 
L 1791 4666 
L 1791 0 
L 588 0 
L 588 4666 
z
" transform="scale(0.015625)"/>
      <path id="DejaVuSans-Bold-53" d="M 3834 4519 
L 3834 3531 
Q 3450 3703 3084 3790 
Q 2719 3878 2394 3878 
Q 1963 3878 1756 3759 
Q 1550 3641 1550 3391 
Q 1550 3203 1689 3098 
Q 1828 2994 2194 2919 
L 2706 2816 
Q 3484 2659 3812 2340 
Q 4141 2022 4141 1434 
Q 4141 663 3683 286 
Q 3225 -91 2284 -91 
Q 1841 -91 1394 -6 
Q 947 78 500 244 
L 500 1259 
Q 947 1022 1364 901 
Q 1781 781 2169 781 
Q 2563 781 2772 912 
Q 2981 1044 2981 1288 
Q 2981 1506 2839 1625 
Q 2697 1744 2272 1838 
L 1806 1941 
Q 1106 2091 782 2419 
Q 459 2747 459 3303 
Q 459 4000 909 4375 
Q 1359 4750 2203 4750 
Q 2588 4750 2994 4692 
Q 3400 4634 3834 4519 
z
" transform="scale(0.015625)"/>
      <path id="DejaVuSans-Bold-31" d="M 750 831 
L 1813 831 
L 1813 3847 
L 722 3622 
L 722 4441 
L 1806 4666 
L 2950 4666 
L 2950 831 
L 4013 831 
L 4013 0 
L 750 0 
L 750 831 
z
" transform="scale(0.015625)"/>
     </defs>
     <use xlink:href="#DejaVuSans-Bold-4d"/>
     <use xlink:href="#DejaVuSans-Bold-49" x="99.511719"/>
     <use xlink:href="#DejaVuSans-Bold-53" x="136.71875"/>
     <use xlink:href="#DejaVuSans-Bold-20" x="208.740234"/>
     <use xlink:href="#DejaVuSans-Bold-31" x="243.554688"/>
    </g>
   </g>
   <g id="text_18">
    <!-- MIS 2 -->
    <g style="fill: #003f6b" transform="translate(607.41625 164.499008) scale(0.16 -0.16)">
     <defs>
      <path id="DejaVuSans-Bold-32" d="M 1844 884 
L 3897 884 
L 3897 0 
L 506 0 
L 506 884 
L 2209 2388 
Q 2438 2594 2547 2791 
Q 2656 2988 2656 3200 
Q 2656 3528 2436 3728 
Q 2216 3928 1850 3928 
Q 1569 3928 1234 3808 
Q 900 3688 519 3450 
L 519 4475 
Q 925 4609 1322 4679 
Q 1719 4750 2100 4750 
Q 2938 4750 3402 4381 
Q 3866 4013 3866 3353 
Q 3866 2972 3669 2642 
Q 3472 2313 2841 1759 
L 1844 884 
z
" transform="scale(0.015625)"/>
     </defs>
     <use xlink:href="#DejaVuSans-Bold-4d"/>
     <use xlink:href="#DejaVuSans-Bold-49" x="99.511719"/>
     <use xlink:href="#DejaVuSans-Bold-53" x="136.71875"/>
     <use xlink:href="#DejaVuSans-Bold-20" x="208.740234"/>
     <use xlink:href="#DejaVuSans-Bold-32" x="243.554688"/>
    </g>
   </g>
   <g id="text_19">
    <!-- MIS 3 -->
    <g style="fill: #8b1a00" transform="translate(607.41625 219.624579) scale(0.16 -0.16)">
     <defs>
      <path id="DejaVuSans-Bold-33" d="M 2981 2516 
Q 3453 2394 3698 2092 
Q 3944 1791 3944 1325 
Q 3944 631 3412 270 
Q 2881 -91 1863 -91 
Q 1503 -91 1142 -33 
Q 781 25 428 141 
L 428 1069 
Q 766 900 1098 814 
Q 1431 728 1753 728 
Q 2231 728 2486 893 
Q 2741 1059 2741 1369 
Q 2741 1688 2480 1852 
Q 2219 2016 1709 2016 
L 1228 2016 
L 1228 2791 
L 1734 2791 
Q 2188 2791 2409 2933 
Q 2631 3075 2631 3366 
Q 2631 3634 2415 3781 
Q 2200 3928 1806 3928 
Q 1516 3928 1219 3862 
Q 922 3797 628 3669 
L 628 4550 
Q 984 4650 1334 4700 
Q 1684 4750 2022 4750 
Q 2931 4750 3382 4451 
Q 3834 4153 3834 3553 
Q 3834 3144 3618 2883 
Q 3403 2622 2981 2516 
z
" transform="scale(0.015625)"/>
     </defs>
     <use xlink:href="#DejaVuSans-Bold-4d"/>
     <use xlink:href="#DejaVuSans-Bold-49" x="99.511719"/>
     <use xlink:href="#DejaVuSans-Bold-53" x="136.71875"/>
     <use xlink:href="#DejaVuSans-Bold-20" x="208.740234"/>
     <use xlink:href="#DejaVuSans-Bold-33" x="243.554688"/>
    </g>
   </g>
   <g id="text_20">
    <!-- MIS 4 -->
    <g style="fill: #003f6b" transform="translate(607.41625 273.468159) scale(0.16 -0.16)">
     <use xlink:href="#DejaVuSans-Bold-4d"/>
     <use xlink:href="#DejaVuSans-Bold-49" x="99.511719"/>
     <use xlink:href="#DejaVuSans-Bold-53" x="136.71875"/>
     <use xlink:href="#DejaVuSans-Bold-20" x="208.740234"/>
     <use xlink:href="#DejaVuSans-Bold-34" x="243.554688"/>
    </g>
   </g>
   <g id="text_21">
    <!-- MIS 5 -->
    <g style="fill: #8b1a00" transform="translate(607.41625 367.05343) scale(0.16 -0.16)">
     <defs>
      <path id="DejaVuSans-Bold-35" d="M 678 4666 
L 3669 4666 
L 3669 3781 
L 1638 3781 
L 1638 3059 
Q 1775 3097 1914 3117 
Q 2053 3138 2203 3138 
Q 3056 3138 3531 2711 
Q 4006 2284 4006 1522 
Q 4006 766 3489 337 
Q 2972 -91 2053 -91 
Q 1656 -91 1267 -14 
Q 878 63 494 219 
L 494 1166 
Q 875 947 1217 837 
Q 1559 728 1863 728 
Q 2300 728 2551 942 
Q 2803 1156 2803 1522 
Q 2803 1891 2551 2103 
Q 2300 2316 1863 2316 
Q 1603 2316 1309 2248 
Q 1016 2181 678 2041 
L 678 4666 
z
" transform="scale(0.015625)"/>
     </defs>
     <use xlink:href="#DejaVuSans-Bold-4d"/>
     <use xlink:href="#DejaVuSans-Bold-49" x="99.511719"/>
     <use xlink:href="#DejaVuSans-Bold-53" x="136.71875"/>
     <use xlink:href="#DejaVuSans-Bold-20" x="208.740234"/>
     <use xlink:href="#DejaVuSans-Bold-35" x="243.554688"/>
    </g>
   </g>
   <g id="text_22">
    <!-- MIS 6 -->
    <g style="fill: #003f6b" transform="translate(607.41625 520.892232) scale(0.16 -0.16)">
     <defs>
      <path id="DejaVuSans-Bold-36" d="M 2316 2303 
Q 2000 2303 1842 2098 
Q 1684 1894 1684 1484 
Q 1684 1075 1842 870 
Q 2000 666 2316 666 
Q 2634 666 2792 870 
Q 2950 1075 2950 1484 
Q 2950 1894 2792 2098 
Q 2634 2303 2316 2303 
z
M 3803 4544 
L 3803 3681 
Q 3506 3822 3243 3889 
Q 2981 3956 2731 3956 
Q 2194 3956 1894 3657 
Q 1594 3359 1544 2772 
Q 1750 2925 1990 3001 
Q 2231 3078 2516 3078 
Q 3231 3078 3670 2659 
Q 4109 2241 4109 1563 
Q 4109 813 3618 361 
Q 3128 -91 2303 -91 
Q 1394 -91 895 523 
Q 397 1138 397 2266 
Q 397 3422 980 4083 
Q 1563 4744 2578 4744 
Q 2900 4744 3203 4694 
Q 3506 4644 3803 4544 
z
" transform="scale(0.015625)"/>
     </defs>
     <use xlink:href="#DejaVuSans-Bold-4d"/>
     <use xlink:href="#DejaVuSans-Bold-49" x="99.511719"/>
     <use xlink:href="#DejaVuSans-Bold-53" x="136.71875"/>
     <use xlink:href="#DejaVuSans-Bold-20" x="208.740234"/>
     <use xlink:href="#DejaVuSans-Bold-36" x="243.554688"/>
    </g>
   </g>
   <g id="text_23">
    <!-- MIS 7 -->
    <g style="fill: #8b1a00" transform="translate(607.41625 665.757103) scale(0.16 -0.16)">
     <defs>
      <path id="DejaVuSans-Bold-37" d="M 428 4666 
L 3944 4666 
L 3944 3988 
L 2125 0 
L 953 0 
L 2675 3781 
L 428 3781 
L 428 4666 
z
" transform="scale(0.015625)"/>
     </defs>
     <use xlink:href="#DejaVuSans-Bold-4d"/>
     <use xlink:href="#DejaVuSans-Bold-49" x="99.511719"/>
     <use xlink:href="#DejaVuSans-Bold-53" x="136.71875"/>
     <use xlink:href="#DejaVuSans-Bold-20" x="208.740234"/>
     <use xlink:href="#DejaVuSans-Bold-37" x="243.554688"/>
    </g>
   </g>
   <g id="text_24">
    <!-- MIS 8 -->
    <g style="fill: #003f6b" transform="translate(607.41625 805.494015) scale(0.16 -0.16)">
     <defs>
      <path id="DejaVuSans-Bold-38" d="M 2228 2088 
Q 1891 2088 1709 1903 
Q 1528 1719 1528 1375 
Q 1528 1031 1709 848 
Q 1891 666 2228 666 
Q 2563 666 2741 848 
Q 2919 1031 2919 1375 
Q 2919 1722 2741 1905 
Q 2563 2088 2228 2088 
z
M 1350 2484 
Q 925 2613 709 2878 
Q 494 3144 494 3541 
Q 494 4131 934 4440 
Q 1375 4750 2228 4750 
Q 3075 4750 3515 4442 
Q 3956 4134 3956 3541 
Q 3956 3144 3739 2878 
Q 3522 2613 3097 2484 
Q 3572 2353 3814 2058 
Q 4056 1763 4056 1313 
Q 4056 619 3595 264 
Q 3134 -91 2228 -91 
Q 1319 -91 855 264 
Q 391 619 391 1313 
Q 391 1763 633 2058 
Q 875 2353 1350 2484 
z
M 1631 3419 
Q 1631 3141 1786 2991 
Q 1941 2841 2228 2841 
Q 2509 2841 2662 2991 
Q 2816 3141 2816 3419 
Q 2816 3697 2662 3845 
Q 2509 3994 2228 3994 
Q 1941 3994 1786 3844 
Q 1631 3694 1631 3419 
z
" transform="scale(0.015625)"/>
     </defs>
     <use xlink:href="#DejaVuSans-Bold-4d"/>
     <use xlink:href="#DejaVuSans-Bold-49" x="99.511719"/>
     <use xlink:href="#DejaVuSans-Bold-53" x="136.71875"/>
     <use xlink:href="#DejaVuSans-Bold-20" x="208.740234"/>
     <use xlink:href="#DejaVuSans-Bold-38" x="243.554688"/>
    </g>
   </g>
   <g id="text_25">
    <!-- MIS 9 -->
    <g style="fill: #8b1a00" transform="translate(607.41625 926.001076) scale(0.16 -0.16)">
     <defs>
      <path id="DejaVuSans-Bold-39" d="M 641 103 
L 641 966 
Q 928 831 1190 764 
Q 1453 697 1709 697 
Q 2247 697 2547 995 
Q 2847 1294 2900 1881 
Q 2688 1725 2447 1647 
Q 2206 1569 1925 1569 
Q 1209 1569 770 1986 
Q 331 2403 331 3084 
Q 331 3838 820 4291 
Q 1309 4744 2131 4744 
Q 3044 4744 3544 4128 
Q 4044 3513 4044 2388 
Q 4044 1231 3459 570 
Q 2875 -91 1856 -91 
Q 1528 -91 1228 -42 
Q 928 6 641 103 
z
M 2125 2350 
Q 2441 2350 2600 2554 
Q 2759 2759 2759 3169 
Q 2759 3575 2600 3781 
Q 2441 3988 2125 3988 
Q 1809 3988 1650 3781 
Q 1491 3575 1491 3169 
Q 1491 2759 1650 2554 
Q 1809 2350 2125 2350 
z
" transform="scale(0.015625)"/>
     </defs>
     <use xlink:href="#DejaVuSans-Bold-4d"/>
     <use xlink:href="#DejaVuSans-Bold-49" x="99.511719"/>
     <use xlink:href="#DejaVuSans-Bold-53" x="136.71875"/>
     <use xlink:href="#DejaVuSans-Bold-20" x="208.740234"/>
     <use xlink:href="#DejaVuSans-Bold-39" x="243.554688"/>
    </g>
   </g>
   <g id="text_26">
    <!-- MIS 10 -->
    <g style="fill: #003f6b" transform="translate(596.28375 1020.868337) scale(0.16 -0.16)">
     <defs>
      <path id="DejaVuSans-Bold-30" d="M 2944 2338 
Q 2944 3213 2780 3570 
Q 2616 3928 2228 3928 
Q 1841 3928 1675 3570 
Q 1509 3213 1509 2338 
Q 1509 1453 1675 1090 
Q 1841 728 2228 728 
Q 2613 728 2778 1090 
Q 2944 1453 2944 2338 
z
M 4147 2328 
Q 4147 1169 3647 539 
Q 3147 -91 2228 -91 
Q 1306 -91 806 539 
Q 306 1169 306 2328 
Q 306 3491 806 4120 
Q 1306 4750 2228 4750 
Q 3147 4750 3647 4120 
Q 4147 3491 4147 2328 
z
" transform="scale(0.015625)"/>
     </defs>
     <use xlink:href="#DejaVuSans-Bold-4d"/>
     <use xlink:href="#DejaVuSans-Bold-49" x="99.511719"/>
     <use xlink:href="#DejaVuSans-Bold-53" x="136.71875"/>
     <use xlink:href="#DejaVuSans-Bold-20" x="208.740234"/>
     <use xlink:href="#DejaVuSans-Bold-31" x="243.554688"/>
     <use xlink:href="#DejaVuSans-Bold-30" x="313.134766"/>
    </g>
   </g>
   <g id="text_27">
    <!-- MIS 11 -->
    <g style="fill: #8b1a00" transform="translate(596.28375 1132.401468) scale(0.16 -0.16)">
     <use xlink:href="#DejaVuSans-Bold-4d"/>
     <use xlink:href="#DejaVuSans-Bold-49" x="99.511719"/>
     <use xlink:href="#DejaVuSans-Bold-53" x="136.71875"/>
     <use xlink:href="#DejaVuSans-Bold-20" x="208.740234"/>
     <use xlink:href="#DejaVuSans-Bold-31" x="243.554688"/>
     <use xlink:href="#DejaVuSans-Bold-31" x="313.134766"/>
    </g>
   </g>
   <g id="text_28">
    <!-- MIS 12 -->
    <g style="fill: #003f6b" transform="translate(596.28375 1328.54594) scale(0.16 -0.16)">
     <use xlink:href="#DejaVuSans-Bold-4d"/>
     <use xlink:href="#DejaVuSans-Bold-49" x="99.511719"/>
     <use xlink:href="#DejaVuSans-Bold-53" x="136.71875"/>
     <use xlink:href="#DejaVuSans-Bold-20" x="208.740234"/>
     <use xlink:href="#DejaVuSans-Bold-31" x="243.554688"/>
     <use xlink:href="#DejaVuSans-Bold-32" x="313.134766"/>
    </g>
   </g>
   <g id="text_29">
    <!-- MIS 13 -->
    <g style="fill: #8b1a00" transform="translate(596.28375 1483.666732) scale(0.16 -0.16)">
     <use xlink:href="#DejaVuSans-Bold-4d"/>
     <use xlink:href="#DejaVuSans-Bold-49" x="99.511719"/>
     <use xlink:href="#DejaVuSans-Bold-53" x="136.71875"/>
     <use xlink:href="#DejaVuSans-Bold-20" x="208.740234"/>
     <use xlink:href="#DejaVuSans-Bold-31" x="243.554688"/>
     <use xlink:href="#DejaVuSans-Bold-33" x="313.134766"/>
    </g>
   </g>
   <g id="text_30">
    <!-- MIS 15 -->
    <g style="fill: #8b1a00" transform="translate(596.28375 1604.173793) scale(0.16 -0.16)">
     <use xlink:href="#DejaVuSans-Bold-4d"/>
     <use xlink:href="#DejaVuSans-Bold-49" x="99.511719"/>
     <use xlink:href="#DejaVuSans-Bold-53" x="136.71875"/>
     <use xlink:href="#DejaVuSans-Bold-20" x="208.740234"/>
     <use xlink:href="#DejaVuSans-Bold-31" x="243.554688"/>
     <use xlink:href="#DejaVuSans-Bold-35" x="313.134766"/>
    </g>
   </g>
   <g id="text_31">
    <!-- MIS 16 -->
    <g style="fill: #003f6b" transform="translate(596.28375 1737.089236) scale(0.16 -0.16)">
     <use xlink:href="#DejaVuSans-Bold-4d"/>
     <use xlink:href="#DejaVuSans-Bold-49" x="99.511719"/>
     <use xlink:href="#DejaVuSans-Bold-53" x="136.71875"/>
     <use xlink:href="#DejaVuSans-Bold-20" x="208.740234"/>
     <use xlink:href="#DejaVuSans-Bold-31" x="243.554688"/>
     <use xlink:href="#DejaVuSans-Bold-36" x="313.134766"/>
    </g>
   </g>
   <g id="line2d_48">
    <path d="M 643.650795 104.958437 
L 454.015341 105.502001 
L 447.505341 105.676352 
L 455.368068 105.98403 
L 421.549886 106.273759 
L 455.959886 106.425034 
L 440.488068 106.694252 
L 451.309886 106.927574 
L 420.704432 106.945522 
L 423.832614 107.199356 
L 404.133523 107.396783 
L 421.042614 107.819839 
L 408.360795 108.037778 
L 401.005341 108.304431 
L 410.558977 108.553137 
L 410.897159 108.776204 
L 403.795341 108.98645 
L 390.859886 109.247976 
L 395.087159 109.404379 
L 395.340795 109.71462 
L 387.224432 110.040246 
L 391.451705 110.263312 
L 385.533523 110.429971 
L 377.078977 111.024814 
L 381.137159 111.255572 
L 377.078977 111.501715 
L 367.187159 111.770932 
L 361.015341 112.591406 
L 363.805341 112.752937 
L 356.788068 112.991387 
L 368.28625 113.240093 
L 361.015341 113.581102 
L 365.242614 114.011851 
L 365.49625 114.242609 
L 367.778977 114.255429 
L 357.887159 114.481059 
L 358.140795 114.809249 
L 356.788068 115.075903 
L 363.551705 115.306661 
L 352.814432 115.316917 
L 358.98625 115.463064 
L 364.904432 115.852789 
L 356.788068 115.8733 
L 358.478977 116.063035 
L 351.715341 116.360457 
L 351.715341 116.563011 
L 353.068068 117.104011 
L 356.788068 117.375793 
L 351.123523 117.737314 
L 352.814432 117.909101 
L 344.951705 118.50138 
L 354.505341 118.770598 
L 355.350795 118.983408 
L 358.478977 119.526972 
L 370.822614 119.601327 
L 353.659886 120.408981 
L 368.032614 120.491029 
L 363.805341 120.760246 
L 364.650795 121.157663 
L 367.187159 121.360218 
L 390.014432 121.937113 
L 380.122614 122.12172 
L 386.88625 122.349914 
L 390.014432 123.021677 
L 392.297159 123.311407 
L 390.268068 123.567805 
L 399.568068 123.86779 
L 385.533523 124.160084 
L 393.988068 124.444686 
L 392.297159 124.742107 
L 401.850795 124.831847 
L 403.288068 124.967738 
L 403.541705 125.285671 
L 403.795341 125.370282 
L 393.142614 125.575401 
L 395.678977 125.71642 
L 401.005341 125.780519 
L 374.79625 125.959998 
L 404.640795 126.111273 
L 411.404432 126.234344 
L 388.915341 126.308699 
L 427.214432 126.477922 
L 418.168068 126.526637 
L 419.520795 126.690732 
L 418.50625 126.7215 
L 425.777159 127.034306 
L 434.569886 127.270192 
L 429.497159 127.52659 
L 432.540795 127.788116 
L 433.978068 128.075281 
L 432.709886 128.393215 
L 432.540795 128.652177 
L 443.278068 128.923959 
L 438.797159 129.264968 
L 439.050795 129.431627 
L 437.613523 129.611105 
L 446.40625 129.929039 
L 453.677159 130.459783 
L 454.522614 130.659773 
L 448.604432 130.939247 
L 455.959886 131.362304 
L 450.041705 131.593062 
L 466.950795 131.916124 
L 450.041705 132.169958 
L 458.49625 132.346872 
L 435.922614 132.710957 
L 428.059886 132.995559 
L 452.324432 133.467331 
L 446.068068 133.780137 
L 471.178068 134.039099 
L 412.249886 134.403184 
L 438.797159 134.780089 
L 273.341705 135.380061 
L 272.242614 135.944136 
L 280.358977 136.208226 
L 284.924432 136.480008 
L 267.677159 136.779994 
L 271.397159 137.123567 
L 335.059886 137.903017 
L 406.923523 138.274794 
L 420.704432 138.5876 
L 422.987159 138.938865 
L 436.260795 139.31577 
L 422.733523 140.154191 
L 395.087159 140.692627 
L 409.459886 141.082352 
L 365.749886 141.759243 
L 269.70625 142.574588 
L 266.578068 143.079693 
L 265.140795 143.507877 
L 276.977159 143.866834 
L 279.00625 144.120668 
L 258.123523 144.677052 
L 258.715341 145.046265 
L 262.350795 145.433426 
L 276.977159 146.164161 
L 230.815341 146.571833 
L 238.08625 146.984634 
L 218.978977 147.387179 
L 222.022614 148.284572 
L 199.195341 148.31534 
L 190.740795 149.374264 
L 201.224432 149.812704 
L 186.513523 150.417803 
L 190.740795 150.738301 
L 194.122614 151.528007 
L 190.487159 152.199769 
L 196.997159 153.156134 
L 186.00625 154.240698 
L 195.559886 154.612475 
L 175.945341 155.18937 
L 194.460795 155.907285 
L 194.122614 156.261114 
L 198.772614 157.148251 
L 196.658977 157.720018 
L 175.860795 158.991753 
L 178.650795 159.622492 
L 178.904432 160.373738 
L 177.213523 160.881406 
L 221.177159 162.671064 
L 206.550795 163.747936 
L 206.297159 164.560717 
L 213.314432 165.640153 
L 181.187159 166.604209 
L 205.451705 167.652877 
L 176.959886 170.204037 
L 204.014432 172.847501 
L 211.538977 173.94232 
L 237.240795 174.890993 
L 214.159886 176.00376 
L 226.841705 176.79603 
L 187.697159 178.867726 
L 214.413523 180.316374 
L 223.20625 181.677848 
L 207.988068 182.580369 
L 225.150795 183.595705 
L 222.783523 186.123789 
L 242.059886 187.195533 
L 252.458977 188.033954 
L 281.542614 189.059546 
L 231.068977 189.490295 
L 238.678068 190.592806 
L 290.250795 191.456868 
L 311.640795 192.479896 
L 252.205341 193.846497 
L 249.922614 194.828501 
L 289.658977 195.766918 
L 330.240795 197.305306 
L 347.488068 198.212955 
L 283.487159 199.192395 
L 251.359886 199.987229 
L 249.922614 201.761503 
L 251.951705 202.443522 
L 237.832614 202.856323 
L 233.858977 203.887043 
L 239.523523 204.494706 
L 225.99625 205.243388 
L 229.969886 205.799772 
L 231.660795 206.29462 
L 269.70625 207.150989 
L 226.588068 208.591946 
L 274.187159 211.332841 
L 268.268977 212.550731 
L 224.558977 213.776314 
L 238.08625 215.0942 
L 267.169886 216.589 
L 271.397159 217.732535 
L 298.958977 218.968373 
L 311.387159 220.140112 
L 293.632614 221.050325 
L 246.033523 223.104073 
L 226.841705 224.2553 
L 244.59625 225.442423 
L 269.114432 226.875688 
L 273.933523 229.352492 
L 293.632614 230.449876 
L 312.232614 231.667766 
L 313.923523 232.893349 
L 335.651705 235.157343 
L 324.914432 236.30857 
L 310.541705 237.42903 
L 247.132614 238.43411 
L 279.00625 240.741692 
L 266.324432 241.931379 
L 285.178068 243.136449 
L 338.441705 244.433823 
L 334.80625 246.86704 
L 316.20625 247.956732 
L 345.205341 249.064371 
L 318.99625 250.133551 
L 236.141705 252.274474 
L 237.240795 253.335962 
L 236.395341 254.453857 
L 241.80625 255.64098 
L 240.368977 258.094709 
L 252.205341 259.438234 
L 286.023523 260.907395 
L 243.750795 262.443219 
L 262.942614 265.296928 
L 252.205341 266.973771 
L 256.68625 268.466008 
L 259.560795 270.053111 
L 262.350795 273.160655 
L 265.732614 274.781091 
L 257.531705 276.411782 
L 276.469886 278.050165 
L 256.178977 280.657733 
L 242.059886 281.893571 
L 263.449886 283.234533 
L 255.333523 284.713949 
L 273.341705 287.549711 
L 279.851705 288.78555 
L 228.278977 289.931649 
L 235.549886 291.100823 
L 250.260795 293.908382 
L 275.878068 295.305751 
L 257.531705 296.644148 
L 280.105341 298.054337 
L 312.232614 300.743952 
L 329.987159 302.05671 
L 329.395341 303.336136 
L 341.231705 304.571975 
L 380.122614 307.043651 
L 397.877159 309.335849 
L 408.868068 310.440925 
L 287.122614 312.5639 
L 269.114432 313.638208 
L 257.531705 314.753539 
L 259.222614 315.930406 
L 272.49625 318.404647 
L 255.587159 319.702021 
L 282.388068 321.160925 
L 301.495341 322.683929 
L 301.495341 324.235137 
L 294.224432 325.740194 
L 268.522614 327.096539 
L 253.050795 328.458012 
L 266.324432 329.909225 
L 254.995341 332.955233 
L 246.540795 334.414138 
L 247.978068 335.801251 
L 245.188068 337.255028 
L 245.695341 340.067714 
L 250.514432 341.459955 
L 259.814432 342.759893 
L 287.460795 344.14957 
L 291.941705 346.985332 
L 303.524432 348.392957 
L 309.104432 349.79289 
L 319.588068 351.13898 
L 325.168068 353.987562 
L 339.287159 355.395187 
L 339.287159 356.723328 
L 335.313523 358.082238 
L 276.131705 360.923128 
L 298.113523 362.389724 
L 349.432614 363.93324 
L 368.28625 365.469064 
L 399.060795 368.645835 
L 380.122614 370.284219 
L 285.178068 371.968754 
L 265.732614 373.655852 
L 306.060795 377.206965 
L 306.90625 379.027391 
L 303.524432 380.791409 
L 296.422614 382.527223 
L 261.505341 386.021928 
L 271.397159 387.647491 
L 274.778977 389.239723 
L 300.649886 393.616437 
L 300.39625 395.047138 
L 303.18625 396.380407 
L 336.497159 397.652141 
L 340.132614 400.149458 
L 366.088068 401.331453 
L 365.242614 402.487808 
L 376.233523 403.823641 
L 363.551705 406.067124 
L 376.233523 407.233735 
L 382.405341 408.395218 
L 395.087159 409.520805 
L 390.268068 411.75916 
L 383.250795 412.836031 
L 389.845341 414.056486 
L 396.778068 415.094898 
L 402.104432 417.207617 
L 419.351705 419.586991 
L 423.578977 420.768985 
L 434.569886 423.24579 
L 427.468068 424.373941 
L 422.987159 425.473889 
L 449.19625 426.532812 
L 481.323523 428.371186 
L 487.495341 429.240375 
L 421.29625 430.153152 
L 330.578977 431.081313 
L 312.232614 432.947891 
L 298.958977 434.070914 
L 314.768977 435.070866 
L 293.632614 436.222093 
L 266.831705 438.780945 
L 265.98625 440.286001 
L 304.877159 442.016688 
L 245.695341 443.814038 
L 222.360795 448.626628 
L 210.524432 451.536746 
L 219.824432 453.959707 
L 242.313523 456.446767 
L 180.341705 462.164443 
L 194.122614 465.287371 
L 216.104432 467.820583 
L 194.122614 470.53071 
L 232.759886 476.276589 
L 274.778977 478.730318 
L 242.651705 481.650691 
L 218.640795 484.086472 
L 236.733523 489.319555 
L 216.273523 491.716877 
L 209.340795 494.565459 
L 220.669886 497.570443 
L 223.459886 503.788095 
L 248.823523 506.734108 
L 227.940795 509.205784 
L 235.042614 512.162053 
L 229.378068 517.469492 
L 201.055341 520.451401 
L 242.905341 523.574329 
L 282.049886 526.648541 
L 280.950795 532.089306 
L 255.164432 534.8943 
L 282.641705 537.950565 
L 242.905341 540.804274 
L 275.28625 546.791168 
L 298.705341 549.939735 
L 342.077159 553.052407 
L 282.049886 556.524036 
L 296.422614 563.236536 
L 322.969886 566.49279 
L 326.605341 570.564391 
L 279.00625 573.936024 
L 253.89625 580.68442 
L 236.141705 583.176608 
L 242.313523 585.77392 
L 275.032614 589.163502 
L 293.88625 594.781182 
L 289.151705 598.042564 
L 328.29625 600.909094 
L 353.913523 603.634605 
L 391.958977 608.324124 
L 407.177159 610.534275 
L 332.523523 613.003388 
L 332.269886 615.334046 
L 245.188068 620.623537 
L 267.423523 623.672109 
L 291.09625 626.643762 
L 288.559886 629.302609 
L 312.232614 634.786962 
L 326.858977 637.094544 
L 354.758977 639.527761 
L 366.595341 641.902007 
L 372.00625 646.796645 
L 361.860795 649.381137 
L 351.377159 651.842557 
L 304.369886 654.127064 
L 286.784432 1109.654011 
L 375.72625 1119.2715 
L 389.845341 1127.881345 
L 429.074432 1135.732252 
L 474.982614 1143.21651 
L 476.842614 1152.477606 
L 460.440795 1160.520811 
L 400.751705 1165.302634 
L 409.121705 1166.346173 
L 407.853523 1167.053832 
L 443.869886 1168.564016 
L 441.75625 1169.658836 
L 432.794432 1170.810063 
L 430.427159 1172.079233 
L 439.388977 1173.115081 
L 446.575341 1174.156057 
L 450.210795 1175.335487 
L 459.42625 1176.055966 
L 455.114432 1177.719989 
L 444.799886 1179.009671 
L 459.679886 1179.87886 
L 439.219886 1181.194182 
L 402.865341 1183.037683 
L 387.055341 1184.31711 
L 388.492614 1185.460645 
L 370.653523 1185.655507 
L 297.437159 1186.03754 
L 306.060795 1186.888781 
L 262.858068 1187.781047 
L 264.633523 1189.006629 
L 224.728068 1190.314259 
L 225.658068 1191.21678 
L 219.824432 1193.406419 
L 198.180795 1194.906347 
L 209.594432 1197.054962 
L 205.874432 1198.324132 
L 207.818977 1200.644534 
L 198.603523 1203.234154 
L 198.603523 1205.844286 
L 202.069886 1208.37237 
L 210.524432 1210.908146 
L 207.818977 1212.600373 
L 218.809886 1216.179689 
L 215.005341 1217.587314 
L 246.709886 1220.22565 
L 247.724432 1222.807578 
L 247.978068 1223.887013 
L 291.941705 1225.174131 
L 238.08625 1226.066396 
L 222.360795 1227.33813 
L 258.968977 1228.215012 
L 277.822614 1229.766219 
L 304.877159 1230.502082 
L 238.08625 1231.830223 
L 205.451705 1234.119858 
L 198.941705 1236.317188 
L 201.224432 1238.611951 
L 217.288068 1240.901585 
L 237.240795 1243.175835 
L 287.714432 1244.127072 
L 272.242614 1245.424445 
L 243.750795 1246.365426 
L 225.488977 1247.573061 
L 222.022614 1249.662704 
L 213.314432 1251.903623 
L 222.360795 1254.341968 
L 235.549886 1255.421404 
L 317.643523 1256.893128 
L 268.268977 1257.959744 
L 292.195341 1259.393009 
L 255.333523 1261.810842 
L 250.514432 1264.013301 
L 291.857159 1266.413186 
L 292.195341 1267.384934 
L 240.115341 1268.918194 
L 251.10625 1271.400127 
L 284.58625 1273.802576 
L 284.163523 1276.089647 
L 248.823523 1278.079295 
L 262.350795 1279.863825 
L 278.160795 1281.717583 
L 303.017159 1283.879018 
L 323.223523 1287.837803 
L 296.168977 1289.606949 
L 325.844432 1291.586342 
L 302.678977 1292.440147 
L 292.533523 1293.64009 
L 303.18625 1295.632302 
L 305.215341 1297.5117 
L 313.41625 1299.368021 
L 336.497159 1301.165371 
L 335.905341 1302.975541 
L 357.633523 1304.778019 
L 369.385341 1306.583061 
L 369.977159 1308.285544 
L 397.031705 1309.980335 
L 404.387159 1311.611026 
L 373.528068 1313.223769 
L 348.840795 1314.798053 
L 370.568977 1316.380029 
L 328.549886 1318.033796 
L 299.973523 1319.75679 
L 299.550795 1321.477221 
L 313.923523 1323.2156 
L 295.915341 1324.97449 
L 311.640795 1326.776968 
L 317.897159 1328.53073 
L 313.331705 1330.30244 
L 304.623523 1332.115174 
L 307.244432 1333.940728 
L 298.958977 1335.743206 
L 295.915341 1337.609783 
L 309.442614 1339.522512 
L 318.06625 1341.530109 
L 314.177159 1343.42489 
L 312.48625 1345.370951 
L 340.978068 1347.33496 
L 355.688977 1349.204101 
L 319.841705 1351.134778 
L 366.595341 1353.157758 
L 385.195341 1355.132023 
L 361.438068 1357.093468 
L 368.878068 1359.113884 
L 347.488068 1361.290703 
L 327.704432 1363.521366 
L 316.121705 1365.77254 
L 295.323523 1367.939103 
L 288.559886 1370.118486 
L 287.714432 1372.338893 
L 289.658977 1374.582375 
L 296.422614 1376.736119 
L 305.468977 1378.879606 
L 315.868068 1381.025657 
L 284.924432 1381.853823 
L 280.443523 1383.069149 
L 300.649886 1383.943466 
L 306.314432 1385.104949 
L 305.722614 1387.107418 
L 309.949886 1389.104758 
L 298.789886 1391.104663 
L 319.841705 1396.937717 
L 318.06625 1398.883778 
L 329.141705 1400.788815 
L 313.078068 1402.816923 
L 328.042614 1404.896311 
L 314.599886 1407.032107 
L 328.042614 1409.206362 
L 331.678068 1411.383181 
L 334.214432 1413.536924 
L 323.984432 1415.670155 
L 315.022614 1417.749543 
L 316.20625 1418.616168 
L 268.860795 1419.785343 
L 249.415341 1421.903191 
L 257.108977 1424.251796 
L 232.168068 1426.710653 
L 233.858977 1429.307965 
L 264.041705 1432.018092 
L 256.770795 1434.715399 
L 291.349886 1437.430654 
L 296.760795 1439.968994 
L 271.904432 1441.092017 
L 255.587159 1442.602202 
L 227.940795 1443.732917 
L 214.667159 1445.317456 
L 207.39625 1448.081427 
L 221.768977 1450.837705 
L 218.978977 1453.576036 
L 237.409886 1456.34257 
L 230.477159 1459.23474 
L 222.360795 1462.293568 
L 206.550795 1465.257529 
L 243.328068 1468.288153 
L 262.604432 1470.954693 
L 275.878068 1473.485341 
L 280.358977 1475.944198 
L 291.772614 1478.592789 
L 251.359886 1479.726068 
L 241.468068 1481.184973 
L 275.28625 1483.613062 
L 300.142614 1485.853981 
L 315.952614 1487.915421 
L 347.995341 1489.905069 
L 365.242614 1492.020353 
L 363.213523 1494.297167 
L 325.50625 1496.981654 
L 295.915341 1499.289236 
L 251.10625 1502.035259 
L 251.10625 1504.804357 
L 293.040795 1509.991289 
L 300.649886 1512.521937 
L 312.824432 1514.947462 
L 308.597159 1515.985874 
L 269.368068 1518.375503 
L 285.769886 1520.826668 
L 287.714432 1522.041995 
L 297.014432 1524.247018 
L 294.985341 1526.354609 
L 326.858977 1528.428869 
L 323.815341 1530.498001 
L 345.205341 1532.569697 
L 341.400795 1534.65934 
L 366.341705 1536.625913 
L 368.28625 1538.597614 
L 375.049886 1540.612902 
L 364.228068 1542.602551 
L 406.923523 1544.5281 
L 399.314432 1546.515184 
L 406.078068 1548.379198 
L 401.005341 1550.304747 
L 386.88625 1552.22004 
L 396.778068 1554.150717 
L 395.087159 1556.055754 
L 374.373523 1558.040274 
L 375.641705 1560.004283 
L 374.79625 1561.968292 
L 373.697159 1563.911789 
L 367.018068 1565.850157 
L 381.559886 1567.765451 
L 379.023523 1569.721767 
L 392.804432 1571.752439 
L 387.308977 1573.744652 
L 395.932614 1575.729172 
L 394.241705 1577.767537 
L 395.340795 1579.84436 
L 382.743523 1581.967336 
L 400.582614 1584.039032 
L 388.323523 1586.036372 
L 384.09625 1588.056788 
L 367.609886 1590.102845 
L 375.049886 1592.159156 
L 370.568977 1594.284696 
L 381.30625 1596.38716 
L 366.257159 1598.42296 
L 385.787159 1600.297229 
L 385.533523 1602.150987 
L 399.568068 1603.986796 
L 391.451705 1605.914909 
L 317.051705 1606.740511 
L 303.778068 1607.950709 
L 286.277159 1610.214704 
L 289.658977 1612.740224 
L 284.670795 1615.627266 
L 274.440795 1624.783238 
L 258.292614 1627.993341 
L 272.49625 1630.982942 
L 282.895341 1633.675121 
L 238.931705 1634.951983 
L 285.178068 1639.108195 
L 307.751705 1641.920881 
L 332.269886 1644.605368 
L 268.268977 1645.695059 
L 255.840795 1647.141144 
L 269.959886 1649.938446 
L 295.915341 1651.246076 
L 336.750795 1653.043426 
L 328.549886 1656.181738 
L 335.313523 1659.150827 
L 321.448068 1662.073764 
L 302.087159 1664.858246 
L 327.197159 1667.609397 
L 331.424432 1670.268244 
L 365.411705 1672.786072 
L 364.397159 1673.786025 
L 377.924432 1677.378161 
L 400.751705 1679.534468 
L 384.688068 1681.693339 
L 401.258977 1683.754779 
L 398.468977 1685.816219 
L 393.39625 1687.882787 
L 387.308977 1690.02371 
L 386.040795 1692.205657 
L 391.958977 1694.415808 
L 406.669886 1695.359353 
L 435.415341 1696.674674 
L 399.568068 1697.561811 
L 360.169886 1698.843801 
L 361.015341 1699.782218 
L 281.204432 1701.05908 
L 277.568977 1701.992369 
L 203.422614 1703.235899 
L 177.551705 1705.492202 
L 195.052614 1708.225404 
L 181.778977 1711.594474 
L 192.431705 1715.355833 
L 192.178068 1719.404357 
L 189.134432 1723.452882 
L 203.422614 1725.160492 
L 239.269886 1727.50397 
L 239.269886 1731.406348 
L 236.733523 1735.421541 
L 227.179886 1738.770098 
L 222.614432 1742.321211 
L 212.215341 1745.923603 
L 226.841705 1749.543943 
L 213.568068 1751.000283 
L 167.237159 1753.041211 
L 180.595341 1756.492328 
L 216.442614 1760.220355 
L 201.731705 1764.186832 
L 226.503523 1768.158438 
L 226.503523 1768.158438 
" clip-path="url(#pe75ba490a0)" style="fill: none; stroke: #000000; stroke-linecap: square"/>
   </g>
   <g id="line2d_49">
    <path d="M 304.369886 654.13732 
L 286.784432 1109.654011 
" clip-path="url(#pe75ba490a0)" style="fill: none; stroke-dasharray: 5,4; stroke-dashoffset: 0; stroke: #000000"/>
   </g>
   <g id="patch_18">
    <path d="M 105.09625 1768.158438 
L 105.09625 104.958437 
" style="fill: none; stroke: #000000; stroke-width: 0.8; stroke-linejoin: miter; stroke-linecap: square"/>
   </g>
   <g id="patch_19">
    <path d="M 663.09625 1768.158438 
L 663.09625 104.958437 
" style="fill: none; stroke: #000000; stroke-width: 0.8; stroke-linejoin: miter; stroke-linecap: square"/>
   </g>
   <g id="patch_20">
    <path d="M 105.09625 1768.158437 
L 663.09625 1768.158437 
" style="fill: none; stroke: #000000; stroke-width: 0.8; stroke-linejoin: miter; stroke-linecap: square"/>
   </g>
   <g id="patch_21">
    <path d="M 105.09625 104.958437 
L 663.09625 104.958437 
" style="fill: none; stroke: #000000; stroke-width: 0.8; stroke-linejoin: miter; stroke-linecap: square"/>
   </g>
   <g id="text_32">
    <!-- unsmoothed -->
    <g style="fill: #777777" transform="translate(332.433203 1797.327859) scale(0.165 -0.165)">
     <defs>
      <path id="DejaVuSans-Oblique-75" d="M 428 1388 
L 838 3500 
L 1416 3500 
L 1006 1409 
Q 975 1256 961 1147 
Q 947 1038 947 966 
Q 947 700 1109 554 
Q 1272 409 1569 409 
Q 2031 409 2368 721 
Q 2706 1034 2809 1563 
L 3194 3500 
L 3769 3500 
L 3091 0 
L 2516 0 
L 2631 550 
Q 2388 244 2052 76 
Q 1716 -91 1338 -91 
Q 878 -91 622 161 
Q 366 413 366 863 
Q 366 956 381 1097 
Q 397 1238 428 1388 
z
" transform="scale(0.015625)"/>
      <path id="DejaVuSans-Oblique-6e" d="M 3566 2113 
L 3156 0 
L 2578 0 
L 2988 2091 
Q 3016 2238 3031 2350 
Q 3047 2463 3047 2528 
Q 3047 2791 2881 2937 
Q 2716 3084 2419 3084 
Q 1956 3084 1622 2776 
Q 1288 2469 1184 1941 
L 800 0 
L 225 0 
L 903 3500 
L 1478 3500 
L 1363 2950 
Q 1603 3253 1940 3418 
Q 2278 3584 2650 3584 
Q 3113 3584 3367 3334 
Q 3622 3084 3622 2631 
Q 3622 2519 3608 2391 
Q 3594 2263 3566 2113 
z
" transform="scale(0.015625)"/>
      <path id="DejaVuSans-Oblique-73" d="M 3200 3397 
L 3091 2853 
Q 2863 2978 2609 3040 
Q 2356 3103 2088 3103 
Q 1634 3103 1373 2948 
Q 1113 2794 1113 2528 
Q 1113 2219 1719 2053 
Q 1766 2041 1788 2034 
L 1972 1978 
Q 2547 1819 2739 1644 
Q 2931 1469 2931 1166 
Q 2931 609 2489 259 
Q 2047 -91 1331 -91 
Q 1053 -91 747 -37 
Q 441 16 72 128 
L 184 722 
Q 500 559 806 475 
Q 1113 391 1394 391 
Q 1816 391 2080 572 
Q 2344 753 2344 1031 
Q 2344 1331 1650 1516 
L 1591 1531 
L 1394 1581 
Q 956 1697 753 1886 
Q 550 2075 550 2369 
Q 550 2928 970 3256 
Q 1391 3584 2113 3584 
Q 2397 3584 2667 3537 
Q 2938 3491 3200 3397 
z
" transform="scale(0.015625)"/>
      <path id="DejaVuSans-Oblique-6d" d="M 5747 2113 
L 5338 0 
L 4763 0 
L 5166 2094 
Q 5191 2228 5203 2325 
Q 5216 2422 5216 2491 
Q 5216 2772 5059 2928 
Q 4903 3084 4622 3084 
Q 4203 3084 3875 2770 
Q 3547 2456 3450 1953 
L 3066 0 
L 2491 0 
L 2900 2094 
Q 2925 2209 2937 2307 
Q 2950 2406 2950 2484 
Q 2950 2769 2794 2926 
Q 2638 3084 2363 3084 
Q 1938 3084 1609 2770 
Q 1281 2456 1184 1953 
L 800 0 
L 225 0 
L 909 3500 
L 1484 3500 
L 1375 2956 
Q 1609 3263 1923 3423 
Q 2238 3584 2597 3584 
Q 2978 3584 3223 3384 
Q 3469 3184 3519 2828 
Q 3781 3197 4126 3390 
Q 4472 3584 4856 3584 
Q 5306 3584 5551 3325 
Q 5797 3066 5797 2591 
Q 5797 2488 5784 2364 
Q 5772 2241 5747 2113 
z
" transform="scale(0.015625)"/>
      <path id="DejaVuSans-Oblique-6f" d="M 1625 -91 
Q 1009 -91 651 289 
Q 294 669 294 1325 
Q 294 1706 417 2101 
Q 541 2497 738 2766 
Q 1047 3184 1428 3384 
Q 1809 3584 2291 3584 
Q 2888 3584 3255 3212 
Q 3622 2841 3622 2241 
Q 3622 1825 3500 1412 
Q 3378 1000 3181 728 
Q 2875 309 2494 109 
Q 2113 -91 1625 -91 
z
M 891 1344 
Q 891 869 1089 633 
Q 1288 397 1691 397 
Q 2269 397 2648 901 
Q 3028 1406 3028 2181 
Q 3028 2634 2825 2865 
Q 2622 3097 2228 3097 
Q 1903 3097 1650 2945 
Q 1397 2794 1197 2484 
Q 1050 2253 970 1956 
Q 891 1659 891 1344 
z
" transform="scale(0.015625)"/>
      <path id="DejaVuSans-Oblique-74" d="M 2706 3500 
L 2619 3053 
L 1472 3053 
L 1100 1153 
Q 1081 1047 1072 975 
Q 1063 903 1063 863 
Q 1063 663 1183 572 
Q 1303 481 1569 481 
L 2150 481 
L 2053 0 
L 1503 0 
Q 991 0 739 200 
Q 488 400 488 806 
Q 488 878 497 964 
Q 506 1050 525 1153 
L 897 3053 
L 409 3053 
L 500 3500 
L 978 3500 
L 1172 4494 
L 1747 4494 
L 1556 3500 
L 2706 3500 
z
" transform="scale(0.015625)"/>
      <path id="DejaVuSans-Oblique-68" d="M 3566 2113 
L 3156 0 
L 2578 0 
L 2988 2091 
Q 3016 2238 3031 2350 
Q 3047 2463 3047 2528 
Q 3047 2791 2881 2937 
Q 2716 3084 2419 3084 
Q 1956 3084 1617 2771 
Q 1278 2459 1178 1941 
L 800 0 
L 225 0 
L 1172 4863 
L 1747 4863 
L 1375 2950 
Q 1594 3244 1934 3414 
Q 2275 3584 2650 3584 
Q 3113 3584 3367 3334 
Q 3622 3084 3622 2631 
Q 3622 2519 3608 2391 
Q 3594 2263 3566 2113 
z
" transform="scale(0.015625)"/>
      <path id="DejaVuSans-Oblique-65" d="M 3078 2063 
Q 3088 2113 3092 2166 
Q 3097 2219 3097 2272 
Q 3097 2653 2873 2875 
Q 2650 3097 2266 3097 
Q 1838 3097 1509 2826 
Q 1181 2556 1013 2059 
L 3078 2063 
z
M 3578 1613 
L 903 1613 
Q 884 1494 878 1425 
Q 872 1356 872 1306 
Q 872 872 1139 634 
Q 1406 397 1894 397 
Q 2269 397 2603 481 
Q 2938 566 3225 728 
L 3116 159 
Q 2806 34 2476 -28 
Q 2147 -91 1806 -91 
Q 1078 -91 686 257 
Q 294 606 294 1247 
Q 294 1794 489 2264 
Q 684 2734 1063 3103 
Q 1306 3334 1642 3459 
Q 1978 3584 2356 3584 
Q 2950 3584 3301 3228 
Q 3653 2872 3653 2272 
Q 3653 2128 3634 1964 
Q 3616 1800 3578 1613 
z
" transform="scale(0.015625)"/>
      <path id="DejaVuSans-Oblique-64" d="M 2675 525 
Q 2444 222 2128 65 
Q 1813 -91 1428 -91 
Q 903 -91 598 267 
Q 294 625 294 1247 
Q 294 1766 478 2236 
Q 663 2706 1013 3078 
Q 1244 3325 1534 3454 
Q 1825 3584 2144 3584 
Q 2481 3584 2739 3421 
Q 2997 3259 3138 2956 
L 3513 4863 
L 4091 4863 
L 3144 0 
L 2566 0 
L 2675 525 
z
M 891 1350 
Q 891 897 1095 644 
Q 1300 391 1663 391 
Q 1931 391 2161 520 
Q 2391 650 2566 903 
Q 2750 1166 2856 1509 
Q 2963 1853 2963 2188 
Q 2963 2622 2758 2865 
Q 2553 3109 2194 3109 
Q 1922 3109 1687 2981 
Q 1453 2853 1288 2613 
Q 1106 2353 998 2009 
Q 891 1666 891 1350 
z
" transform="scale(0.015625)"/>
     </defs>
     <use xlink:href="#DejaVuSans-Oblique-75"/>
     <use xlink:href="#DejaVuSans-Oblique-6e" x="63.378906"/>
     <use xlink:href="#DejaVuSans-Oblique-73" x="126.757812"/>
     <use xlink:href="#DejaVuSans-Oblique-6d" x="178.857422"/>
     <use xlink:href="#DejaVuSans-Oblique-6f" x="276.269531"/>
     <use xlink:href="#DejaVuSans-Oblique-6f" x="337.451172"/>
     <use xlink:href="#DejaVuSans-Oblique-74" x="398.632812"/>
     <use xlink:href="#DejaVuSans-Oblique-68" x="437.841797"/>
     <use xlink:href="#DejaVuSans-Oblique-65" x="501.220703"/>
     <use xlink:href="#DejaVuSans-Oblique-64" x="562.744141"/>
    </g>
   </g>
   <g id="text_33">
    <!-- EPICA  CH -->
    <g transform="translate(286.582188 29.995312) scale(0.3 -0.3)">
     <defs>
      <path id="DejaVuSans-Bold-45" d="M 588 4666 
L 3834 4666 
L 3834 3756 
L 1791 3756 
L 1791 2888 
L 3713 2888 
L 3713 1978 
L 1791 1978 
L 1791 909 
L 3903 909 
L 3903 0 
L 588 0 
L 588 4666 
z
" transform="scale(0.015625)"/>
      <path id="DejaVuSans-Bold-2013" d="M 344 2156 
L 2856 2156 
L 2856 1350 
L 344 1350 
L 344 2156 
z
" transform="scale(0.015625)"/>
      <path id="DejaVuSans-Bold-2084" d="M 1397 1976 
L 650 966 
L 1397 966 
L 1397 1976 
z
M 1341 2585 
L 2116 2585 
L 2116 966 
L 2544 966 
L 2544 482 
L 2116 482 
L 2116 -24 
L 1397 -24 
L 1397 482 
L 175 482 
L 175 1007 
L 1341 2585 
z
" transform="scale(0.015625)"/>
     </defs>
     <use xlink:href="#DejaVuSans-Bold-45"/>
     <use xlink:href="#DejaVuSans-Bold-50" x="68.310547"/>
     <use xlink:href="#DejaVuSans-Bold-49" x="141.601562"/>
     <use xlink:href="#DejaVuSans-Bold-43" x="178.808594"/>
     <use xlink:href="#DejaVuSans-Bold-41" x="252.197266"/>
     <use xlink:href="#DejaVuSans-Bold-20" x="329.589844"/>
     <use xlink:href="#DejaVuSans-Bold-2013" x="364.404297"/>
     <use xlink:href="#DejaVuSans-Bold-20" x="414.404297"/>
     <use xlink:href="#DejaVuSans-Bold-43" x="449.21875"/>
     <use xlink:href="#DejaVuSans-Bold-48" x="522.607422"/>
     <use xlink:href="#DejaVuSans-Bold-2084" x="606.298828"/>
    </g>
   </g>
  </g>
 </g>
 <defs>
  <clipPath id="pe75ba490a0">
   <rect x="105.09625" y="104.958437" width="558" height="1663.2"/>
  </clipPath>
 </defs>
</svg>
