<?xml version="1.0" encoding="utf-8" standalone="no"?>
<!DOCTYPE svg PUBLIC "-//W3C//DTD SVG 1.1//EN"
  "http://www.w3.org/Graphics/SVG/1.1/DTD/svg11.dtd">
<svg xmlns:xlink="http://www.w3.org/1999/xlink" width="658.75875pt" height="1238.528625pt" viewBox="0 0 658.75875 1238.528625" xmlns="http://www.w3.org/2000/svg" version="1.1">
 <metadata>
  <rdf:RDF xmlns:dc="http://purl.org/dc/elements/1.1/" xmlns:cc="http://creativecommons.org/ns#" xmlns:rdf="http://www.w3.org/1999/02/22-rdf-syntax-ns#">
   <cc:Work>
    <dc:type rdf:resource="http://purl.org/dc/dcmitype/StillImage"/>
    <dc:date>2026-02-28T12:42:24.573441</dc:date>
    <dc:format>image/svg+xml</dc:format>
    <dc:creator>
     <cc:Agent>
      <dc:title>Matplotlib v3.9.2, https://matplotlib.org/</dc:title>
     </cc:Agent>
    </dc:creator>
   </cc:Work>
  </rdf:RDF>
 </metadata>
 <defs>
  <style type="text/css">*{stroke-linejoin: round; stroke-linecap: butt}</style>
 </defs>
 <g id="figure_1">
  <g id="patch_1">
   <path d="M 0 1238.528625 
L 658.75875 1238.528625 
L 658.75875 0 
L 0 0 
z
" style="fill: #ffffff"/>
  </g>
  <g id="axes_1">
   <g id="patch_2">
    <path d="M 93.55875 1205.940625 
L 651.55875 1205.940625 
L 651.55875 97.140625 
L 93.55875 97.140625 
z
" style="fill: #ffffff"/>
   </g>
   <g id="patch_3">
    <path d="M 93.55875 96.472497 
L 651.55875 96.472497 
L 651.55875 230.032919 
L 93.55875 230.032919 
z
" clip-path="url(#p309b5e1f63)" style="fill: #fddbc7"/>
   </g>
   <g id="patch_4">
    <path d="M 93.55875 230.032919 
L 651.55875 230.032919 
L 651.55875 373.133372 
L 93.55875 373.133372 
z
" clip-path="url(#p309b5e1f63)" style="fill: #d6e8f7"/>
   </g>
   <g id="patch_5">
    <path d="M 93.55875 373.133372 
L 651.55875 373.133372 
L 651.55875 640.254217 
L 93.55875 640.254217 
z
" clip-path="url(#p309b5e1f63)" style="fill: #fef0e6"/>
   </g>
   <g id="patch_6">
    <path d="M 93.55875 640.254217 
L 651.55875 640.254217 
L 651.55875 773.81464 
L 93.55875 773.81464 
z
" clip-path="url(#p309b5e1f63)" style="fill: #d6e8f7"/>
   </g>
   <g id="patch_7">
    <path d="M 93.55875 773.81464 
L 651.55875 773.81464 
L 651.55875 1336.676421 
L 93.55875 1336.676421 
z
" clip-path="url(#p309b5e1f63)" style="fill: #fddbc7"/>
   </g>
   <g id="matplotlib.axis_1">
    <g id="xtick_1">
     <g id="line2d_1">
      <defs>
       <path id="mab3821365a" d="M 0 0 
L 0 -3.5 
" style="stroke: #000000; stroke-width: 0.8"/>
      </defs>
      <g>
       <use xlink:href="#mab3821365a" x="118.922386" y="97.140625" style="stroke: #000000; stroke-width: 0.8"/>
      </g>
     </g>
     <g id="text_1">
      <!-- -10.0 -->
      <g transform="translate(90.461605 85.565313) scale(0.22 -0.22)">
       <defs>
        <path id="DejaVuSans-2d" d="M 313 2009 
L 1997 2009 
L 1997 1497 
L 313 1497 
L 313 2009 
z
" transform="scale(0.015625)"/>
        <path id="DejaVuSans-31" d="M 794 531 
L 1825 531 
L 1825 4091 
L 703 3866 
L 703 4441 
L 1819 4666 
L 2450 4666 
L 2450 531 
L 3481 531 
L 3481 0 
L 794 0 
L 794 531 
z
" transform="scale(0.015625)"/>
        <path id="DejaVuSans-30" d="M 2034 4250 
Q 1547 4250 1301 3770 
Q 1056 3291 1056 2328 
Q 1056 1369 1301 889 
Q 1547 409 2034 409 
Q 2525 409 2770 889 
Q 3016 1369 3016 2328 
Q 3016 3291 2770 3770 
Q 2525 4250 2034 4250 
z
M 2034 4750 
Q 2819 4750 3233 4129 
Q 3647 3509 3647 2328 
Q 3647 1150 3233 529 
Q 2819 -91 2034 -91 
Q 1250 -91 836 529 
Q 422 1150 422 2328 
Q 422 3509 836 4129 
Q 1250 4750 2034 4750 
z
" transform="scale(0.015625)"/>
        <path id="DejaVuSans-2e" d="M 684 794 
L 1344 794 
L 1344 0 
L 684 0 
L 684 794 
z
" transform="scale(0.015625)"/>
       </defs>
       <use xlink:href="#DejaVuSans-2d"/>
       <use xlink:href="#DejaVuSans-31" x="36.083984"/>
       <use xlink:href="#DejaVuSans-30" x="99.707031"/>
       <use xlink:href="#DejaVuSans-2e" x="163.330078"/>
       <use xlink:href="#DejaVuSans-30" x="195.117188"/>
      </g>
     </g>
    </g>
    <g id="xtick_2">
     <g id="line2d_2">
      <g>
       <use xlink:href="#mab3821365a" x="191.389919" y="97.140625" style="stroke: #000000; stroke-width: 0.8"/>
      </g>
     </g>
     <g id="text_2">
      <!-- -9.0 -->
      <g transform="translate(169.927888 85.565313) scale(0.22 -0.22)">
       <defs>
        <path id="DejaVuSans-39" d="M 703 97 
L 703 672 
Q 941 559 1184 500 
Q 1428 441 1663 441 
Q 2288 441 2617 861 
Q 2947 1281 2994 2138 
Q 2813 1869 2534 1725 
Q 2256 1581 1919 1581 
Q 1219 1581 811 2004 
Q 403 2428 403 3163 
Q 403 3881 828 4315 
Q 1253 4750 1959 4750 
Q 2769 4750 3195 4129 
Q 3622 3509 3622 2328 
Q 3622 1225 3098 567 
Q 2575 -91 1691 -91 
Q 1453 -91 1209 -44 
Q 966 3 703 97 
z
M 1959 2075 
Q 2384 2075 2632 2365 
Q 2881 2656 2881 3163 
Q 2881 3666 2632 3958 
Q 2384 4250 1959 4250 
Q 1534 4250 1286 3958 
Q 1038 3666 1038 3163 
Q 1038 2656 1286 2365 
Q 1534 2075 1959 2075 
z
" transform="scale(0.015625)"/>
       </defs>
       <use xlink:href="#DejaVuSans-2d"/>
       <use xlink:href="#DejaVuSans-39" x="36.083984"/>
       <use xlink:href="#DejaVuSans-2e" x="99.707031"/>
       <use xlink:href="#DejaVuSans-30" x="131.494141"/>
      </g>
     </g>
    </g>
    <g id="xtick_3">
     <g id="line2d_3">
      <g>
       <use xlink:href="#mab3821365a" x="263.857451" y="97.140625" style="stroke: #000000; stroke-width: 0.8"/>
      </g>
     </g>
     <g id="text_3">
      <!-- -8.0 -->
      <g transform="translate(242.39542 85.565313) scale(0.22 -0.22)">
       <defs>
        <path id="DejaVuSans-38" d="M 2034 2216 
Q 1584 2216 1326 1975 
Q 1069 1734 1069 1313 
Q 1069 891 1326 650 
Q 1584 409 2034 409 
Q 2484 409 2743 651 
Q 3003 894 3003 1313 
Q 3003 1734 2745 1975 
Q 2488 2216 2034 2216 
z
M 1403 2484 
Q 997 2584 770 2862 
Q 544 3141 544 3541 
Q 544 4100 942 4425 
Q 1341 4750 2034 4750 
Q 2731 4750 3128 4425 
Q 3525 4100 3525 3541 
Q 3525 3141 3298 2862 
Q 3072 2584 2669 2484 
Q 3125 2378 3379 2068 
Q 3634 1759 3634 1313 
Q 3634 634 3220 271 
Q 2806 -91 2034 -91 
Q 1263 -91 848 271 
Q 434 634 434 1313 
Q 434 1759 690 2068 
Q 947 2378 1403 2484 
z
M 1172 3481 
Q 1172 3119 1398 2916 
Q 1625 2713 2034 2713 
Q 2441 2713 2670 2916 
Q 2900 3119 2900 3481 
Q 2900 3844 2670 4047 
Q 2441 4250 2034 4250 
Q 1625 4250 1398 4047 
Q 1172 3844 1172 3481 
z
" transform="scale(0.015625)"/>
       </defs>
       <use xlink:href="#DejaVuSans-2d"/>
       <use xlink:href="#DejaVuSans-38" x="36.083984"/>
       <use xlink:href="#DejaVuSans-2e" x="99.707031"/>
       <use xlink:href="#DejaVuSans-30" x="131.494141"/>
      </g>
     </g>
    </g>
    <g id="xtick_4">
     <g id="line2d_4">
      <g>
       <use xlink:href="#mab3821365a" x="336.324984" y="97.140625" style="stroke: #000000; stroke-width: 0.8"/>
      </g>
     </g>
     <g id="text_4">
      <!-- -7.0 -->
      <g transform="translate(314.862953 85.565313) scale(0.22 -0.22)">
       <defs>
        <path id="DejaVuSans-37" d="M 525 4666 
L 3525 4666 
L 3525 4397 
L 1831 0 
L 1172 0 
L 2766 4134 
L 525 4134 
L 525 4666 
z
" transform="scale(0.015625)"/>
       </defs>
       <use xlink:href="#DejaVuSans-2d"/>
       <use xlink:href="#DejaVuSans-37" x="36.083984"/>
       <use xlink:href="#DejaVuSans-2e" x="99.707031"/>
       <use xlink:href="#DejaVuSans-30" x="131.494141"/>
      </g>
     </g>
    </g>
    <g id="xtick_5">
     <g id="line2d_5">
      <g>
       <use xlink:href="#mab3821365a" x="408.792516" y="97.140625" style="stroke: #000000; stroke-width: 0.8"/>
      </g>
     </g>
     <g id="text_5">
      <!-- -6.0 -->
      <g transform="translate(387.330485 85.565313) scale(0.22 -0.22)">
       <defs>
        <path id="DejaVuSans-36" d="M 2113 2584 
Q 1688 2584 1439 2293 
Q 1191 2003 1191 1497 
Q 1191 994 1439 701 
Q 1688 409 2113 409 
Q 2538 409 2786 701 
Q 3034 994 3034 1497 
Q 3034 2003 2786 2293 
Q 2538 2584 2113 2584 
z
M 3366 4563 
L 3366 3988 
Q 3128 4100 2886 4159 
Q 2644 4219 2406 4219 
Q 1781 4219 1451 3797 
Q 1122 3375 1075 2522 
Q 1259 2794 1537 2939 
Q 1816 3084 2150 3084 
Q 2853 3084 3261 2657 
Q 3669 2231 3669 1497 
Q 3669 778 3244 343 
Q 2819 -91 2113 -91 
Q 1303 -91 875 529 
Q 447 1150 447 2328 
Q 447 3434 972 4092 
Q 1497 4750 2381 4750 
Q 2619 4750 2861 4703 
Q 3103 4656 3366 4563 
z
" transform="scale(0.015625)"/>
       </defs>
       <use xlink:href="#DejaVuSans-2d"/>
       <use xlink:href="#DejaVuSans-36" x="36.083984"/>
       <use xlink:href="#DejaVuSans-2e" x="99.707031"/>
       <use xlink:href="#DejaVuSans-30" x="131.494141"/>
      </g>
     </g>
    </g>
    <g id="xtick_6">
     <g id="line2d_6">
      <g>
       <use xlink:href="#mab3821365a" x="481.260049" y="97.140625" style="stroke: #000000; stroke-width: 0.8"/>
      </g>
     </g>
     <g id="text_6">
      <!-- -5.0 -->
      <g transform="translate(459.798017 85.565313) scale(0.22 -0.22)">
       <defs>
        <path id="DejaVuSans-35" d="M 691 4666 
L 3169 4666 
L 3169 4134 
L 1269 4134 
L 1269 2991 
Q 1406 3038 1543 3061 
Q 1681 3084 1819 3084 
Q 2600 3084 3056 2656 
Q 3513 2228 3513 1497 
Q 3513 744 3044 326 
Q 2575 -91 1722 -91 
Q 1428 -91 1123 -41 
Q 819 9 494 109 
L 494 744 
Q 775 591 1075 516 
Q 1375 441 1709 441 
Q 2250 441 2565 725 
Q 2881 1009 2881 1497 
Q 2881 1984 2565 2268 
Q 2250 2553 1709 2553 
Q 1456 2553 1204 2497 
Q 953 2441 691 2322 
L 691 4666 
z
" transform="scale(0.015625)"/>
       </defs>
       <use xlink:href="#DejaVuSans-2d"/>
       <use xlink:href="#DejaVuSans-35" x="36.083984"/>
       <use xlink:href="#DejaVuSans-2e" x="99.707031"/>
       <use xlink:href="#DejaVuSans-30" x="131.494141"/>
      </g>
     </g>
    </g>
    <g id="xtick_7">
     <g id="line2d_7">
      <g>
       <use xlink:href="#mab3821365a" x="553.727581" y="97.140625" style="stroke: #000000; stroke-width: 0.8"/>
      </g>
     </g>
     <g id="text_7">
      <!-- -4.0 -->
      <g transform="translate(532.26555 85.565313) scale(0.22 -0.22)">
       <defs>
        <path id="DejaVuSans-34" d="M 2419 4116 
L 825 1625 
L 2419 1625 
L 2419 4116 
z
M 2253 4666 
L 3047 4666 
L 3047 1625 
L 3713 1625 
L 3713 1100 
L 3047 1100 
L 3047 0 
L 2419 0 
L 2419 1100 
L 313 1100 
L 313 1709 
L 2253 4666 
z
" transform="scale(0.015625)"/>
       </defs>
       <use xlink:href="#DejaVuSans-2d"/>
       <use xlink:href="#DejaVuSans-34" x="36.083984"/>
       <use xlink:href="#DejaVuSans-2e" x="99.707031"/>
       <use xlink:href="#DejaVuSans-30" x="131.494141"/>
      </g>
     </g>
    </g>
    <g id="xtick_8">
     <g id="line2d_8">
      <g>
       <use xlink:href="#mab3821365a" x="626.195114" y="97.140625" style="stroke: #000000; stroke-width: 0.8"/>
      </g>
     </g>
     <g id="text_8">
      <!-- -3.0 -->
      <g transform="translate(604.733082 85.565313) scale(0.22 -0.22)">
       <defs>
        <path id="DejaVuSans-33" d="M 2597 2516 
Q 3050 2419 3304 2112 
Q 3559 1806 3559 1356 
Q 3559 666 3084 287 
Q 2609 -91 1734 -91 
Q 1441 -91 1130 -33 
Q 819 25 488 141 
L 488 750 
Q 750 597 1062 519 
Q 1375 441 1716 441 
Q 2309 441 2620 675 
Q 2931 909 2931 1356 
Q 2931 1769 2642 2001 
Q 2353 2234 1838 2234 
L 1294 2234 
L 1294 2753 
L 1863 2753 
Q 2328 2753 2575 2939 
Q 2822 3125 2822 3475 
Q 2822 3834 2567 4026 
Q 2313 4219 1838 4219 
Q 1578 4219 1281 4162 
Q 984 4106 628 3988 
L 628 4550 
Q 988 4650 1302 4700 
Q 1616 4750 1894 4750 
Q 2613 4750 3031 4423 
Q 3450 4097 3450 3541 
Q 3450 3153 3228 2886 
Q 3006 2619 2597 2516 
z
" transform="scale(0.015625)"/>
       </defs>
       <use xlink:href="#DejaVuSans-2d"/>
       <use xlink:href="#DejaVuSans-33" x="36.083984"/>
       <use xlink:href="#DejaVuSans-2e" x="99.707031"/>
       <use xlink:href="#DejaVuSans-30" x="131.494141"/>
      </g>
     </g>
    </g>
    <g id="text_9">
     <!-- $\boldsymbol{\delta}^{\mathbf{13}}\mathbf{C}\ \mathbf{[‰]}$ -->
     <g transform="translate(305.99875 56.84875) scale(0.26 -0.26)">
      <defs>
       <path id="DejaVuSans-BoldOblique-3b4" d="M 3913 3950 
Q 3572 4169 2575 4169 
Q 2044 4169 1984 3863 
Q 1981 3841 1981 3822 
Q 1981 3563 2634 3463 
Q 4038 3244 4038 2159 
Q 4038 1963 3994 1734 
Q 3828 888 3222 400 
Q 2613 -91 1719 -91 
Q 822 -91 403 400 
Q 100 750 100 1288 
Q 100 2253 884 2900 
Q 1075 3056 1294 3156 
Q 959 3356 959 3722 
Q 959 3806 978 3900 
Q 1175 4913 2825 4913 
Q 3653 4913 4056 4694 
L 3913 3950 
z
M 2003 2750 
Q 1825 2681 1659 2506 
Q 1400 2234 1306 1744 
Q 1269 1553 1269 1350 
Q 1269 1147 1359 978 
Q 1513 703 1866 703 
Q 2222 703 2481 981 
Q 2744 1263 2834 1731 
Q 2866 1888 2866 2084 
Q 2866 2278 2747 2431 
Q 2572 2669 2269 2703 
Q 2128 2719 2003 2750 
z
" transform="scale(0.015625)"/>
       <path id="DejaVuSans-Bold-31" d="M 750 831 
L 1813 831 
L 1813 3847 
L 722 3622 
L 722 4441 
L 1806 4666 
L 2950 4666 
L 2950 831 
L 4013 831 
L 4013 0 
L 750 0 
L 750 831 
z
" transform="scale(0.015625)"/>
       <path id="DejaVuSans-Bold-33" d="M 2981 2516 
Q 3453 2394 3698 2092 
Q 3944 1791 3944 1325 
Q 3944 631 3412 270 
Q 2881 -91 1863 -91 
Q 1503 -91 1142 -33 
Q 781 25 428 141 
L 428 1069 
Q 766 900 1098 814 
Q 1431 728 1753 728 
Q 2231 728 2486 893 
Q 2741 1059 2741 1369 
Q 2741 1688 2480 1852 
Q 2219 2016 1709 2016 
L 1228 2016 
L 1228 2791 
L 1734 2791 
Q 2188 2791 2409 2933 
Q 2631 3075 2631 3366 
Q 2631 3634 2415 3781 
Q 2200 3928 1806 3928 
Q 1516 3928 1219 3862 
Q 922 3797 628 3669 
L 628 4550 
Q 984 4650 1334 4700 
Q 1684 4750 2022 4750 
Q 2931 4750 3382 4451 
Q 3834 4153 3834 3553 
Q 3834 3144 3618 2883 
Q 3403 2622 2981 2516 
z
" transform="scale(0.015625)"/>
       <path id="DejaVuSans-Bold-43" d="M 4288 256 
Q 3956 84 3597 -3 
Q 3238 -91 2847 -91 
Q 1681 -91 1000 561 
Q 319 1213 319 2328 
Q 319 3447 1000 4098 
Q 1681 4750 2847 4750 
Q 3238 4750 3597 4662 
Q 3956 4575 4288 4403 
L 4288 3438 
Q 3953 3666 3628 3772 
Q 3303 3878 2944 3878 
Q 2300 3878 1931 3465 
Q 1563 3053 1563 2328 
Q 1563 1606 1931 1193 
Q 2300 781 2944 781 
Q 3303 781 3628 887 
Q 3953 994 4288 1222 
L 4288 256 
z
" transform="scale(0.015625)"/>
       <path id="DejaVuSans-Bold-5b" d="M 550 4863 
L 2491 4863 
L 2491 4159 
L 1613 4159 
L 1613 -141 
L 2491 -141 
L 2491 -844 
L 550 -844 
L 550 4863 
z
" transform="scale(0.015625)"/>
       <path id="DejaVuSans-Bold-2030" d="M 7822 1925 
Q 7597 1925 7475 1733 
Q 7353 1541 7353 1184 
Q 7353 825 7475 633 
Q 7597 441 7822 441 
Q 8044 441 8162 633 
Q 8281 825 8281 1184 
Q 8281 1541 8162 1733 
Q 8044 1925 7822 1925 
z
M 7822 2450 
Q 8403 2450 8736 2112 
Q 9069 1775 9069 1184 
Q 9069 594 8734 251 
Q 8400 -91 7822 -91 
Q 7241 -91 6903 251 
Q 6566 594 6566 1184 
Q 6566 1772 6902 2111 
Q 7238 2450 7822 2450 
z
M 1453 4225 
Q 1228 4225 1106 4031 
Q 984 3838 984 3481 
Q 984 3122 1106 2926 
Q 1228 2731 1453 2731 
Q 1678 2731 1798 2926 
Q 1919 3122 1919 3481 
Q 1919 3838 1797 4031 
Q 1675 4225 1453 4225 
z
M 1453 4750 
Q 2034 4750 2367 4411 
Q 2700 4072 2700 3481 
Q 2700 2891 2367 2550 
Q 2034 2209 1453 2209 
Q 872 2209 539 2550 
Q 206 2891 206 3481 
Q 206 4072 539 4411 
Q 872 4750 1453 4750 
z
M 2094 -91 
L 1403 -91 
L 4319 4750 
L 5013 4750 
L 2094 -91 
z
M 4959 2450 
Q 5541 2450 5875 2112 
Q 6209 1775 6209 1184 
Q 6209 594 5875 251 
Q 5541 -91 4959 -91 
Q 4378 -91 4042 251 
Q 3706 594 3706 1184 
Q 3706 1772 4042 2111 
Q 4378 2450 4959 2450 
z
M 4959 1925 
Q 4738 1925 4616 1733 
Q 4494 1541 4494 1184 
Q 4494 825 4614 633 
Q 4734 441 4959 441 
Q 5184 441 5303 633 
Q 5422 825 5422 1184 
Q 5422 1541 5301 1733 
Q 5181 1925 4959 1925 
z
" transform="scale(0.015625)"/>
       <path id="DejaVuSans-Bold-5d" d="M 2375 -844 
L 434 -844 
L 434 -141 
L 1313 -141 
L 1313 4159 
L 434 4159 
L 434 4863 
L 2375 4863 
L 2375 -844 
z
" transform="scale(0.015625)"/>
      </defs>
      <use xlink:href="#DejaVuSans-BoldOblique-3b4" transform="translate(0 0.765625)"/>
      <use xlink:href="#DejaVuSans-Bold-31" transform="translate(69.658203 39.046875) scale(0.7)"/>
      <use xlink:href="#DejaVuSans-Bold-33" transform="translate(118.364258 39.046875) scale(0.7)"/>
      <use xlink:href="#DejaVuSans-Bold-43" transform="translate(169.804688 0.765625)"/>
      <use xlink:href="#DejaVuSans-Bold-5b" transform="translate(275.663738 0.765625)"/>
      <use xlink:href="#DejaVuSans-Bold-2030" transform="translate(321.366863 0.765625)"/>
      <use xlink:href="#DejaVuSans-Bold-5d" transform="translate(465.361003 0.765625)"/>
     </g>
    </g>
   </g>
   <g id="matplotlib.axis_2">
    <g id="ytick_1">
     <g id="line2d_9">
      <path d="M 93.55875 287.273101 
L 651.55875 287.273101 
" clip-path="url(#p309b5e1f63)" style="fill: none; stroke: #cccccc; stroke-linecap: square"/>
     </g>
     <g id="line2d_10">
      <defs>
       <path id="m47bcc9bb11" d="M 0 0 
L -3.5 0 
" style="stroke: #000000; stroke-width: 0.8"/>
      </defs>
      <g>
       <use xlink:href="#m47bcc9bb11" x="93.55875" y="287.273101" style="stroke: #000000; stroke-width: 0.8"/>
      </g>
     </g>
     <g id="text_10">
      <!-- 20 -->
      <g transform="translate(58.56375 295.631382) scale(0.22 -0.22)">
       <defs>
        <path id="DejaVuSans-32" d="M 1228 531 
L 3431 531 
L 3431 0 
L 469 0 
L 469 531 
Q 828 903 1448 1529 
Q 2069 2156 2228 2338 
Q 2531 2678 2651 2914 
Q 2772 3150 2772 3378 
Q 2772 3750 2511 3984 
Q 2250 4219 1831 4219 
Q 1534 4219 1204 4116 
Q 875 4013 500 3803 
L 500 4441 
Q 881 4594 1212 4672 
Q 1544 4750 1819 4750 
Q 2544 4750 2975 4387 
Q 3406 4025 3406 3419 
Q 3406 3131 3298 2873 
Q 3191 2616 2906 2266 
Q 2828 2175 2409 1742 
Q 1991 1309 1228 531 
z
" transform="scale(0.015625)"/>
       </defs>
       <use xlink:href="#DejaVuSans-32"/>
       <use xlink:href="#DejaVuSans-30" x="63.623047"/>
      </g>
     </g>
    </g>
    <g id="ytick_2">
     <g id="line2d_11">
      <path d="M 93.55875 478.073704 
L 651.55875 478.073704 
" clip-path="url(#p309b5e1f63)" style="fill: none; stroke: #cccccc; stroke-linecap: square"/>
     </g>
     <g id="line2d_12">
      <g>
       <use xlink:href="#m47bcc9bb11" x="93.55875" y="478.073704" style="stroke: #000000; stroke-width: 0.8"/>
      </g>
     </g>
     <g id="text_11">
      <!-- 40 -->
      <g transform="translate(58.56375 486.431986) scale(0.22 -0.22)">
       <use xlink:href="#DejaVuSans-34"/>
       <use xlink:href="#DejaVuSans-30" x="63.623047"/>
      </g>
     </g>
    </g>
    <g id="ytick_3">
     <g id="line2d_13">
      <path d="M 93.55875 668.874308 
L 651.55875 668.874308 
" clip-path="url(#p309b5e1f63)" style="fill: none; stroke: #cccccc; stroke-linecap: square"/>
     </g>
     <g id="line2d_14">
      <g>
       <use xlink:href="#m47bcc9bb11" x="93.55875" y="668.874308" style="stroke: #000000; stroke-width: 0.8"/>
      </g>
     </g>
     <g id="text_12">
      <!-- 60 -->
      <g transform="translate(58.56375 677.232589) scale(0.22 -0.22)">
       <use xlink:href="#DejaVuSans-36"/>
       <use xlink:href="#DejaVuSans-30" x="63.623047"/>
      </g>
     </g>
    </g>
    <g id="ytick_4">
     <g id="line2d_15">
      <path d="M 93.55875 859.674912 
L 651.55875 859.674912 
" clip-path="url(#p309b5e1f63)" style="fill: none; stroke: #cccccc; stroke-linecap: square"/>
     </g>
     <g id="line2d_16">
      <g>
       <use xlink:href="#m47bcc9bb11" x="93.55875" y="859.674912" style="stroke: #000000; stroke-width: 0.8"/>
      </g>
     </g>
     <g id="text_13">
      <!-- 80 -->
      <g transform="translate(58.56375 868.033193) scale(0.22 -0.22)">
       <use xlink:href="#DejaVuSans-38"/>
       <use xlink:href="#DejaVuSans-30" x="63.623047"/>
      </g>
     </g>
    </g>
    <g id="ytick_5">
     <g id="line2d_17">
      <path d="M 93.55875 1050.475516 
L 651.55875 1050.475516 
" clip-path="url(#p309b5e1f63)" style="fill: none; stroke: #cccccc; stroke-linecap: square"/>
     </g>
     <g id="line2d_18">
      <g>
       <use xlink:href="#m47bcc9bb11" x="93.55875" y="1050.475516" style="stroke: #000000; stroke-width: 0.8"/>
      </g>
     </g>
     <g id="text_14">
      <!-- 100 -->
      <g transform="translate(44.56625 1058.833797) scale(0.22 -0.22)">
       <use xlink:href="#DejaVuSans-31"/>
       <use xlink:href="#DejaVuSans-30" x="63.623047"/>
       <use xlink:href="#DejaVuSans-30" x="127.246094"/>
      </g>
     </g>
    </g>
    <g id="ytick_6">
     <g id="line2d_19">
      <defs>
       <path id="m65376b4b6c" d="M 0 0 
L -4 0 
" style="stroke: #000000; stroke-width: 0.8"/>
      </defs>
      <g>
       <use xlink:href="#m65376b4b6c" x="93.55875" y="144.172648" style="stroke: #000000; stroke-width: 0.8"/>
      </g>
     </g>
    </g>
    <g id="ytick_7">
     <g id="line2d_20">
      <g>
       <use xlink:href="#m65376b4b6c" x="93.55875" y="191.872799" style="stroke: #000000; stroke-width: 0.8"/>
      </g>
     </g>
    </g>
    <g id="ytick_8">
     <g id="line2d_21">
      <g>
       <use xlink:href="#m65376b4b6c" x="93.55875" y="239.57295" style="stroke: #000000; stroke-width: 0.8"/>
      </g>
     </g>
    </g>
    <g id="ytick_9">
     <g id="line2d_22">
      <g>
       <use xlink:href="#m65376b4b6c" x="93.55875" y="334.973251" style="stroke: #000000; stroke-width: 0.8"/>
      </g>
     </g>
    </g>
    <g id="ytick_10">
     <g id="line2d_23">
      <g>
       <use xlink:href="#m65376b4b6c" x="93.55875" y="382.673402" style="stroke: #000000; stroke-width: 0.8"/>
      </g>
     </g>
    </g>
    <g id="ytick_11">
     <g id="line2d_24">
      <g>
       <use xlink:href="#m65376b4b6c" x="93.55875" y="430.373553" style="stroke: #000000; stroke-width: 0.8"/>
      </g>
     </g>
    </g>
    <g id="ytick_12">
     <g id="line2d_25">
      <g>
       <use xlink:href="#m65376b4b6c" x="93.55875" y="525.773855" style="stroke: #000000; stroke-width: 0.8"/>
      </g>
     </g>
    </g>
    <g id="ytick_13">
     <g id="line2d_26">
      <g>
       <use xlink:href="#m65376b4b6c" x="93.55875" y="573.474006" style="stroke: #000000; stroke-width: 0.8"/>
      </g>
     </g>
    </g>
    <g id="ytick_14">
     <g id="line2d_27">
      <g>
       <use xlink:href="#m65376b4b6c" x="93.55875" y="621.174157" style="stroke: #000000; stroke-width: 0.8"/>
      </g>
     </g>
    </g>
    <g id="ytick_15">
     <g id="line2d_28">
      <g>
       <use xlink:href="#m65376b4b6c" x="93.55875" y="716.574459" style="stroke: #000000; stroke-width: 0.8"/>
      </g>
     </g>
    </g>
    <g id="ytick_16">
     <g id="line2d_29">
      <g>
       <use xlink:href="#m65376b4b6c" x="93.55875" y="764.27461" style="stroke: #000000; stroke-width: 0.8"/>
      </g>
     </g>
    </g>
    <g id="ytick_17">
     <g id="line2d_30">
      <g>
       <use xlink:href="#m65376b4b6c" x="93.55875" y="811.974761" style="stroke: #000000; stroke-width: 0.8"/>
      </g>
     </g>
    </g>
    <g id="ytick_18">
     <g id="line2d_31">
      <g>
       <use xlink:href="#m65376b4b6c" x="93.55875" y="907.375063" style="stroke: #000000; stroke-width: 0.8"/>
      </g>
     </g>
    </g>
    <g id="ytick_19">
     <g id="line2d_32">
      <g>
       <use xlink:href="#m65376b4b6c" x="93.55875" y="955.075214" style="stroke: #000000; stroke-width: 0.8"/>
      </g>
     </g>
    </g>
    <g id="ytick_20">
     <g id="line2d_33">
      <g>
       <use xlink:href="#m65376b4b6c" x="93.55875" y="1002.775365" style="stroke: #000000; stroke-width: 0.8"/>
      </g>
     </g>
    </g>
    <g id="ytick_21">
     <g id="line2d_34">
      <g>
       <use xlink:href="#m65376b4b6c" x="93.55875" y="1098.175666" style="stroke: #000000; stroke-width: 0.8"/>
      </g>
     </g>
    </g>
    <g id="ytick_22">
     <g id="line2d_35">
      <g>
       <use xlink:href="#m65376b4b6c" x="93.55875" y="1145.875817" style="stroke: #000000; stroke-width: 0.8"/>
      </g>
     </g>
    </g>
    <g id="ytick_23">
     <g id="line2d_36">
      <g>
       <use xlink:href="#m65376b4b6c" x="93.55875" y="1193.575968" style="stroke: #000000; stroke-width: 0.8"/>
      </g>
     </g>
    </g>
    <g id="text_15">
     <!-- Age [ka BP] -->
     <g transform="translate(26.955938 737.513281) rotate(-90) scale(0.26 -0.26)">
      <defs>
       <path id="DejaVuSans-Bold-41" d="M 3419 850 
L 1538 850 
L 1241 0 
L 31 0 
L 1759 4666 
L 3194 4666 
L 4922 0 
L 3713 0 
L 3419 850 
z
M 1838 1716 
L 3116 1716 
L 2478 3572 
L 1838 1716 
z
" transform="scale(0.015625)"/>
       <path id="DejaVuSans-Bold-67" d="M 2919 594 
Q 2688 288 2409 144 
Q 2131 0 1766 0 
Q 1125 0 706 504 
Q 288 1009 288 1791 
Q 288 2575 706 3076 
Q 1125 3578 1766 3578 
Q 2131 3578 2409 3434 
Q 2688 3291 2919 2981 
L 2919 3500 
L 4044 3500 
L 4044 353 
Q 4044 -491 3511 -936 
Q 2978 -1381 1966 -1381 
Q 1638 -1381 1331 -1331 
Q 1025 -1281 716 -1178 
L 716 -306 
Q 1009 -475 1290 -558 
Q 1572 -641 1856 -641 
Q 2406 -641 2662 -400 
Q 2919 -159 2919 353 
L 2919 594 
z
M 2181 2772 
Q 1834 2772 1640 2515 
Q 1447 2259 1447 1791 
Q 1447 1309 1634 1061 
Q 1822 813 2181 813 
Q 2531 813 2725 1069 
Q 2919 1325 2919 1791 
Q 2919 2259 2725 2515 
Q 2531 2772 2181 2772 
z
" transform="scale(0.015625)"/>
       <path id="DejaVuSans-Bold-65" d="M 4031 1759 
L 4031 1441 
L 1416 1441 
Q 1456 1047 1700 850 
Q 1944 653 2381 653 
Q 2734 653 3104 758 
Q 3475 863 3866 1075 
L 3866 213 
Q 3469 63 3072 -14 
Q 2675 -91 2278 -91 
Q 1328 -91 801 392 
Q 275 875 275 1747 
Q 275 2603 792 3093 
Q 1309 3584 2216 3584 
Q 3041 3584 3536 3087 
Q 4031 2591 4031 1759 
z
M 2881 2131 
Q 2881 2450 2695 2645 
Q 2509 2841 2209 2841 
Q 1884 2841 1681 2658 
Q 1478 2475 1428 2131 
L 2881 2131 
z
" transform="scale(0.015625)"/>
       <path id="DejaVuSans-Bold-20" transform="scale(0.015625)"/>
       <path id="DejaVuSans-Bold-6b" d="M 538 4863 
L 1656 4863 
L 1656 2216 
L 2944 3500 
L 4244 3500 
L 2534 1894 
L 4378 0 
L 3022 0 
L 1656 1459 
L 1656 0 
L 538 0 
L 538 4863 
z
" transform="scale(0.015625)"/>
       <path id="DejaVuSans-Bold-61" d="M 2106 1575 
Q 1756 1575 1579 1456 
Q 1403 1338 1403 1106 
Q 1403 894 1545 773 
Q 1688 653 1941 653 
Q 2256 653 2472 879 
Q 2688 1106 2688 1447 
L 2688 1575 
L 2106 1575 
z
M 3816 1997 
L 3816 0 
L 2688 0 
L 2688 519 
Q 2463 200 2181 54 
Q 1900 -91 1497 -91 
Q 953 -91 614 226 
Q 275 544 275 1050 
Q 275 1666 698 1953 
Q 1122 2241 2028 2241 
L 2688 2241 
L 2688 2328 
Q 2688 2594 2478 2717 
Q 2269 2841 1825 2841 
Q 1466 2841 1156 2769 
Q 847 2697 581 2553 
L 581 3406 
Q 941 3494 1303 3539 
Q 1666 3584 2028 3584 
Q 2975 3584 3395 3211 
Q 3816 2838 3816 1997 
z
" transform="scale(0.015625)"/>
       <path id="DejaVuSans-Bold-42" d="M 2456 2859 
Q 2741 2859 2887 2984 
Q 3034 3109 3034 3353 
Q 3034 3594 2887 3720 
Q 2741 3847 2456 3847 
L 1791 3847 
L 1791 2859 
L 2456 2859 
z
M 2497 819 
Q 2859 819 3042 972 
Q 3225 1125 3225 1434 
Q 3225 1738 3044 1889 
Q 2863 2041 2497 2041 
L 1791 2041 
L 1791 819 
L 2497 819 
z
M 3616 2497 
Q 4003 2384 4215 2081 
Q 4428 1778 4428 1338 
Q 4428 663 3972 331 
Q 3516 0 2584 0 
L 588 0 
L 588 4666 
L 2394 4666 
Q 3366 4666 3802 4372 
Q 4238 4078 4238 3431 
Q 4238 3091 4078 2852 
Q 3919 2613 3616 2497 
z
" transform="scale(0.015625)"/>
       <path id="DejaVuSans-Bold-50" d="M 588 4666 
L 2584 4666 
Q 3475 4666 3951 4270 
Q 4428 3875 4428 3144 
Q 4428 2409 3951 2014 
Q 3475 1619 2584 1619 
L 1791 1619 
L 1791 0 
L 588 0 
L 588 4666 
z
M 1791 3794 
L 1791 2491 
L 2456 2491 
Q 2806 2491 2997 2661 
Q 3188 2831 3188 3144 
Q 3188 3456 2997 3625 
Q 2806 3794 2456 3794 
L 1791 3794 
z
" transform="scale(0.015625)"/>
      </defs>
      <use xlink:href="#DejaVuSans-Bold-41"/>
      <use xlink:href="#DejaVuSans-Bold-67" x="77.392578"/>
      <use xlink:href="#DejaVuSans-Bold-65" x="148.974609"/>
      <use xlink:href="#DejaVuSans-Bold-20" x="216.796875"/>
      <use xlink:href="#DejaVuSans-Bold-5b" x="251.611328"/>
      <use xlink:href="#DejaVuSans-Bold-6b" x="297.314453"/>
      <use xlink:href="#DejaVuSans-Bold-61" x="363.818359"/>
      <use xlink:href="#DejaVuSans-Bold-20" x="431.298828"/>
      <use xlink:href="#DejaVuSans-Bold-42" x="466.113281"/>
      <use xlink:href="#DejaVuSans-Bold-50" x="542.333984"/>
      <use xlink:href="#DejaVuSans-Bold-5d" x="615.625"/>
     </g>
    </g>
   </g>
   <g id="text_16">
    <!-- MIS 1 -->
    <g style="fill: #8b1a00" transform="translate(602.14125 167.449897) scale(0.14 -0.14)">
     <defs>
      <path id="DejaVuSans-Bold-4d" d="M 588 4666 
L 2119 4666 
L 3181 2169 
L 4250 4666 
L 5778 4666 
L 5778 0 
L 4641 0 
L 4641 3413 
L 3566 897 
L 2803 897 
L 1728 3413 
L 1728 0 
L 588 0 
L 588 4666 
z
" transform="scale(0.015625)"/>
      <path id="DejaVuSans-Bold-49" d="M 588 4666 
L 1791 4666 
L 1791 0 
L 588 0 
L 588 4666 
z
" transform="scale(0.015625)"/>
      <path id="DejaVuSans-Bold-53" d="M 3834 4519 
L 3834 3531 
Q 3450 3703 3084 3790 
Q 2719 3878 2394 3878 
Q 1963 3878 1756 3759 
Q 1550 3641 1550 3391 
Q 1550 3203 1689 3098 
Q 1828 2994 2194 2919 
L 2706 2816 
Q 3484 2659 3812 2340 
Q 4141 2022 4141 1434 
Q 4141 663 3683 286 
Q 3225 -91 2284 -91 
Q 1841 -91 1394 -6 
Q 947 78 500 244 
L 500 1259 
Q 947 1022 1364 901 
Q 1781 781 2169 781 
Q 2563 781 2772 912 
Q 2981 1044 2981 1288 
Q 2981 1506 2839 1625 
Q 2697 1744 2272 1838 
L 1806 1941 
Q 1106 2091 782 2419 
Q 459 2747 459 3303 
Q 459 4000 909 4375 
Q 1359 4750 2203 4750 
Q 2588 4750 2994 4692 
Q 3400 4634 3834 4519 
z
" transform="scale(0.015625)"/>
     </defs>
     <use xlink:href="#DejaVuSans-Bold-4d"/>
     <use xlink:href="#DejaVuSans-Bold-49" x="99.511719"/>
     <use xlink:href="#DejaVuSans-Bold-53" x="136.71875"/>
     <use xlink:href="#DejaVuSans-Bold-20" x="208.740234"/>
     <use xlink:href="#DejaVuSans-Bold-31" x="243.554688"/>
    </g>
   </g>
   <g id="text_17">
    <!-- MIS 2 -->
    <g style="fill: #003f6b" transform="translate(602.14125 305.446271) scale(0.14 -0.14)">
     <defs>
      <path id="DejaVuSans-Bold-32" d="M 1844 884 
L 3897 884 
L 3897 0 
L 506 0 
L 506 884 
L 2209 2388 
Q 2438 2594 2547 2791 
Q 2656 2988 2656 3200 
Q 2656 3528 2436 3728 
Q 2216 3928 1850 3928 
Q 1569 3928 1234 3808 
Q 900 3688 519 3450 
L 519 4475 
Q 925 4609 1322 4679 
Q 1719 4750 2100 4750 
Q 2938 4750 3402 4381 
Q 3866 4013 3866 3353 
Q 3866 2972 3669 2642 
Q 3472 2313 2841 1759 
L 1844 884 
z
" transform="scale(0.015625)"/>
     </defs>
     <use xlink:href="#DejaVuSans-Bold-4d"/>
     <use xlink:href="#DejaVuSans-Bold-49" x="99.511719"/>
     <use xlink:href="#DejaVuSans-Bold-53" x="136.71875"/>
     <use xlink:href="#DejaVuSans-Bold-20" x="208.740234"/>
     <use xlink:href="#DejaVuSans-Bold-32" x="243.554688"/>
    </g>
   </g>
   <g id="text_18">
    <!-- MIS 3 -->
    <g style="fill: #8b1a00" transform="translate(602.14125 510.55692) scale(0.14 -0.14)">
     <use xlink:href="#DejaVuSans-Bold-4d"/>
     <use xlink:href="#DejaVuSans-Bold-49" x="99.511719"/>
     <use xlink:href="#DejaVuSans-Bold-53" x="136.71875"/>
     <use xlink:href="#DejaVuSans-Bold-20" x="208.740234"/>
     <use xlink:href="#DejaVuSans-Bold-33" x="243.554688"/>
    </g>
   </g>
   <g id="text_19">
    <!-- MIS 4 -->
    <g style="fill: #003f6b" transform="translate(602.14125 710.897554) scale(0.14 -0.14)">
     <defs>
      <path id="DejaVuSans-Bold-34" d="M 2356 3675 
L 1038 1722 
L 2356 1722 
L 2356 3675 
z
M 2156 4666 
L 3494 4666 
L 3494 1722 
L 4159 1722 
L 4159 850 
L 3494 850 
L 3494 0 
L 2356 0 
L 2356 850 
L 288 850 
L 288 1881 
L 2156 4666 
z
" transform="scale(0.015625)"/>
     </defs>
     <use xlink:href="#DejaVuSans-Bold-4d"/>
     <use xlink:href="#DejaVuSans-Bold-49" x="99.511719"/>
     <use xlink:href="#DejaVuSans-Bold-53" x="136.71875"/>
     <use xlink:href="#DejaVuSans-Bold-20" x="208.740234"/>
     <use xlink:href="#DejaVuSans-Bold-34" x="243.554688"/>
    </g>
   </g>
   <g id="text_20">
    <!-- MIS 5 -->
    <g style="fill: #8b1a00" transform="translate(602.14125 993.740758) scale(0.14 -0.14)">
     <defs>
      <path id="DejaVuSans-Bold-35" d="M 678 4666 
L 3669 4666 
L 3669 3781 
L 1638 3781 
L 1638 3059 
Q 1775 3097 1914 3117 
Q 2053 3138 2203 3138 
Q 3056 3138 3531 2711 
Q 4006 2284 4006 1522 
Q 4006 766 3489 337 
Q 2972 -91 2053 -91 
Q 1656 -91 1267 -14 
Q 878 63 494 219 
L 494 1166 
Q 875 947 1217 837 
Q 1559 728 1863 728 
Q 2300 728 2551 942 
Q 2803 1156 2803 1522 
Q 2803 1891 2551 2103 
Q 2300 2316 1863 2316 
Q 1603 2316 1309 2248 
Q 1016 2181 678 2041 
L 678 4666 
z
" transform="scale(0.015625)"/>
     </defs>
     <use xlink:href="#DejaVuSans-Bold-4d"/>
     <use xlink:href="#DejaVuSans-Bold-49" x="99.511719"/>
     <use xlink:href="#DejaVuSans-Bold-53" x="136.71875"/>
     <use xlink:href="#DejaVuSans-Bold-20" x="208.740234"/>
     <use xlink:href="#DejaVuSans-Bold-35" x="243.554688"/>
    </g>
   </g>
   <g id="line2d_37">
    <path d="M 388.501607 97.140625 
L 286.104984 98.26932 
L 394.29901 98.285755 
L 421.836672 98.846084 
L 378.356153 99.430884 
L 358.065244 99.448068 
L 302.265244 100.014419 
L 375.457451 100.576014 
L 272.553555 100.615076 
L 262.408101 101.205276 
L 387.052256 101.721144 
L 250.813295 101.774468 
L 271.104205 102.332526 
L 362.413295 102.866274 
L 287.771737 102.879623 
L 442.127581 103.446848 
L 322.556153 104.030539 
L 267.480828 104.595005 
L 352.267841 105.156533 
L 258.060049 105.173658 
L 213.130179 105.74668 
L 387.776932 106.301663 
L 249.363945 106.318894 
L 221.174075 106.897486 
L 382.704205 107.446792 
L 229.073036 107.491485 
L 213.130179 108.061794 
L 412.415893 108.591922 
L 208.057451 108.640063 
L 232.696412 109.212382 
L 233.421088 109.489591 
L 424.735373 109.737052 
L 213.854854 109.764351 
L 239.943166 110.040595 
L 242.841867 110.310685 
L 234.145763 110.588661 
L 245.015893 110.864272 
L 397.922386 110.882182 
L 224.724984 111.141442 
L 255.886023 111.411764 
L 172.54836 111.687196 
L 197.187321 111.958839 
L 401.545763 112.027311 
L 195.737971 112.23553 
L 208.057451 112.512963 
L 204.434075 112.788281 
L 181.244464 113.06044 
L 383.42888 113.172441 
L 191.389919 113.337515 
L 165.736412 113.615284 
L 202.984724 114.167781 
L 384.153555 114.317571 
L 179.070438 114.438226 
L 281.249659 115.085752 
L 245.015893 115.407121 
L 392.124984 115.462701 
L 226.89901 115.728454 
L 194.28862 116.051744 
L 208.782127 116.374851 
L 387.052256 116.60783 
L 192.114594 116.698131 
L 255.886023 117.340327 
L 247.189919 117.662556 
L 410.241867 117.75296 
L 274.002906 117.985815 
L 279.075633 118.310655 
L 242.117192 118.633123 
L 254.436672 118.956073 
L 385.602906 119.038588 
L 226.174334 119.278861 
L 234.580568 119.602209 
L 234.725503 119.926287 
L 257.335373 120.249639 
L 395.023685 120.336603 
L 250.08862 120.573086 
L 242.841867 120.898119 
L 259.509399 121.242882 
L 281.974334 121.587787 
L 397.197711 121.630015 
L 258.060049 121.931712 
L 253.711997 122.275977 
L 246.465244 122.621056 
L 402.270438 122.927765 
L 247.914594 122.96584 
L 271.82888 123.311292 
L 279.075633 123.654558 
L 301.540568 123.998282 
L 449.374334 124.224223 
L 249.363945 124.34287 
L 266.031477 124.687403 
L 251.537971 125.376721 
L 370.384724 125.52622 
L 238.493815 125.722617 
L 235.595114 126.070084 
L 209.289399 126.414631 
L 218.202906 126.757137 
L 384.153555 126.827715 
L 211.680828 127.103157 
L 189.505763 127.448567 
L 205.15875 127.792713 
L 387.776932 128.131183 
L 219.652256 128.136828 
L 246.465244 128.483319 
L 240.667841 128.828192 
L 230.522386 129.172676 
L 397.197711 129.430033 
L 210.231477 129.519311 
L 221.826282 129.864427 
L 228.34836 130.209055 
L 242.841867 130.551684 
L 435.605503 130.732759 
L 248.639269 130.898077 
L 249.363945 131.243426 
L 234.870438 131.870825 
L 368.210698 132.028644 
L 252.262646 132.185565 
L 273.278231 132.497262 
L 221.101607 133.123107 
L 396.473036 133.324916 
L 246.465244 133.435086 
L 218.927581 133.74579 
L 224.000308 134.057392 
L 231.971737 134.371585 
L 379.805503 134.620721 
L 297.192516 134.684023 
L 263.857451 134.996765 
L 208.709659 135.308966 
L 232.696412 135.622109 
L 372.55875 135.920137 
L 209.506802 135.932639 
L 269.654854 136.55409 
L 265.306802 136.863059 
L 214.579529 137.176281 
L 360.239269 137.221307 
L 210.956153 137.486683 
L 223.275633 137.798885 
L 210.956153 138.111196 
L 210.956153 138.423533 
L 376.906802 138.51579 
L 217.695633 138.734165 
L 242.117192 139.654951 
L 368.935373 139.812531 
L 245.740568 139.96122 
L 228.34836 140.263757 
L 264.582127 140.566862 
L 258.060049 140.870256 
L 400.821088 141.116231 
L 278.350958 141.173841 
L 257.335373 141.483358 
L 249.363945 141.790689 
L 224.000308 142.090987 
L 271.82888 142.397269 
L 396.473036 142.415658 
L 256.610698 142.70172 
L 265.306802 143.002591 
L 248.639269 143.610732 
L 405.16914 143.710614 
L 253.711997 143.938836 
L 255.886023 144.267667 
L 241.899789 144.598309 
L 239.21849 144.928328 
L 397.197711 144.9998 
L 224.435114 145.25868 
L 235.812516 145.588887 
L 264.147321 145.916499 
L 305.88862 146.247666 
L 456.621088 146.298895 
L 277.626282 146.576695 
L 313.860049 146.903486 
L 296.975114 147.235688 
L 268.205503 147.566789 
L 418.937971 147.597717 
L 275.162386 147.896823 
L 213.057711 148.22807 
L 212.115633 148.560319 
L 241.392516 148.891767 
L 454.447062 148.898304 
L 216.826023 149.216948 
L 217.550698 149.548896 
L 227.333815 149.878739 
L 464.592516 150.195462 
L 225.014854 150.207216 
L 255.08888 150.536772 
L 257.262906 150.868735 
L 237.914075 151.199146 
L 452.997711 151.48664 
L 227.333815 151.528898 
L 239.943166 151.926324 
L 236.319789 152.320535 
L 229.073036 152.720966 
L 438.504205 152.783247 
L 208.709659 153.118912 
L 222.550958 153.510025 
L 228.34836 153.902888 
L 460.244464 154.073915 
L 220.449399 154.296339 
L 273.278231 155.091988 
L 442.127581 155.371133 
L 229.073036 155.490706 
L 234.870438 155.887513 
L 260.234075 156.282118 
L 408.792516 156.486377 
L 269.654854 156.683661 
L 268.930179 157.073797 
L 416.039269 157.406534 
L 219.507321 157.473065 
L 239.943166 157.869011 
L 230.522386 158.262258 
L 421.836672 158.341347 
L 228.855633 158.658749 
L 294.293815 159.055775 
L 416.763945 159.268214 
L 232.696412 159.452594 
L 216.02888 159.839347 
L 416.763945 160.199302 
L 226.89901 160.230182 
L 258.060049 161.019062 
L 418.213295 161.119959 
L 287.047062 161.416327 
L 301.540568 161.815664 
L 413.865244 162.044245 
L 307.627841 162.215334 
L 279.510438 162.775311 
L 436.330179 162.966096 
L 311.686023 163.331916 
L 297.917192 163.886332 
L 427.634075 163.889743 
L 307.337971 164.447168 
L 421.111997 164.806158 
L 264.582127 165.00399 
L 264.582127 165.563594 
L 419.662646 165.732954 
L 273.278231 166.124607 
L 408.067841 166.659631 
L 279.800308 166.677546 
L 324.730179 167.227903 
L 434.880828 167.586413 
L 248.313166 167.775866 
L 304.439269 168.334343 
L 409.517192 168.515871 
L 249.291477 168.890453 
L 398.647062 169.442401 
L 193.563945 169.458804 
L 186.317192 170.012523 
L 439.22888 170.371931 
L 252.262646 170.561412 
L 271.82888 171.118714 
L 413.865244 171.300977 
L 277.626282 172.215052 
L 432.706802 172.225089 
L 240.667841 172.76186 
L 244.291218 173.095658 
L 401.545763 173.151518 
L 281.974334 173.427352 
L 231.247062 173.761255 
L 464.592516 174.079777 
L 255.161347 174.093502 
L 217.478231 174.769326 
L 408.792516 175.001458 
L 231.247062 175.097154 
L 236.319789 175.432814 
L 248.639269 175.765189 
L 419.662646 175.92337 
L 251.537971 176.098464 
L 263.857451 176.432491 
L 227.623685 176.764351 
L 389.226282 176.845879 
L 250.813295 177.099391 
L 259.509399 177.432032 
L 262.408101 177.764637 
L 409.517192 177.76998 
L 231.247062 178.101362 
L 192.114594 178.43348 
L 433.431477 178.69303 
L 205.883425 178.771372 
L 212.405503 179.108335 
L 250.66836 179.44268 
L 441.402906 179.621366 
L 235.595114 179.889133 
L 259.509399 180.335797 
L 409.517192 180.548051 
L 269.654854 180.79056 
L 284.14836 181.238425 
L 391.400308 181.471765 
L 298.641867 181.685512 
L 269.654854 182.125731 
L 427.634075 182.391166 
L 255.161347 182.572974 
L 247.189919 183.01691 
L 414.589919 183.263695 
L 234.145763 183.467391 
L 245.740568 183.917719 
L 458.070438 184.114399 
L 210.883685 184.358505 
L 452.273036 184.987723 
L 466.766542 185.866704 
L 437.779529 186.743848 
L 468.215893 187.589372 
L 427.634075 188.472113 
L 407.343166 189.327484 
L 389.950958 190.182565 
L 417.48862 191.028199 
L 392.124984 191.892725 
L 395.74836 192.73101 
L 402.270438 193.562845 
L 426.909399 194.436384 
L 429.083425 195.30527 
L 434.880828 196.170637 
L 432.706802 197.015319 
L 429.808101 197.839392 
L 431.982127 198.680439 
L 461.693815 199.531337 
L 467.491218 200.397292 
L 474.737971 201.266708 
L 479.086023 202.982413 
L 436.330179 203.833833 
L 434.880828 204.715109 
L 474.013295 207.306468 
L 475.462646 210.074749 
L 479.086023 212.842273 
L 470.389919 215.623189 
L 429.808101 218.37218 
L 401.545763 221.148332 
L 424.010698 223.899309 
L 410.241867 226.632135 
L 389.226282 229.402678 
L 382.704205 232.178483 
L 391.400308 234.921866 
L 366.761347 236.926681 
L 414.589919 238.839888 
L 394.29901 240.756292 
L 417.48862 242.685816 
L 442.127581 244.564675 
L 415.314594 246.465447 
L 458.795114 248.373225 
L 432.706802 250.288247 
L 433.431477 252.21579 
L 466.041867 254.128896 
L 462.41849 256.056481 
L 492.130179 257.994781 
L 468.215893 259.921017 
L 466.041867 261.833886 
L 476.187321 265.671672 
L 476.187321 267.582821 
L 486.332776 269.453442 
L 481.984724 271.363919 
L 467.491218 273.275712 
L 445.026282 274.938527 
L 509.522386 276.607544 
L 526.189919 278.260226 
L 582.714594 279.950174 
L 559.524984 281.615492 
L 555.176932 283.289674 
L 487.057451 284.963641 
L 505.174334 286.628647 
L 537.784724 288.30886 
L 503.000308 289.958546 
L 487.057451 291.595848 
L 465.317192 293.244315 
L 492.130179 294.917631 
L 465.317192 296.577778 
L 469.665244 298.24988 
L 524.740568 299.924711 
L 512.421088 301.622808 
L 502.275633 303.292522 
L 528.363945 304.968738 
L 526.914594 306.646348 
L 493.579529 308.323792 
L 521.841867 309.983836 
L 497.202906 311.651081 
L 525.465244 313.313681 
L 477.636672 314.985283 
L 514.595114 316.652902 
L 516.044464 318.334628 
L 584.163945 320.080676 
L 529.813295 321.866001 
L 518.21849 323.682213 
L 511.696412 325.512175 
L 534.161347 327.295128 
L 489.956153 329.081393 
L 487.057451 330.892972 
L 507.34836 332.72561 
L 497.927581 334.575315 
L 484.15875 336.377246 
L 518.21849 340.008988 
L 538.509399 341.814234 
L 488.506802 343.617595 
L 457.345763 345.452988 
L 471.839269 347.274696 
L 497.927581 349.081304 
L 560.249659 352.760533 
L 450.823685 354.578675 
L 509.522386 356.395855 
L 477.636672 358.230088 
L 495.753555 360.063373 
L 510.247062 361.863084 
L 479.086023 363.682197 
L 484.15875 365.347655 
L 452.273036 366.740102 
L 497.202906 368.158026 
L 496.478231 369.557643 
L 487.782127 370.95576 
L 471.839269 372.387294 
L 492.854854 373.800683 
L 525.465244 375.217865 
L 470.389919 376.614439 
L 473.28862 378.003023 
L 520.392516 379.442442 
L 474.013295 380.869864 
L 480.535373 382.299103 
L 491.405503 383.730083 
L 513.145763 385.142813 
L 508.073036 386.558901 
L 459.519789 387.980371 
L 521.117192 389.418872 
L 576.192516 392.276398 
L 471.114594 393.662611 
L 488.506802 395.116398 
L 450.823685 396.547322 
L 453.722386 397.964647 
L 486.332776 399.354932 
L 484.15875 401.639424 
L 509.522386 404.004188 
L 519.667841 406.424317 
L 480.535373 408.816572 
L 458.795114 411.250007 
L 441.402906 413.627111 
L 429.083425 416.045677 
L 431.257451 418.404341 
L 442.852256 420.729182 
L 442.127581 423.106992 
L 432.706802 425.528391 
L 476.911997 427.878812 
L 497.202906 430.220412 
L 486.332776 432.557555 
L 519.667841 434.94428 
L 481.260049 437.31406 
L 461.693815 439.712843 
L 432.706802 442.065566 
L 429.808101 444.415288 
L 392.124984 446.806185 
L 405.893815 449.145926 
L 445.026282 451.543992 
L 455.171737 453.91951 
L 433.431477 456.28173 
L 462.41849 458.672149 
L 447.200308 460.457303 
L 466.766542 462.37187 
L 447.924984 464.22352 
L 468.215893 465.974448 
L 430.532776 467.839618 
L 437.054854 469.676123 
L 442.127581 471.592698 
L 439.22888 473.441157 
L 443.576932 475.29534 
L 399.371737 477.122842 
L 401.545763 480.785797 
L 416.039269 482.587384 
L 409.517192 484.440849 
L 452.997711 486.281592 
L 447.200308 488.096054 
L 468.215893 489.910101 
L 407.343166 491.69506 
L 455.896412 493.525735 
L 410.966542 495.349314 
L 471.839269 497.215509 
L 460.96914 499.079074 
L 469.665244 500.854944 
L 459.519789 502.686471 
L 417.48862 504.50099 
L 470.389919 506.296636 
L 466.041867 508.133163 
L 452.273036 509.987864 
L 442.852256 511.850218 
L 482.709399 513.738971 
L 446.475633 515.510685 
L 451.54836 517.313309 
L 449.374334 519.12773 
L 442.127581 520.948458 
L 444.301607 522.791771 
L 492.854854 524.575849 
L 446.475633 526.37573 
L 442.852256 528.223217 
L 417.48862 530.010821 
L 432.706802 531.774539 
L 418.213295 533.587235 
L 487.782127 535.327364 
L 461.693815 537.208932 
L 493.579529 538.959632 
L 489.956153 540.776085 
L 482.709399 544.254501 
L 489.231477 548.196593 
L 479.810698 552.154919 
L 458.795114 556.060439 
L 489.956153 560.074654 
L 449.374334 563.972365 
L 459.519789 567.866112 
L 452.997711 571.705654 
L 439.22888 575.560029 
L 521.117192 579.482118 
L 493.579529 583.397889 
L 527.639269 587.287643 
L 590.686023 591.233897 
L 484.883425 595.177594 
L 437.779529 598.969034 
L 470.389919 602.891442 
L 532.711997 606.919532 
L 478.361347 610.750748 
L 470.389919 614.76835 
L 481.260049 618.818269 
L 509.522386 622.715393 
L 421.111997 626.698257 
L 451.54836 630.58536 
L 437.054854 634.531028 
L 450.09901 638.497824 
L 473.28862 642.49518 
L 449.374334 646.39907 
L 439.22888 650.397835 
L 443.576932 654.308598 
L 637.065244 658.250068 
L 497.202906 662.176238 
L 494.304205 666.230559 
L 444.301607 670.243102 
L 468.215893 674.070384 
L 446.475633 677.875271 
L 478.361347 681.799612 
L 487.782127 685.753338 
L 466.766542 687.901455 
L 457.345763 689.192661 
L 499.376932 690.44482 
L 503.724984 691.584614 
L 505.174334 693.008006 
L 492.854854 694.349461 
L 473.28862 695.705592 
L 451.54836 696.943526 
L 501.550958 698.363543 
L 492.854854 699.576446 
L 526.914594 700.910385 
L 419.662646 702.259632 
L 490.680828 703.534792 
L 479.086023 704.896354 
L 472.563945 706.381362 
L 505.174334 707.779441 
L 475.462646 708.858899 
L 513.145763 710.047917 
L 512.421088 711.484354 
L 499.376932 712.877831 
L 430.532776 714.050359 
L 526.914594 715.433637 
L 545.756153 716.652015 
L 481.260049 718.035912 
L 581.989919 719.405818 
L 497.202906 720.878344 
L 592.135373 722.323737 
L 602.280828 723.55438 
L 531.987321 724.976987 
L 530.537971 726.274492 
L 448.649659 730.410741 
L 492.130179 734.436262 
L 439.22888 737.274068 
L 452.997711 739.58838 
L 415.314594 742.048778 
L 435.605503 744.432255 
L 479.086023 746.933795 
L 437.779529 749.379516 
L 460.244464 751.798751 
L 428.35875 754.379084 
L 429.083425 756.889892 
L 493.579529 759.31438 
L 526.189919 761.814962 
L 402.270438 764.389838 
L 518.21849 766.845235 
L 395.74836 769.364945 
L 407.343166 771.873604 
L 494.304205 774.40972 
L 343.571737 776.962736 
L 540.683425 779.322547 
L 500.101607 781.89321 
L 425.460049 784.374898 
L 452.273036 786.853498 
L 413.865244 789.434628 
L 460.244464 791.947027 
L 407.343166 794.29305 
L 452.273036 796.773905 
L 408.792516 799.276151 
L 387.776932 801.674228 
L 438.504205 804.112456 
L 429.083425 806.616557 
L 427.634075 809.147616 
L 419.662646 811.581784 
L 421.111997 813.438776 
L 465.317192 814.798482 
L 385.602906 816.145323 
L 421.836672 817.486583 
L 384.153555 818.824137 
L 392.849659 820.217649 
L 357.340568 821.538115 
L 431.257451 822.969581 
L 413.140568 824.312478 
L 447.924984 825.740262 
L 423.286023 827.089429 
L 436.330179 828.393899 
L 423.286023 829.668268 
L 437.779529 831.032544 
L 394.29901 832.395903 
L 391.400308 833.77448 
L 399.371737 835.002611 
L 392.124984 836.366269 
L 466.766542 837.717012 
L 458.070438 839.068825 
L 429.083425 840.471001 
L 469.665244 841.836908 
L 434.156153 843.232665 
L 436.330179 844.609875 
L 455.171737 845.965273 
L 395.023685 847.34884 
L 369.660049 848.719479 
L 387.052256 850.059967 
L 390.675633 851.386947 
L 377.631477 852.658191 
L 384.153555 854.000172 
L 412.415893 855.419714 
L 382.704205 856.721464 
L 396.473036 859.418023 
L 462.41849 860.284898 
L 385.602906 861.017701 
L 393.574334 861.770136 
L 407.343166 862.469256 
L 416.039269 863.183837 
L 456.621088 863.883619 
L 424.010698 864.630687 
L 408.067841 865.357146 
L 434.880828 866.036407 
L 410.241867 866.718554 
L 412.415893 867.461714 
L 389.226282 868.110563 
L 447.924984 869.548448 
L 408.792516 870.214727 
L 431.982127 870.879035 
L 347.195114 872.172162 
L 345.021088 872.888615 
L 368.210698 873.6057 
L 385.602906 874.259669 
L 445.026282 875.71606 
L 418.937971 876.367471 
L 431.257451 876.996956 
L 397.922386 877.638146 
L 439.953555 878.322823 
L 396.473036 878.990347 
L 410.966542 879.643429 
L 430.532776 880.34663 
L 396.473036 881.067893 
L 389.950958 881.775628 
L 423.286023 883.921944 
L 394.29901 884.850166 
L 380.530179 885.851625 
L 405.16914 886.862621 
L 395.023685 887.899058 
L 374.008101 888.912862 
L 408.792516 889.932312 
L 376.906802 890.904253 
L 421.836672 891.94007 
L 432.706802 893.006682 
L 419.662646 894.044562 
L 398.647062 895.109588 
L 405.893815 896.084973 
L 470.389919 897.092957 
L 471.839269 898.124878 
L 466.041867 899.184637 
L 434.880828 900.19417 
L 387.776932 901.272791 
L 389.950958 902.354782 
L 400.096412 903.423182 
L 408.067841 904.481577 
L 405.16914 905.524681 
L 397.197711 906.550433 
L 387.052256 907.558298 
L 391.400308 908.528871 
L 402.995114 909.589307 
L 424.735373 910.628081 
L 422.561347 911.649591 
L 419.662646 912.723611 
L 382.704205 913.755038 
L 402.995114 914.704426 
L 396.473036 915.735824 
L 376.182127 916.752717 
L 410.966542 917.750358 
L 370.384724 918.82261 
L 430.532776 919.855619 
L 455.171737 920.831149 
L 385.602906 921.780908 
L 393.574334 922.843803 
L 394.29901 923.907323 
L 371.834075 924.954676 
L 374.732776 925.921147 
L 374.008101 926.927098 
L 393.574334 927.959162 
L 367.486023 928.946276 
L 360.963945 929.947221 
L 403.719789 930.959516 
L 372.55875 931.963521 
L 409.517192 932.99706 
L 379.080828 934.013216 
L 392.849659 935.026372 
L 379.080828 936.046778 
L 381.254854 937.062995 
L 354.441867 938.10464 
L 374.732776 939.203887 
L 376.182127 940.210312 
L 361.68862 941.249808 
L 365.311997 942.267855 
L 362.413295 943.305358 
L 368.935373 944.320447 
L 345.745763 945.366266 
L 382.704205 946.396221 
L 375.457451 947.431328 
L 392.849659 948.485157 
L 429.083425 949.5351 
L 397.922386 950.486696 
L 384.153555 951.532465 
L 387.776932 952.582069 
L 381.254854 953.637883 
L 371.109399 954.642674 
L 380.530179 955.712075 
L 366.036672 956.845553 
L 383.42888 957.842563 
L 392.849659 958.846997 
L 375.457451 959.854321 
L 392.849659 960.892417 
L 376.182127 961.923137 
L 389.226282 962.903985 
L 398.647062 963.941416 
L 379.805503 965.004479 
L 368.210698 966.068838 
L 374.008101 967.043579 
L 378.356153 969.062151 
L 376.182127 970.144357 
L 373.283425 972.250465 
L 358.789919 973.27319 
L 356.615893 974.323171 
L 352.267841 975.334364 
L 368.935373 976.397213 
L 341.397711 977.434373 
L 324.730179 978.485494 
L 321.106802 979.49526 
L 422.561347 980.462086 
L 387.776932 981.473822 
L 404.444464 983.160314 
L 428.35875 984.981908 
L 426.909399 986.83111 
L 434.880828 988.772369 
L 407.343166 990.633442 
L 389.226282 992.462033 
L 444.301607 996.089688 
L 419.662646 997.893265 
L 389.950958 999.694796 
L 411.691218 1001.544245 
L 510.971737 1003.402804 
L 392.849659 1005.197716 
L 427.634075 1007.087759 
L 377.631477 1008.900107 
L 399.371737 1010.685177 
L 387.776932 1012.454593 
L 408.067841 1014.276193 
L 419.662646 1016.147797 
L 425.460049 1018.014898 
L 429.083425 1019.802832 
L 400.096412 1021.702013 
L 446.475633 1023.517032 
L 443.576932 1025.320851 
L 460.96914 1027.124512 
L 428.35875 1028.997263 
L 437.779529 1030.863964 
L 412.415893 1032.7176 
L 450.09901 1034.530883 
L 472.563945 1036.357268 
L 464.592516 1038.197791 
L 499.376932 1039.942033 
L 459.519789 1041.694715 
L 381.254854 1043.595119 
L 392.124984 1045.395125 
L 425.460049 1047.297607 
L 439.22888 1049.111511 
L 446.475633 1050.950973 
L 445.750958 1052.714963 
L 413.140568 1054.552768 
L 462.41849 1056.395616 
L 426.184724 1058.225515 
L 431.982127 1060.144184 
L 464.592516 1063.791677 
L 431.982127 1065.644789 
L 458.070438 1067.508336 
L 445.750958 1069.369332 
L 441.402906 1071.130494 
L 437.054854 1073.026465 
L 535.610698 1074.952194 
L 469.665244 1076.766323 
L 448.649659 1078.690577 
L 447.924984 1080.520372 
L 452.997711 1082.393109 
L 484.883425 1084.168194 
L 462.41849 1086.12827 
L 480.535373 1087.589803 
L 463.867841 1089.00928 
L 506.623685 1090.399787 
L 426.909399 1091.897501 
L 492.854854 1093.336104 
L 450.823685 1094.770413 
L 424.010698 1096.251682 
L 424.735373 1097.703178 
L 482.709399 1099.151817 
L 449.374334 1100.594878 
L 491.405503 1102.043206 
L 452.273036 1103.487124 
L 455.171737 1104.971591 
L 471.114594 1106.387075 
L 497.927581 1107.821786 
L 430.532776 1109.235518 
L 434.156153 1110.7942 
L 437.054854 1112.23472 
L 470.389919 1113.724394 
L 505.89901 1115.163897 
L 474.737971 1116.670176 
L 469.665244 1118.100541 
L 502.275633 1119.54105 
L 430.532776 1122.541357 
L 442.852256 1124.039935 
L 487.057451 1125.433127 
L 452.273036 1126.857594 
L 422.561347 1128.35898 
L 458.070438 1131.096285 
L 428.35875 1132.595055 
L 430.532776 1134.047756 
L 434.156153 1136.746221 
L 422.561347 1138.188624 
L 426.909399 1139.648132 
L 424.010698 1141.072569 
L 432.706802 1142.466934 
L 458.070438 1143.996604 
L 466.041867 1145.399143 
L 420.387321 1146.717094 
L 449.374334 1148.190746 
L 465.317192 1149.709012 
L 442.852256 1151.057503 
L 456.621088 1152.363422 
L 449.374334 1153.731855 
L 460.96914 1156.326696 
L 471.839269 1157.784321 
L 470.389919 1159.255754 
L 487.057451 1160.596526 
L 494.304205 1161.879761 
L 482.709399 1163.065813 
L 433.431477 1164.439874 
L 453.722386 1165.694983 
L 442.127581 1166.915786 
L 455.896412 1169.713337 
L 471.839269 1170.92362 
L 466.766542 1172.292546 
L 491.405503 1173.46346 
L 488.506802 1174.726489 
L 463.143166 1175.955435 
L 428.35875 1177.046742 
L 454.447062 1178.072349 
L 426.909399 1179.273872 
L 449.374334 1181.92838 
L 417.48862 1183.104945 
L 381.979529 1184.264682 
L 419.662646 1185.687094 
L 400.821088 1186.922168 
L 416.763945 1188.196128 
L 391.400308 1189.452032 
L 377.631477 1190.776633 
L 397.922386 1192.0511 
L 383.42888 1193.209923 
L 417.48862 1194.367854 
L 449.374334 1198.170471 
L 418.937971 1199.399507 
L 434.880828 1200.625462 
L 426.909399 1201.929034 
L 445.750958 1203.318335 
L 415.314594 1204.630128 
L 417.48862 1205.940625 
L 417.48862 1205.940625 
" clip-path="url(#p309b5e1f63)" style="fill: none; stroke: #aaaaaa; stroke-linecap: square"/>
   </g>
   <g id="patch_8">
    <path d="M 93.55875 1205.940625 
L 93.55875 97.140625 
" style="fill: none; stroke: #000000; stroke-width: 0.8; stroke-linejoin: miter; stroke-linecap: square"/>
   </g>
   <g id="patch_9">
    <path d="M 651.55875 1205.940625 
L 651.55875 97.140625 
" style="fill: none; stroke: #000000; stroke-width: 0.8; stroke-linejoin: miter; stroke-linecap: square"/>
   </g>
   <g id="patch_10">
    <path d="M 93.55875 1205.940625 
L 651.55875 1205.940625 
" style="fill: none; stroke: #000000; stroke-width: 0.8; stroke-linejoin: miter; stroke-linecap: square"/>
   </g>
   <g id="patch_11">
    <path d="M 93.55875 97.140625 
L 651.55875 97.140625 
" style="fill: none; stroke: #000000; stroke-width: 0.8; stroke-linejoin: miter; stroke-linecap: square"/>
   </g>
   <g id="line2d_38">
    <path d="M 343.967014 97.140625 
L 359.38547 97.679345 
L 369.623595 98.26932 
L 374.68139 98.285755 
L 374.558854 98.846084 
L 369.255987 99.430884 
L 354.92718 99.448068 
L 352.541157 100.014419 
L 327.017382 100.576014 
L 302.572682 100.615076 
L 302.344637 101.205276 
L 289.138316 101.721144 
L 303.587903 101.774468 
L 327.532594 102.866274 
L 337.710144 102.879623 
L 336.786141 103.446848 
L 329.01404 104.030539 
L 323.679484 104.595005 
L 309.558281 105.156533 
L 285.945521 105.173658 
L 276.028956 105.74668 
L 288.932062 106.301663 
L 271.571105 106.318894 
L 279.624461 106.897486 
L 291.667754 107.446792 
L 253.335976 108.061794 
L 282.179406 108.640063 
L 270.504531 109.212382 
L 282.616238 109.489591 
L 273.077213 109.737052 
L 240.500608 109.764351 
L 271.15826 110.040595 
L 269.999455 110.310685 
L 271.888003 110.588661 
L 253.478884 110.882182 
L 262.997638 111.141442 
L 264.085496 111.411764 
L 258.828644 111.687196 
L 247.211879 111.958839 
L 211.618327 112.027311 
L 239.346871 112.23553 
L 247.058835 112.512963 
L 249.922063 112.788281 
L 232.825469 113.06044 
L 195.150798 113.172441 
L 229.460543 113.337515 
L 232.254512 113.615284 
L 229.460543 113.89116 
L 231.217331 114.167781 
L 211.933197 114.317571 
L 256.596171 114.438226 
L 278.841507 114.76148 
L 281.141549 115.085752 
L 257.587067 115.407121 
L 258.887766 115.462701 
L 278.362782 115.728454 
L 254.041395 116.374851 
L 234.247116 116.60783 
L 237.27082 116.698131 
L 267.357515 117.016371 
L 283.927073 117.340327 
L 284.699046 117.662556 
L 265.688566 117.75296 
L 300.574334 117.985815 
L 302.272676 118.310655 
L 294.994165 118.633123 
L 280.314845 118.956073 
L 247.04397 119.038588 
L 268.421048 119.278861 
L 275.461716 119.602209 
L 278.465149 119.926287 
L 271.272451 120.249639 
L 253.765376 120.336603 
L 285.52271 120.573086 
L 295.543162 120.898119 
L 298.032396 121.242882 
L 277.426955 121.587787 
L 280.607756 121.630015 
L 300.354736 121.931712 
L 301.706112 122.275977 
L 294.263409 122.621056 
L 273.161674 122.927765 
L 285.484533 122.96584 
L 310.723167 123.311292 
L 316.834765 123.654558 
L 313.824575 123.998282 
L 288.906893 124.224223 
L 309.128544 124.34287 
L 304.756843 124.687403 
L 295.697219 125.032079 
L 276.609879 125.376721 
L 241.035753 125.52622 
L 266.197528 125.722617 
L 268.079487 126.070084 
L 262.379215 126.414631 
L 235.729238 126.757137 
L 236.841589 126.827715 
L 254.425523 127.103157 
L 259.593691 127.448567 
L 262.369924 127.792713 
L 241.396908 128.131183 
L 247.437558 128.136828 
L 274.498861 128.483319 
L 277.765812 128.828192 
L 266.786559 129.172676 
L 232.39742 129.430033 
L 263.229062 129.519311 
L 278.148251 130.209055 
L 277.519862 130.551684 
L 255.982308 130.732759 
L 284.547016 130.898077 
L 286.587594 131.243426 
L 285.79535 131.556355 
L 277.45905 131.870825 
L 244.946635 132.028644 
L 274.138043 132.185565 
L 284.097684 132.497262 
L 285.094324 132.809756 
L 276.220852 133.123107 
L 246.465244 133.324916 
L 259.511089 133.435086 
L 266.50277 133.74579 
L 278.914482 134.057392 
L 276.320684 134.371585 
L 250.251799 134.620721 
L 279.552162 134.684023 
L 284.659518 134.996765 
L 277.226106 135.308966 
L 253.144588 135.920137 
L 248.245006 135.932639 
L 264.761353 136.241187 
L 271.865367 136.55409 
L 265.249368 136.863059 
L 246.243956 137.221307 
L 250.227474 137.486683 
L 249.996051 138.111196 
L 248.686061 138.423533 
L 227.471993 138.51579 
L 255.149016 138.734165 
L 265.824041 139.046168 
L 267.502281 139.349436 
L 263.807113 139.654951 
L 241.310927 139.812531 
L 271.349479 139.96122 
L 284.307147 140.263757 
L 290.476178 140.566862 
L 290.776859 140.870256 
L 274.942112 141.173841 
L 284.731141 141.483358 
L 282.575697 141.790689 
L 279.455708 142.090987 
L 269.42512 142.415658 
L 286.89841 142.70172 
L 296.065807 143.002591 
L 298.668557 143.306325 
L 287.427643 143.610732 
L 260.436443 143.710614 
L 285.206994 143.938836 
L 288.020728 144.267667 
L 282.97942 144.598309 
L 269.735936 144.928328 
L 242.781055 144.9998 
L 278.011425 145.25868 
L 306.003149 145.916499 
L 314.361747 146.247666 
L 298.444228 146.298895 
L 331.835713 146.576695 
L 342.190969 146.903486 
L 333.591488 147.235688 
L 308.988676 147.566789 
L 263.720962 147.597717 
L 287.929848 147.896823 
L 286.122214 148.22807 
L 281.737675 148.560319 
L 252.336296 148.891767 
L 259.757208 148.898304 
L 286.051773 149.216948 
L 298.089492 149.548896 
L 297.263801 149.878739 
L 265.853771 150.195462 
L 269.094371 150.207216 
L 301.123669 150.536772 
L 301.63736 150.868735 
L 290.114516 151.199146 
L 249.189111 151.48664 
L 287.153651 151.528898 
L 289.337644 151.926324 
L 284.731817 152.320535 
L 253.666895 152.720966 
L 256.437384 152.783247 
L 287.746399 153.118912 
L 289.443389 153.510025 
L 273.833308 153.902888 
L 288.071742 154.073915 
L 285.4146 154.296339 
L 309.86099 154.697393 
L 292.161175 155.091988 
L 293.058995 155.371133 
L 282.071465 155.490706 
L 308.619751 156.282118 
L 306.571403 156.486377 
L 297.410763 156.683661 
L 297.550969 157.073797 
L 304.878467 157.406534 
L 292.080092 157.473065 
L 266.267968 157.869011 
L 301.560839 158.341347 
L 279.535946 158.658749 
L 314.860067 159.055775 
L 316.418034 159.268214 
L 306.202477 159.452594 
L 270.173951 159.839347 
L 290.308607 160.199302 
L 283.719299 160.230182 
L 272.43531 160.622178 
L 320.154082 161.119959 
L 303.898719 161.416327 
L 340.700063 161.815664 
L 350.603959 162.044245 
L 337.15608 162.215334 
L 335.944909 162.775311 
L 355.251003 163.331916 
L 353.109072 163.886332 
L 347.362346 163.889743 
L 351.094509 164.447168 
L 325.694723 164.806158 
L 343.146054 165.00399 
L 336.519244 165.563594 
L 313.336391 165.732954 
L 338.097313 166.124607 
L 334.294457 166.659631 
L 339.311862 166.677546 
L 346.403799 167.227903 
L 322.541456 167.586413 
L 346.386906 167.775866 
L 336.251165 168.334343 
L 312.27649 168.515871 
L 292.720391 169.442401 
L 289.833092 169.458804 
L 282.254069 170.012523 
L 290.2956 170.371931 
L 301.778072 170.561412 
L 322.36696 171.118714 
L 356.350685 171.300977 
L 338.863881 171.667325 
L 324.122059 172.215052 
L 343.0447 172.225089 
L 309.255235 172.76186 
L 304.716302 173.095658 
L 315.362441 173.151518 
L 319.784818 173.427352 
L 288.187961 173.761255 
L 312.762731 174.079777 
L 306.369034 174.093502 
L 286.034205 174.432556 
L 272.971468 174.769326 
L 278.584746 175.001458 
L 266.160534 175.097154 
L 294.346856 175.432814 
L 283.414225 175.765189 
L 289.955898 175.92337 
L 280.812151 176.098464 
L 298.864844 176.432491 
L 282.080755 176.764351 
L 288.444047 176.845879 
L 281.947307 177.432032 
L 299.994932 177.76998 
L 281.447636 178.101362 
L 270.297095 178.43348 
L 280.135112 178.69303 
L 279.113134 178.771372 
L 259.600955 179.108335 
L 300.589875 179.621366 
L 282.807458 179.889133 
L 328.652885 180.548051 
L 309.247127 180.79056 
L 312.020488 181.238425 
L 338.200018 181.471765 
L 316.912469 181.685512 
L 316.980038 182.125731 
L 329.557969 182.391166 
L 300.849677 182.572974 
L 307.056885 183.01691 
L 298.731564 183.263695 
L 295.766139 183.467391 
L 301.38364 183.917719 
L 367.405109 184.358505 
L 388.739111 184.987723 
L 432.507643 185.866704 
L 440.961344 186.743848 
L 435.397898 187.589372 
L 450.787536 188.472113 
L 418.552829 189.327484 
L 405.495159 190.182565 
L 400.067696 191.028199 
L 395.758496 191.892725 
L 402.935991 192.73101 
L 411.047625 193.562845 
L 418.346744 194.436384 
L 420.240359 195.30527 
L 428.172936 196.170637 
L 439.593751 197.839392 
L 448.872636 198.680439 
L 456.683589 199.531337 
L 457.643066 200.397292 
L 459.930269 201.266708 
L 461.654963 202.982413 
L 462.801943 203.833833 
L 464.690491 204.715109 
L 467.254727 207.306468 
L 462.752956 210.074749 
L 459.17012 212.842273 
L 457.166706 215.623189 
L 445.492507 218.37218 
L 426.564798 221.148332 
L 413.731795 223.899309 
L 397.277104 226.632135 
L 391.11483 229.402678 
L 386.606302 234.921866 
L 389.065807 236.926681 
L 393.680755 238.839888 
L 406.246862 240.756292 
L 417.343347 242.685816 
L 423.737044 244.564675 
L 433.098701 246.465447 
L 434.554808 248.373225 
L 445.705349 250.288247 
L 452.092289 252.21579 
L 457.778203 254.128896 
L 465.443883 256.056481 
L 467.61622 257.994781 
L 473.498083 259.921017 
L 475.781909 261.833886 
L 475.955898 263.75629 
L 478.893452 265.671672 
L 471.401762 267.582821 
L 471.271692 269.453442 
L 468.935501 271.363919 
L 477.205921 273.275712 
L 490.608191 274.938527 
L 512.627172 276.607544 
L 526.613913 278.260226 
L 535.15123 279.950174 
L 545.102425 281.615492 
L 547.227463 283.289674 
L 535.963745 284.963641 
L 519.542839 286.628647 
L 504.431078 288.30886 
L 496.586341 289.958546 
L 485.282081 291.595848 
L 485.06924 293.244315 
L 481.097884 294.917631 
L 478.231277 296.577778 
L 486.981436 298.24988 
L 499.976605 299.924711 
L 507.530796 301.622808 
L 513.622123 303.292522 
L 517.421178 304.968738 
L 520.221905 306.646348 
L 511.662628 308.323792 
L 509.73185 309.983836 
L 501.988466 311.651081 
L 504.652365 313.313681 
L 512.910961 314.985283 
L 522.591881 316.652902 
L 523.831768 318.334628 
L 532.951866 320.080676 
L 533.963709 321.866001 
L 532.848824 323.682213 
L 522.607083 325.512175 
L 513.775842 327.295128 
L 499.890455 329.081393 
L 497.907311 330.892972 
L 493.951158 332.72561 
L 498.420833 334.575315 
L 503.606738 336.377246 
L 508.262228 338.21064 
L 503.463155 340.008988 
L 492.422414 341.814234 
L 500.383707 343.617595 
L 496.82621 345.452988 
L 494.476505 347.274696 
L 490.04737 349.081304 
L 488.376732 352.760533 
L 498.245155 354.578675 
L 501.692852 356.395855 
L 500.159041 358.230088 
L 488.917282 360.063373 
L 481.285387 361.863084 
L 488.903769 363.682197 
L 484.513486 365.347655 
L 484.113141 366.740102 
L 478.123167 368.158026 
L 483.48644 369.557643 
L 490.422377 370.95576 
L 488.628426 372.387294 
L 494.716374 373.800683 
L 491.34807 375.217865 
L 490.542312 376.614439 
L 488.991608 378.003023 
L 489.560875 379.442442 
L 492.123422 380.869864 
L 487.293942 382.299103 
L 488.011861 383.730083 
L 499.175915 385.142813 
L 502.257052 386.558901 
L 513.500499 387.980371 
L 512.500481 389.418872 
L 502.883752 392.276398 
L 493.373444 393.662611 
L 485.248297 395.116398 
L 480.221178 396.547322 
L 473.584234 397.964647 
L 475.511633 399.354932 
L 490.817655 401.639424 
L 493.077831 404.004188 
L 492.983235 406.424317 
L 481.903641 408.816572 
L 466.322277 411.250007 
L 453.820361 413.627111 
L 436.742348 416.045677 
L 428.493888 418.404341 
L 434.602107 420.729182 
L 441.58872 423.106992 
L 473.465988 427.878812 
L 486.118245 430.220412 
L 490.969685 432.557555 
L 492.878503 434.94428 
L 482.75163 437.31406 
L 459.132958 439.712843 
L 439.352193 442.065566 
L 416.971719 446.806185 
L 420.772464 449.145926 
L 425.764108 451.543992 
L 437.088638 453.91951 
L 444.860739 456.28173 
L 457.536645 458.672149 
L 458.808627 460.457303 
L 454.670039 462.37187 
L 449.021287 467.839618 
L 445.877649 469.676123 
L 436.617346 471.592698 
L 431.015893 473.441157 
L 419.736972 475.29534 
L 418.257215 477.122842 
L 414.377077 480.785797 
L 421.329906 482.587384 
L 423.350213 484.440849 
L 433.145999 486.281592 
L 437.902842 488.096054 
L 441.044791 489.910101 
L 442.271165 491.69506 
L 448.739188 495.349314 
L 447.972282 497.215509 
L 449.583798 499.079074 
L 458.311997 500.854944 
L 457.051839 504.50099 
L 453.565289 506.296636 
L 455.006193 508.133163 
L 455.692017 509.987864 
L 458.796803 511.850218 
L 460.36102 513.738971 
L 449.061829 515.510685 
L 455.083898 519.12773 
L 457.411643 520.948458 
L 452.376078 522.791771 
L 453.903133 524.575849 
L 443.553283 526.37573 
L 441.426555 528.223217 
L 438.19001 530.010821 
L 438.526164 531.774539 
L 442.228934 533.587235 
L 456.435273 535.327364 
L 469.491254 537.208932 
L 483.5084 538.959632 
L 490.54738 544.254501 
L 483.052311 548.196593 
L 481.190791 552.154919 
L 474.173771 556.060439 
L 461.685369 560.074654 
L 457.061974 567.866112 
L 457.788339 571.705654 
L 478.841086 575.560029 
L 497.944473 579.482118 
L 511.233566 583.397889 
L 509.628807 587.287643 
L 514.525856 591.233897 
L 512.390682 595.177594 
L 497.841431 598.969034 
L 488.358151 602.891442 
L 484.912142 606.919532 
L 477.420452 610.750748 
L 485.844591 614.76835 
L 481.8631 618.818269 
L 465.994569 622.715393 
L 455.207211 626.698257 
L 456.252838 630.58536 
L 452.034856 634.531028 
L 430.919607 638.497824 
L 444.776278 642.49518 
L 468.891581 646.39907 
L 486.076015 650.397835 
L 497.050876 654.308598 
L 502.696249 658.250068 
L 499.48842 662.176238 
L 496.56607 666.230559 
L 490.334538 670.243102 
L 476.575842 674.070384 
L 451.11592 677.875271 
L 461.883008 681.799612 
L 466.881409 685.753338 
L 485.103024 689.192661 
L 493.292362 690.44482 
L 487.918953 691.584614 
L 487.62334 693.008006 
L 486.687512 694.349461 
L 495.175842 695.705592 
L 485.24154 696.943526 
L 481.851276 698.363543 
L 480.961057 699.576446 
L 479.119807 700.910385 
L 483.003324 702.259632 
L 480.435709 703.534792 
L 475.572445 704.896354 
L 480.366451 706.381362 
L 491.837944 707.779441 
L 496.702897 708.858899 
L 488.216256 710.047917 
L 496.91236 711.484354 
L 492.457887 712.877831 
L 500.525601 714.050359 
L 502.054345 715.433637 
L 505.263863 716.652015 
L 566.268349 720.878344 
L 557.636436 722.323737 
L 549.085605 723.55438 
L 544.849042 724.976987 
L 519.770883 726.274492 
L 507.372009 730.410741 
L 475.403523 733.143524 
L 453.208864 734.436262 
L 450.298338 737.274068 
L 444.097212 739.58838 
L 449.310144 742.048778 
L 444.245863 744.432255 
L 437.122423 746.933795 
L 439.154554 749.379516 
L 454.426791 751.798751 
L 455.144709 754.379084 
L 465.511452 756.889892 
L 466.497956 759.31438 
L 461.4455 761.814962 
L 468.683807 764.389838 
L 450.126037 766.845235 
L 440.465389 769.364945 
L 438.51434 771.873604 
L 439.894432 774.40972 
L 455.984252 776.962736 
L 448.340532 779.322547 
L 464.883062 781.89321 
L 457.496104 784.374898 
L 450.778076 786.853498 
L 454.708891 789.434628 
L 423.786032 791.947027 
L 421.807955 794.29305 
L 424.350231 796.773905 
L 421.035982 799.276151 
L 422.139042 801.674228 
L 414.58654 804.112456 
L 426.306348 806.616557 
L 423.975224 809.147616 
L 432.073344 811.581784 
L 430.471964 813.438776 
L 423.557987 814.798482 
L 410.829715 816.145323 
L 403.400526 817.486583 
L 395.363218 818.824137 
L 394.121642 820.217649 
L 394.246644 821.538115 
L 408.500281 822.969581 
L 413.260503 824.312478 
L 428.409427 825.740262 
L 434.575079 827.089429 
L 435.311579 828.393899 
L 412.199673 831.032544 
L 404.088039 832.395903 
L 408.608391 833.77448 
L 408.500281 835.002611 
L 440.622486 839.068825 
L 452.479121 840.471001 
L 456.8542 841.836908 
L 449.348996 843.232665 
L 431.429752 844.609875 
L 421.434638 845.965273 
L 410.01889 847.34884 
L 392.498301 848.719479 
L 388.790464 850.059967 
L 382.526836 851.386947 
L 375.413532 852.658191 
L 391.091181 854.000172 
L 399.878503 855.419714 
L 402.011988 856.721464 
L 404.621832 859.418023 
L 404.780619 860.284898 
L 417.681191 862.469256 
L 419.508927 863.183837 
L 418.618708 863.883619 
L 429.879048 864.630687 
L 425.938098 865.357146 
L 417.432876 866.036407 
L 415.241958 866.718554 
L 409.773953 867.461714 
L 417.346726 868.110563 
L 422.677904 868.82653 
L 418.948106 869.548448 
L 412.245282 870.214727 
L 386.891781 871.603729 
L 371.04352 872.172162 
L 367.693797 872.888615 
L 374.523313 873.6057 
L 401.22819 874.973704 
L 419.556225 875.71606 
L 426.451621 876.367471 
L 424.622196 876.996956 
L 424.184688 877.638146 
L 419.54609 878.322823 
L 412.998674 878.990347 
L 410.219907 879.643429 
L 405.429279 880.34663 
L 408.066152 881.067893 
L 405.893815 881.775628 
L 406.042466 882.45911 
L 402.650513 883.170111 
L 402.086313 883.921944 
L 400.768722 884.850166 
L 400.392026 885.851625 
L 392.353028 886.862621 
L 387.379965 887.899058 
L 389.677304 888.912862 
L 399.405521 889.932312 
L 405.012042 890.904253 
L 401.863336 891.94007 
L 407.806012 893.006682 
L 428.149287 895.109588 
L 443.739097 896.084973 
L 445.262773 897.092957 
L 444.232349 898.124878 
L 441.173172 899.184637 
L 434.914612 900.19417 
L 422.485333 901.272791 
L 406.38031 902.354782 
L 397.594678 903.423182 
L 392.814185 904.481577 
L 392.927363 905.524681 
L 397.56765 906.550433 
L 399.427481 907.558298 
L 404.664063 908.528871 
L 405.873544 909.589307 
L 408.679339 910.628081 
L 412.387176 911.649591 
L 409.001979 912.723611 
L 407.503641 913.755038 
L 396.39871 914.704426 
L 387.560712 915.735824 
L 394.476378 916.752717 
L 407.044174 918.82261 
L 409.603342 919.855619 
L 410.674307 920.831149 
L 408.505349 921.780908 
L 398.067659 922.843803 
L 394.376714 923.907323 
L 381.932231 924.954676 
L 372.14658 925.921147 
L 377.508164 926.927098 
L 373.406738 927.959162 
L 381.121406 929.947221 
L 384.432276 930.959516 
L 386.368122 931.963521 
L 389.091145 932.99706 
L 389.878321 934.013216 
L 386.175551 935.026372 
L 380.109563 936.046778 
L 377.901752 937.062995 
L 371.261429 938.10464 
L 369.717482 939.203887 
L 367.987721 940.210312 
L 364.303532 941.249808 
L 363.273108 942.267855 
L 363.600817 943.305358 
L 359.795005 944.320447 
L 366.970811 945.366266 
L 377.737898 946.396221 
L 392.918917 948.485157 
L 398.202797 949.5351 
L 399.822759 950.486696 
L 395.256797 951.532465 
L 389.283716 952.582069 
L 380.146726 953.637883 
L 375.195622 954.642674 
L 375.913541 955.712075 
L 378.582508 956.845553 
L 378.77339 957.842563 
L 380.268349 958.846997 
L 384.70593 959.854321 
L 387.491454 960.892417 
L 388.596203 961.923137 
L 385.354591 962.903985 
L 382.71434 963.941416 
L 381.976151 965.004479 
L 378.830823 966.068838 
L 379.079139 967.043579 
L 375.628063 968.078613 
L 373.003015 969.062151 
L 370.648242 970.144357 
L 370.315466 972.250465 
L 367.57893 973.27319 
L 362.423431 974.323171 
L 346.774498 975.334364 
L 344.269385 976.397213 
L 345.267714 977.434373 
L 350.206993 978.485494 
L 360.166633 979.49526 
L 373.33748 980.462086 
L 391.157061 981.473822 
L 411.920951 983.160314 
L 419.451494 984.981908 
L 423.87556 986.83111 
L 420.877195 988.772369 
L 422.549523 990.633442 
L 409.534084 992.462033 
L 416.38556 996.089688 
L 419.073108 997.893265 
L 426.873926 999.694796 
L 430.318245 1001.544245 
L 429.308092 1003.402804 
L 418.605194 1005.197716 
L 414.304441 1007.087759 
L 409.105022 1008.900107 
L 399.562619 1010.685177 
L 395.070983 1012.454593 
L 405.094814 1014.276193 
L 407.83135 1016.147797 
L 417.31463 1018.014898 
L 425.667823 1019.802832 
L 432.808155 1021.702013 
L 437.683244 1023.517032 
L 436.453492 1025.320851 
L 435.004141 1027.124512 
L 437.793043 1028.997263 
L 439.580238 1030.863964 
L 442.997529 1032.7176 
L 457.043393 1034.530883 
L 461.217455 1036.357268 
L 460.160003 1038.197791 
L 444.244174 1041.694715 
L 431.404413 1043.595119 
L 425.645863 1045.395125 
L 418.380528 1047.297607 
L 419.76231 1049.111511 
L 440.806611 1052.714963 
L 439.691726 1054.552768 
L 440.266061 1056.395616 
L 438.652856 1058.225515 
L 440.782962 1060.144184 
L 444.637762 1061.990802 
L 449.01622 1063.791677 
L 438.071764 1065.644789 
L 448.578712 1067.508336 
L 456.322096 1069.369332 
L 460.651566 1071.130494 
L 463.665135 1073.026465 
L 465.6449 1074.952194 
L 467.540205 1078.690577 
L 468.646644 1080.520372 
L 462.39653 1082.393109 
L 462.470856 1084.168194 
L 467.933793 1086.12827 
L 475.038652 1087.589803 
L 478.635001 1089.00928 
L 475.158587 1090.399787 
L 461.57557 1091.897501 
L 458.626192 1093.336104 
L 449.098992 1094.770413 
L 450.245972 1096.251682 
L 449.126019 1097.703178 
L 455.686949 1099.151817 
L 451.391263 1100.594878 
L 466.604377 1102.043206 
L 473.729507 1103.487124 
L 471.520007 1104.971591 
L 459.893107 1106.387075 
L 454.112596 1107.821786 
L 451.849042 1109.235518 
L 458.040032 1110.7942 
L 457.551848 1112.23472 
L 466.055381 1113.724394 
L 476.332594 1116.670176 
L 478.021814 1118.100541 
L 477.111325 1119.54105 
L 464.899954 1122.541357 
L 457.751176 1124.039935 
L 454.894705 1125.433127 
L 448.654727 1126.857594 
L 443.257669 1128.35898 
L 444.320189 1131.096285 
L 436.809917 1132.595055 
L 428.167868 1134.047756 
L 426.689801 1136.746221 
L 426.674598 1138.188624 
L 429.93986 1139.648132 
L 434.445009 1141.072569 
L 435.921387 1142.466934 
L 441.728925 1143.996604 
L 446.245899 1145.399143 
L 449.713868 1146.717094 
L 450.892943 1148.190746 
L 449.55677 1149.709012 
L 449.105748 1151.057503 
L 451.605794 1152.363422 
L 458.871129 1153.731855 
L 462.399909 1156.326696 
L 472.395023 1157.784321 
L 478.021814 1159.255754 
L 478.72453 1160.596526 
L 475.710961 1161.879761 
L 467.888184 1163.065813 
L 461.607665 1164.439874 
L 454.923422 1165.694983 
L 451.629443 1166.915786 
L 456.474126 1169.713337 
L 467.692235 1170.92362 
L 474.185596 1172.292546 
L 474.97784 1173.46346 
L 470.933848 1174.726489 
L 465.433748 1175.955435 
L 459.161674 1177.046742 
L 445.372573 1178.072349 
L 432.443284 1179.273872 
L 422.228571 1181.92838 
L 416.547725 1184.264682 
L 406.103278 1185.687094 
L 402.645445 1186.922168 
L 393.866569 1188.196128 
L 391.611461 1189.452032 
L 396.549051 1190.776633 
L 395.994986 1192.0511 
L 403.74006 1193.209923 
L 409.184415 1194.367854 
L 422.79446 1198.170471 
L 431.247316 1199.399507 
L 433.98892 1200.625462 
L 433.847025 1201.929034 
L 430.821633 1203.318335 
L 424.912741 1204.630128 
L 416.120352 1205.940625 
L 416.120352 1205.940625 
" clip-path="url(#p309b5e1f63)" style="fill: none; stroke: #000000; stroke-width: 1.5; stroke-linecap: square"/>
   </g>
   <g id="text_21">
    <!-- Savitzky-Golay filter  |  window = 11 pts  |  polyorder = 2 -->
    <g style="fill: #777777" transform="translate(168.246383 1227.956953) scale(0.143 -0.143)">
     <defs>
      <path id="DejaVuSans-Oblique-53" d="M 3859 4513 
L 3738 3897 
Q 3422 4066 3111 4152 
Q 2800 4238 2509 4238 
Q 1944 4238 1609 3991 
Q 1275 3744 1275 3334 
Q 1275 3109 1398 2989 
Q 1522 2869 2034 2731 
L 2413 2638 
Q 3053 2472 3303 2217 
Q 3553 1963 3553 1503 
Q 3553 797 2998 353 
Q 2444 -91 1538 -91 
Q 1166 -91 791 -17 
Q 416 56 38 206 
L 166 856 
Q 513 641 861 531 
Q 1209 422 1556 422 
Q 2147 422 2503 684 
Q 2859 947 2859 1369 
Q 2859 1650 2717 1795 
Q 2575 1941 2106 2059 
L 1728 2156 
Q 1081 2325 845 2545 
Q 609 2766 609 3163 
Q 609 3859 1145 4304 
Q 1681 4750 2541 4750 
Q 2875 4750 3203 4690 
Q 3531 4631 3859 4513 
z
" transform="scale(0.015625)"/>
      <path id="DejaVuSans-Oblique-61" d="M 3438 1997 
L 3047 0 
L 2472 0 
L 2578 531 
Q 2325 219 2001 64 
Q 1678 -91 1281 -91 
Q 834 -91 548 182 
Q 263 456 263 884 
Q 263 1497 752 1853 
Q 1241 2209 2100 2209 
L 2900 2209 
L 2931 2363 
Q 2938 2388 2941 2417 
Q 2944 2447 2944 2509 
Q 2944 2788 2717 2942 
Q 2491 3097 2081 3097 
Q 1800 3097 1504 3025 
Q 1209 2953 897 2809 
L 997 3341 
Q 1322 3463 1633 3523 
Q 1944 3584 2234 3584 
Q 2853 3584 3176 3315 
Q 3500 3047 3500 2534 
Q 3500 2431 3484 2292 
Q 3469 2153 3438 1997 
z
M 2816 1759 
L 2241 1759 
Q 1534 1759 1195 1570 
Q 856 1381 856 984 
Q 856 709 1029 553 
Q 1203 397 1509 397 
Q 1978 397 2328 733 
Q 2678 1069 2791 1631 
L 2816 1759 
z
" transform="scale(0.015625)"/>
      <path id="DejaVuSans-Oblique-76" d="M 459 3500 
L 1069 3500 
L 1581 525 
L 3256 3500 
L 3866 3500 
L 1875 0 
L 1100 0 
L 459 3500 
z
" transform="scale(0.015625)"/>
      <path id="DejaVuSans-Oblique-69" d="M 1172 4863 
L 1747 4863 
L 1606 4134 
L 1031 4134 
L 1172 4863 
z
M 909 3500 
L 1484 3500 
L 800 0 
L 225 0 
L 909 3500 
z
" transform="scale(0.015625)"/>
      <path id="DejaVuSans-Oblique-74" d="M 2706 3500 
L 2619 3053 
L 1472 3053 
L 1100 1153 
Q 1081 1047 1072 975 
Q 1063 903 1063 863 
Q 1063 663 1183 572 
Q 1303 481 1569 481 
L 2150 481 
L 2053 0 
L 1503 0 
Q 991 0 739 200 
Q 488 400 488 806 
Q 488 878 497 964 
Q 506 1050 525 1153 
L 897 3053 
L 409 3053 
L 500 3500 
L 978 3500 
L 1172 4494 
L 1747 4494 
L 1556 3500 
L 2706 3500 
z
" transform="scale(0.015625)"/>
      <path id="DejaVuSans-Oblique-7a" d="M 744 3500 
L 3475 3500 
L 3372 2975 
L 738 459 
L 2913 459 
L 2822 0 
L -19 0 
L 84 525 
L 2719 3041 
L 653 3041 
L 744 3500 
z
" transform="scale(0.015625)"/>
      <path id="DejaVuSans-Oblique-6b" d="M 1172 4863 
L 1747 4863 
L 1197 2028 
L 3169 3500 
L 3916 3500 
L 1716 1825 
L 3322 0 
L 2625 0 
L 1131 1709 
L 800 0 
L 225 0 
L 1172 4863 
z
" transform="scale(0.015625)"/>
      <path id="DejaVuSans-Oblique-79" d="M 1588 -325 
Q 1188 -997 936 -1164 
Q 684 -1331 294 -1331 
L -159 -1331 
L -63 -850 
L 269 -850 
Q 509 -850 678 -719 
Q 847 -588 1056 -206 
L 1234 128 
L 459 3500 
L 1069 3500 
L 1650 819 
L 3256 3500 
L 3859 3500 
L 1588 -325 
z
" transform="scale(0.015625)"/>
      <path id="DejaVuSans-Oblique-2d" d="M 391 2009 
L 2075 2009 
L 1978 1497 
L 288 1497 
L 391 2009 
z
" transform="scale(0.015625)"/>
      <path id="DejaVuSans-Oblique-47" d="M 3494 697 
L 3738 1919 
L 2700 1919 
L 2797 2438 
L 4453 2438 
L 4050 384 
Q 3634 156 3143 32 
Q 2653 -91 2156 -91 
Q 1278 -91 783 396 
Q 288 884 288 1753 
Q 288 2475 589 3126 
Q 891 3778 1422 4213 
Q 1756 4484 2153 4617 
Q 2550 4750 3034 4750 
Q 3472 4750 3873 4639 
Q 4275 4528 4641 4306 
L 4513 3634 
Q 4231 3928 3853 4083 
Q 3475 4238 3047 4238 
Q 2550 4238 2172 4048 
Q 1794 3859 1497 3463 
Q 1244 3125 1098 2667 
Q 953 2209 953 1734 
Q 953 1081 1287 751 
Q 1622 422 2284 422 
Q 2616 422 2925 492 
Q 3234 563 3494 697 
z
" transform="scale(0.015625)"/>
      <path id="DejaVuSans-Oblique-6f" d="M 1625 -91 
Q 1009 -91 651 289 
Q 294 669 294 1325 
Q 294 1706 417 2101 
Q 541 2497 738 2766 
Q 1047 3184 1428 3384 
Q 1809 3584 2291 3584 
Q 2888 3584 3255 3212 
Q 3622 2841 3622 2241 
Q 3622 1825 3500 1412 
Q 3378 1000 3181 728 
Q 2875 309 2494 109 
Q 2113 -91 1625 -91 
z
M 891 1344 
Q 891 869 1089 633 
Q 1288 397 1691 397 
Q 2269 397 2648 901 
Q 3028 1406 3028 2181 
Q 3028 2634 2825 2865 
Q 2622 3097 2228 3097 
Q 1903 3097 1650 2945 
Q 1397 2794 1197 2484 
Q 1050 2253 970 1956 
Q 891 1659 891 1344 
z
" transform="scale(0.015625)"/>
      <path id="DejaVuSans-Oblique-6c" d="M 1172 4863 
L 1747 4863 
L 800 0 
L 225 0 
L 1172 4863 
z
" transform="scale(0.015625)"/>
      <path id="DejaVuSans-Oblique-20" transform="scale(0.015625)"/>
      <path id="DejaVuSans-Oblique-66" d="M 3059 4863 
L 2969 4384 
L 2419 4384 
Q 2106 4384 1964 4261 
Q 1822 4138 1753 3809 
L 1691 3500 
L 2638 3500 
L 2553 3053 
L 1606 3053 
L 1013 0 
L 434 0 
L 1031 3053 
L 481 3053 
L 563 3500 
L 1113 3500 
L 1159 3744 
Q 1278 4363 1576 4613 
Q 1875 4863 2516 4863 
L 3059 4863 
z
" transform="scale(0.015625)"/>
      <path id="DejaVuSans-Oblique-65" d="M 3078 2063 
Q 3088 2113 3092 2166 
Q 3097 2219 3097 2272 
Q 3097 2653 2873 2875 
Q 2650 3097 2266 3097 
Q 1838 3097 1509 2826 
Q 1181 2556 1013 2059 
L 3078 2063 
z
M 3578 1613 
L 903 1613 
Q 884 1494 878 1425 
Q 872 1356 872 1306 
Q 872 872 1139 634 
Q 1406 397 1894 397 
Q 2269 397 2603 481 
Q 2938 566 3225 728 
L 3116 159 
Q 2806 34 2476 -28 
Q 2147 -91 1806 -91 
Q 1078 -91 686 257 
Q 294 606 294 1247 
Q 294 1794 489 2264 
Q 684 2734 1063 3103 
Q 1306 3334 1642 3459 
Q 1978 3584 2356 3584 
Q 2950 3584 3301 3228 
Q 3653 2872 3653 2272 
Q 3653 2128 3634 1964 
Q 3616 1800 3578 1613 
z
" transform="scale(0.015625)"/>
      <path id="DejaVuSans-Oblique-72" d="M 2853 2969 
Q 2766 3016 2653 3041 
Q 2541 3066 2413 3066 
Q 1953 3066 1609 2717 
Q 1266 2369 1153 1784 
L 800 0 
L 225 0 
L 909 3500 
L 1484 3500 
L 1375 2956 
Q 1603 3259 1920 3421 
Q 2238 3584 2597 3584 
Q 2691 3584 2781 3573 
Q 2872 3563 2963 3538 
L 2853 2969 
z
" transform="scale(0.015625)"/>
      <path id="DejaVuSans-Oblique-7c" d="M 1344 4891 
L 1344 -1509 
L 813 -1509 
L 813 4891 
L 1344 4891 
z
" transform="scale(0.015625)"/>
      <path id="DejaVuSans-Oblique-77" d="M 544 3500 
L 1113 3500 
L 1259 684 
L 2566 3500 
L 3231 3500 
L 3425 684 
L 4666 3500 
L 5241 3500 
L 3641 0 
L 2969 0 
L 2797 2900 
L 1459 0 
L 781 0 
L 544 3500 
z
" transform="scale(0.015625)"/>
      <path id="DejaVuSans-Oblique-6e" d="M 3566 2113 
L 3156 0 
L 2578 0 
L 2988 2091 
Q 3016 2238 3031 2350 
Q 3047 2463 3047 2528 
Q 3047 2791 2881 2937 
Q 2716 3084 2419 3084 
Q 1956 3084 1622 2776 
Q 1288 2469 1184 1941 
L 800 0 
L 225 0 
L 903 3500 
L 1478 3500 
L 1363 2950 
Q 1603 3253 1940 3418 
Q 2278 3584 2650 3584 
Q 3113 3584 3367 3334 
Q 3622 3084 3622 2631 
Q 3622 2519 3608 2391 
Q 3594 2263 3566 2113 
z
" transform="scale(0.015625)"/>
      <path id="DejaVuSans-Oblique-64" d="M 2675 525 
Q 2444 222 2128 65 
Q 1813 -91 1428 -91 
Q 903 -91 598 267 
Q 294 625 294 1247 
Q 294 1766 478 2236 
Q 663 2706 1013 3078 
Q 1244 3325 1534 3454 
Q 1825 3584 2144 3584 
Q 2481 3584 2739 3421 
Q 2997 3259 3138 2956 
L 3513 4863 
L 4091 4863 
L 3144 0 
L 2566 0 
L 2675 525 
z
M 891 1350 
Q 891 897 1095 644 
Q 1300 391 1663 391 
Q 1931 391 2161 520 
Q 2391 650 2566 903 
Q 2750 1166 2856 1509 
Q 2963 1853 2963 2188 
Q 2963 2622 2758 2865 
Q 2553 3109 2194 3109 
Q 1922 3109 1687 2981 
Q 1453 2853 1288 2613 
Q 1106 2353 998 2009 
Q 891 1666 891 1350 
z
" transform="scale(0.015625)"/>
      <path id="DejaVuSans-Oblique-3d" d="M 678 2906 
L 4684 2906 
L 4684 2381 
L 678 2381 
L 678 2906 
z
M 678 1631 
L 4684 1631 
L 4684 1100 
L 678 1100 
L 678 1631 
z
" transform="scale(0.015625)"/>
      <path id="DejaVuSans-Oblique-31" d="M 416 531 
L 1447 531 
L 2144 4122 
L 978 3897 
L 1088 4441 
L 2247 4666 
L 2881 4666 
L 2075 531 
L 3103 531 
L 3003 0 
L 313 0 
L 416 531 
z
" transform="scale(0.015625)"/>
      <path id="DejaVuSans-Oblique-70" d="M 3175 2156 
Q 3175 2616 2975 2859 
Q 2775 3103 2400 3103 
Q 2144 3103 1911 2972 
Q 1678 2841 1497 2591 
Q 1319 2344 1212 1994 
Q 1106 1644 1106 1300 
Q 1106 863 1306 627 
Q 1506 391 1875 391 
Q 2147 391 2380 519 
Q 2613 647 2778 891 
Q 2956 1147 3065 1494 
Q 3175 1841 3175 2156 
z
M 1394 2969 
Q 1625 3272 1939 3428 
Q 2253 3584 2638 3584 
Q 3175 3584 3472 3232 
Q 3769 2881 3769 2247 
Q 3769 1728 3584 1258 
Q 3400 788 3053 416 
Q 2822 169 2531 39 
Q 2241 -91 1919 -91 
Q 1547 -91 1294 64 
Q 1041 219 916 525 
L 556 -1331 
L -19 -1331 
L 922 3500 
L 1497 3500 
L 1394 2969 
z
" transform="scale(0.015625)"/>
      <path id="DejaVuSans-Oblique-73" d="M 3200 3397 
L 3091 2853 
Q 2863 2978 2609 3040 
Q 2356 3103 2088 3103 
Q 1634 3103 1373 2948 
Q 1113 2794 1113 2528 
Q 1113 2219 1719 2053 
Q 1766 2041 1788 2034 
L 1972 1978 
Q 2547 1819 2739 1644 
Q 2931 1469 2931 1166 
Q 2931 609 2489 259 
Q 2047 -91 1331 -91 
Q 1053 -91 747 -37 
Q 441 16 72 128 
L 184 722 
Q 500 559 806 475 
Q 1113 391 1394 391 
Q 1816 391 2080 572 
Q 2344 753 2344 1031 
Q 2344 1331 1650 1516 
L 1591 1531 
L 1394 1581 
Q 956 1697 753 1886 
Q 550 2075 550 2369 
Q 550 2928 970 3256 
Q 1391 3584 2113 3584 
Q 2397 3584 2667 3537 
Q 2938 3491 3200 3397 
z
" transform="scale(0.015625)"/>
      <path id="DejaVuSans-Oblique-32" d="M 2950 2253 
L 934 525 
L 3163 525 
L 3053 0 
L 25 0 
L 128 531 
L 2234 2338 
Q 2656 2703 2832 2979 
Q 3009 3256 3009 3547 
Q 3009 3850 2796 4040 
Q 2584 4231 2241 4231 
Q 1944 4231 1581 4125 
Q 1219 4019 806 3816 
L 922 4441 
Q 1309 4594 1662 4672 
Q 2016 4750 2316 4750 
Q 2928 4750 3301 4425 
Q 3675 4100 3675 3572 
Q 3675 3216 3497 2892 
Q 3319 2569 2950 2253 
z
" transform="scale(0.015625)"/>
     </defs>
     <use xlink:href="#DejaVuSans-Oblique-53"/>
     <use xlink:href="#DejaVuSans-Oblique-61" x="63.476562"/>
     <use xlink:href="#DejaVuSans-Oblique-76" x="124.755859"/>
     <use xlink:href="#DejaVuSans-Oblique-69" x="183.935547"/>
     <use xlink:href="#DejaVuSans-Oblique-74" x="211.71875"/>
     <use xlink:href="#DejaVuSans-Oblique-7a" x="250.927734"/>
     <use xlink:href="#DejaVuSans-Oblique-6b" x="303.417969"/>
     <use xlink:href="#DejaVuSans-Oblique-79" x="361.328125"/>
     <use xlink:href="#DejaVuSans-Oblique-2d" x="416.882812"/>
     <use xlink:href="#DejaVuSans-Oblique-47" x="452.966797"/>
     <use xlink:href="#DejaVuSans-Oblique-6f" x="530.457031"/>
     <use xlink:href="#DejaVuSans-Oblique-6c" x="591.638672"/>
     <use xlink:href="#DejaVuSans-Oblique-61" x="619.421875"/>
     <use xlink:href="#DejaVuSans-Oblique-79" x="680.701172"/>
     <use xlink:href="#DejaVuSans-Oblique-20" x="739.880859"/>
     <use xlink:href="#DejaVuSans-Oblique-66" x="771.667969"/>
     <use xlink:href="#DejaVuSans-Oblique-69" x="806.873047"/>
     <use xlink:href="#DejaVuSans-Oblique-6c" x="834.65625"/>
     <use xlink:href="#DejaVuSans-Oblique-74" x="862.439453"/>
     <use xlink:href="#DejaVuSans-Oblique-65" x="901.648438"/>
     <use xlink:href="#DejaVuSans-Oblique-72" x="963.171875"/>
     <use xlink:href="#DejaVuSans-Oblique-20" x="1004.285156"/>
     <use xlink:href="#DejaVuSans-Oblique-20" x="1036.072266"/>
     <use xlink:href="#DejaVuSans-Oblique-7c" x="1067.859375"/>
     <use xlink:href="#DejaVuSans-Oblique-20" x="1101.550781"/>
     <use xlink:href="#DejaVuSans-Oblique-20" x="1133.337891"/>
     <use xlink:href="#DejaVuSans-Oblique-77" x="1165.125"/>
     <use xlink:href="#DejaVuSans-Oblique-69" x="1246.912109"/>
     <use xlink:href="#DejaVuSans-Oblique-6e" x="1274.695312"/>
     <use xlink:href="#DejaVuSans-Oblique-64" x="1338.074219"/>
     <use xlink:href="#DejaVuSans-Oblique-6f" x="1401.550781"/>
     <use xlink:href="#DejaVuSans-Oblique-77" x="1462.732422"/>
     <use xlink:href="#DejaVuSans-Oblique-20" x="1544.519531"/>
     <use xlink:href="#DejaVuSans-Oblique-3d" x="1576.306641"/>
     <use xlink:href="#DejaVuSans-Oblique-20" x="1660.095703"/>
     <use xlink:href="#DejaVuSans-Oblique-31" x="1691.882812"/>
     <use xlink:href="#DejaVuSans-Oblique-31" x="1755.505859"/>
     <use xlink:href="#DejaVuSans-Oblique-20" x="1819.128906"/>
     <use xlink:href="#DejaVuSans-Oblique-70" x="1850.916016"/>
     <use xlink:href="#DejaVuSans-Oblique-74" x="1914.392578"/>
     <use xlink:href="#DejaVuSans-Oblique-73" x="1953.601562"/>
     <use xlink:href="#DejaVuSans-Oblique-20" x="2005.701172"/>
     <use xlink:href="#DejaVuSans-Oblique-20" x="2037.488281"/>
     <use xlink:href="#DejaVuSans-Oblique-7c" x="2069.275391"/>
     <use xlink:href="#DejaVuSans-Oblique-20" x="2102.966797"/>
     <use xlink:href="#DejaVuSans-Oblique-20" x="2134.753906"/>
     <use xlink:href="#DejaVuSans-Oblique-70" x="2166.541016"/>
     <use xlink:href="#DejaVuSans-Oblique-6f" x="2230.017578"/>
     <use xlink:href="#DejaVuSans-Oblique-6c" x="2291.199219"/>
     <use xlink:href="#DejaVuSans-Oblique-79" x="2318.982422"/>
     <use xlink:href="#DejaVuSans-Oblique-6f" x="2378.162109"/>
     <use xlink:href="#DejaVuSans-Oblique-72" x="2439.34375"/>
     <use xlink:href="#DejaVuSans-Oblique-64" x="2480.457031"/>
     <use xlink:href="#DejaVuSans-Oblique-65" x="2543.933594"/>
     <use xlink:href="#DejaVuSans-Oblique-72" x="2605.457031"/>
     <use xlink:href="#DejaVuSans-Oblique-20" x="2646.570312"/>
     <use xlink:href="#DejaVuSans-Oblique-3d" x="2678.357422"/>
     <use xlink:href="#DejaVuSans-Oblique-20" x="2762.146484"/>
     <use xlink:href="#DejaVuSans-Oblique-32" x="2793.933594"/>
    </g>
   </g>
   <g id="text_22">
    <!-- SISAL – Botuverá cave -->
    <g transform="translate(210.022188 26.955938) scale(0.26 -0.26)">
     <defs>
      <path id="DejaVuSans-Bold-4c" d="M 588 4666 
L 1791 4666 
L 1791 909 
L 3903 909 
L 3903 0 
L 588 0 
L 588 4666 
z
" transform="scale(0.015625)"/>
      <path id="DejaVuSans-Bold-2013" d="M 344 2156 
L 2856 2156 
L 2856 1350 
L 344 1350 
L 344 2156 
z
" transform="scale(0.015625)"/>
      <path id="DejaVuSans-Bold-6f" d="M 2203 2784 
Q 1831 2784 1636 2517 
Q 1441 2250 1441 1747 
Q 1441 1244 1636 976 
Q 1831 709 2203 709 
Q 2569 709 2762 976 
Q 2956 1244 2956 1747 
Q 2956 2250 2762 2517 
Q 2569 2784 2203 2784 
z
M 2203 3584 
Q 3106 3584 3614 3096 
Q 4122 2609 4122 1747 
Q 4122 884 3614 396 
Q 3106 -91 2203 -91 
Q 1297 -91 786 396 
Q 275 884 275 1747 
Q 275 2609 786 3096 
Q 1297 3584 2203 3584 
z
" transform="scale(0.015625)"/>
      <path id="DejaVuSans-Bold-74" d="M 1759 4494 
L 1759 3500 
L 2913 3500 
L 2913 2700 
L 1759 2700 
L 1759 1216 
Q 1759 972 1856 886 
Q 1953 800 2241 800 
L 2816 800 
L 2816 0 
L 1856 0 
Q 1194 0 917 276 
Q 641 553 641 1216 
L 641 2700 
L 84 2700 
L 84 3500 
L 641 3500 
L 641 4494 
L 1759 4494 
z
" transform="scale(0.015625)"/>
      <path id="DejaVuSans-Bold-75" d="M 500 1363 
L 500 3500 
L 1625 3500 
L 1625 3150 
Q 1625 2866 1622 2436 
Q 1619 2006 1619 1863 
Q 1619 1441 1641 1255 
Q 1663 1069 1716 984 
Q 1784 875 1895 815 
Q 2006 756 2150 756 
Q 2500 756 2700 1025 
Q 2900 1294 2900 1772 
L 2900 3500 
L 4019 3500 
L 4019 0 
L 2900 0 
L 2900 506 
Q 2647 200 2364 54 
Q 2081 -91 1741 -91 
Q 1134 -91 817 281 
Q 500 653 500 1363 
z
" transform="scale(0.015625)"/>
      <path id="DejaVuSans-Bold-76" d="M 97 3500 
L 1216 3500 
L 2088 1081 
L 2956 3500 
L 4078 3500 
L 2700 0 
L 1472 0 
L 97 3500 
z
" transform="scale(0.015625)"/>
      <path id="DejaVuSans-Bold-72" d="M 3138 2547 
Q 2991 2616 2845 2648 
Q 2700 2681 2553 2681 
Q 2122 2681 1889 2404 
Q 1656 2128 1656 1613 
L 1656 0 
L 538 0 
L 538 3500 
L 1656 3500 
L 1656 2925 
Q 1872 3269 2151 3426 
Q 2431 3584 2822 3584 
Q 2878 3584 2943 3579 
Q 3009 3575 3134 3559 
L 3138 2547 
z
" transform="scale(0.015625)"/>
      <path id="DejaVuSans-Bold-e1" d="M 2106 1575 
Q 1756 1575 1579 1456 
Q 1403 1338 1403 1106 
Q 1403 894 1545 773 
Q 1688 653 1941 653 
Q 2256 653 2472 879 
Q 2688 1106 2688 1447 
L 2688 1575 
L 2106 1575 
z
M 3816 1997 
L 3816 0 
L 2688 0 
L 2688 519 
Q 2463 200 2181 54 
Q 1900 -91 1497 -91 
Q 953 -91 614 226 
Q 275 544 275 1050 
Q 275 1666 698 1953 
Q 1122 2241 2028 2241 
L 2688 2241 
L 2688 2328 
Q 2688 2594 2478 2717 
Q 2269 2841 1825 2841 
Q 1466 2841 1156 2769 
Q 847 2697 581 2553 
L 581 3406 
Q 941 3494 1303 3539 
Q 1666 3584 2028 3584 
Q 2975 3584 3395 3211 
Q 3816 2838 3816 1997 
z
M 2606 5119 
L 3490 5119 
L 2337 3944 
L 1725 3944 
L 2606 5119 
z
" transform="scale(0.015625)"/>
      <path id="DejaVuSans-Bold-63" d="M 3366 3391 
L 3366 2478 
Q 3138 2634 2908 2709 
Q 2678 2784 2431 2784 
Q 1963 2784 1702 2511 
Q 1441 2238 1441 1747 
Q 1441 1256 1702 982 
Q 1963 709 2431 709 
Q 2694 709 2930 787 
Q 3166 866 3366 1019 
L 3366 103 
Q 3103 6 2833 -42 
Q 2563 -91 2291 -91 
Q 1344 -91 809 395 
Q 275 881 275 1747 
Q 275 2613 809 3098 
Q 1344 3584 2291 3584 
Q 2566 3584 2833 3536 
Q 3100 3488 3366 3391 
z
" transform="scale(0.015625)"/>
     </defs>
     <use xlink:href="#DejaVuSans-Bold-53"/>
     <use xlink:href="#DejaVuSans-Bold-49" x="72.021484"/>
     <use xlink:href="#DejaVuSans-Bold-53" x="109.228516"/>
     <use xlink:href="#DejaVuSans-Bold-41" x="181.25"/>
     <use xlink:href="#DejaVuSans-Bold-4c" x="258.642578"/>
     <use xlink:href="#DejaVuSans-Bold-20" x="322.363281"/>
     <use xlink:href="#DejaVuSans-Bold-2013" x="357.177734"/>
     <use xlink:href="#DejaVuSans-Bold-20" x="407.177734"/>
     <use xlink:href="#DejaVuSans-Bold-42" x="441.992188"/>
     <use xlink:href="#DejaVuSans-Bold-6f" x="518.212891"/>
     <use xlink:href="#DejaVuSans-Bold-74" x="586.914062"/>
     <use xlink:href="#DejaVuSans-Bold-75" x="634.716797"/>
     <use xlink:href="#DejaVuSans-Bold-76" x="705.908203"/>
     <use xlink:href="#DejaVuSans-Bold-65" x="771.09375"/>
     <use xlink:href="#DejaVuSans-Bold-72" x="838.916016"/>
     <use xlink:href="#DejaVuSans-Bold-e1" x="888.232422"/>
     <use xlink:href="#DejaVuSans-Bold-20" x="955.712891"/>
     <use xlink:href="#DejaVuSans-Bold-63" x="990.527344"/>
     <use xlink:href="#DejaVuSans-Bold-61" x="1049.804688"/>
     <use xlink:href="#DejaVuSans-Bold-76" x="1117.285156"/>
     <use xlink:href="#DejaVuSans-Bold-65" x="1182.470703"/>
    </g>
   </g>
  </g>
 </g>
 <defs>
  <clipPath id="p309b5e1f63">
   <rect x="93.55875" y="97.140625" width="558" height="1108.8"/>
  </clipPath>
 </defs>
</svg>
