<?xml version="1.0" encoding="utf-8" standalone="no"?>
<!DOCTYPE svg PUBLIC "-//W3C//DTD SVG 1.1//EN"
  "http://www.w3.org/Graphics/SVG/1.1/DTD/svg11.dtd">
<svg xmlns:xlink="http://www.w3.org/1999/xlink" width="658.75875pt" height="1238.528625pt" viewBox="0 0 658.75875 1238.528625" xmlns="http://www.w3.org/2000/svg" version="1.1">
 <metadata>
  <rdf:RDF xmlns:dc="http://purl.org/dc/elements/1.1/" xmlns:cc="http://creativecommons.org/ns#" xmlns:rdf="http://www.w3.org/1999/02/22-rdf-syntax-ns#">
   <cc:Work>
    <dc:type rdf:resource="http://purl.org/dc/dcmitype/StillImage"/>
    <dc:date>2026-02-28T12:30:44.740319</dc:date>
    <dc:format>image/svg+xml</dc:format>
    <dc:creator>
     <cc:Agent>
      <dc:title>Matplotlib v3.9.2, https://matplotlib.org/</dc:title>
     </cc:Agent>
    </dc:creator>
   </cc:Work>
  </rdf:RDF>
 </metadata>
 <defs>
  <style type="text/css">*{stroke-linejoin: round; stroke-linecap: butt}</style>
 </defs>
 <g id="figure_1">
  <g id="patch_1">
   <path d="M 0 1238.528625 
L 658.75875 1238.528625 
L 658.75875 0 
L 0 0 
z
" style="fill: #ffffff"/>
  </g>
  <g id="axes_1">
   <g id="patch_2">
    <path d="M 93.55875 1205.940625 
L 651.55875 1205.940625 
L 651.55875 97.140625 
L 93.55875 97.140625 
z
" style="fill: #ffffff"/>
   </g>
   <g id="patch_3">
    <path d="M 93.55875 96.472497 
L 651.55875 96.472497 
L 651.55875 230.032919 
L 93.55875 230.032919 
z
" clip-path="url(#pff7b35aa09)" style="fill: #fddbc7"/>
   </g>
   <g id="patch_4">
    <path d="M 93.55875 230.032919 
L 651.55875 230.032919 
L 651.55875 373.133372 
L 93.55875 373.133372 
z
" clip-path="url(#pff7b35aa09)" style="fill: #d6e8f7"/>
   </g>
   <g id="patch_5">
    <path d="M 93.55875 373.133372 
L 651.55875 373.133372 
L 651.55875 640.254217 
L 93.55875 640.254217 
z
" clip-path="url(#pff7b35aa09)" style="fill: #fef0e6"/>
   </g>
   <g id="patch_6">
    <path d="M 93.55875 640.254217 
L 651.55875 640.254217 
L 651.55875 773.81464 
L 93.55875 773.81464 
z
" clip-path="url(#pff7b35aa09)" style="fill: #d6e8f7"/>
   </g>
   <g id="patch_7">
    <path d="M 93.55875 773.81464 
L 651.55875 773.81464 
L 651.55875 1336.676421 
L 93.55875 1336.676421 
z
" clip-path="url(#pff7b35aa09)" style="fill: #fddbc7"/>
   </g>
   <g id="matplotlib.axis_1">
    <g id="xtick_1">
     <g id="line2d_1">
      <defs>
       <path id="m422594ad3c" d="M 0 0 
L 0 -3.5 
" style="stroke: #000000; stroke-width: 0.8"/>
      </defs>
      <g>
       <use xlink:href="#m422594ad3c" x="118.922386" y="97.140625" style="stroke: #000000; stroke-width: 0.8"/>
      </g>
     </g>
     <g id="text_1">
      <!-- -6.0 -->
      <g transform="translate(97.460355 85.565313) scale(0.22 -0.22)">
       <defs>
        <path id="DejaVuSans-2d" d="M 313 2009 
L 1997 2009 
L 1997 1497 
L 313 1497 
L 313 2009 
z
" transform="scale(0.015625)"/>
        <path id="DejaVuSans-36" d="M 2113 2584 
Q 1688 2584 1439 2293 
Q 1191 2003 1191 1497 
Q 1191 994 1439 701 
Q 1688 409 2113 409 
Q 2538 409 2786 701 
Q 3034 994 3034 1497 
Q 3034 2003 2786 2293 
Q 2538 2584 2113 2584 
z
M 3366 4563 
L 3366 3988 
Q 3128 4100 2886 4159 
Q 2644 4219 2406 4219 
Q 1781 4219 1451 3797 
Q 1122 3375 1075 2522 
Q 1259 2794 1537 2939 
Q 1816 3084 2150 3084 
Q 2853 3084 3261 2657 
Q 3669 2231 3669 1497 
Q 3669 778 3244 343 
Q 2819 -91 2113 -91 
Q 1303 -91 875 529 
Q 447 1150 447 2328 
Q 447 3434 972 4092 
Q 1497 4750 2381 4750 
Q 2619 4750 2861 4703 
Q 3103 4656 3366 4563 
z
" transform="scale(0.015625)"/>
        <path id="DejaVuSans-2e" d="M 684 794 
L 1344 794 
L 1344 0 
L 684 0 
L 684 794 
z
" transform="scale(0.015625)"/>
        <path id="DejaVuSans-30" d="M 2034 4250 
Q 1547 4250 1301 3770 
Q 1056 3291 1056 2328 
Q 1056 1369 1301 889 
Q 1547 409 2034 409 
Q 2525 409 2770 889 
Q 3016 1369 3016 2328 
Q 3016 3291 2770 3770 
Q 2525 4250 2034 4250 
z
M 2034 4750 
Q 2819 4750 3233 4129 
Q 3647 3509 3647 2328 
Q 3647 1150 3233 529 
Q 2819 -91 2034 -91 
Q 1250 -91 836 529 
Q 422 1150 422 2328 
Q 422 3509 836 4129 
Q 1250 4750 2034 4750 
z
" transform="scale(0.015625)"/>
       </defs>
       <use xlink:href="#DejaVuSans-2d"/>
       <use xlink:href="#DejaVuSans-36" x="36.083984"/>
       <use xlink:href="#DejaVuSans-2e" x="99.707031"/>
       <use xlink:href="#DejaVuSans-30" x="131.494141"/>
      </g>
     </g>
    </g>
    <g id="xtick_2">
     <g id="line2d_2">
      <g>
       <use xlink:href="#m422594ad3c" x="220.376932" y="97.140625" style="stroke: #000000; stroke-width: 0.8"/>
      </g>
     </g>
     <g id="text_2">
      <!-- -5.0 -->
      <g transform="translate(198.914901 85.565313) scale(0.22 -0.22)">
       <defs>
        <path id="DejaVuSans-35" d="M 691 4666 
L 3169 4666 
L 3169 4134 
L 1269 4134 
L 1269 2991 
Q 1406 3038 1543 3061 
Q 1681 3084 1819 3084 
Q 2600 3084 3056 2656 
Q 3513 2228 3513 1497 
Q 3513 744 3044 326 
Q 2575 -91 1722 -91 
Q 1428 -91 1123 -41 
Q 819 9 494 109 
L 494 744 
Q 775 591 1075 516 
Q 1375 441 1709 441 
Q 2250 441 2565 725 
Q 2881 1009 2881 1497 
Q 2881 1984 2565 2268 
Q 2250 2553 1709 2553 
Q 1456 2553 1204 2497 
Q 953 2441 691 2322 
L 691 4666 
z
" transform="scale(0.015625)"/>
       </defs>
       <use xlink:href="#DejaVuSans-2d"/>
       <use xlink:href="#DejaVuSans-35" x="36.083984"/>
       <use xlink:href="#DejaVuSans-2e" x="99.707031"/>
       <use xlink:href="#DejaVuSans-30" x="131.494141"/>
      </g>
     </g>
    </g>
    <g id="xtick_3">
     <g id="line2d_3">
      <g>
       <use xlink:href="#m422594ad3c" x="321.831477" y="97.140625" style="stroke: #000000; stroke-width: 0.8"/>
      </g>
     </g>
     <g id="text_3">
      <!-- -4.0 -->
      <g transform="translate(300.369446 85.565313) scale(0.22 -0.22)">
       <defs>
        <path id="DejaVuSans-34" d="M 2419 4116 
L 825 1625 
L 2419 1625 
L 2419 4116 
z
M 2253 4666 
L 3047 4666 
L 3047 1625 
L 3713 1625 
L 3713 1100 
L 3047 1100 
L 3047 0 
L 2419 0 
L 2419 1100 
L 313 1100 
L 313 1709 
L 2253 4666 
z
" transform="scale(0.015625)"/>
       </defs>
       <use xlink:href="#DejaVuSans-2d"/>
       <use xlink:href="#DejaVuSans-34" x="36.083984"/>
       <use xlink:href="#DejaVuSans-2e" x="99.707031"/>
       <use xlink:href="#DejaVuSans-30" x="131.494141"/>
      </g>
     </g>
    </g>
    <g id="xtick_4">
     <g id="line2d_4">
      <g>
       <use xlink:href="#m422594ad3c" x="423.286023" y="97.140625" style="stroke: #000000; stroke-width: 0.8"/>
      </g>
     </g>
     <g id="text_4">
      <!-- -3.0 -->
      <g transform="translate(401.823991 85.565313) scale(0.22 -0.22)">
       <defs>
        <path id="DejaVuSans-33" d="M 2597 2516 
Q 3050 2419 3304 2112 
Q 3559 1806 3559 1356 
Q 3559 666 3084 287 
Q 2609 -91 1734 -91 
Q 1441 -91 1130 -33 
Q 819 25 488 141 
L 488 750 
Q 750 597 1062 519 
Q 1375 441 1716 441 
Q 2309 441 2620 675 
Q 2931 909 2931 1356 
Q 2931 1769 2642 2001 
Q 2353 2234 1838 2234 
L 1294 2234 
L 1294 2753 
L 1863 2753 
Q 2328 2753 2575 2939 
Q 2822 3125 2822 3475 
Q 2822 3834 2567 4026 
Q 2313 4219 1838 4219 
Q 1578 4219 1281 4162 
Q 984 4106 628 3988 
L 628 4550 
Q 988 4650 1302 4700 
Q 1616 4750 1894 4750 
Q 2613 4750 3031 4423 
Q 3450 4097 3450 3541 
Q 3450 3153 3228 2886 
Q 3006 2619 2597 2516 
z
" transform="scale(0.015625)"/>
       </defs>
       <use xlink:href="#DejaVuSans-2d"/>
       <use xlink:href="#DejaVuSans-33" x="36.083984"/>
       <use xlink:href="#DejaVuSans-2e" x="99.707031"/>
       <use xlink:href="#DejaVuSans-30" x="131.494141"/>
      </g>
     </g>
    </g>
    <g id="xtick_5">
     <g id="line2d_5">
      <g>
       <use xlink:href="#m422594ad3c" x="524.740568" y="97.140625" style="stroke: #000000; stroke-width: 0.8"/>
      </g>
     </g>
     <g id="text_5">
      <!-- -2.0 -->
      <g transform="translate(503.278537 85.565313) scale(0.22 -0.22)">
       <defs>
        <path id="DejaVuSans-32" d="M 1228 531 
L 3431 531 
L 3431 0 
L 469 0 
L 469 531 
Q 828 903 1448 1529 
Q 2069 2156 2228 2338 
Q 2531 2678 2651 2914 
Q 2772 3150 2772 3378 
Q 2772 3750 2511 3984 
Q 2250 4219 1831 4219 
Q 1534 4219 1204 4116 
Q 875 4013 500 3803 
L 500 4441 
Q 881 4594 1212 4672 
Q 1544 4750 1819 4750 
Q 2544 4750 2975 4387 
Q 3406 4025 3406 3419 
Q 3406 3131 3298 2873 
Q 3191 2616 2906 2266 
Q 2828 2175 2409 1742 
Q 1991 1309 1228 531 
z
" transform="scale(0.015625)"/>
       </defs>
       <use xlink:href="#DejaVuSans-2d"/>
       <use xlink:href="#DejaVuSans-32" x="36.083984"/>
       <use xlink:href="#DejaVuSans-2e" x="99.707031"/>
       <use xlink:href="#DejaVuSans-30" x="131.494141"/>
      </g>
     </g>
    </g>
    <g id="xtick_6">
     <g id="line2d_6">
      <g>
       <use xlink:href="#m422594ad3c" x="626.195114" y="97.140625" style="stroke: #000000; stroke-width: 0.8"/>
      </g>
     </g>
     <g id="text_6">
      <!-- -1.0 -->
      <g transform="translate(604.733082 85.565313) scale(0.22 -0.22)">
       <defs>
        <path id="DejaVuSans-31" d="M 794 531 
L 1825 531 
L 1825 4091 
L 703 3866 
L 703 4441 
L 1819 4666 
L 2450 4666 
L 2450 531 
L 3481 531 
L 3481 0 
L 794 0 
L 794 531 
z
" transform="scale(0.015625)"/>
       </defs>
       <use xlink:href="#DejaVuSans-2d"/>
       <use xlink:href="#DejaVuSans-31" x="36.083984"/>
       <use xlink:href="#DejaVuSans-2e" x="99.707031"/>
       <use xlink:href="#DejaVuSans-30" x="131.494141"/>
      </g>
     </g>
    </g>
    <g id="text_7">
     <!-- $\boldsymbol{\delta}^{\mathbf{18}}\mathbf{O}\ \mathbf{[‰]}$ -->
     <g transform="translate(304.56875 56.84875) scale(0.26 -0.26)">
      <defs>
       <path id="DejaVuSans-BoldOblique-3b4" d="M 3913 3950 
Q 3572 4169 2575 4169 
Q 2044 4169 1984 3863 
Q 1981 3841 1981 3822 
Q 1981 3563 2634 3463 
Q 4038 3244 4038 2159 
Q 4038 1963 3994 1734 
Q 3828 888 3222 400 
Q 2613 -91 1719 -91 
Q 822 -91 403 400 
Q 100 750 100 1288 
Q 100 2253 884 2900 
Q 1075 3056 1294 3156 
Q 959 3356 959 3722 
Q 959 3806 978 3900 
Q 1175 4913 2825 4913 
Q 3653 4913 4056 4694 
L 3913 3950 
z
M 2003 2750 
Q 1825 2681 1659 2506 
Q 1400 2234 1306 1744 
Q 1269 1553 1269 1350 
Q 1269 1147 1359 978 
Q 1513 703 1866 703 
Q 2222 703 2481 981 
Q 2744 1263 2834 1731 
Q 2866 1888 2866 2084 
Q 2866 2278 2747 2431 
Q 2572 2669 2269 2703 
Q 2128 2719 2003 2750 
z
" transform="scale(0.015625)"/>
       <path id="DejaVuSans-Bold-31" d="M 750 831 
L 1813 831 
L 1813 3847 
L 722 3622 
L 722 4441 
L 1806 4666 
L 2950 4666 
L 2950 831 
L 4013 831 
L 4013 0 
L 750 0 
L 750 831 
z
" transform="scale(0.015625)"/>
       <path id="DejaVuSans-Bold-38" d="M 2228 2088 
Q 1891 2088 1709 1903 
Q 1528 1719 1528 1375 
Q 1528 1031 1709 848 
Q 1891 666 2228 666 
Q 2563 666 2741 848 
Q 2919 1031 2919 1375 
Q 2919 1722 2741 1905 
Q 2563 2088 2228 2088 
z
M 1350 2484 
Q 925 2613 709 2878 
Q 494 3144 494 3541 
Q 494 4131 934 4440 
Q 1375 4750 2228 4750 
Q 3075 4750 3515 4442 
Q 3956 4134 3956 3541 
Q 3956 3144 3739 2878 
Q 3522 2613 3097 2484 
Q 3572 2353 3814 2058 
Q 4056 1763 4056 1313 
Q 4056 619 3595 264 
Q 3134 -91 2228 -91 
Q 1319 -91 855 264 
Q 391 619 391 1313 
Q 391 1763 633 2058 
Q 875 2353 1350 2484 
z
M 1631 3419 
Q 1631 3141 1786 2991 
Q 1941 2841 2228 2841 
Q 2509 2841 2662 2991 
Q 2816 3141 2816 3419 
Q 2816 3697 2662 3845 
Q 2509 3994 2228 3994 
Q 1941 3994 1786 3844 
Q 1631 3694 1631 3419 
z
" transform="scale(0.015625)"/>
       <path id="DejaVuSans-Bold-4f" d="M 2719 3878 
Q 2169 3878 1866 3472 
Q 1563 3066 1563 2328 
Q 1563 1594 1866 1187 
Q 2169 781 2719 781 
Q 3272 781 3575 1187 
Q 3878 1594 3878 2328 
Q 3878 3066 3575 3472 
Q 3272 3878 2719 3878 
z
M 2719 4750 
Q 3844 4750 4481 4106 
Q 5119 3463 5119 2328 
Q 5119 1197 4481 553 
Q 3844 -91 2719 -91 
Q 1597 -91 958 553 
Q 319 1197 319 2328 
Q 319 3463 958 4106 
Q 1597 4750 2719 4750 
z
" transform="scale(0.015625)"/>
       <path id="DejaVuSans-Bold-5b" d="M 550 4863 
L 2491 4863 
L 2491 4159 
L 1613 4159 
L 1613 -141 
L 2491 -141 
L 2491 -844 
L 550 -844 
L 550 4863 
z
" transform="scale(0.015625)"/>
       <path id="DejaVuSans-Bold-2030" d="M 7822 1925 
Q 7597 1925 7475 1733 
Q 7353 1541 7353 1184 
Q 7353 825 7475 633 
Q 7597 441 7822 441 
Q 8044 441 8162 633 
Q 8281 825 8281 1184 
Q 8281 1541 8162 1733 
Q 8044 1925 7822 1925 
z
M 7822 2450 
Q 8403 2450 8736 2112 
Q 9069 1775 9069 1184 
Q 9069 594 8734 251 
Q 8400 -91 7822 -91 
Q 7241 -91 6903 251 
Q 6566 594 6566 1184 
Q 6566 1772 6902 2111 
Q 7238 2450 7822 2450 
z
M 1453 4225 
Q 1228 4225 1106 4031 
Q 984 3838 984 3481 
Q 984 3122 1106 2926 
Q 1228 2731 1453 2731 
Q 1678 2731 1798 2926 
Q 1919 3122 1919 3481 
Q 1919 3838 1797 4031 
Q 1675 4225 1453 4225 
z
M 1453 4750 
Q 2034 4750 2367 4411 
Q 2700 4072 2700 3481 
Q 2700 2891 2367 2550 
Q 2034 2209 1453 2209 
Q 872 2209 539 2550 
Q 206 2891 206 3481 
Q 206 4072 539 4411 
Q 872 4750 1453 4750 
z
M 2094 -91 
L 1403 -91 
L 4319 4750 
L 5013 4750 
L 2094 -91 
z
M 4959 2450 
Q 5541 2450 5875 2112 
Q 6209 1775 6209 1184 
Q 6209 594 5875 251 
Q 5541 -91 4959 -91 
Q 4378 -91 4042 251 
Q 3706 594 3706 1184 
Q 3706 1772 4042 2111 
Q 4378 2450 4959 2450 
z
M 4959 1925 
Q 4738 1925 4616 1733 
Q 4494 1541 4494 1184 
Q 4494 825 4614 633 
Q 4734 441 4959 441 
Q 5184 441 5303 633 
Q 5422 825 5422 1184 
Q 5422 1541 5301 1733 
Q 5181 1925 4959 1925 
z
" transform="scale(0.015625)"/>
       <path id="DejaVuSans-Bold-5d" d="M 2375 -844 
L 434 -844 
L 434 -141 
L 1313 -141 
L 1313 4159 
L 434 4159 
L 434 4863 
L 2375 4863 
L 2375 -844 
z
" transform="scale(0.015625)"/>
      </defs>
      <use xlink:href="#DejaVuSans-BoldOblique-3b4" transform="translate(0 0.765625)"/>
      <use xlink:href="#DejaVuSans-Bold-31" transform="translate(69.658203 39.046875) scale(0.7)"/>
      <use xlink:href="#DejaVuSans-Bold-38" transform="translate(118.364258 39.046875) scale(0.7)"/>
      <use xlink:href="#DejaVuSans-Bold-4f" transform="translate(169.804688 0.765625)"/>
      <use xlink:href="#DejaVuSans-Bold-5b" transform="translate(287.284832 0.765625)"/>
      <use xlink:href="#DejaVuSans-Bold-2030" transform="translate(332.987957 0.765625)"/>
      <use xlink:href="#DejaVuSans-Bold-5d" transform="translate(476.982097 0.765625)"/>
     </g>
    </g>
   </g>
   <g id="matplotlib.axis_2">
    <g id="ytick_1">
     <g id="line2d_7">
      <path d="M 93.55875 287.273101 
L 651.55875 287.273101 
" clip-path="url(#pff7b35aa09)" style="fill: none; stroke: #cccccc; stroke-linecap: square"/>
     </g>
     <g id="line2d_8">
      <defs>
       <path id="m59a40826a8" d="M 0 0 
L -3.5 0 
" style="stroke: #000000; stroke-width: 0.8"/>
      </defs>
      <g>
       <use xlink:href="#m59a40826a8" x="93.55875" y="287.273101" style="stroke: #000000; stroke-width: 0.8"/>
      </g>
     </g>
     <g id="text_8">
      <!-- 20 -->
      <g transform="translate(58.56375 295.631382) scale(0.22 -0.22)">
       <use xlink:href="#DejaVuSans-32"/>
       <use xlink:href="#DejaVuSans-30" x="63.623047"/>
      </g>
     </g>
    </g>
    <g id="ytick_2">
     <g id="line2d_9">
      <path d="M 93.55875 478.073704 
L 651.55875 478.073704 
" clip-path="url(#pff7b35aa09)" style="fill: none; stroke: #cccccc; stroke-linecap: square"/>
     </g>
     <g id="line2d_10">
      <g>
       <use xlink:href="#m59a40826a8" x="93.55875" y="478.073704" style="stroke: #000000; stroke-width: 0.8"/>
      </g>
     </g>
     <g id="text_9">
      <!-- 40 -->
      <g transform="translate(58.56375 486.431986) scale(0.22 -0.22)">
       <use xlink:href="#DejaVuSans-34"/>
       <use xlink:href="#DejaVuSans-30" x="63.623047"/>
      </g>
     </g>
    </g>
    <g id="ytick_3">
     <g id="line2d_11">
      <path d="M 93.55875 668.874308 
L 651.55875 668.874308 
" clip-path="url(#pff7b35aa09)" style="fill: none; stroke: #cccccc; stroke-linecap: square"/>
     </g>
     <g id="line2d_12">
      <g>
       <use xlink:href="#m59a40826a8" x="93.55875" y="668.874308" style="stroke: #000000; stroke-width: 0.8"/>
      </g>
     </g>
     <g id="text_10">
      <!-- 60 -->
      <g transform="translate(58.56375 677.232589) scale(0.22 -0.22)">
       <use xlink:href="#DejaVuSans-36"/>
       <use xlink:href="#DejaVuSans-30" x="63.623047"/>
      </g>
     </g>
    </g>
    <g id="ytick_4">
     <g id="line2d_13">
      <path d="M 93.55875 859.674912 
L 651.55875 859.674912 
" clip-path="url(#pff7b35aa09)" style="fill: none; stroke: #cccccc; stroke-linecap: square"/>
     </g>
     <g id="line2d_14">
      <g>
       <use xlink:href="#m59a40826a8" x="93.55875" y="859.674912" style="stroke: #000000; stroke-width: 0.8"/>
      </g>
     </g>
     <g id="text_11">
      <!-- 80 -->
      <g transform="translate(58.56375 868.033193) scale(0.22 -0.22)">
       <defs>
        <path id="DejaVuSans-38" d="M 2034 2216 
Q 1584 2216 1326 1975 
Q 1069 1734 1069 1313 
Q 1069 891 1326 650 
Q 1584 409 2034 409 
Q 2484 409 2743 651 
Q 3003 894 3003 1313 
Q 3003 1734 2745 1975 
Q 2488 2216 2034 2216 
z
M 1403 2484 
Q 997 2584 770 2862 
Q 544 3141 544 3541 
Q 544 4100 942 4425 
Q 1341 4750 2034 4750 
Q 2731 4750 3128 4425 
Q 3525 4100 3525 3541 
Q 3525 3141 3298 2862 
Q 3072 2584 2669 2484 
Q 3125 2378 3379 2068 
Q 3634 1759 3634 1313 
Q 3634 634 3220 271 
Q 2806 -91 2034 -91 
Q 1263 -91 848 271 
Q 434 634 434 1313 
Q 434 1759 690 2068 
Q 947 2378 1403 2484 
z
M 1172 3481 
Q 1172 3119 1398 2916 
Q 1625 2713 2034 2713 
Q 2441 2713 2670 2916 
Q 2900 3119 2900 3481 
Q 2900 3844 2670 4047 
Q 2441 4250 2034 4250 
Q 1625 4250 1398 4047 
Q 1172 3844 1172 3481 
z
" transform="scale(0.015625)"/>
       </defs>
       <use xlink:href="#DejaVuSans-38"/>
       <use xlink:href="#DejaVuSans-30" x="63.623047"/>
      </g>
     </g>
    </g>
    <g id="ytick_5">
     <g id="line2d_15">
      <path d="M 93.55875 1050.475516 
L 651.55875 1050.475516 
" clip-path="url(#pff7b35aa09)" style="fill: none; stroke: #cccccc; stroke-linecap: square"/>
     </g>
     <g id="line2d_16">
      <g>
       <use xlink:href="#m59a40826a8" x="93.55875" y="1050.475516" style="stroke: #000000; stroke-width: 0.8"/>
      </g>
     </g>
     <g id="text_12">
      <!-- 100 -->
      <g transform="translate(44.56625 1058.833797) scale(0.22 -0.22)">
       <use xlink:href="#DejaVuSans-31"/>
       <use xlink:href="#DejaVuSans-30" x="63.623047"/>
       <use xlink:href="#DejaVuSans-30" x="127.246094"/>
      </g>
     </g>
    </g>
    <g id="ytick_6">
     <g id="line2d_17">
      <defs>
       <path id="m3a06388718" d="M 0 0 
L -4 0 
" style="stroke: #000000; stroke-width: 0.8"/>
      </defs>
      <g>
       <use xlink:href="#m3a06388718" x="93.55875" y="144.172648" style="stroke: #000000; stroke-width: 0.8"/>
      </g>
     </g>
    </g>
    <g id="ytick_7">
     <g id="line2d_18">
      <g>
       <use xlink:href="#m3a06388718" x="93.55875" y="191.872799" style="stroke: #000000; stroke-width: 0.8"/>
      </g>
     </g>
    </g>
    <g id="ytick_8">
     <g id="line2d_19">
      <g>
       <use xlink:href="#m3a06388718" x="93.55875" y="239.57295" style="stroke: #000000; stroke-width: 0.8"/>
      </g>
     </g>
    </g>
    <g id="ytick_9">
     <g id="line2d_20">
      <g>
       <use xlink:href="#m3a06388718" x="93.55875" y="334.973251" style="stroke: #000000; stroke-width: 0.8"/>
      </g>
     </g>
    </g>
    <g id="ytick_10">
     <g id="line2d_21">
      <g>
       <use xlink:href="#m3a06388718" x="93.55875" y="382.673402" style="stroke: #000000; stroke-width: 0.8"/>
      </g>
     </g>
    </g>
    <g id="ytick_11">
     <g id="line2d_22">
      <g>
       <use xlink:href="#m3a06388718" x="93.55875" y="430.373553" style="stroke: #000000; stroke-width: 0.8"/>
      </g>
     </g>
    </g>
    <g id="ytick_12">
     <g id="line2d_23">
      <g>
       <use xlink:href="#m3a06388718" x="93.55875" y="525.773855" style="stroke: #000000; stroke-width: 0.8"/>
      </g>
     </g>
    </g>
    <g id="ytick_13">
     <g id="line2d_24">
      <g>
       <use xlink:href="#m3a06388718" x="93.55875" y="573.474006" style="stroke: #000000; stroke-width: 0.8"/>
      </g>
     </g>
    </g>
    <g id="ytick_14">
     <g id="line2d_25">
      <g>
       <use xlink:href="#m3a06388718" x="93.55875" y="621.174157" style="stroke: #000000; stroke-width: 0.8"/>
      </g>
     </g>
    </g>
    <g id="ytick_15">
     <g id="line2d_26">
      <g>
       <use xlink:href="#m3a06388718" x="93.55875" y="716.574459" style="stroke: #000000; stroke-width: 0.8"/>
      </g>
     </g>
    </g>
    <g id="ytick_16">
     <g id="line2d_27">
      <g>
       <use xlink:href="#m3a06388718" x="93.55875" y="764.27461" style="stroke: #000000; stroke-width: 0.8"/>
      </g>
     </g>
    </g>
    <g id="ytick_17">
     <g id="line2d_28">
      <g>
       <use xlink:href="#m3a06388718" x="93.55875" y="811.974761" style="stroke: #000000; stroke-width: 0.8"/>
      </g>
     </g>
    </g>
    <g id="ytick_18">
     <g id="line2d_29">
      <g>
       <use xlink:href="#m3a06388718" x="93.55875" y="907.375063" style="stroke: #000000; stroke-width: 0.8"/>
      </g>
     </g>
    </g>
    <g id="ytick_19">
     <g id="line2d_30">
      <g>
       <use xlink:href="#m3a06388718" x="93.55875" y="955.075214" style="stroke: #000000; stroke-width: 0.8"/>
      </g>
     </g>
    </g>
    <g id="ytick_20">
     <g id="line2d_31">
      <g>
       <use xlink:href="#m3a06388718" x="93.55875" y="1002.775365" style="stroke: #000000; stroke-width: 0.8"/>
      </g>
     </g>
    </g>
    <g id="ytick_21">
     <g id="line2d_32">
      <g>
       <use xlink:href="#m3a06388718" x="93.55875" y="1098.175666" style="stroke: #000000; stroke-width: 0.8"/>
      </g>
     </g>
    </g>
    <g id="ytick_22">
     <g id="line2d_33">
      <g>
       <use xlink:href="#m3a06388718" x="93.55875" y="1145.875817" style="stroke: #000000; stroke-width: 0.8"/>
      </g>
     </g>
    </g>
    <g id="ytick_23">
     <g id="line2d_34">
      <g>
       <use xlink:href="#m3a06388718" x="93.55875" y="1193.575968" style="stroke: #000000; stroke-width: 0.8"/>
      </g>
     </g>
    </g>
    <g id="text_13">
     <!-- Age [ka BP] -->
     <g transform="translate(26.955938 737.513281) rotate(-90) scale(0.26 -0.26)">
      <defs>
       <path id="DejaVuSans-Bold-41" d="M 3419 850 
L 1538 850 
L 1241 0 
L 31 0 
L 1759 4666 
L 3194 4666 
L 4922 0 
L 3713 0 
L 3419 850 
z
M 1838 1716 
L 3116 1716 
L 2478 3572 
L 1838 1716 
z
" transform="scale(0.015625)"/>
       <path id="DejaVuSans-Bold-67" d="M 2919 594 
Q 2688 288 2409 144 
Q 2131 0 1766 0 
Q 1125 0 706 504 
Q 288 1009 288 1791 
Q 288 2575 706 3076 
Q 1125 3578 1766 3578 
Q 2131 3578 2409 3434 
Q 2688 3291 2919 2981 
L 2919 3500 
L 4044 3500 
L 4044 353 
Q 4044 -491 3511 -936 
Q 2978 -1381 1966 -1381 
Q 1638 -1381 1331 -1331 
Q 1025 -1281 716 -1178 
L 716 -306 
Q 1009 -475 1290 -558 
Q 1572 -641 1856 -641 
Q 2406 -641 2662 -400 
Q 2919 -159 2919 353 
L 2919 594 
z
M 2181 2772 
Q 1834 2772 1640 2515 
Q 1447 2259 1447 1791 
Q 1447 1309 1634 1061 
Q 1822 813 2181 813 
Q 2531 813 2725 1069 
Q 2919 1325 2919 1791 
Q 2919 2259 2725 2515 
Q 2531 2772 2181 2772 
z
" transform="scale(0.015625)"/>
       <path id="DejaVuSans-Bold-65" d="M 4031 1759 
L 4031 1441 
L 1416 1441 
Q 1456 1047 1700 850 
Q 1944 653 2381 653 
Q 2734 653 3104 758 
Q 3475 863 3866 1075 
L 3866 213 
Q 3469 63 3072 -14 
Q 2675 -91 2278 -91 
Q 1328 -91 801 392 
Q 275 875 275 1747 
Q 275 2603 792 3093 
Q 1309 3584 2216 3584 
Q 3041 3584 3536 3087 
Q 4031 2591 4031 1759 
z
M 2881 2131 
Q 2881 2450 2695 2645 
Q 2509 2841 2209 2841 
Q 1884 2841 1681 2658 
Q 1478 2475 1428 2131 
L 2881 2131 
z
" transform="scale(0.015625)"/>
       <path id="DejaVuSans-Bold-20" transform="scale(0.015625)"/>
       <path id="DejaVuSans-Bold-6b" d="M 538 4863 
L 1656 4863 
L 1656 2216 
L 2944 3500 
L 4244 3500 
L 2534 1894 
L 4378 0 
L 3022 0 
L 1656 1459 
L 1656 0 
L 538 0 
L 538 4863 
z
" transform="scale(0.015625)"/>
       <path id="DejaVuSans-Bold-61" d="M 2106 1575 
Q 1756 1575 1579 1456 
Q 1403 1338 1403 1106 
Q 1403 894 1545 773 
Q 1688 653 1941 653 
Q 2256 653 2472 879 
Q 2688 1106 2688 1447 
L 2688 1575 
L 2106 1575 
z
M 3816 1997 
L 3816 0 
L 2688 0 
L 2688 519 
Q 2463 200 2181 54 
Q 1900 -91 1497 -91 
Q 953 -91 614 226 
Q 275 544 275 1050 
Q 275 1666 698 1953 
Q 1122 2241 2028 2241 
L 2688 2241 
L 2688 2328 
Q 2688 2594 2478 2717 
Q 2269 2841 1825 2841 
Q 1466 2841 1156 2769 
Q 847 2697 581 2553 
L 581 3406 
Q 941 3494 1303 3539 
Q 1666 3584 2028 3584 
Q 2975 3584 3395 3211 
Q 3816 2838 3816 1997 
z
" transform="scale(0.015625)"/>
       <path id="DejaVuSans-Bold-42" d="M 2456 2859 
Q 2741 2859 2887 2984 
Q 3034 3109 3034 3353 
Q 3034 3594 2887 3720 
Q 2741 3847 2456 3847 
L 1791 3847 
L 1791 2859 
L 2456 2859 
z
M 2497 819 
Q 2859 819 3042 972 
Q 3225 1125 3225 1434 
Q 3225 1738 3044 1889 
Q 2863 2041 2497 2041 
L 1791 2041 
L 1791 819 
L 2497 819 
z
M 3616 2497 
Q 4003 2384 4215 2081 
Q 4428 1778 4428 1338 
Q 4428 663 3972 331 
Q 3516 0 2584 0 
L 588 0 
L 588 4666 
L 2394 4666 
Q 3366 4666 3802 4372 
Q 4238 4078 4238 3431 
Q 4238 3091 4078 2852 
Q 3919 2613 3616 2497 
z
" transform="scale(0.015625)"/>
       <path id="DejaVuSans-Bold-50" d="M 588 4666 
L 2584 4666 
Q 3475 4666 3951 4270 
Q 4428 3875 4428 3144 
Q 4428 2409 3951 2014 
Q 3475 1619 2584 1619 
L 1791 1619 
L 1791 0 
L 588 0 
L 588 4666 
z
M 1791 3794 
L 1791 2491 
L 2456 2491 
Q 2806 2491 2997 2661 
Q 3188 2831 3188 3144 
Q 3188 3456 2997 3625 
Q 2806 3794 2456 3794 
L 1791 3794 
z
" transform="scale(0.015625)"/>
      </defs>
      <use xlink:href="#DejaVuSans-Bold-41"/>
      <use xlink:href="#DejaVuSans-Bold-67" x="77.392578"/>
      <use xlink:href="#DejaVuSans-Bold-65" x="148.974609"/>
      <use xlink:href="#DejaVuSans-Bold-20" x="216.796875"/>
      <use xlink:href="#DejaVuSans-Bold-5b" x="251.611328"/>
      <use xlink:href="#DejaVuSans-Bold-6b" x="297.314453"/>
      <use xlink:href="#DejaVuSans-Bold-61" x="363.818359"/>
      <use xlink:href="#DejaVuSans-Bold-20" x="431.298828"/>
      <use xlink:href="#DejaVuSans-Bold-42" x="466.113281"/>
      <use xlink:href="#DejaVuSans-Bold-50" x="542.333984"/>
      <use xlink:href="#DejaVuSans-Bold-5d" x="615.625"/>
     </g>
    </g>
   </g>
   <g id="text_14">
    <!-- MIS 1 -->
    <g style="fill: #8b1a00" transform="translate(602.14125 167.449897) scale(0.14 -0.14)">
     <defs>
      <path id="DejaVuSans-Bold-4d" d="M 588 4666 
L 2119 4666 
L 3181 2169 
L 4250 4666 
L 5778 4666 
L 5778 0 
L 4641 0 
L 4641 3413 
L 3566 897 
L 2803 897 
L 1728 3413 
L 1728 0 
L 588 0 
L 588 4666 
z
" transform="scale(0.015625)"/>
      <path id="DejaVuSans-Bold-49" d="M 588 4666 
L 1791 4666 
L 1791 0 
L 588 0 
L 588 4666 
z
" transform="scale(0.015625)"/>
      <path id="DejaVuSans-Bold-53" d="M 3834 4519 
L 3834 3531 
Q 3450 3703 3084 3790 
Q 2719 3878 2394 3878 
Q 1963 3878 1756 3759 
Q 1550 3641 1550 3391 
Q 1550 3203 1689 3098 
Q 1828 2994 2194 2919 
L 2706 2816 
Q 3484 2659 3812 2340 
Q 4141 2022 4141 1434 
Q 4141 663 3683 286 
Q 3225 -91 2284 -91 
Q 1841 -91 1394 -6 
Q 947 78 500 244 
L 500 1259 
Q 947 1022 1364 901 
Q 1781 781 2169 781 
Q 2563 781 2772 912 
Q 2981 1044 2981 1288 
Q 2981 1506 2839 1625 
Q 2697 1744 2272 1838 
L 1806 1941 
Q 1106 2091 782 2419 
Q 459 2747 459 3303 
Q 459 4000 909 4375 
Q 1359 4750 2203 4750 
Q 2588 4750 2994 4692 
Q 3400 4634 3834 4519 
z
" transform="scale(0.015625)"/>
     </defs>
     <use xlink:href="#DejaVuSans-Bold-4d"/>
     <use xlink:href="#DejaVuSans-Bold-49" x="99.511719"/>
     <use xlink:href="#DejaVuSans-Bold-53" x="136.71875"/>
     <use xlink:href="#DejaVuSans-Bold-20" x="208.740234"/>
     <use xlink:href="#DejaVuSans-Bold-31" x="243.554688"/>
    </g>
   </g>
   <g id="text_15">
    <!-- MIS 2 -->
    <g style="fill: #003f6b" transform="translate(602.14125 305.446271) scale(0.14 -0.14)">
     <defs>
      <path id="DejaVuSans-Bold-32" d="M 1844 884 
L 3897 884 
L 3897 0 
L 506 0 
L 506 884 
L 2209 2388 
Q 2438 2594 2547 2791 
Q 2656 2988 2656 3200 
Q 2656 3528 2436 3728 
Q 2216 3928 1850 3928 
Q 1569 3928 1234 3808 
Q 900 3688 519 3450 
L 519 4475 
Q 925 4609 1322 4679 
Q 1719 4750 2100 4750 
Q 2938 4750 3402 4381 
Q 3866 4013 3866 3353 
Q 3866 2972 3669 2642 
Q 3472 2313 2841 1759 
L 1844 884 
z
" transform="scale(0.015625)"/>
     </defs>
     <use xlink:href="#DejaVuSans-Bold-4d"/>
     <use xlink:href="#DejaVuSans-Bold-49" x="99.511719"/>
     <use xlink:href="#DejaVuSans-Bold-53" x="136.71875"/>
     <use xlink:href="#DejaVuSans-Bold-20" x="208.740234"/>
     <use xlink:href="#DejaVuSans-Bold-32" x="243.554688"/>
    </g>
   </g>
   <g id="text_16">
    <!-- MIS 3 -->
    <g style="fill: #8b1a00" transform="translate(602.14125 510.55692) scale(0.14 -0.14)">
     <defs>
      <path id="DejaVuSans-Bold-33" d="M 2981 2516 
Q 3453 2394 3698 2092 
Q 3944 1791 3944 1325 
Q 3944 631 3412 270 
Q 2881 -91 1863 -91 
Q 1503 -91 1142 -33 
Q 781 25 428 141 
L 428 1069 
Q 766 900 1098 814 
Q 1431 728 1753 728 
Q 2231 728 2486 893 
Q 2741 1059 2741 1369 
Q 2741 1688 2480 1852 
Q 2219 2016 1709 2016 
L 1228 2016 
L 1228 2791 
L 1734 2791 
Q 2188 2791 2409 2933 
Q 2631 3075 2631 3366 
Q 2631 3634 2415 3781 
Q 2200 3928 1806 3928 
Q 1516 3928 1219 3862 
Q 922 3797 628 3669 
L 628 4550 
Q 984 4650 1334 4700 
Q 1684 4750 2022 4750 
Q 2931 4750 3382 4451 
Q 3834 4153 3834 3553 
Q 3834 3144 3618 2883 
Q 3403 2622 2981 2516 
z
" transform="scale(0.015625)"/>
     </defs>
     <use xlink:href="#DejaVuSans-Bold-4d"/>
     <use xlink:href="#DejaVuSans-Bold-49" x="99.511719"/>
     <use xlink:href="#DejaVuSans-Bold-53" x="136.71875"/>
     <use xlink:href="#DejaVuSans-Bold-20" x="208.740234"/>
     <use xlink:href="#DejaVuSans-Bold-33" x="243.554688"/>
    </g>
   </g>
   <g id="text_17">
    <!-- MIS 4 -->
    <g style="fill: #003f6b" transform="translate(602.14125 710.897554) scale(0.14 -0.14)">
     <defs>
      <path id="DejaVuSans-Bold-34" d="M 2356 3675 
L 1038 1722 
L 2356 1722 
L 2356 3675 
z
M 2156 4666 
L 3494 4666 
L 3494 1722 
L 4159 1722 
L 4159 850 
L 3494 850 
L 3494 0 
L 2356 0 
L 2356 850 
L 288 850 
L 288 1881 
L 2156 4666 
z
" transform="scale(0.015625)"/>
     </defs>
     <use xlink:href="#DejaVuSans-Bold-4d"/>
     <use xlink:href="#DejaVuSans-Bold-49" x="99.511719"/>
     <use xlink:href="#DejaVuSans-Bold-53" x="136.71875"/>
     <use xlink:href="#DejaVuSans-Bold-20" x="208.740234"/>
     <use xlink:href="#DejaVuSans-Bold-34" x="243.554688"/>
    </g>
   </g>
   <g id="text_18">
    <!-- MIS 5 -->
    <g style="fill: #8b1a00" transform="translate(602.14125 993.740758) scale(0.14 -0.14)">
     <defs>
      <path id="DejaVuSans-Bold-35" d="M 678 4666 
L 3669 4666 
L 3669 3781 
L 1638 3781 
L 1638 3059 
Q 1775 3097 1914 3117 
Q 2053 3138 2203 3138 
Q 3056 3138 3531 2711 
Q 4006 2284 4006 1522 
Q 4006 766 3489 337 
Q 2972 -91 2053 -91 
Q 1656 -91 1267 -14 
Q 878 63 494 219 
L 494 1166 
Q 875 947 1217 837 
Q 1559 728 1863 728 
Q 2300 728 2551 942 
Q 2803 1156 2803 1522 
Q 2803 1891 2551 2103 
Q 2300 2316 1863 2316 
Q 1603 2316 1309 2248 
Q 1016 2181 678 2041 
L 678 4666 
z
" transform="scale(0.015625)"/>
     </defs>
     <use xlink:href="#DejaVuSans-Bold-4d"/>
     <use xlink:href="#DejaVuSans-Bold-49" x="99.511719"/>
     <use xlink:href="#DejaVuSans-Bold-53" x="136.71875"/>
     <use xlink:href="#DejaVuSans-Bold-20" x="208.740234"/>
     <use xlink:href="#DejaVuSans-Bold-35" x="243.554688"/>
    </g>
   </g>
   <g id="line2d_35">
    <path d="M 458.795114 97.140625 
L 349.224205 97.679345 
L 334.107477 98.26932 
L 471.984205 98.285755 
L 357.340568 98.846084 
L 461.83875 99.430884 
L 350.23875 99.448068 
L 330.962386 100.014419 
L 399.951477 100.576014 
L 306.613295 100.615076 
L 341.107841 101.205276 
L 411.111477 101.721144 
L 361.39875 101.774468 
L 371.544205 102.332526 
L 420.242386 102.866274 
L 341.107841 102.879623 
L 368.500568 103.446848 
L 359.369659 104.030539 
L 383.71875 104.595005 
L 373.573295 105.156533 
L 342.122386 105.173658 
L 335.020568 105.74668 
L 446.620568 106.301663 
L 347.195114 106.318894 
L 298.395477 106.897486 
L 431.402386 107.446792 
L 362.413295 107.491485 
L 313.715114 108.061794 
L 448.649659 108.591922 
L 338.064205 108.640063 
L 365.456932 109.212382 
L 350.23875 109.489591 
L 486.187841 109.737052 
L 331.976932 109.764351 
L 370.529659 110.040595 
L 300.526023 110.588661 
L 340.093295 110.864272 
L 445.606023 110.882182 
L 358.355114 111.141442 
L 338.064205 111.411764 
L 358.355114 111.687196 
L 364.442386 111.958839 
L 454.736932 112.027311 
L 361.39875 112.23553 
L 338.064205 112.512963 
L 336.035114 112.788281 
L 306.613295 113.06044 
L 451.693295 113.172441 
L 294.43875 113.337515 
L 340.702023 113.615284 
L 305.59875 113.89116 
L 354.296932 114.167781 
L 434.446023 114.317571 
L 322.846023 114.438226 
L 358.355114 114.76148 
L 322.846023 115.085752 
L 335.020568 115.407121 
L 428.35875 115.462701 
L 358.355114 115.728454 
L 339.07875 116.051744 
L 298.496932 116.374851 
L 443.576932 116.60783 
L 291.395114 116.698131 
L 339.07875 117.016371 
L 338.064205 117.340327 
L 363.427841 117.662556 
L 476.042386 117.75296 
L 348.209659 117.985815 
L 348.209659 118.310655 
L 329.947841 118.633123 
L 327.91875 118.956073 
L 405.024205 119.038588 
L 330.962386 119.278861 
L 349.832932 119.602209 
L 315.64275 119.926287 
L 365.456932 120.249639 
L 422.271477 120.336603 
L 314.729659 120.898119 
L 329.947841 121.242882 
L 336.035114 121.587787 
L 457.780568 121.630015 
L 359.369659 121.931712 
L 372.55875 122.275977 
L 349.224205 122.621056 
L 436.475114 122.927765 
L 347.195114 122.96584 
L 347.195114 123.311292 
L 369.515114 123.654558 
L 363.427841 123.998282 
L 425.315114 124.224223 
L 366.471477 124.34287 
L 355.311477 124.687403 
L 363.427841 125.032079 
L 353.282386 125.376721 
L 437.489659 125.52622 
L 363.427841 125.722617 
L 368.500568 126.070084 
L 346.992205 126.414631 
L 352.267841 126.757137 
L 400.966023 126.827715 
L 329.947841 127.103157 
L 365.456932 127.448567 
L 340.093295 127.792713 
L 467.926023 128.131183 
L 310.671477 128.136828 
L 358.355114 128.483319 
L 377.631477 128.828192 
L 387.776932 129.172676 
L 348.209659 129.430033 
L 362.413295 129.519311 
L 375.602386 129.864427 
L 383.71875 130.209055 
L 348.209659 130.551684 
L 507.493295 130.732759 
L 357.340568 130.898077 
L 343.136932 131.243426 
L 349.224205 131.556355 
L 335.020568 131.870825 
L 394.87875 132.028644 
L 399.951477 132.185565 
L 341.107841 132.497262 
L 389.806023 132.809756 
L 377.631477 133.123107 
L 440.533295 133.324916 
L 397.922386 133.435086 
L 369.515114 133.74579 
L 378.646023 134.057392 
L 424.300568 134.620721 
L 360.384205 134.684023 
L 349.224205 134.996765 
L 381.48675 135.308966 
L 376.616932 135.622109 
L 436.475114 135.920137 
L 358.355114 135.932639 
L 357.340568 136.241187 
L 380.675114 136.55409 
L 387.776932 136.863059 
L 402.995114 137.176281 
L 422.271477 137.221307 
L 379.660568 137.486683 
L 350.23875 137.798885 
L 381.689659 138.111196 
L 387.776932 138.423533 
L 467.926023 138.51579 
L 401.168932 138.734165 
L 388.791477 139.046168 
L 357.340568 139.349436 
L 382.704205 139.654951 
L 424.300568 139.812531 
L 414.155114 139.96122 
L 417.19875 140.263757 
L 406.03875 140.566862 
L 404.009659 140.870256 
L 438.504205 141.116231 
L 378.646023 141.173841 
L 437.489659 141.483358 
L 433.431477 141.790689 
L 441.547841 142.090987 
L 418.213295 142.397269 
L 445.606023 142.415658 
L 416.184205 142.70172 
L 434.446023 143.002591 
L 438.504205 143.306325 
L 424.300568 143.610732 
L 471.984205 143.710614 
L 409.082386 143.938836 
L 459.809659 144.267667 
L 439.721659 144.598309 
L 360.384205 144.928328 
L 362.413295 144.9998 
L 380.675114 145.25868 
L 420.039477 145.588887 
L 402.183477 145.916499 
L 426.329659 146.247666 
L 354.296932 146.298895 
L 444.591477 146.576695 
L 443.576932 146.903486 
L 408.473659 147.235688 
L 436.779477 147.566789 
L 436.475114 147.597717 
L 437.895477 147.896823 
L 395.183114 148.22807 
L 427.039841 148.560319 
L 433.431477 148.891767 
L 436.475114 148.898304 
L 422.575841 149.216948 
L 403.198023 149.878739 
L 433.431477 150.195462 
L 401.371841 150.207216 
L 400.966023 150.536772 
L 439.214386 150.868735 
L 443.171114 151.199146 
L 456.766023 151.48664 
L 421.054023 151.528898 
L 426.329659 151.926324 
L 434.446023 152.320535 
L 455.751477 152.720966 
L 416.184205 152.783247 
L 420.851114 153.118912 
L 437.489659 153.510025 
L 382.704205 153.902888 
L 414.155114 154.073915 
L 375.703841 154.296339 
L 409.488205 154.697393 
L 465.896932 155.091988 
L 489.231477 155.371133 
L 476.042386 155.490706 
L 458.795114 155.887513 
L 424.300568 156.282118 
L 444.591477 156.486377 
L 435.460568 156.683661 
L 452.707841 157.073797 
L 475.027841 157.406534 
L 462.853295 157.473065 
L 458.795114 157.869011 
L 446.620568 158.262258 
L 452.707841 158.341347 
L 422.170023 158.658749 
L 468.940568 159.055775 
L 475.027841 159.268214 
L 435.460568 159.452594 
L 396.907841 159.839347 
L 443.576932 160.199302 
L 479.086023 160.230182 
L 464.882386 160.622178 
L 470.969659 161.019062 
L 493.289659 161.119959 
L 414.155114 161.815664 
L 479.390386 162.215334 
L 451.287477 162.775311 
L 519.667841 162.966096 
L 479.086023 163.331916 
L 440.533295 163.886332 
L 482.129659 163.889743 
L 457.780568 164.447168 
L 492.275114 164.806158 
L 487.202386 165.00399 
L 477.056932 165.563594 
L 505.464205 165.732954 
L 467.926023 166.124607 
L 444.591477 166.659631 
L 458.795114 166.677546 
L 425.315114 167.227903 
L 568.366023 167.586413 
L 513.73275 167.775866 
L 487.202386 168.515871 
L 461.432932 168.890453 
L 557.206023 169.442401 
L 454.736932 169.458804 
L 419.227841 170.012523 
L 574.453295 170.371931 
L 471.984205 170.561412 
L 453.722386 171.118714 
L 518.653295 171.300977 
L 420.242386 171.667325 
L 453.722386 172.76186 
L 453.722386 173.095658 
L 524.740568 173.151518 
L 421.256932 173.427352 
L 407.053295 173.761255 
L 598.802386 174.079777 
L 441.547841 174.093502 
L 455.548568 174.432556 
L 445.606023 174.769326 
L 540.973295 175.001458 
L 454.736932 175.097154 
L 468.940568 175.432814 
L 488.216932 175.765189 
L 519.667841 175.92337 
L 504.449659 176.098464 
L 517.63875 176.432491 
L 487.202386 176.764351 
L 554.162386 176.845879 
L 500.391477 177.099391 
L 474.013295 177.432032 
L 475.027841 177.764637 
L 572.424205 177.76998 
L 485.173295 178.101362 
L 469.955114 178.43348 
L 560.249659 178.69303 
L 475.027841 178.771372 
L 470.969659 179.108335 
L 481.723841 179.44268 
L 543.002386 179.621366 
L 476.042386 179.889133 
L 474.013295 180.335797 
L 509.522386 180.548051 
L 500.391477 180.79056 
L 471.984205 181.238425 
L 431.402386 181.471765 
L 461.83875 181.685512 
L 485.173295 182.125731 
L 525.755114 182.391166 
L 469.955114 182.572974 
L 459.809659 183.01691 
L 551.11875 183.263695 
L 470.969659 183.467391 
L 431.402386 183.917719 
L 511.551477 184.114399 
L 470.76675 184.358505 
L 519.667841 184.987723 
L 573.43875 185.866704 
L 516.624205 186.743848 
L 524.740568 187.589372 
L 495.31875 188.472113 
L 499.376932 189.327484 
L 535.900568 190.182565 
L 508.507841 191.028199 
L 505.464205 191.892725 
L 492.275114 192.73101 
L 526.769659 193.562845 
L 448.649659 194.436384 
L 408.067841 195.30527 
L 385.747841 196.170637 
L 358.355114 197.015319 
L 381.689659 198.680439 
L 424.300568 199.531337 
L 389.806023 200.397292 
L 416.184205 201.266708 
L 521.696932 202.982413 
L 485.173295 203.833833 
L 497.347841 204.715109 
L 520.682386 207.306468 
L 543.002386 210.074749 
L 527.784205 212.842273 
L 504.449659 215.623189 
L 468.940568 218.37218 
L 492.275114 221.148332 
L 469.955114 223.899309 
L 441.547841 226.632135 
L 296.467841 229.402678 
L 284.293295 232.178483 
L 283.27875 234.921866 
L 280.235114 236.926681 
L 276.176932 238.839888 
L 289.366023 240.756292 
L 272.11875 242.685816 
L 285.307841 244.564675 
L 237.624205 246.465447 
L 286.322386 248.373225 
L 283.27875 250.288247 
L 276.176932 252.21579 
L 304.584205 254.128896 
L 292.409659 256.056481 
L 313.715114 257.994781 
L 345.166023 259.921017 
L 334.006023 261.833886 
L 262.987841 263.75629 
L 348.209659 265.671672 
L 373.573295 267.582821 
L 378.646023 269.453442 
L 381.689659 271.363919 
L 394.87875 273.275712 
L 387.776932 274.938527 
L 391.835114 276.607544 
L 417.19875 278.260226 
L 445.606023 279.950174 
L 399.951477 281.615492 
L 390.820568 283.289674 
L 352.267841 284.963641 
L 414.155114 286.628647 
L 436.475114 288.30886 
L 411.111477 289.958546 
L 371.544205 291.595848 
L 382.704205 293.244315 
L 423.286023 294.917631 
L 376.616932 296.577778 
L 342.122386 298.24988 
L 401.980568 299.924711 
L 416.184205 301.622808 
L 404.009659 303.292522 
L 427.344205 304.968738 
L 398.936932 306.646348 
L 414.155114 308.323792 
L 449.664205 309.983836 
L 412.126023 311.651081 
L 407.053295 313.313681 
L 443.576932 314.985283 
L 379.660568 316.652902 
L 386.762386 318.334628 
L 378.646023 320.080676 
L 443.576932 321.866001 
L 394.87875 323.682213 
L 425.315114 325.512175 
L 423.286023 327.295128 
L 418.213295 329.081393 
L 404.009659 330.892972 
L 444.591477 332.72561 
L 373.573295 334.575315 
L 332.991477 336.377246 
L 379.660568 338.21064 
L 444.591477 340.008988 
L 447.635114 341.814234 
L 428.35875 343.617595 
L 447.635114 345.452988 
L 441.547841 347.274696 
L 424.300568 349.081304 
L 501.406023 352.760533 
L 435.460568 354.578675 
L 493.289659 356.395855 
L 493.289659 358.230088 
L 528.79875 360.063373 
L 520.682386 361.863084 
L 454.736932 365.347655 
L 432.416932 366.740102 
L 446.620568 368.158026 
L 437.489659 369.557643 
L 500.391477 370.95576 
L 550.104205 372.387294 
L 541.987841 373.800683 
L 506.47875 375.217865 
L 445.606023 376.614439 
L 376.616932 378.003023 
L 426.329659 379.442442 
L 405.024205 380.869864 
L 394.87875 382.299103 
L 391.835114 383.730083 
L 377.631477 385.142813 
L 367.486023 386.558901 
L 380.675114 387.980371 
L 502.420568 389.418872 
L 587.642386 392.276398 
L 406.03875 393.662611 
L 467.926023 395.116398 
L 405.024205 396.547322 
L 452.707841 397.964647 
L 426.329659 399.354932 
L 424.300568 401.639424 
L 469.955114 404.004188 
L 484.15875 406.424317 
L 469.955114 408.816572 
L 431.402386 411.250007 
L 409.082386 413.627111 
L 417.19875 416.045677 
L 372.55875 418.404341 
L 384.733295 420.729182 
L 452.707841 423.106992 
L 482.129659 425.528391 
L 457.780568 427.878812 
L 446.620568 430.220412 
L 425.315114 432.557555 
L 485.173295 434.94428 
L 447.635114 437.31406 
L 402.995114 439.712843 
L 482.129659 442.065566 
L 427.344205 444.415288 
L 360.384205 446.806185 
L 406.03875 449.145926 
L 438.504205 451.543992 
L 418.213295 453.91951 
L 320.816932 456.28173 
L 359.369659 458.672149 
L 363.427841 460.457303 
L 417.19875 462.37187 
L 400.966023 464.22352 
L 408.067841 465.974448 
L 366.471477 467.839618 
L 363.427841 469.676123 
L 381.689659 471.592698 
L 391.835114 473.441157 
L 442.562386 475.29534 
L 293.424205 477.122842 
L 325.889659 480.785797 
L 285.307841 482.587384 
L 247.769659 484.440849 
L 321.831477 486.281592 
L 290.380568 488.096054 
L 269.075114 489.910101 
L 178.780568 491.69506 
L 197.042386 493.525735 
L 236.609659 495.349314 
L 294.43875 497.215509 
L 334.006023 499.079074 
L 354.296932 500.854944 
L 327.91875 502.686471 
L 271.104205 504.50099 
L 290.380568 506.296636 
L 328.933295 508.133163 
L 362.413295 509.987864 
L 275.162386 511.850218 
L 437.489659 513.738971 
L 349.224205 515.510685 
L 408.067841 517.313309 
L 364.442386 519.12773 
L 242.696932 520.948458 
L 225.449659 522.791771 
L 356.326023 524.575849 
L 271.104205 526.37573 
L 293.424205 528.223217 
L 246.755114 530.010821 
L 342.122386 531.774539 
L 292.409659 533.587235 
L 429.373295 535.327364 
L 375.602386 537.208932 
L 393.864205 538.959632 
L 305.59875 540.776085 
L 326.904205 544.254501 
L 327.91875 548.196593 
L 336.035114 552.154919 
L 341.107841 556.060439 
L 368.500568 560.074654 
L 402.995114 563.972365 
L 368.500568 567.866112 
L 411.111477 571.705654 
L 363.427841 575.560029 
L 439.51875 579.482118 
L 428.35875 583.397889 
L 467.926023 587.287643 
L 492.275114 591.233897 
L 444.591477 595.177594 
L 492.275114 598.969034 
L 527.784205 602.891442 
L 544.016932 606.919532 
L 547.060568 610.750748 
L 549.089659 614.76835 
L 585.613295 618.818269 
L 530.827841 622.715393 
L 432.416932 626.698257 
L 439.51875 630.58536 
L 505.464205 634.531028 
L 554.162386 638.497824 
L 568.366023 642.49518 
L 532.856932 646.39907 
L 536.915114 650.397835 
L 429.373295 654.308598 
L 534.886023 658.250068 
L 407.053295 662.176238 
L 423.286023 666.230559 
L 383.71875 670.243102 
L 411.111477 674.070384 
L 408.067841 677.875271 
L 410.096932 681.799612 
L 401.980568 685.753338 
L 405.024205 687.901455 
L 338.064205 689.192661 
L 339.07875 690.44482 
L 406.03875 693.008006 
L 373.573295 694.349461 
L 436.475114 695.705592 
L 383.71875 696.943526 
L 392.849659 698.363543 
L 407.053295 699.576446 
L 466.911477 700.910385 
L 349.224205 702.259632 
L 400.966023 703.534792 
L 343.136932 706.381362 
L 424.300568 707.779441 
L 415.169659 708.858899 
L 467.926023 710.047917 
L 376.616932 711.484354 
L 431.402386 712.877831 
L 330.962386 714.050359 
L 407.053295 715.433637 
L 409.082386 716.652015 
L 397.922386 718.035912 
L 517.63875 719.405818 
L 387.776932 720.878344 
L 659.75875 722.174279 
M 659.75875 723.905377 
L 523.726023 724.976987 
L 389.806023 730.410741 
L 407.053295 733.143524 
L 435.460568 734.436262 
L 350.23875 737.274068 
L 423.286023 739.58838 
L 332.991477 742.048778 
L 353.282386 744.432255 
L 331.976932 746.933795 
L 330.962386 749.379516 
L 394.87875 751.798751 
L 406.03875 754.379084 
L 407.053295 756.889892 
L 434.446023 759.31438 
L 444.591477 761.814962 
L 407.053295 764.389838 
L 390.820568 766.845235 
L 417.19875 769.364945 
L 412.126023 771.873604 
L 456.766023 774.40972 
L 369.515114 776.962736 
L 391.835114 779.322547 
L 326.904205 781.89321 
L 328.933295 784.374898 
L 307.627841 786.853498 
L 305.59875 789.434628 
L 307.627841 791.947027 
L 259.944205 794.29305 
L 406.03875 796.773905 
L 415.169659 799.276151 
L 411.111477 801.674228 
L 444.591477 804.112456 
L 452.707841 806.616557 
L 419.227841 809.147616 
L 469.955114 811.581784 
L 466.911477 813.438776 
L 463.867841 814.798482 
L 453.722386 816.145323 
L 461.83875 817.486583 
L 402.995114 818.824137 
L 426.329659 820.217649 
L 443.576932 821.538115 
L 482.129659 822.969581 
L 431.402386 824.312478 
L 399.951477 825.740262 
L 349.224205 827.089429 
L 376.616932 828.393899 
L 414.155114 829.668268 
L 385.747841 831.032544 
L 388.791477 832.395903 
L 359.369659 833.77448 
L 365.456932 835.002611 
L 380.675114 836.366269 
L 404.009659 837.717012 
L 436.475114 839.068825 
L 545.031477 840.471001 
L 533.871477 841.836908 
L 504.449659 843.232665 
L 544.016932 844.609875 
L 518.653295 845.965273 
L 535.900568 847.34884 
L 494.304205 848.719479 
L 516.624205 850.059967 
L 522.711477 851.386947 
L 522.711477 852.658191 
L 523.726023 854.000172 
L 538.944205 855.419714 
L 522.711477 856.721464 
L 560.249659 859.418023 
L 565.322386 860.284898 
L 500.391477 861.017701 
L 547.060568 862.469256 
L 573.43875 863.183837 
L 550.104205 863.883619 
L 582.569659 864.630687 
L 528.79875 865.357146 
L 570.395114 866.036407 
L 575.467841 866.718554 
L 541.987841 867.461714 
L 563.293295 868.110563 
L 575.467841 868.82653 
L 603.875114 869.548448 
L 583.584205 870.214727 
L 624.166023 870.879035 
L 560.249659 871.603729 
L 460.824205 872.172162 
L 516.624205 872.888615 
L 551.11875 873.6057 
L 556.191477 874.259669 
L 611.991477 874.973704 
L 578.511477 875.71606 
L 580.540568 876.367471 
L 565.322386 876.996956 
L 593.729659 877.638146 
L 609.962386 878.322823 
L 571.409659 879.643429 
L 607.933295 880.34663 
L 580.540568 881.067893 
L 572.424205 881.775628 
L 579.526023 882.45911 
L 589.671477 883.170111 
L 595.75875 883.921944 
L 574.453295 884.850166 
L 543.002386 885.851625 
L 584.59875 886.862621 
L 531.842386 887.899058 
L 517.63875 888.912862 
L 547.060568 889.932312 
L 543.002386 890.904253 
L 560.249659 891.94007 
L 552.133295 893.006682 
L 547.060568 894.044562 
L 550.104205 895.109588 
L 539.95875 896.084973 
L 574.453295 897.092957 
L 505.464205 898.124878 
L 509.522386 899.184637 
L 397.922386 900.19417 
L 421.256932 901.272791 
L 448.649659 902.354782 
L 355.311477 903.423182 
L 330.962386 904.481577 
L 346.180568 905.524681 
L 300.526023 906.550433 
L 289.366023 907.558298 
L 293.424205 908.528871 
L 330.962386 909.589307 
L 313.715114 910.628081 
L 288.351477 911.649591 
L 299.511477 912.723611 
L 275.162386 913.755038 
L 272.11875 914.704426 
L 332.991477 915.735824 
L 252.842386 916.752717 
L 343.136932 917.750358 
L 304.584205 918.82261 
L 331.976932 919.855619 
L 338.064205 920.831149 
L 294.43875 921.780908 
L 287.336932 922.843803 
L 319.802386 923.907323 
L 256.900568 925.921147 
L 246.755114 926.927098 
L 256.900568 927.959162 
L 277.191477 928.946276 
L 279.220568 929.947221 
L 327.91875 930.959516 
L 389.806023 931.963521 
L 416.184205 932.99706 
L 384.733295 934.013216 
L 400.966023 935.026372 
L 370.529659 936.046778 
L 400.966023 937.062995 
L 347.195114 938.10464 
L 347.195114 939.203887 
L 396.907841 940.210312 
L 360.384205 941.249808 
L 342.122386 942.267855 
L 349.224205 943.305358 
L 349.224205 944.320447 
L 309.656932 945.366266 
L 350.23875 946.396221 
L 360.384205 947.431328 
L 361.39875 948.485157 
L 339.07875 949.5351 
L 338.064205 950.486696 
L 329.947841 951.532465 
L 301.540568 952.582069 
L 314.729659 953.637883 
L 259.944205 954.642674 
L 308.642386 955.712075 
L 281.249659 956.845553 
L 293.424205 957.842563 
L 278.206023 958.846997 
L 285.307841 959.854321 
L 327.91875 960.892417 
L 301.540568 961.923137 
L 299.511477 962.903985 
L 324.875114 963.941416 
L 264.002386 965.004479 
L 298.496932 966.068838 
L 270.089659 968.078613 
L 288.351477 969.062151 
L 295.453295 970.144357 
L 276.176932 972.250465 
L 266.031477 974.323171 
L 288.351477 975.334364 
L 298.496932 976.397213 
L 289.366023 977.434373 
L 264.002386 978.485494 
L 347.195114 979.49526 
L 293.424205 980.462086 
L 274.147841 981.473822 
L 308.642386 983.160314 
L 355.311477 984.981908 
L 338.064205 986.83111 
L 361.39875 988.772369 
L 308.642386 990.633442 
L 332.991477 992.462033 
L 373.573295 996.089688 
L 376.616932 997.893265 
L 361.39875 999.694796 
L 369.515114 1001.544245 
L 453.722386 1003.402804 
L 381.689659 1005.197716 
L 408.067841 1007.087759 
L 386.762386 1008.900107 
L 417.19875 1010.685177 
L 407.053295 1012.454593 
L 421.256932 1014.276193 
L 450.67875 1016.147797 
L 467.926023 1018.014898 
L 457.780568 1019.802832 
L 398.936932 1021.702013 
L 459.809659 1023.517032 
L 478.071477 1025.320851 
L 518.653295 1027.124512 
L 506.47875 1028.997263 
L 546.046023 1030.863964 
L 440.533295 1032.7176 
L 505.464205 1034.530883 
L 518.653295 1036.357268 
L 528.79875 1038.197791 
L 575.467841 1039.942033 
L 544.016932 1041.694715 
L 536.915114 1043.595119 
L 495.31875 1045.395125 
L 576.482386 1047.297607 
L 571.409659 1049.111511 
L 521.696932 1050.950973 
L 547.060568 1052.714963 
L 576.482386 1054.552768 
L 568.366023 1056.395616 
L 559.235114 1058.225515 
L 620.107841 1060.144184 
L 565.322386 1061.990802 
L 632.282386 1063.791677 
L 630.253295 1065.644789 
L 602.860568 1067.508336 
L 617.064205 1069.369332 
L 617.064205 1071.130494 
L 659.75875 1073.030434 
M 659.75875 1075.756812 
L 608.947841 1076.766323 
L 659.75875 1078.204701 
M 659.75875 1079.297551 
L 625.180568 1080.520372 
L 628.224205 1082.393109 
L 653.587841 1084.168194 
L 623.151477 1086.12827 
L 659.75875 1087.0871 
M 659.75875 1087.917279 
L 595.75875 1089.00928 
L 659.75875 1089.932613 
M 659.75875 1091.028779 
L 615.035114 1091.897501 
L 659.75875 1092.778294 
M 659.75875 1094.389851 
L 649.529659 1094.770413 
L 624.166023 1096.251682 
L 620.107841 1097.703178 
L 618.07875 1099.151817 
L 598.802386 1100.594878 
L 583.584205 1102.043206 
L 500.391477 1103.487124 
L 551.11875 1104.971591 
L 529.813295 1106.387075 
L 499.376932 1107.821786 
L 434.446023 1109.235518 
L 448.649659 1110.7942 
L 549.089659 1112.23472 
L 516.624205 1113.724394 
L 582.569659 1115.163897 
L 625.180568 1116.670176 
L 625.180568 1118.100541 
L 656.631477 1119.54105 
L 582.569659 1122.541357 
L 565.322386 1124.039935 
L 639.384205 1125.433127 
L 577.496932 1126.857594 
L 528.79875 1128.35898 
L 591.700568 1131.096285 
L 575.467841 1132.595055 
L 539.95875 1134.047756 
L 556.191477 1136.746221 
L 471.984205 1138.188624 
L 525.755114 1139.648132 
L 521.696932 1141.072569 
L 541.987841 1142.466934 
L 443.576932 1143.996604 
L 490.246023 1145.399143 
L 504.449659 1146.717094 
L 475.027841 1149.709012 
L 510.536932 1151.057503 
L 485.173295 1152.363422 
L 431.402386 1153.731855 
L 291.395114 1156.326696 
L 270.089659 1157.784321 
L 401.980568 1159.255754 
L 294.43875 1160.596526 
L 390.820568 1161.879761 
L 257.915114 1163.065813 
L 375.602386 1164.439874 
L 303.569659 1165.694983 
L 386.762386 1166.915786 
L 477.056932 1169.713337 
L 410.096932 1170.92362 
L 454.736932 1172.292546 
L 429.373295 1173.46346 
L 443.576932 1174.726489 
L 410.096932 1175.955435 
L 394.87875 1177.046742 
L 395.893295 1178.072349 
L 421.256932 1179.273872 
L 393.864205 1181.92838 
L 389.806023 1183.104945 
L 414.155114 1184.264682 
L 375.602386 1185.687094 
L 370.529659 1186.922168 
L 313.715114 1188.196128 
L 310.671477 1189.452032 
L 309.656932 1190.776633 
L 304.584205 1192.0511 
L 336.035114 1193.209923 
L 307.627841 1194.367854 
L 332.991477 1198.170471 
L 323.860568 1199.399507 
L 319.802386 1200.625462 
L 371.544205 1201.929034 
L 349.224205 1203.318335 
L 347.195114 1204.630128 
L 319.802386 1205.940625 
L 319.802386 1205.940625 
" clip-path="url(#pff7b35aa09)" style="fill: none; stroke: #aaaaaa; stroke-linecap: square"/>
   </g>
   <g id="patch_8">
    <path d="M 93.55875 1205.940625 
L 93.55875 97.140625 
" style="fill: none; stroke: #000000; stroke-width: 0.8; stroke-linejoin: miter; stroke-linecap: square"/>
   </g>
   <g id="patch_9">
    <path d="M 651.55875 1205.940625 
L 651.55875 97.140625 
" style="fill: none; stroke: #000000; stroke-width: 0.8; stroke-linejoin: miter; stroke-linecap: square"/>
   </g>
   <g id="patch_10">
    <path d="M 93.55875 1205.940625 
L 651.55875 1205.940625 
" style="fill: none; stroke: #000000; stroke-width: 0.8; stroke-linejoin: miter; stroke-linecap: square"/>
   </g>
   <g id="patch_11">
    <path d="M 93.55875 97.140625 
L 651.55875 97.140625 
" style="fill: none; stroke: #000000; stroke-width: 0.8; stroke-linejoin: miter; stroke-linecap: square"/>
   </g>
   <g id="line2d_36">
    <path d="M 408.067841 97.140625 
L 357.340568 97.679345 
L 353.789659 98.26932 
L 357.340568 98.285755 
L 350.23875 99.448068 
L 357.340568 100.014419 
L 361.39875 100.615076 
L 361.39875 101.774468 
L 368.500568 102.332526 
L 368.500568 104.595005 
L 359.369659 105.173658 
L 362.413295 105.74668 
L 359.369659 106.301663 
L 362.413295 106.318894 
L 347.195114 106.897486 
L 347.195114 107.446792 
L 350.23875 107.491485 
L 362.413295 108.061794 
L 350.23875 108.591922 
L 362.413295 108.640063 
L 362.413295 109.212382 
L 340.093295 109.737052 
L 350.23875 109.764351 
L 350.23875 110.588661 
L 358.355114 110.882182 
L 358.355114 112.23553 
L 340.702023 112.512963 
L 340.702023 113.172441 
L 338.064205 113.337515 
L 338.064205 113.615284 
L 336.035114 113.89116 
L 335.020568 114.167781 
L 340.702023 114.317571 
L 340.702023 114.76148 
L 339.07875 115.085752 
L 354.296932 115.407121 
L 339.07875 115.462701 
L 339.07875 116.60783 
L 348.209659 116.698131 
L 348.209659 117.016371 
L 339.07875 117.340327 
L 339.07875 117.662556 
L 348.209659 117.75296 
L 339.07875 117.985815 
L 348.209659 118.310655 
L 348.209659 119.602209 
L 330.962386 119.926287 
L 336.035114 120.249639 
L 349.832932 120.336603 
L 349.832932 120.573086 
L 359.369659 120.898119 
L 359.369659 121.242882 
L 365.456932 121.587787 
L 359.369659 121.630015 
L 349.224205 121.931712 
L 349.224205 122.275977 
L 359.369659 122.621056 
L 363.427841 122.927765 
L 366.471477 122.96584 
L 363.427841 123.311292 
L 363.427841 126.827715 
L 358.355114 127.103157 
L 358.355114 128.131183 
L 362.413295 128.136828 
L 362.413295 128.483319 
L 365.456932 128.828192 
L 362.413295 129.172676 
L 375.602386 129.430033 
L 362.413295 129.519311 
L 362.413295 130.209055 
L 357.340568 130.551684 
L 357.340568 130.732759 
L 362.413295 130.898077 
L 357.340568 131.243426 
L 357.340568 131.870825 
L 377.631477 132.028644 
L 377.631477 132.497262 
L 378.646023 132.809756 
L 394.87875 133.324916 
L 378.646023 133.74579 
L 381.48675 134.057392 
L 378.646023 134.371585 
L 381.48675 134.620721 
L 378.646023 134.684023 
L 376.616932 134.996765 
L 380.675114 135.622109 
L 380.675114 136.863059 
L 381.689659 137.221307 
L 387.776932 137.486683 
L 387.776932 138.734165 
L 388.791477 139.046168 
L 401.168932 139.349436 
L 406.03875 139.812531 
L 404.009659 139.96122 
L 406.03875 140.263757 
L 414.155114 140.566862 
L 417.19875 140.870256 
L 418.213295 141.173841 
L 418.213295 141.483358 
L 433.431477 141.790689 
L 434.446023 142.090987 
L 434.446023 143.002591 
L 438.504205 143.306325 
L 434.446023 143.710614 
L 424.300568 143.938836 
L 424.300568 144.267667 
L 420.039477 144.598309 
L 420.039477 144.928328 
L 409.082386 144.9998 
L 409.082386 145.25868 
L 420.039477 145.588887 
L 408.473659 145.916499 
L 408.473659 146.247666 
L 420.039477 146.298895 
L 426.329659 146.576695 
L 426.329659 146.903486 
L 427.039841 147.235688 
L 433.431477 147.566789 
L 436.475114 147.597717 
L 436.475114 147.896823 
L 433.431477 148.22807 
L 427.039841 148.560319 
L 433.431477 148.891767 
L 427.039841 148.898304 
L 422.575841 149.216948 
L 422.575841 149.548896 
L 427.039841 149.878739 
L 433.431477 150.195462 
L 422.575841 150.207216 
L 422.575841 150.536772 
L 426.329659 150.868735 
L 433.431477 151.199146 
L 433.431477 151.48664 
L 426.329659 151.528898 
L 434.446023 151.926324 
L 434.446023 152.320535 
L 426.329659 152.720966 
L 421.054023 152.783247 
L 420.851114 153.118912 
L 420.851114 154.296339 
L 424.300568 154.697393 
L 437.489659 155.091988 
L 435.460568 155.371133 
L 444.591477 155.490706 
L 458.795114 156.282118 
L 458.795114 156.683661 
L 452.707841 157.073797 
L 452.707841 159.452594 
L 464.882386 159.839347 
L 464.882386 160.230182 
L 458.795114 160.622178 
L 458.795114 161.119959 
L 470.969659 161.815664 
L 464.882386 162.044245 
L 470.969659 162.215334 
L 458.795114 162.775311 
L 458.795114 162.966096 
L 479.086023 163.331916 
L 479.086023 163.886332 
L 479.390386 163.889743 
L 479.086023 164.447168 
L 479.086023 164.806158 
L 477.056932 165.00399 
L 467.926023 165.563594 
L 477.056932 165.732954 
L 477.056932 166.124607 
L 487.202386 166.677546 
L 477.056932 167.227903 
L 487.202386 167.586413 
L 467.926023 167.775866 
L 461.432932 168.334343 
L 487.202386 168.515871 
L 487.202386 169.458804 
L 454.736932 170.561412 
L 453.722386 171.118714 
L 453.722386 172.76186 
L 441.547841 173.151518 
L 445.606023 173.427352 
L 453.722386 173.761255 
L 453.722386 174.079777 
L 454.736932 174.093502 
L 455.548568 174.432556 
L 455.548568 174.769326 
L 468.940568 175.001458 
L 488.216932 175.097154 
L 487.202386 175.432814 
L 488.216932 175.765189 
L 500.391477 175.92337 
L 500.391477 176.098464 
L 488.216932 176.432491 
L 500.391477 176.845879 
L 500.391477 177.432032 
L 485.173295 177.76998 
L 481.723841 178.101362 
L 481.723841 178.43348 
L 476.042386 178.771372 
L 481.723841 179.108335 
L 481.723841 179.44268 
L 476.042386 179.621366 
L 476.042386 179.889133 
L 475.027841 180.335797 
L 476.042386 180.548051 
L 481.723841 180.79056 
L 474.013295 181.471765 
L 474.013295 181.685512 
L 470.969659 182.391166 
L 470.969659 182.572974 
L 470.76675 183.01691 
L 470.969659 183.263695 
L 511.551477 183.917719 
L 511.551477 187.589372 
L 508.507841 188.472113 
L 516.624205 189.327484 
L 508.507841 190.182565 
L 505.464205 191.028199 
L 499.376932 191.892725 
L 495.31875 192.73101 
L 492.275114 193.562845 
L 448.649659 194.436384 
L 424.300568 195.30527 
L 408.067841 196.170637 
L 408.067841 199.531337 
L 424.300568 201.266708 
L 485.173295 202.982413 
L 497.347841 203.833833 
L 497.347841 212.842273 
L 492.275114 215.623189 
L 492.275114 218.37218 
L 469.955114 221.148332 
L 468.940568 223.899309 
L 441.547841 226.632135 
L 296.467841 229.402678 
L 289.366023 232.178483 
L 285.307841 234.921866 
L 284.293295 236.926681 
L 284.293295 238.839888 
L 283.27875 240.756292 
L 283.27875 246.465447 
L 285.307841 248.373225 
L 286.322386 250.288247 
L 286.322386 254.128896 
L 292.409659 256.056481 
L 304.584205 257.994781 
L 313.715114 259.921017 
L 334.006023 261.833886 
L 345.166023 263.75629 
L 348.209659 265.671672 
L 373.573295 267.582821 
L 378.646023 269.453442 
L 381.689659 271.363919 
L 387.776932 273.275712 
L 390.820568 274.938527 
L 390.820568 276.607544 
L 391.835114 278.260226 
L 394.87875 279.950174 
L 399.951477 281.615492 
L 399.951477 284.963641 
L 411.111477 286.628647 
L 399.951477 288.30886 
L 390.820568 289.958546 
L 390.820568 291.595848 
L 401.980568 293.244315 
L 404.009659 294.917631 
L 404.009659 296.577778 
L 401.980568 298.24988 
L 401.980568 299.924711 
L 404.009659 301.622808 
L 412.126023 303.292522 
L 407.053295 304.968738 
L 412.126023 306.646348 
L 412.126023 309.983836 
L 407.053295 311.651081 
L 412.126023 313.313681 
L 407.053295 314.985283 
L 412.126023 316.652902 
L 412.126023 320.080676 
L 407.053295 321.866001 
L 418.213295 323.682213 
L 404.009659 325.512175 
L 404.009659 329.081393 
L 418.213295 330.892972 
L 418.213295 332.72561 
L 423.286023 334.575315 
L 423.286023 336.377246 
L 428.35875 338.21064 
L 428.35875 340.008988 
L 441.547841 341.814234 
L 435.460568 343.617595 
L 441.547841 345.452988 
L 447.635114 349.081304 
L 447.635114 352.760533 
L 486.187841 354.578675 
L 486.187841 363.682197 
L 493.289659 365.347655 
L 493.289659 366.740102 
L 500.391477 368.158026 
L 486.187841 369.557643 
L 454.736932 370.95576 
L 446.620568 372.387294 
L 445.606023 373.800683 
L 445.606023 375.217865 
L 437.489659 376.614439 
L 426.329659 378.003023 
L 405.024205 379.442442 
L 394.87875 380.869864 
L 394.87875 385.142813 
L 405.024205 386.558901 
L 405.024205 389.418872 
L 406.03875 392.276398 
L 424.300568 393.662611 
L 426.329659 395.116398 
L 452.707841 396.547322 
L 467.926023 397.964647 
L 452.707841 399.354932 
L 431.402386 401.639424 
L 431.402386 404.004188 
L 426.329659 406.424317 
L 426.329659 411.250007 
L 431.402386 413.627111 
L 452.707841 416.045677 
L 446.620568 418.404341 
L 431.402386 420.729182 
L 431.402386 423.106992 
L 446.620568 425.528391 
L 446.620568 427.878812 
L 447.635114 430.220412 
L 447.635114 434.94428 
L 446.620568 437.31406 
L 438.504205 439.712843 
L 427.344205 442.065566 
L 425.315114 444.415288 
L 418.213295 446.806185 
L 406.03875 449.145926 
L 406.03875 456.28173 
L 400.966023 458.672149 
L 400.966023 460.457303 
L 381.689659 462.37187 
L 381.689659 471.592698 
L 366.471477 473.441157 
L 363.427841 475.29534 
L 325.889659 477.122842 
L 321.831477 480.785797 
L 293.424205 482.587384 
L 290.380568 484.440849 
L 285.307841 486.281592 
L 285.307841 491.69506 
L 290.380568 493.525735 
L 290.380568 499.079074 
L 294.43875 500.854944 
L 294.43875 502.686471 
L 327.91875 504.50099 
L 328.933295 506.296636 
L 334.006023 508.133163 
L 349.224205 509.987864 
L 328.933295 511.850218 
L 328.933295 513.738971 
L 349.224205 515.510685 
L 349.224205 519.12773 
L 293.424205 520.948458 
L 342.122386 522.791771 
L 293.424205 524.575849 
L 293.424205 530.010821 
L 305.59875 531.774539 
L 326.904205 533.587235 
L 326.904205 535.327364 
L 327.91875 537.208932 
L 336.035114 538.959632 
L 341.107841 540.776085 
L 341.107841 544.254501 
L 368.500568 548.196593 
L 368.500568 552.154919 
L 363.427841 556.060439 
L 363.427841 560.074654 
L 368.500568 563.972365 
L 368.500568 567.866112 
L 402.995114 571.705654 
L 411.111477 575.560029 
L 428.35875 579.482118 
L 439.51875 583.397889 
L 444.591477 587.287643 
L 467.926023 591.233897 
L 492.275114 595.177594 
L 492.275114 598.969034 
L 527.784205 602.891442 
L 527.784205 614.76835 
L 530.827841 618.818269 
L 544.016932 622.715393 
L 544.016932 626.698257 
L 536.915114 630.58536 
L 532.856932 634.531028 
L 532.856932 638.497824 
L 530.827841 642.49518 
L 505.464205 646.39907 
L 505.464205 654.308598 
L 429.373295 658.250068 
L 423.286023 662.176238 
L 411.111477 666.230559 
L 410.096932 670.243102 
L 408.067841 674.070384 
L 407.053295 677.875271 
L 405.024205 681.799612 
L 405.024205 685.753338 
L 401.980568 687.901455 
L 405.024205 689.192661 
L 401.980568 690.44482 
L 392.849659 691.584614 
L 392.849659 694.349461 
L 383.71875 695.705592 
L 392.849659 696.943526 
L 392.849659 700.910385 
L 400.966023 702.259632 
L 400.966023 704.896354 
L 407.053295 706.381362 
L 400.966023 707.779441 
L 400.966023 708.858899 
L 407.053295 710.047917 
L 407.053295 711.484354 
L 409.082386 712.877831 
L 409.082386 718.035912 
L 431.402386 719.405818 
L 409.082386 720.878344 
L 409.082386 722.323737 
L 435.460568 723.55438 
L 435.460568 726.274492 
L 423.286023 730.410741 
L 423.286023 733.143524 
L 407.053295 734.436262 
L 389.806023 737.274068 
L 389.806023 742.048778 
L 394.87875 744.432255 
L 394.87875 749.379516 
L 406.03875 751.798751 
L 394.87875 754.379084 
L 406.03875 756.889892 
L 407.053295 759.31438 
L 407.053295 771.873604 
L 391.835114 774.40972 
L 390.820568 776.962736 
L 369.515114 779.322547 
L 328.933295 781.89321 
L 328.933295 794.29305 
L 406.03875 796.773905 
L 411.111477 799.276151 
L 419.227841 804.112456 
L 444.591477 806.616557 
L 452.707841 809.147616 
L 452.707841 814.798482 
L 453.722386 816.145323 
L 453.722386 818.824137 
L 443.576932 820.217649 
L 431.402386 821.538115 
L 426.329659 822.969581 
L 414.155114 824.312478 
L 402.995114 825.740262 
L 399.951477 827.089429 
L 388.791477 828.393899 
L 385.747841 829.668268 
L 385.747841 833.77448 
L 388.791477 835.002611 
L 404.009659 836.366269 
L 404.009659 837.717012 
L 436.475114 839.068825 
L 504.449659 840.471001 
L 504.449659 841.836908 
L 516.624205 843.232665 
L 518.653295 844.609875 
L 522.711477 845.965273 
L 522.711477 855.419714 
L 523.726023 856.721464 
L 523.726023 859.418023 
L 538.944205 860.284898 
L 547.060568 861.017701 
L 547.060568 861.770136 
L 550.104205 862.469256 
L 560.249659 863.183837 
L 550.104205 863.883619 
L 550.104205 864.630687 
L 563.293295 865.357146 
L 570.395114 866.036407 
L 573.43875 866.718554 
L 575.467841 867.461714 
L 575.467841 868.110563 
L 570.395114 868.82653 
L 570.395114 869.548448 
L 563.293295 870.214727 
L 560.249659 870.879035 
L 563.293295 871.603729 
L 575.467841 872.172162 
L 578.511477 872.888615 
L 565.322386 873.6057 
L 565.322386 874.973704 
L 578.511477 875.71606 
L 578.511477 876.367471 
L 580.540568 876.996956 
L 580.540568 879.643429 
L 589.671477 880.34663 
L 589.671477 881.067893 
L 580.540568 881.775628 
L 580.540568 882.45911 
L 579.526023 883.170111 
L 579.526023 883.921944 
L 574.453295 884.850166 
L 572.424205 885.851625 
L 560.249659 886.862621 
L 552.133295 887.899058 
L 547.060568 888.912862 
L 547.060568 895.109588 
L 543.002386 896.084973 
L 539.95875 897.092957 
L 509.522386 898.124878 
L 505.464205 899.184637 
L 448.649659 900.19417 
L 421.256932 901.272791 
L 397.922386 902.354782 
L 355.311477 903.423182 
L 346.180568 904.481577 
L 330.962386 905.524681 
L 330.962386 906.550433 
L 313.715114 907.558298 
L 300.526023 908.528871 
L 299.511477 909.589307 
L 299.511477 910.628081 
L 293.424205 911.649591 
L 293.424205 912.723611 
L 304.584205 914.704426 
L 304.584205 915.735824 
L 299.511477 916.752717 
L 299.511477 917.750358 
L 304.584205 918.82261 
L 304.584205 920.831149 
L 294.43875 921.780908 
L 294.43875 922.843803 
L 287.336932 923.907323 
L 286.322386 924.954676 
L 286.322386 929.947221 
L 370.529659 931.963521 
L 370.529659 934.013216 
L 384.733295 935.026372 
L 384.733295 937.062995 
L 370.529659 938.10464 
L 360.384205 939.203887 
L 349.224205 940.210312 
L 349.224205 946.396221 
L 342.122386 947.431328 
L 339.07875 948.485157 
L 338.064205 949.5351 
L 329.947841 950.486696 
L 329.947841 951.532465 
L 314.729659 952.582069 
L 308.642386 953.637883 
L 301.540568 954.642674 
L 301.540568 956.845553 
L 299.511477 957.842563 
L 299.511477 958.846997 
L 293.424205 959.854321 
L 298.496932 960.892417 
L 293.424205 961.923137 
L 293.424205 962.903985 
L 288.351477 963.941416 
L 295.453295 965.004479 
L 295.453295 966.068838 
L 288.351477 967.043579 
L 285.307841 968.078613 
L 285.307841 970.144357 
L 288.351477 972.250465 
L 285.307841 973.27319 
L 288.351477 974.323171 
L 288.351477 977.434373 
L 289.366023 978.485494 
L 293.424205 979.49526 
L 298.496932 980.462086 
L 308.642386 981.473822 
L 308.642386 983.160314 
L 332.991477 984.981908 
L 338.064205 986.83111 
L 338.064205 988.772369 
L 355.311477 990.633442 
L 361.39875 992.462033 
L 361.39875 996.089688 
L 369.515114 997.893265 
L 373.573295 999.694796 
L 376.616932 1001.544245 
L 386.762386 1005.197716 
L 407.053295 1007.087759 
L 408.067841 1008.900107 
L 417.19875 1010.685177 
L 417.19875 1014.276193 
L 421.256932 1016.147797 
L 450.67875 1018.014898 
L 457.780568 1019.802832 
L 459.809659 1021.702013 
L 459.809659 1023.517032 
L 467.926023 1025.320851 
L 478.071477 1027.124512 
L 505.464205 1028.997263 
L 506.47875 1030.863964 
L 518.653295 1032.7176 
L 518.653295 1036.357268 
L 528.79875 1038.197791 
L 536.915114 1039.942033 
L 528.79875 1041.694715 
L 536.915114 1043.595119 
L 544.016932 1045.395125 
L 547.060568 1047.297607 
L 559.235114 1049.111511 
L 559.235114 1050.950973 
L 565.322386 1052.714963 
L 571.409659 1056.395616 
L 571.409659 1058.225515 
L 576.482386 1060.144184 
L 602.860568 1061.990802 
L 617.064205 1063.791677 
L 617.064205 1067.508336 
L 620.107841 1069.369332 
L 625.180568 1071.130494 
L 628.224205 1073.026465 
L 628.224205 1074.952194 
L 625.180568 1076.766323 
L 628.224205 1078.690577 
L 628.224205 1080.520372 
L 653.587841 1082.393109 
L 628.224205 1084.168194 
L 628.224205 1086.12827 
L 649.529659 1087.589803 
L 628.224205 1089.00928 
L 628.224205 1090.399787 
L 624.166023 1091.897501 
L 623.151477 1093.336104 
L 620.107841 1094.770413 
L 618.07875 1096.251682 
L 618.07875 1097.703178 
L 615.035114 1099.151817 
L 583.584205 1102.043206 
L 551.11875 1103.487124 
L 549.089659 1104.971591 
L 529.813295 1106.387075 
L 529.813295 1110.7942 
L 549.089659 1112.23472 
L 549.089659 1113.724394 
L 582.569659 1116.670176 
L 582.569659 1125.433127 
L 577.496932 1126.857594 
L 575.467841 1128.35898 
L 565.322386 1131.096285 
L 556.191477 1132.595055 
L 541.987841 1134.047756 
L 539.95875 1136.746221 
L 528.79875 1138.188624 
L 525.755114 1139.648132 
L 521.696932 1141.072569 
L 504.449659 1142.466934 
L 504.449659 1143.996604 
L 490.246023 1145.399143 
L 490.246023 1148.190746 
L 485.173295 1149.709012 
L 475.027841 1151.057503 
L 475.027841 1152.363422 
L 431.402386 1153.731855 
L 401.980568 1156.326696 
L 390.820568 1157.784321 
L 375.602386 1159.255754 
L 375.602386 1163.065813 
L 386.762386 1164.439874 
L 390.820568 1165.694983 
L 390.820568 1166.915786 
L 410.096932 1169.713337 
L 410.096932 1178.072349 
L 395.893295 1179.273872 
L 394.87875 1181.92838 
L 393.864205 1183.104945 
L 389.806023 1184.264682 
L 375.602386 1185.687094 
L 370.529659 1186.922168 
L 336.035114 1188.196128 
L 332.991477 1189.452032 
L 323.860568 1190.776633 
L 319.802386 1192.0511 
L 319.802386 1194.367854 
L 323.860568 1198.170471 
L 323.860568 1199.399507 
L 332.991477 1201.929034 
L 328.426023 1203.318335 
L 332.991477 1204.630128 
L 335.527841 1205.940625 
L 335.527841 1205.940625 
" clip-path="url(#pff7b35aa09)" style="fill: none; stroke: #000000; stroke-width: 1.5; stroke-linecap: square"/>
   </g>
   <g id="text_19">
    <!-- Rolling median filter  |  window = 11 pts -->
    <g style="fill: #777777" transform="translate(228.609141 1227.956953) scale(0.143 -0.143)">
     <defs>
      <path id="DejaVuSans-Oblique-52" d="M 1613 4147 
L 1294 2491 
L 2106 2491 
Q 2584 2491 2879 2755 
Q 3175 3019 3175 3444 
Q 3175 3784 2976 3965 
Q 2778 4147 2406 4147 
L 1613 4147 
z
M 2772 2241 
Q 2972 2194 3105 2009 
Q 3238 1825 3413 1275 
L 3809 0 
L 3144 0 
L 2778 1197 
Q 2638 1659 2453 1815 
Q 2269 1972 1888 1972 
L 1191 1972 
L 806 0 
L 172 0 
L 1081 4666 
L 2503 4666 
Q 3150 4666 3495 4373 
Q 3841 4081 3841 3531 
Q 3841 3044 3547 2687 
Q 3253 2331 2772 2241 
z
" transform="scale(0.015625)"/>
      <path id="DejaVuSans-Oblique-6f" d="M 1625 -91 
Q 1009 -91 651 289 
Q 294 669 294 1325 
Q 294 1706 417 2101 
Q 541 2497 738 2766 
Q 1047 3184 1428 3384 
Q 1809 3584 2291 3584 
Q 2888 3584 3255 3212 
Q 3622 2841 3622 2241 
Q 3622 1825 3500 1412 
Q 3378 1000 3181 728 
Q 2875 309 2494 109 
Q 2113 -91 1625 -91 
z
M 891 1344 
Q 891 869 1089 633 
Q 1288 397 1691 397 
Q 2269 397 2648 901 
Q 3028 1406 3028 2181 
Q 3028 2634 2825 2865 
Q 2622 3097 2228 3097 
Q 1903 3097 1650 2945 
Q 1397 2794 1197 2484 
Q 1050 2253 970 1956 
Q 891 1659 891 1344 
z
" transform="scale(0.015625)"/>
      <path id="DejaVuSans-Oblique-6c" d="M 1172 4863 
L 1747 4863 
L 800 0 
L 225 0 
L 1172 4863 
z
" transform="scale(0.015625)"/>
      <path id="DejaVuSans-Oblique-69" d="M 1172 4863 
L 1747 4863 
L 1606 4134 
L 1031 4134 
L 1172 4863 
z
M 909 3500 
L 1484 3500 
L 800 0 
L 225 0 
L 909 3500 
z
" transform="scale(0.015625)"/>
      <path id="DejaVuSans-Oblique-6e" d="M 3566 2113 
L 3156 0 
L 2578 0 
L 2988 2091 
Q 3016 2238 3031 2350 
Q 3047 2463 3047 2528 
Q 3047 2791 2881 2937 
Q 2716 3084 2419 3084 
Q 1956 3084 1622 2776 
Q 1288 2469 1184 1941 
L 800 0 
L 225 0 
L 903 3500 
L 1478 3500 
L 1363 2950 
Q 1603 3253 1940 3418 
Q 2278 3584 2650 3584 
Q 3113 3584 3367 3334 
Q 3622 3084 3622 2631 
Q 3622 2519 3608 2391 
Q 3594 2263 3566 2113 
z
" transform="scale(0.015625)"/>
      <path id="DejaVuSans-Oblique-67" d="M 3816 3500 
L 3219 434 
Q 3047 -456 2561 -893 
Q 2075 -1331 1253 -1331 
Q 950 -1331 690 -1286 
Q 431 -1241 206 -1147 
L 313 -588 
Q 525 -725 762 -790 
Q 1000 -856 1269 -856 
Q 1816 -856 2167 -557 
Q 2519 -259 2631 300 
L 2681 563 
Q 2441 288 2122 144 
Q 1803 0 1434 0 
Q 903 0 598 351 
Q 294 703 294 1319 
Q 294 1803 478 2267 
Q 663 2731 997 3091 
Q 1219 3328 1514 3456 
Q 1809 3584 2131 3584 
Q 2484 3584 2746 3420 
Q 3009 3256 3138 2956 
L 3238 3500 
L 3816 3500 
z
M 2950 2216 
Q 2950 2641 2750 2872 
Q 2550 3103 2181 3103 
Q 1953 3103 1747 3012 
Q 1541 2922 1394 2759 
Q 1156 2491 1023 2127 
Q 891 1763 891 1375 
Q 891 944 1092 712 
Q 1294 481 1672 481 
Q 2219 481 2584 976 
Q 2950 1472 2950 2216 
z
" transform="scale(0.015625)"/>
      <path id="DejaVuSans-Oblique-20" transform="scale(0.015625)"/>
      <path id="DejaVuSans-Oblique-6d" d="M 5747 2113 
L 5338 0 
L 4763 0 
L 5166 2094 
Q 5191 2228 5203 2325 
Q 5216 2422 5216 2491 
Q 5216 2772 5059 2928 
Q 4903 3084 4622 3084 
Q 4203 3084 3875 2770 
Q 3547 2456 3450 1953 
L 3066 0 
L 2491 0 
L 2900 2094 
Q 2925 2209 2937 2307 
Q 2950 2406 2950 2484 
Q 2950 2769 2794 2926 
Q 2638 3084 2363 3084 
Q 1938 3084 1609 2770 
Q 1281 2456 1184 1953 
L 800 0 
L 225 0 
L 909 3500 
L 1484 3500 
L 1375 2956 
Q 1609 3263 1923 3423 
Q 2238 3584 2597 3584 
Q 2978 3584 3223 3384 
Q 3469 3184 3519 2828 
Q 3781 3197 4126 3390 
Q 4472 3584 4856 3584 
Q 5306 3584 5551 3325 
Q 5797 3066 5797 2591 
Q 5797 2488 5784 2364 
Q 5772 2241 5747 2113 
z
" transform="scale(0.015625)"/>
      <path id="DejaVuSans-Oblique-65" d="M 3078 2063 
Q 3088 2113 3092 2166 
Q 3097 2219 3097 2272 
Q 3097 2653 2873 2875 
Q 2650 3097 2266 3097 
Q 1838 3097 1509 2826 
Q 1181 2556 1013 2059 
L 3078 2063 
z
M 3578 1613 
L 903 1613 
Q 884 1494 878 1425 
Q 872 1356 872 1306 
Q 872 872 1139 634 
Q 1406 397 1894 397 
Q 2269 397 2603 481 
Q 2938 566 3225 728 
L 3116 159 
Q 2806 34 2476 -28 
Q 2147 -91 1806 -91 
Q 1078 -91 686 257 
Q 294 606 294 1247 
Q 294 1794 489 2264 
Q 684 2734 1063 3103 
Q 1306 3334 1642 3459 
Q 1978 3584 2356 3584 
Q 2950 3584 3301 3228 
Q 3653 2872 3653 2272 
Q 3653 2128 3634 1964 
Q 3616 1800 3578 1613 
z
" transform="scale(0.015625)"/>
      <path id="DejaVuSans-Oblique-64" d="M 2675 525 
Q 2444 222 2128 65 
Q 1813 -91 1428 -91 
Q 903 -91 598 267 
Q 294 625 294 1247 
Q 294 1766 478 2236 
Q 663 2706 1013 3078 
Q 1244 3325 1534 3454 
Q 1825 3584 2144 3584 
Q 2481 3584 2739 3421 
Q 2997 3259 3138 2956 
L 3513 4863 
L 4091 4863 
L 3144 0 
L 2566 0 
L 2675 525 
z
M 891 1350 
Q 891 897 1095 644 
Q 1300 391 1663 391 
Q 1931 391 2161 520 
Q 2391 650 2566 903 
Q 2750 1166 2856 1509 
Q 2963 1853 2963 2188 
Q 2963 2622 2758 2865 
Q 2553 3109 2194 3109 
Q 1922 3109 1687 2981 
Q 1453 2853 1288 2613 
Q 1106 2353 998 2009 
Q 891 1666 891 1350 
z
" transform="scale(0.015625)"/>
      <path id="DejaVuSans-Oblique-61" d="M 3438 1997 
L 3047 0 
L 2472 0 
L 2578 531 
Q 2325 219 2001 64 
Q 1678 -91 1281 -91 
Q 834 -91 548 182 
Q 263 456 263 884 
Q 263 1497 752 1853 
Q 1241 2209 2100 2209 
L 2900 2209 
L 2931 2363 
Q 2938 2388 2941 2417 
Q 2944 2447 2944 2509 
Q 2944 2788 2717 2942 
Q 2491 3097 2081 3097 
Q 1800 3097 1504 3025 
Q 1209 2953 897 2809 
L 997 3341 
Q 1322 3463 1633 3523 
Q 1944 3584 2234 3584 
Q 2853 3584 3176 3315 
Q 3500 3047 3500 2534 
Q 3500 2431 3484 2292 
Q 3469 2153 3438 1997 
z
M 2816 1759 
L 2241 1759 
Q 1534 1759 1195 1570 
Q 856 1381 856 984 
Q 856 709 1029 553 
Q 1203 397 1509 397 
Q 1978 397 2328 733 
Q 2678 1069 2791 1631 
L 2816 1759 
z
" transform="scale(0.015625)"/>
      <path id="DejaVuSans-Oblique-66" d="M 3059 4863 
L 2969 4384 
L 2419 4384 
Q 2106 4384 1964 4261 
Q 1822 4138 1753 3809 
L 1691 3500 
L 2638 3500 
L 2553 3053 
L 1606 3053 
L 1013 0 
L 434 0 
L 1031 3053 
L 481 3053 
L 563 3500 
L 1113 3500 
L 1159 3744 
Q 1278 4363 1576 4613 
Q 1875 4863 2516 4863 
L 3059 4863 
z
" transform="scale(0.015625)"/>
      <path id="DejaVuSans-Oblique-74" d="M 2706 3500 
L 2619 3053 
L 1472 3053 
L 1100 1153 
Q 1081 1047 1072 975 
Q 1063 903 1063 863 
Q 1063 663 1183 572 
Q 1303 481 1569 481 
L 2150 481 
L 2053 0 
L 1503 0 
Q 991 0 739 200 
Q 488 400 488 806 
Q 488 878 497 964 
Q 506 1050 525 1153 
L 897 3053 
L 409 3053 
L 500 3500 
L 978 3500 
L 1172 4494 
L 1747 4494 
L 1556 3500 
L 2706 3500 
z
" transform="scale(0.015625)"/>
      <path id="DejaVuSans-Oblique-72" d="M 2853 2969 
Q 2766 3016 2653 3041 
Q 2541 3066 2413 3066 
Q 1953 3066 1609 2717 
Q 1266 2369 1153 1784 
L 800 0 
L 225 0 
L 909 3500 
L 1484 3500 
L 1375 2956 
Q 1603 3259 1920 3421 
Q 2238 3584 2597 3584 
Q 2691 3584 2781 3573 
Q 2872 3563 2963 3538 
L 2853 2969 
z
" transform="scale(0.015625)"/>
      <path id="DejaVuSans-Oblique-7c" d="M 1344 4891 
L 1344 -1509 
L 813 -1509 
L 813 4891 
L 1344 4891 
z
" transform="scale(0.015625)"/>
      <path id="DejaVuSans-Oblique-77" d="M 544 3500 
L 1113 3500 
L 1259 684 
L 2566 3500 
L 3231 3500 
L 3425 684 
L 4666 3500 
L 5241 3500 
L 3641 0 
L 2969 0 
L 2797 2900 
L 1459 0 
L 781 0 
L 544 3500 
z
" transform="scale(0.015625)"/>
      <path id="DejaVuSans-Oblique-3d" d="M 678 2906 
L 4684 2906 
L 4684 2381 
L 678 2381 
L 678 2906 
z
M 678 1631 
L 4684 1631 
L 4684 1100 
L 678 1100 
L 678 1631 
z
" transform="scale(0.015625)"/>
      <path id="DejaVuSans-Oblique-31" d="M 416 531 
L 1447 531 
L 2144 4122 
L 978 3897 
L 1088 4441 
L 2247 4666 
L 2881 4666 
L 2075 531 
L 3103 531 
L 3003 0 
L 313 0 
L 416 531 
z
" transform="scale(0.015625)"/>
      <path id="DejaVuSans-Oblique-70" d="M 3175 2156 
Q 3175 2616 2975 2859 
Q 2775 3103 2400 3103 
Q 2144 3103 1911 2972 
Q 1678 2841 1497 2591 
Q 1319 2344 1212 1994 
Q 1106 1644 1106 1300 
Q 1106 863 1306 627 
Q 1506 391 1875 391 
Q 2147 391 2380 519 
Q 2613 647 2778 891 
Q 2956 1147 3065 1494 
Q 3175 1841 3175 2156 
z
M 1394 2969 
Q 1625 3272 1939 3428 
Q 2253 3584 2638 3584 
Q 3175 3584 3472 3232 
Q 3769 2881 3769 2247 
Q 3769 1728 3584 1258 
Q 3400 788 3053 416 
Q 2822 169 2531 39 
Q 2241 -91 1919 -91 
Q 1547 -91 1294 64 
Q 1041 219 916 525 
L 556 -1331 
L -19 -1331 
L 922 3500 
L 1497 3500 
L 1394 2969 
z
" transform="scale(0.015625)"/>
      <path id="DejaVuSans-Oblique-73" d="M 3200 3397 
L 3091 2853 
Q 2863 2978 2609 3040 
Q 2356 3103 2088 3103 
Q 1634 3103 1373 2948 
Q 1113 2794 1113 2528 
Q 1113 2219 1719 2053 
Q 1766 2041 1788 2034 
L 1972 1978 
Q 2547 1819 2739 1644 
Q 2931 1469 2931 1166 
Q 2931 609 2489 259 
Q 2047 -91 1331 -91 
Q 1053 -91 747 -37 
Q 441 16 72 128 
L 184 722 
Q 500 559 806 475 
Q 1113 391 1394 391 
Q 1816 391 2080 572 
Q 2344 753 2344 1031 
Q 2344 1331 1650 1516 
L 1591 1531 
L 1394 1581 
Q 956 1697 753 1886 
Q 550 2075 550 2369 
Q 550 2928 970 3256 
Q 1391 3584 2113 3584 
Q 2397 3584 2667 3537 
Q 2938 3491 3200 3397 
z
" transform="scale(0.015625)"/>
     </defs>
     <use xlink:href="#DejaVuSans-Oblique-52"/>
     <use xlink:href="#DejaVuSans-Oblique-6f" x="69.482422"/>
     <use xlink:href="#DejaVuSans-Oblique-6c" x="130.664062"/>
     <use xlink:href="#DejaVuSans-Oblique-6c" x="158.447266"/>
     <use xlink:href="#DejaVuSans-Oblique-69" x="186.230469"/>
     <use xlink:href="#DejaVuSans-Oblique-6e" x="214.013672"/>
     <use xlink:href="#DejaVuSans-Oblique-67" x="277.392578"/>
     <use xlink:href="#DejaVuSans-Oblique-20" x="340.869141"/>
     <use xlink:href="#DejaVuSans-Oblique-6d" x="372.65625"/>
     <use xlink:href="#DejaVuSans-Oblique-65" x="470.068359"/>
     <use xlink:href="#DejaVuSans-Oblique-64" x="531.591797"/>
     <use xlink:href="#DejaVuSans-Oblique-69" x="595.068359"/>
     <use xlink:href="#DejaVuSans-Oblique-61" x="622.851562"/>
     <use xlink:href="#DejaVuSans-Oblique-6e" x="684.130859"/>
     <use xlink:href="#DejaVuSans-Oblique-20" x="747.509766"/>
     <use xlink:href="#DejaVuSans-Oblique-66" x="779.296875"/>
     <use xlink:href="#DejaVuSans-Oblique-69" x="814.501953"/>
     <use xlink:href="#DejaVuSans-Oblique-6c" x="842.285156"/>
     <use xlink:href="#DejaVuSans-Oblique-74" x="870.068359"/>
     <use xlink:href="#DejaVuSans-Oblique-65" x="909.277344"/>
     <use xlink:href="#DejaVuSans-Oblique-72" x="970.800781"/>
     <use xlink:href="#DejaVuSans-Oblique-20" x="1011.914062"/>
     <use xlink:href="#DejaVuSans-Oblique-20" x="1043.701172"/>
     <use xlink:href="#DejaVuSans-Oblique-7c" x="1075.488281"/>
     <use xlink:href="#DejaVuSans-Oblique-20" x="1109.179688"/>
     <use xlink:href="#DejaVuSans-Oblique-20" x="1140.966797"/>
     <use xlink:href="#DejaVuSans-Oblique-77" x="1172.753906"/>
     <use xlink:href="#DejaVuSans-Oblique-69" x="1254.541016"/>
     <use xlink:href="#DejaVuSans-Oblique-6e" x="1282.324219"/>
     <use xlink:href="#DejaVuSans-Oblique-64" x="1345.703125"/>
     <use xlink:href="#DejaVuSans-Oblique-6f" x="1409.179688"/>
     <use xlink:href="#DejaVuSans-Oblique-77" x="1470.361328"/>
     <use xlink:href="#DejaVuSans-Oblique-20" x="1552.148438"/>
     <use xlink:href="#DejaVuSans-Oblique-3d" x="1583.935547"/>
     <use xlink:href="#DejaVuSans-Oblique-20" x="1667.724609"/>
     <use xlink:href="#DejaVuSans-Oblique-31" x="1699.511719"/>
     <use xlink:href="#DejaVuSans-Oblique-31" x="1763.134766"/>
     <use xlink:href="#DejaVuSans-Oblique-20" x="1826.757812"/>
     <use xlink:href="#DejaVuSans-Oblique-70" x="1858.544922"/>
     <use xlink:href="#DejaVuSans-Oblique-74" x="1922.021484"/>
     <use xlink:href="#DejaVuSans-Oblique-73" x="1961.230469"/>
    </g>
   </g>
   <g id="text_20">
    <!-- SISAL – Botuverá cave -->
    <g transform="translate(210.022188 26.955938) scale(0.26 -0.26)">
     <defs>
      <path id="DejaVuSans-Bold-4c" d="M 588 4666 
L 1791 4666 
L 1791 909 
L 3903 909 
L 3903 0 
L 588 0 
L 588 4666 
z
" transform="scale(0.015625)"/>
      <path id="DejaVuSans-Bold-2013" d="M 344 2156 
L 2856 2156 
L 2856 1350 
L 344 1350 
L 344 2156 
z
" transform="scale(0.015625)"/>
      <path id="DejaVuSans-Bold-6f" d="M 2203 2784 
Q 1831 2784 1636 2517 
Q 1441 2250 1441 1747 
Q 1441 1244 1636 976 
Q 1831 709 2203 709 
Q 2569 709 2762 976 
Q 2956 1244 2956 1747 
Q 2956 2250 2762 2517 
Q 2569 2784 2203 2784 
z
M 2203 3584 
Q 3106 3584 3614 3096 
Q 4122 2609 4122 1747 
Q 4122 884 3614 396 
Q 3106 -91 2203 -91 
Q 1297 -91 786 396 
Q 275 884 275 1747 
Q 275 2609 786 3096 
Q 1297 3584 2203 3584 
z
" transform="scale(0.015625)"/>
      <path id="DejaVuSans-Bold-74" d="M 1759 4494 
L 1759 3500 
L 2913 3500 
L 2913 2700 
L 1759 2700 
L 1759 1216 
Q 1759 972 1856 886 
Q 1953 800 2241 800 
L 2816 800 
L 2816 0 
L 1856 0 
Q 1194 0 917 276 
Q 641 553 641 1216 
L 641 2700 
L 84 2700 
L 84 3500 
L 641 3500 
L 641 4494 
L 1759 4494 
z
" transform="scale(0.015625)"/>
      <path id="DejaVuSans-Bold-75" d="M 500 1363 
L 500 3500 
L 1625 3500 
L 1625 3150 
Q 1625 2866 1622 2436 
Q 1619 2006 1619 1863 
Q 1619 1441 1641 1255 
Q 1663 1069 1716 984 
Q 1784 875 1895 815 
Q 2006 756 2150 756 
Q 2500 756 2700 1025 
Q 2900 1294 2900 1772 
L 2900 3500 
L 4019 3500 
L 4019 0 
L 2900 0 
L 2900 506 
Q 2647 200 2364 54 
Q 2081 -91 1741 -91 
Q 1134 -91 817 281 
Q 500 653 500 1363 
z
" transform="scale(0.015625)"/>
      <path id="DejaVuSans-Bold-76" d="M 97 3500 
L 1216 3500 
L 2088 1081 
L 2956 3500 
L 4078 3500 
L 2700 0 
L 1472 0 
L 97 3500 
z
" transform="scale(0.015625)"/>
      <path id="DejaVuSans-Bold-72" d="M 3138 2547 
Q 2991 2616 2845 2648 
Q 2700 2681 2553 2681 
Q 2122 2681 1889 2404 
Q 1656 2128 1656 1613 
L 1656 0 
L 538 0 
L 538 3500 
L 1656 3500 
L 1656 2925 
Q 1872 3269 2151 3426 
Q 2431 3584 2822 3584 
Q 2878 3584 2943 3579 
Q 3009 3575 3134 3559 
L 3138 2547 
z
" transform="scale(0.015625)"/>
      <path id="DejaVuSans-Bold-e1" d="M 2106 1575 
Q 1756 1575 1579 1456 
Q 1403 1338 1403 1106 
Q 1403 894 1545 773 
Q 1688 653 1941 653 
Q 2256 653 2472 879 
Q 2688 1106 2688 1447 
L 2688 1575 
L 2106 1575 
z
M 3816 1997 
L 3816 0 
L 2688 0 
L 2688 519 
Q 2463 200 2181 54 
Q 1900 -91 1497 -91 
Q 953 -91 614 226 
Q 275 544 275 1050 
Q 275 1666 698 1953 
Q 1122 2241 2028 2241 
L 2688 2241 
L 2688 2328 
Q 2688 2594 2478 2717 
Q 2269 2841 1825 2841 
Q 1466 2841 1156 2769 
Q 847 2697 581 2553 
L 581 3406 
Q 941 3494 1303 3539 
Q 1666 3584 2028 3584 
Q 2975 3584 3395 3211 
Q 3816 2838 3816 1997 
z
M 2606 5119 
L 3490 5119 
L 2337 3944 
L 1725 3944 
L 2606 5119 
z
" transform="scale(0.015625)"/>
      <path id="DejaVuSans-Bold-63" d="M 3366 3391 
L 3366 2478 
Q 3138 2634 2908 2709 
Q 2678 2784 2431 2784 
Q 1963 2784 1702 2511 
Q 1441 2238 1441 1747 
Q 1441 1256 1702 982 
Q 1963 709 2431 709 
Q 2694 709 2930 787 
Q 3166 866 3366 1019 
L 3366 103 
Q 3103 6 2833 -42 
Q 2563 -91 2291 -91 
Q 1344 -91 809 395 
Q 275 881 275 1747 
Q 275 2613 809 3098 
Q 1344 3584 2291 3584 
Q 2566 3584 2833 3536 
Q 3100 3488 3366 3391 
z
" transform="scale(0.015625)"/>
     </defs>
     <use xlink:href="#DejaVuSans-Bold-53"/>
     <use xlink:href="#DejaVuSans-Bold-49" x="72.021484"/>
     <use xlink:href="#DejaVuSans-Bold-53" x="109.228516"/>
     <use xlink:href="#DejaVuSans-Bold-41" x="181.25"/>
     <use xlink:href="#DejaVuSans-Bold-4c" x="258.642578"/>
     <use xlink:href="#DejaVuSans-Bold-20" x="322.363281"/>
     <use xlink:href="#DejaVuSans-Bold-2013" x="357.177734"/>
     <use xlink:href="#DejaVuSans-Bold-20" x="407.177734"/>
     <use xlink:href="#DejaVuSans-Bold-42" x="441.992188"/>
     <use xlink:href="#DejaVuSans-Bold-6f" x="518.212891"/>
     <use xlink:href="#DejaVuSans-Bold-74" x="586.914062"/>
     <use xlink:href="#DejaVuSans-Bold-75" x="634.716797"/>
     <use xlink:href="#DejaVuSans-Bold-76" x="705.908203"/>
     <use xlink:href="#DejaVuSans-Bold-65" x="771.09375"/>
     <use xlink:href="#DejaVuSans-Bold-72" x="838.916016"/>
     <use xlink:href="#DejaVuSans-Bold-e1" x="888.232422"/>
     <use xlink:href="#DejaVuSans-Bold-20" x="955.712891"/>
     <use xlink:href="#DejaVuSans-Bold-63" x="990.527344"/>
     <use xlink:href="#DejaVuSans-Bold-61" x="1049.804688"/>
     <use xlink:href="#DejaVuSans-Bold-76" x="1117.285156"/>
     <use xlink:href="#DejaVuSans-Bold-65" x="1182.470703"/>
    </g>
   </g>
  </g>
 </g>
 <defs>
  <clipPath id="pff7b35aa09">
   <rect x="93.55875" y="97.140625" width="558" height="1108.8"/>
  </clipPath>
 </defs>
</svg>
