<?xml version="1.0" encoding="utf-8" standalone="no"?>
<!DOCTYPE svg PUBLIC "-//W3C//DTD SVG 1.1//EN"
  "http://www.w3.org/Graphics/SVG/1.1/DTD/svg11.dtd">
<svg xmlns:xlink="http://www.w3.org/1999/xlink" width="698.457301pt" height="1807.959344pt" viewBox="0 0 698.457301 1807.959344" xmlns="http://www.w3.org/2000/svg" version="1.1">
 <metadata>
  <rdf:RDF xmlns:dc="http://purl.org/dc/elements/1.1/" xmlns:cc="http://creativecommons.org/ns#" xmlns:rdf="http://www.w3.org/1999/02/22-rdf-syntax-ns#">
   <cc:Work>
    <dc:type rdf:resource="http://purl.org/dc/dcmitype/StillImage"/>
    <dc:date>2026-02-28T12:30:32.106708</dc:date>
    <dc:format>image/svg+xml</dc:format>
    <dc:creator>
     <cc:Agent>
      <dc:title>Matplotlib v3.9.2, https://matplotlib.org/</dc:title>
     </cc:Agent>
    </dc:creator>
   </cc:Work>
  </rdf:RDF>
 </metadata>
 <defs>
  <style type="text/css">*{stroke-linejoin: round; stroke-linecap: butt}</style>
 </defs>
 <g id="figure_1">
  <g id="patch_1">
   <path d="M 0 1807.959344 
L 698.457301 1807.959344 
L 698.457301 0 
L 0 0 
z
" style="fill: #ffffff"/>
  </g>
  <g id="axes_1">
   <g id="patch_2">
    <path d="M 121.404375 1768.158437 
L 679.404375 1768.158437 
L 679.404375 104.958437 
L 121.404375 104.958437 
z
" style="fill: #ffffff"/>
   </g>
   <g id="matplotlib.axis_1">
    <g id="xtick_1">
     <g id="line2d_1">
      <defs>
       <path id="m88d7d55f3d" d="M 0 0 
L 0 -3.5 
" style="stroke: #000000; stroke-width: 0.8"/>
      </defs>
      <g>
       <use xlink:href="#m88d7d55f3d" x="146.768011" y="104.958437" style="stroke: #000000; stroke-width: 0.8"/>
      </g>
     </g>
     <g id="text_1">
      <!-- 300.0 -->
      <g transform="translate(109.551449 92.55125) scale(0.26 -0.26)">
       <defs>
        <path id="DejaVuSans-33" d="M 2597 2516 
Q 3050 2419 3304 2112 
Q 3559 1806 3559 1356 
Q 3559 666 3084 287 
Q 2609 -91 1734 -91 
Q 1441 -91 1130 -33 
Q 819 25 488 141 
L 488 750 
Q 750 597 1062 519 
Q 1375 441 1716 441 
Q 2309 441 2620 675 
Q 2931 909 2931 1356 
Q 2931 1769 2642 2001 
Q 2353 2234 1838 2234 
L 1294 2234 
L 1294 2753 
L 1863 2753 
Q 2328 2753 2575 2939 
Q 2822 3125 2822 3475 
Q 2822 3834 2567 4026 
Q 2313 4219 1838 4219 
Q 1578 4219 1281 4162 
Q 984 4106 628 3988 
L 628 4550 
Q 988 4650 1302 4700 
Q 1616 4750 1894 4750 
Q 2613 4750 3031 4423 
Q 3450 4097 3450 3541 
Q 3450 3153 3228 2886 
Q 3006 2619 2597 2516 
z
" transform="scale(0.015625)"/>
        <path id="DejaVuSans-30" d="M 2034 4250 
Q 1547 4250 1301 3770 
Q 1056 3291 1056 2328 
Q 1056 1369 1301 889 
Q 1547 409 2034 409 
Q 2525 409 2770 889 
Q 3016 1369 3016 2328 
Q 3016 3291 2770 3770 
Q 2525 4250 2034 4250 
z
M 2034 4750 
Q 2819 4750 3233 4129 
Q 3647 3509 3647 2328 
Q 3647 1150 3233 529 
Q 2819 -91 2034 -91 
Q 1250 -91 836 529 
Q 422 1150 422 2328 
Q 422 3509 836 4129 
Q 1250 4750 2034 4750 
z
" transform="scale(0.015625)"/>
        <path id="DejaVuSans-2e" d="M 684 794 
L 1344 794 
L 1344 0 
L 684 0 
L 684 794 
z
" transform="scale(0.015625)"/>
       </defs>
       <use xlink:href="#DejaVuSans-33"/>
       <use xlink:href="#DejaVuSans-30" x="63.623047"/>
       <use xlink:href="#DejaVuSans-30" x="127.246094"/>
       <use xlink:href="#DejaVuSans-2e" x="190.869141"/>
       <use xlink:href="#DejaVuSans-30" x="222.65625"/>
      </g>
     </g>
    </g>
    <g id="xtick_2">
     <g id="line2d_2">
      <g>
       <use xlink:href="#m88d7d55f3d" x="231.313466" y="104.958437" style="stroke: #000000; stroke-width: 0.8"/>
      </g>
     </g>
     <g id="text_2">
      <!-- 400.0 -->
      <g transform="translate(194.096903 92.55125) scale(0.26 -0.26)">
       <defs>
        <path id="DejaVuSans-34" d="M 2419 4116 
L 825 1625 
L 2419 1625 
L 2419 4116 
z
M 2253 4666 
L 3047 4666 
L 3047 1625 
L 3713 1625 
L 3713 1100 
L 3047 1100 
L 3047 0 
L 2419 0 
L 2419 1100 
L 313 1100 
L 313 1709 
L 2253 4666 
z
" transform="scale(0.015625)"/>
       </defs>
       <use xlink:href="#DejaVuSans-34"/>
       <use xlink:href="#DejaVuSans-30" x="63.623047"/>
       <use xlink:href="#DejaVuSans-30" x="127.246094"/>
       <use xlink:href="#DejaVuSans-2e" x="190.869141"/>
       <use xlink:href="#DejaVuSans-30" x="222.65625"/>
      </g>
     </g>
    </g>
    <g id="xtick_3">
     <g id="line2d_3">
      <g>
       <use xlink:href="#m88d7d55f3d" x="315.85892" y="104.958437" style="stroke: #000000; stroke-width: 0.8"/>
      </g>
     </g>
     <g id="text_3">
      <!-- 500.0 -->
      <g transform="translate(278.642358 92.55125) scale(0.26 -0.26)">
       <defs>
        <path id="DejaVuSans-35" d="M 691 4666 
L 3169 4666 
L 3169 4134 
L 1269 4134 
L 1269 2991 
Q 1406 3038 1543 3061 
Q 1681 3084 1819 3084 
Q 2600 3084 3056 2656 
Q 3513 2228 3513 1497 
Q 3513 744 3044 326 
Q 2575 -91 1722 -91 
Q 1428 -91 1123 -41 
Q 819 9 494 109 
L 494 744 
Q 775 591 1075 516 
Q 1375 441 1709 441 
Q 2250 441 2565 725 
Q 2881 1009 2881 1497 
Q 2881 1984 2565 2268 
Q 2250 2553 1709 2553 
Q 1456 2553 1204 2497 
Q 953 2441 691 2322 
L 691 4666 
z
" transform="scale(0.015625)"/>
       </defs>
       <use xlink:href="#DejaVuSans-35"/>
       <use xlink:href="#DejaVuSans-30" x="63.623047"/>
       <use xlink:href="#DejaVuSans-30" x="127.246094"/>
       <use xlink:href="#DejaVuSans-2e" x="190.869141"/>
       <use xlink:href="#DejaVuSans-30" x="222.65625"/>
      </g>
     </g>
    </g>
    <g id="xtick_4">
     <g id="line2d_4">
      <g>
       <use xlink:href="#m88d7d55f3d" x="400.404375" y="104.958437" style="stroke: #000000; stroke-width: 0.8"/>
      </g>
     </g>
     <g id="text_4">
      <!-- 600.0 -->
      <g transform="translate(363.187812 92.55125) scale(0.26 -0.26)">
       <defs>
        <path id="DejaVuSans-36" d="M 2113 2584 
Q 1688 2584 1439 2293 
Q 1191 2003 1191 1497 
Q 1191 994 1439 701 
Q 1688 409 2113 409 
Q 2538 409 2786 701 
Q 3034 994 3034 1497 
Q 3034 2003 2786 2293 
Q 2538 2584 2113 2584 
z
M 3366 4563 
L 3366 3988 
Q 3128 4100 2886 4159 
Q 2644 4219 2406 4219 
Q 1781 4219 1451 3797 
Q 1122 3375 1075 2522 
Q 1259 2794 1537 2939 
Q 1816 3084 2150 3084 
Q 2853 3084 3261 2657 
Q 3669 2231 3669 1497 
Q 3669 778 3244 343 
Q 2819 -91 2113 -91 
Q 1303 -91 875 529 
Q 447 1150 447 2328 
Q 447 3434 972 4092 
Q 1497 4750 2381 4750 
Q 2619 4750 2861 4703 
Q 3103 4656 3366 4563 
z
" transform="scale(0.015625)"/>
       </defs>
       <use xlink:href="#DejaVuSans-36"/>
       <use xlink:href="#DejaVuSans-30" x="63.623047"/>
       <use xlink:href="#DejaVuSans-30" x="127.246094"/>
       <use xlink:href="#DejaVuSans-2e" x="190.869141"/>
       <use xlink:href="#DejaVuSans-30" x="222.65625"/>
      </g>
     </g>
    </g>
    <g id="xtick_5">
     <g id="line2d_5">
      <g>
       <use xlink:href="#m88d7d55f3d" x="484.94983" y="104.958437" style="stroke: #000000; stroke-width: 0.8"/>
      </g>
     </g>
     <g id="text_5">
      <!-- 700.0 -->
      <g transform="translate(447.733267 92.55125) scale(0.26 -0.26)">
       <defs>
        <path id="DejaVuSans-37" d="M 525 4666 
L 3525 4666 
L 3525 4397 
L 1831 0 
L 1172 0 
L 2766 4134 
L 525 4134 
L 525 4666 
z
" transform="scale(0.015625)"/>
       </defs>
       <use xlink:href="#DejaVuSans-37"/>
       <use xlink:href="#DejaVuSans-30" x="63.623047"/>
       <use xlink:href="#DejaVuSans-30" x="127.246094"/>
       <use xlink:href="#DejaVuSans-2e" x="190.869141"/>
       <use xlink:href="#DejaVuSans-30" x="222.65625"/>
      </g>
     </g>
    </g>
    <g id="xtick_6">
     <g id="line2d_6">
      <g>
       <use xlink:href="#m88d7d55f3d" x="569.495284" y="104.958437" style="stroke: #000000; stroke-width: 0.8"/>
      </g>
     </g>
     <g id="text_6">
      <!-- 800.0 -->
      <g transform="translate(532.278722 92.55125) scale(0.26 -0.26)">
       <defs>
        <path id="DejaVuSans-38" d="M 2034 2216 
Q 1584 2216 1326 1975 
Q 1069 1734 1069 1313 
Q 1069 891 1326 650 
Q 1584 409 2034 409 
Q 2484 409 2743 651 
Q 3003 894 3003 1313 
Q 3003 1734 2745 1975 
Q 2488 2216 2034 2216 
z
M 1403 2484 
Q 997 2584 770 2862 
Q 544 3141 544 3541 
Q 544 4100 942 4425 
Q 1341 4750 2034 4750 
Q 2731 4750 3128 4425 
Q 3525 4100 3525 3541 
Q 3525 3141 3298 2862 
Q 3072 2584 2669 2484 
Q 3125 2378 3379 2068 
Q 3634 1759 3634 1313 
Q 3634 634 3220 271 
Q 2806 -91 2034 -91 
Q 1263 -91 848 271 
Q 434 634 434 1313 
Q 434 1759 690 2068 
Q 947 2378 1403 2484 
z
M 1172 3481 
Q 1172 3119 1398 2916 
Q 1625 2713 2034 2713 
Q 2441 2713 2670 2916 
Q 2900 3119 2900 3481 
Q 2900 3844 2670 4047 
Q 2441 4250 2034 4250 
Q 1625 4250 1398 4047 
Q 1172 3844 1172 3481 
z
" transform="scale(0.015625)"/>
       </defs>
       <use xlink:href="#DejaVuSans-38"/>
       <use xlink:href="#DejaVuSans-30" x="63.623047"/>
       <use xlink:href="#DejaVuSans-30" x="127.246094"/>
       <use xlink:href="#DejaVuSans-2e" x="190.869141"/>
       <use xlink:href="#DejaVuSans-30" x="222.65625"/>
      </g>
     </g>
    </g>
    <g id="xtick_7">
     <g id="line2d_7">
      <g>
       <use xlink:href="#m88d7d55f3d" x="654.040739" y="104.958437" style="stroke: #000000; stroke-width: 0.8"/>
      </g>
     </g>
     <g id="text_7">
      <!-- 900.0 -->
      <g transform="translate(616.824176 92.55125) scale(0.26 -0.26)">
       <defs>
        <path id="DejaVuSans-39" d="M 703 97 
L 703 672 
Q 941 559 1184 500 
Q 1428 441 1663 441 
Q 2288 441 2617 861 
Q 2947 1281 2994 2138 
Q 2813 1869 2534 1725 
Q 2256 1581 1919 1581 
Q 1219 1581 811 2004 
Q 403 2428 403 3163 
Q 403 3881 828 4315 
Q 1253 4750 1959 4750 
Q 2769 4750 3195 4129 
Q 3622 3509 3622 2328 
Q 3622 1225 3098 567 
Q 2575 -91 1691 -91 
Q 1453 -91 1209 -44 
Q 966 3 703 97 
z
M 1959 2075 
Q 2384 2075 2632 2365 
Q 2881 2656 2881 3163 
Q 2881 3666 2632 3958 
Q 2384 4250 1959 4250 
Q 1534 4250 1286 3958 
Q 1038 3666 1038 3163 
Q 1038 2656 1286 2365 
Q 1534 2075 1959 2075 
z
" transform="scale(0.015625)"/>
       </defs>
       <use xlink:href="#DejaVuSans-39"/>
       <use xlink:href="#DejaVuSans-30" x="63.623047"/>
       <use xlink:href="#DejaVuSans-30" x="127.246094"/>
       <use xlink:href="#DejaVuSans-2e" x="190.869141"/>
       <use xlink:href="#DejaVuSans-30" x="222.65625"/>
      </g>
     </g>
    </g>
    <g id="text_8">
     <!-- $\mathbf{CH}_{\mathbf{4}}\ \mathbf{[ppbv]}$ -->
     <g transform="translate(308.304375 60.795312) scale(0.3 -0.3)">
      <defs>
       <path id="DejaVuSans-Bold-43" d="M 4288 256 
Q 3956 84 3597 -3 
Q 3238 -91 2847 -91 
Q 1681 -91 1000 561 
Q 319 1213 319 2328 
Q 319 3447 1000 4098 
Q 1681 4750 2847 4750 
Q 3238 4750 3597 4662 
Q 3956 4575 4288 4403 
L 4288 3438 
Q 3953 3666 3628 3772 
Q 3303 3878 2944 3878 
Q 2300 3878 1931 3465 
Q 1563 3053 1563 2328 
Q 1563 1606 1931 1193 
Q 2300 781 2944 781 
Q 3303 781 3628 887 
Q 3953 994 4288 1222 
L 4288 256 
z
" transform="scale(0.015625)"/>
       <path id="DejaVuSans-Bold-48" d="M 588 4666 
L 1791 4666 
L 1791 2888 
L 3566 2888 
L 3566 4666 
L 4769 4666 
L 4769 0 
L 3566 0 
L 3566 1978 
L 1791 1978 
L 1791 0 
L 588 0 
L 588 4666 
z
" transform="scale(0.015625)"/>
       <path id="DejaVuSans-Bold-34" d="M 2356 3675 
L 1038 1722 
L 2356 1722 
L 2356 3675 
z
M 2156 4666 
L 3494 4666 
L 3494 1722 
L 4159 1722 
L 4159 850 
L 3494 850 
L 3494 0 
L 2356 0 
L 2356 850 
L 288 850 
L 288 1881 
L 2156 4666 
z
" transform="scale(0.015625)"/>
       <path id="DejaVuSans-Bold-5b" d="M 550 4863 
L 2491 4863 
L 2491 4159 
L 1613 4159 
L 1613 -141 
L 2491 -141 
L 2491 -844 
L 550 -844 
L 550 4863 
z
" transform="scale(0.015625)"/>
       <path id="DejaVuSans-Bold-70" d="M 1656 506 
L 1656 -1331 
L 538 -1331 
L 538 3500 
L 1656 3500 
L 1656 2988 
Q 1888 3294 2169 3439 
Q 2450 3584 2816 3584 
Q 3463 3584 3878 3070 
Q 4294 2556 4294 1747 
Q 4294 938 3878 423 
Q 3463 -91 2816 -91 
Q 2450 -91 2169 54 
Q 1888 200 1656 506 
z
M 2400 2772 
Q 2041 2772 1848 2508 
Q 1656 2244 1656 1747 
Q 1656 1250 1848 986 
Q 2041 722 2400 722 
Q 2759 722 2948 984 
Q 3138 1247 3138 1747 
Q 3138 2247 2948 2509 
Q 2759 2772 2400 2772 
z
" transform="scale(0.015625)"/>
       <path id="DejaVuSans-Bold-62" d="M 2400 722 
Q 2759 722 2948 984 
Q 3138 1247 3138 1747 
Q 3138 2247 2948 2509 
Q 2759 2772 2400 2772 
Q 2041 2772 1848 2508 
Q 1656 2244 1656 1747 
Q 1656 1250 1848 986 
Q 2041 722 2400 722 
z
M 1656 2988 
Q 1888 3294 2169 3439 
Q 2450 3584 2816 3584 
Q 3463 3584 3878 3070 
Q 4294 2556 4294 1747 
Q 4294 938 3878 423 
Q 3463 -91 2816 -91 
Q 2450 -91 2169 54 
Q 1888 200 1656 506 
L 1656 0 
L 538 0 
L 538 4863 
L 1656 4863 
L 1656 2988 
z
" transform="scale(0.015625)"/>
       <path id="DejaVuSans-Bold-76" d="M 97 3500 
L 1216 3500 
L 2088 1081 
L 2956 3500 
L 4078 3500 
L 2700 0 
L 1472 0 
L 97 3500 
z
" transform="scale(0.015625)"/>
       <path id="DejaVuSans-Bold-5d" d="M 2375 -844 
L 434 -844 
L 434 -141 
L 1313 -141 
L 1313 4159 
L 434 4159 
L 434 4863 
L 2375 4863 
L 2375 -844 
z
" transform="scale(0.015625)"/>
      </defs>
      <use xlink:href="#DejaVuSans-Bold-43" transform="translate(0 0.015625)"/>
      <use xlink:href="#DejaVuSans-Bold-48" transform="translate(73.388672 0.015625)"/>
      <use xlink:href="#DejaVuSans-Bold-34" transform="translate(158.037109 -16.390625) scale(0.7)"/>
      <use xlink:href="#DejaVuSans-Bold-5b" transform="translate(241.947917 0.015625)"/>
      <use xlink:href="#DejaVuSans-Bold-70" transform="translate(287.651042 0.015625)"/>
      <use xlink:href="#DejaVuSans-Bold-70" transform="translate(359.233074 0.015625)"/>
      <use xlink:href="#DejaVuSans-Bold-62" transform="translate(430.815105 0.015625)"/>
      <use xlink:href="#DejaVuSans-Bold-76" transform="translate(502.397136 0.015625)"/>
      <use xlink:href="#DejaVuSans-Bold-5d" transform="translate(567.582683 0.015625)"/>
     </g>
    </g>
   </g>
   <g id="matplotlib.axis_2">
    <g id="ytick_1">
     <g id="line2d_8">
      <path d="M 121.404375 330.102396 
L 679.404375 330.102396 
" clip-path="url(#p3840ad5294)" style="fill: none; stroke: #cccccc; stroke-linecap: square"/>
     </g>
     <g id="line2d_9">
      <defs>
       <path id="m6b40d28e8b" d="M 0 0 
L -3.5 0 
" style="stroke: #000000; stroke-width: 0.8"/>
      </defs>
      <g>
       <use xlink:href="#m6b40d28e8b" x="121.404375" y="330.102396" style="stroke: #000000; stroke-width: 0.8"/>
      </g>
     </g>
     <g id="text_9">
      <!-- 500 -->
      <g transform="translate(64.776875 339.980365) scale(0.26 -0.26)">
       <use xlink:href="#DejaVuSans-35"/>
       <use xlink:href="#DejaVuSans-30" x="63.623047"/>
       <use xlink:href="#DejaVuSans-30" x="127.246094"/>
      </g>
     </g>
    </g>
    <g id="ytick_2">
     <g id="line2d_10">
      <path d="M 121.404375 611.06875 
L 679.404375 611.06875 
" clip-path="url(#p3840ad5294)" style="fill: none; stroke: #cccccc; stroke-linecap: square"/>
     </g>
     <g id="line2d_11">
      <g>
       <use xlink:href="#m6b40d28e8b" x="121.404375" y="611.06875" style="stroke: #000000; stroke-width: 0.8"/>
      </g>
     </g>
     <g id="text_10">
      <!-- 1000 -->
      <g transform="translate(48.234375 620.946719) scale(0.26 -0.26)">
       <defs>
        <path id="DejaVuSans-31" d="M 794 531 
L 1825 531 
L 1825 4091 
L 703 3866 
L 703 4441 
L 1819 4666 
L 2450 4666 
L 2450 531 
L 3481 531 
L 3481 0 
L 794 0 
L 794 531 
z
" transform="scale(0.015625)"/>
       </defs>
       <use xlink:href="#DejaVuSans-31"/>
       <use xlink:href="#DejaVuSans-30" x="63.623047"/>
       <use xlink:href="#DejaVuSans-30" x="127.246094"/>
       <use xlink:href="#DejaVuSans-30" x="190.869141"/>
      </g>
     </g>
    </g>
    <g id="ytick_3">
     <g id="line2d_12">
      <path d="M 121.404375 892.035104 
L 679.404375 892.035104 
" clip-path="url(#p3840ad5294)" style="fill: none; stroke: #cccccc; stroke-linecap: square"/>
     </g>
     <g id="line2d_13">
      <g>
       <use xlink:href="#m6b40d28e8b" x="121.404375" y="892.035104" style="stroke: #000000; stroke-width: 0.8"/>
      </g>
     </g>
     <g id="text_11">
      <!-- 1500 -->
      <g transform="translate(48.234375 901.913073) scale(0.26 -0.26)">
       <use xlink:href="#DejaVuSans-31"/>
       <use xlink:href="#DejaVuSans-35" x="63.623047"/>
       <use xlink:href="#DejaVuSans-30" x="127.246094"/>
       <use xlink:href="#DejaVuSans-30" x="190.869141"/>
      </g>
     </g>
    </g>
    <g id="ytick_4">
     <g id="line2d_14">
      <path d="M 121.404375 1173.001458 
L 679.404375 1173.001458 
" clip-path="url(#p3840ad5294)" style="fill: none; stroke: #cccccc; stroke-linecap: square"/>
     </g>
     <g id="line2d_15">
      <g>
       <use xlink:href="#m6b40d28e8b" x="121.404375" y="1173.001458" style="stroke: #000000; stroke-width: 0.8"/>
      </g>
     </g>
     <g id="text_12">
      <!-- 2000 -->
      <g transform="translate(48.234375 1182.879427) scale(0.26 -0.26)">
       <defs>
        <path id="DejaVuSans-32" d="M 1228 531 
L 3431 531 
L 3431 0 
L 469 0 
L 469 531 
Q 828 903 1448 1529 
Q 2069 2156 2228 2338 
Q 2531 2678 2651 2914 
Q 2772 3150 2772 3378 
Q 2772 3750 2511 3984 
Q 2250 4219 1831 4219 
Q 1534 4219 1204 4116 
Q 875 4013 500 3803 
L 500 4441 
Q 881 4594 1212 4672 
Q 1544 4750 1819 4750 
Q 2544 4750 2975 4387 
Q 3406 4025 3406 3419 
Q 3406 3131 3298 2873 
Q 3191 2616 2906 2266 
Q 2828 2175 2409 1742 
Q 1991 1309 1228 531 
z
" transform="scale(0.015625)"/>
       </defs>
       <use xlink:href="#DejaVuSans-32"/>
       <use xlink:href="#DejaVuSans-30" x="63.623047"/>
       <use xlink:href="#DejaVuSans-30" x="127.246094"/>
       <use xlink:href="#DejaVuSans-30" x="190.869141"/>
      </g>
     </g>
    </g>
    <g id="ytick_5">
     <g id="line2d_16">
      <path d="M 121.404375 1453.967812 
L 679.404375 1453.967812 
" clip-path="url(#p3840ad5294)" style="fill: none; stroke: #cccccc; stroke-linecap: square"/>
     </g>
     <g id="line2d_17">
      <g>
       <use xlink:href="#m6b40d28e8b" x="121.404375" y="1453.967812" style="stroke: #000000; stroke-width: 0.8"/>
      </g>
     </g>
     <g id="text_13">
      <!-- 2500 -->
      <g transform="translate(48.234375 1463.845781) scale(0.26 -0.26)">
       <use xlink:href="#DejaVuSans-32"/>
       <use xlink:href="#DejaVuSans-35" x="63.623047"/>
       <use xlink:href="#DejaVuSans-30" x="127.246094"/>
       <use xlink:href="#DejaVuSans-30" x="190.869141"/>
      </g>
     </g>
    </g>
    <g id="ytick_6">
     <g id="line2d_18">
      <path d="M 121.404375 1734.934166 
L 679.404375 1734.934166 
" clip-path="url(#p3840ad5294)" style="fill: none; stroke: #cccccc; stroke-linecap: square"/>
     </g>
     <g id="line2d_19">
      <g>
       <use xlink:href="#m6b40d28e8b" x="121.404375" y="1734.934166" style="stroke: #000000; stroke-width: 0.8"/>
      </g>
     </g>
     <g id="text_14">
      <!-- 3000 -->
      <g transform="translate(48.234375 1744.812135) scale(0.26 -0.26)">
       <use xlink:href="#DejaVuSans-33"/>
       <use xlink:href="#DejaVuSans-30" x="63.623047"/>
       <use xlink:href="#DejaVuSans-30" x="127.246094"/>
       <use xlink:href="#DejaVuSans-30" x="190.869141"/>
      </g>
     </g>
    </g>
    <g id="ytick_7">
     <g id="line2d_20">
      <defs>
       <path id="m22b4687144" d="M 0 0 
L -4 0 
" style="stroke: #000000; stroke-width: 0.8"/>
      </defs>
      <g>
       <use xlink:href="#m22b4687144" x="121.404375" y="105.329313" style="stroke: #000000; stroke-width: 0.8"/>
      </g>
     </g>
    </g>
    <g id="ytick_8">
     <g id="line2d_21">
      <g>
       <use xlink:href="#m22b4687144" x="121.404375" y="161.522584" style="stroke: #000000; stroke-width: 0.8"/>
      </g>
     </g>
    </g>
    <g id="ytick_9">
     <g id="line2d_22">
      <g>
       <use xlink:href="#m22b4687144" x="121.404375" y="217.715855" style="stroke: #000000; stroke-width: 0.8"/>
      </g>
     </g>
    </g>
    <g id="ytick_10">
     <g id="line2d_23">
      <g>
       <use xlink:href="#m22b4687144" x="121.404375" y="273.909125" style="stroke: #000000; stroke-width: 0.8"/>
      </g>
     </g>
    </g>
    <g id="ytick_11">
     <g id="line2d_24">
      <g>
       <use xlink:href="#m22b4687144" x="121.404375" y="386.295667" style="stroke: #000000; stroke-width: 0.8"/>
      </g>
     </g>
    </g>
    <g id="ytick_12">
     <g id="line2d_25">
      <g>
       <use xlink:href="#m22b4687144" x="121.404375" y="442.488938" style="stroke: #000000; stroke-width: 0.8"/>
      </g>
     </g>
    </g>
    <g id="ytick_13">
     <g id="line2d_26">
      <g>
       <use xlink:href="#m22b4687144" x="121.404375" y="498.682209" style="stroke: #000000; stroke-width: 0.8"/>
      </g>
     </g>
    </g>
    <g id="ytick_14">
     <g id="line2d_27">
      <g>
       <use xlink:href="#m22b4687144" x="121.404375" y="554.875479" style="stroke: #000000; stroke-width: 0.8"/>
      </g>
     </g>
    </g>
    <g id="ytick_15">
     <g id="line2d_28">
      <g>
       <use xlink:href="#m22b4687144" x="121.404375" y="667.262021" style="stroke: #000000; stroke-width: 0.8"/>
      </g>
     </g>
    </g>
    <g id="ytick_16">
     <g id="line2d_29">
      <g>
       <use xlink:href="#m22b4687144" x="121.404375" y="723.455292" style="stroke: #000000; stroke-width: 0.8"/>
      </g>
     </g>
    </g>
    <g id="ytick_17">
     <g id="line2d_30">
      <g>
       <use xlink:href="#m22b4687144" x="121.404375" y="779.648563" style="stroke: #000000; stroke-width: 0.8"/>
      </g>
     </g>
    </g>
    <g id="ytick_18">
     <g id="line2d_31">
      <g>
       <use xlink:href="#m22b4687144" x="121.404375" y="835.841833" style="stroke: #000000; stroke-width: 0.8"/>
      </g>
     </g>
    </g>
    <g id="ytick_19">
     <g id="line2d_32">
      <g>
       <use xlink:href="#m22b4687144" x="121.404375" y="948.228375" style="stroke: #000000; stroke-width: 0.8"/>
      </g>
     </g>
    </g>
    <g id="ytick_20">
     <g id="line2d_33">
      <g>
       <use xlink:href="#m22b4687144" x="121.404375" y="1004.421646" style="stroke: #000000; stroke-width: 0.8"/>
      </g>
     </g>
    </g>
    <g id="ytick_21">
     <g id="line2d_34">
      <g>
       <use xlink:href="#m22b4687144" x="121.404375" y="1060.614917" style="stroke: #000000; stroke-width: 0.8"/>
      </g>
     </g>
    </g>
    <g id="ytick_22">
     <g id="line2d_35">
      <g>
       <use xlink:href="#m22b4687144" x="121.404375" y="1116.808187" style="stroke: #000000; stroke-width: 0.8"/>
      </g>
     </g>
    </g>
    <g id="ytick_23">
     <g id="line2d_36">
      <g>
       <use xlink:href="#m22b4687144" x="121.404375" y="1229.194729" style="stroke: #000000; stroke-width: 0.8"/>
      </g>
     </g>
    </g>
    <g id="ytick_24">
     <g id="line2d_37">
      <g>
       <use xlink:href="#m22b4687144" x="121.404375" y="1285.388" style="stroke: #000000; stroke-width: 0.8"/>
      </g>
     </g>
    </g>
    <g id="ytick_25">
     <g id="line2d_38">
      <g>
       <use xlink:href="#m22b4687144" x="121.404375" y="1341.581271" style="stroke: #000000; stroke-width: 0.8"/>
      </g>
     </g>
    </g>
    <g id="ytick_26">
     <g id="line2d_39">
      <g>
       <use xlink:href="#m22b4687144" x="121.404375" y="1397.774541" style="stroke: #000000; stroke-width: 0.8"/>
      </g>
     </g>
    </g>
    <g id="ytick_27">
     <g id="line2d_40">
      <g>
       <use xlink:href="#m22b4687144" x="121.404375" y="1510.161083" style="stroke: #000000; stroke-width: 0.8"/>
      </g>
     </g>
    </g>
    <g id="ytick_28">
     <g id="line2d_41">
      <g>
       <use xlink:href="#m22b4687144" x="121.404375" y="1566.354354" style="stroke: #000000; stroke-width: 0.8"/>
      </g>
     </g>
    </g>
    <g id="ytick_29">
     <g id="line2d_42">
      <g>
       <use xlink:href="#m22b4687144" x="121.404375" y="1622.547625" style="stroke: #000000; stroke-width: 0.8"/>
      </g>
     </g>
    </g>
    <g id="ytick_30">
     <g id="line2d_43">
      <g>
       <use xlink:href="#m22b4687144" x="121.404375" y="1678.740895" style="stroke: #000000; stroke-width: 0.8"/>
      </g>
     </g>
    </g>
    <g id="text_15">
     <!-- Depth [m] -->
     <g transform="translate(29.995312 1022.332656) rotate(-90) scale(0.3 -0.3)">
      <defs>
       <path id="DejaVuSans-Bold-44" d="M 1791 3756 
L 1791 909 
L 2222 909 
Q 2959 909 3348 1275 
Q 3738 1641 3738 2338 
Q 3738 3031 3350 3393 
Q 2963 3756 2222 3756 
L 1791 3756 
z
M 588 4666 
L 1856 4666 
Q 2919 4666 3439 4514 
Q 3959 4363 4331 4000 
Q 4659 3684 4818 3271 
Q 4978 2859 4978 2338 
Q 4978 1809 4818 1395 
Q 4659 981 4331 666 
Q 3956 303 3431 151 
Q 2906 0 1856 0 
L 588 0 
L 588 4666 
z
" transform="scale(0.015625)"/>
       <path id="DejaVuSans-Bold-65" d="M 4031 1759 
L 4031 1441 
L 1416 1441 
Q 1456 1047 1700 850 
Q 1944 653 2381 653 
Q 2734 653 3104 758 
Q 3475 863 3866 1075 
L 3866 213 
Q 3469 63 3072 -14 
Q 2675 -91 2278 -91 
Q 1328 -91 801 392 
Q 275 875 275 1747 
Q 275 2603 792 3093 
Q 1309 3584 2216 3584 
Q 3041 3584 3536 3087 
Q 4031 2591 4031 1759 
z
M 2881 2131 
Q 2881 2450 2695 2645 
Q 2509 2841 2209 2841 
Q 1884 2841 1681 2658 
Q 1478 2475 1428 2131 
L 2881 2131 
z
" transform="scale(0.015625)"/>
       <path id="DejaVuSans-Bold-74" d="M 1759 4494 
L 1759 3500 
L 2913 3500 
L 2913 2700 
L 1759 2700 
L 1759 1216 
Q 1759 972 1856 886 
Q 1953 800 2241 800 
L 2816 800 
L 2816 0 
L 1856 0 
Q 1194 0 917 276 
Q 641 553 641 1216 
L 641 2700 
L 84 2700 
L 84 3500 
L 641 3500 
L 641 4494 
L 1759 4494 
z
" transform="scale(0.015625)"/>
       <path id="DejaVuSans-Bold-68" d="M 4056 2131 
L 4056 0 
L 2931 0 
L 2931 347 
L 2931 1625 
Q 2931 2084 2911 2256 
Q 2891 2428 2841 2509 
Q 2775 2619 2662 2680 
Q 2550 2741 2406 2741 
Q 2056 2741 1856 2470 
Q 1656 2200 1656 1722 
L 1656 0 
L 538 0 
L 538 4863 
L 1656 4863 
L 1656 2988 
Q 1909 3294 2193 3439 
Q 2478 3584 2822 3584 
Q 3428 3584 3742 3212 
Q 4056 2841 4056 2131 
z
" transform="scale(0.015625)"/>
       <path id="DejaVuSans-Bold-20" transform="scale(0.015625)"/>
       <path id="DejaVuSans-Bold-6d" d="M 3781 2919 
Q 3994 3244 4286 3414 
Q 4578 3584 4928 3584 
Q 5531 3584 5847 3212 
Q 6163 2841 6163 2131 
L 6163 0 
L 5038 0 
L 5038 1825 
Q 5041 1866 5042 1909 
Q 5044 1953 5044 2034 
Q 5044 2406 4934 2573 
Q 4825 2741 4581 2741 
Q 4263 2741 4089 2478 
Q 3916 2216 3909 1719 
L 3909 0 
L 2784 0 
L 2784 1825 
Q 2784 2406 2684 2573 
Q 2584 2741 2328 2741 
Q 2006 2741 1831 2477 
Q 1656 2213 1656 1722 
L 1656 0 
L 531 0 
L 531 3500 
L 1656 3500 
L 1656 2988 
Q 1863 3284 2130 3434 
Q 2397 3584 2719 3584 
Q 3081 3584 3359 3409 
Q 3638 3234 3781 2919 
z
" transform="scale(0.015625)"/>
      </defs>
      <use xlink:href="#DejaVuSans-Bold-44"/>
      <use xlink:href="#DejaVuSans-Bold-65" x="83.007812"/>
      <use xlink:href="#DejaVuSans-Bold-70" x="150.830078"/>
      <use xlink:href="#DejaVuSans-Bold-74" x="222.412109"/>
      <use xlink:href="#DejaVuSans-Bold-68" x="270.214844"/>
      <use xlink:href="#DejaVuSans-Bold-20" x="341.40625"/>
      <use xlink:href="#DejaVuSans-Bold-5b" x="376.220703"/>
      <use xlink:href="#DejaVuSans-Bold-6d" x="421.923828"/>
      <use xlink:href="#DejaVuSans-Bold-5d" x="526.123047"/>
     </g>
    </g>
   </g>
   <g id="line2d_44">
    <path d="M 659.95892 104.958437 
L 537.114375 106.77629 
L 470.323466 108.012542 
L 463.813466 109.052117 
L 471.676193 110.853112 
L 437.858011 112.648487 
L 472.268011 113.884739 
L 456.796193 115.71102 
L 467.618011 117.04561 
L 437.012557 117.21419 
L 440.140739 119.138809 
L 420.441648 120.375061 
L 429.741648 121.7237 
L 437.350739 123.215631 
L 424.66892 124.701943 
L 417.313466 126.556321 
L 426.867102 128.214023 
L 427.205284 129.705954 
L 420.103466 131.192266 
L 407.168011 132.737581 
L 411.395284 133.777156 
L 411.64892 135.578151 
L 403.532557 137.682589 
L 407.75983 138.918841 
L 401.841648 140.194428 
L 397.868011 142.009471 
L 393.387102 143.591311 
L 397.445284 144.889376 
L 393.387102 146.375688 
L 383.495284 148.19073 
L 382.058011 149.426982 
L 380.95892 150.722237 
L 377.323466 153.248125 
L 380.113466 154.37199 
L 373.096193 155.608242 
L 384.594375 157.21256 
L 377.323466 159.120322 
L 381.550739 162.098565 
L 381.804375 163.39382 
L 384.087102 163.469681 
L 374.195284 164.683455 
L 374.44892 166.73451 
L 373.096193 168.279825 
L 379.85983 169.57508 
L 369.122557 169.65375 
L 375.294375 170.502269 
L 381.212557 172.974772 
L 373.096193 173.053443 
L 374.787102 174.152021 
L 368.023466 175.697336 
L 368.023466 177.045975 
L 369.122557 179.167271 
L 369.376193 180.333281 
L 373.096193 181.878596 
L 367.431648 184.081372 
L 369.122557 185.039468 
L 365.14892 186.514541 
L 361.25983 188.368919 
L 370.813466 189.953569 
L 371.65892 191.220727 
L 373.603466 193.004864 
L 374.787102 194.550179 
L 387.130739 195.227308 
L 379.268011 197.390749 
L 369.968011 199.80425 
L 384.340739 200.422376 
L 380.113466 201.771014 
L 380.95892 204.131131 
L 383.495284 205.367383 
L 390.005284 206.353575 
L 406.322557 208.497349 
L 396.430739 209.694265 
L 403.194375 210.969853 
L 406.322557 214.442597 
L 408.605284 216.184588 
L 406.576193 217.42084 
L 415.876193 219.025158 
L 401.841648 220.570473 
L 410.296193 222.365848 
L 408.605284 223.911163 
L 418.15892 224.585482 
L 419.596193 225.206418 
L 419.84983 226.751733 
L 420.103466 227.350191 
L 415.36892 227.676112 
L 409.450739 228.547108 
L 411.987102 229.249524 
L 417.313466 229.53049 
L 398.45983 229.86203 
L 410.803466 230.19919 
L 391.104375 230.497014 
L 412.240739 230.817316 
L 420.94892 231.398916 
L 427.712557 232.002994 
L 405.223466 232.314866 
L 443.522557 233.239246 
L 434.476193 233.548309 
L 435.82892 234.489546 
L 434.814375 234.7087 
L 442.085284 236.273682 
L 450.878011 237.818997 
L 445.805284 239.114252 
L 448.84892 240.659567 
L 450.286193 242.145879 
L 449.018011 244.000257 
L 448.84892 245.295512 
L 459.586193 246.852066 
L 455.105284 248.945265 
L 455.35892 249.872454 
L 453.921648 251.167709 
L 462.714375 252.963084 
L 469.985284 256.42178 
L 470.830739 257.599029 
L 464.912557 259.512409 
L 469.985284 260.998722 
L 472.268011 262.293976 
L 466.34983 263.527419 
L 483.25892 265.671192 
L 466.34983 267.216507 
L 474.804375 268.166173 
L 452.230739 270.270611 
L 444.368011 271.796258 
L 456.204375 273.361241 
L 468.632557 274.656496 
L 462.376193 276.451871 
L 487.486193 277.977518 
L 428.558011 280.160627 
L 446.312557 281.087816 
L 455.105284 282.383071 
L 289.64983 285.782764 
L 288.550739 289.126263 
L 296.667102 290.340038 
L 301.232557 291.595957 
L 283.985284 293.200275 
L 287.705284 294.686587 
L 351.368011 298.145283 
L 423.231648 299.631595 
L 437.012557 300.92685 
L 439.295284 302.413162 
L 452.56892 304.01748 
L 445.467102 305.815665 
L 439.041648 307.703759 
L 416.214375 309.521611 
L 411.395284 310.19874 
L 425.768011 311.730006 
L 410.296193 312.980307 
L 382.058011 314.896497 
L 286.014375 318.54344 
L 282.886193 321.015944 
L 281.44892 322.791652 
L 293.285284 324.356634 
L 295.314375 325.342826 
L 274.431648 327.756327 
L 275.023466 329.360645 
L 278.65892 330.846957 
L 293.285284 333.628524 
L 247.123466 335.154171 
L 254.394375 336.717468 
L 235.287102 338.240306 
L 238.330739 341.094924 
L 215.503466 341.173033 
L 207.04892 344.487874 
L 217.532557 345.971376 
L 202.821648 347.493652 
L 207.04892 348.438822 
L 210.430739 350.578662 
L 206.795284 352.140273 
L 213.305284 354.598167 
L 202.314375 357.364562 
L 211.868011 358.309732 
L 192.253466 359.647132 
L 210.76892 361.394181 
L 210.430739 362.378125 
L 215.080739 364.47863 
L 212.967102 366.001467 
L 192.16892 369.085916 
L 194.95892 370.650899 
L 195.212557 372.557536 
L 193.521648 373.847172 
L 237.485284 378.109993 
L 222.85892 380.852225 
L 222.605284 383.044886 
L 229.622557 385.512895 
L 197.495284 387.980341 
L 221.75983 390.44835 
L 205.696193 394.149801 
L 193.268011 396.892032 
L 220.322557 403.077787 
L 227.847102 405.531748 
L 253.54892 407.721599 
L 230.468011 410.481251 
L 243.14983 412.657054 
L 204.005284 417.867294 
L 230.721648 421.579984 
L 239.514375 425.287054 
L 224.296193 427.462857 
L 241.45892 429.936485 
L 239.091648 436.108192 
L 258.368011 438.859414 
L 268.767102 441.035218 
L 297.850739 443.502664 
L 247.377102 444.736669 
L 254.986193 447.493511 
L 306.55892 449.688982 
L 327.94892 452.13957 
L 268.513466 455.857879 
L 266.230739 458.325887 
L 305.967102 460.776476 
L 346.54892 464.752712 
L 363.796193 467.007186 
L 299.795284 469.693786 
L 267.668011 471.897686 
L 266.230739 477.107926 
L 268.25983 479.284292 
L 254.140739 480.517734 
L 250.167102 483.254908 
L 255.831648 484.914857 
L 242.304375 486.687193 
L 246.278011 488.005487 
L 247.96892 489.15464 
L 286.014375 491.104546 
L 242.896193 494.195176 
L 290.495284 500.668641 
L 284.577102 503.467066 
L 240.867102 506.557696 
L 254.394375 509.682041 
L 283.478011 513.048018 
L 287.705284 515.829585 
L 315.267102 518.903357 
L 327.695284 522.30305 
L 309.940739 525.101475 
L 262.341648 531.299593 
L 243.14983 534.373365 
L 260.904375 537.463994 
L 285.422557 540.846829 
L 290.241648 547.028089 
L 309.940739 549.826514 
L 328.540739 552.934002 
L 330.231648 556.007774 
L 351.95983 562.191843 
L 341.222557 565.279664 
L 326.84983 568.370293 
L 263.440739 571.460923 
L 295.314375 577.642183 
L 282.632557 580.732813 
L 301.486193 583.837491 
L 354.74983 586.914073 
L 351.114375 593.095333 
L 332.514375 596.185962 
L 361.513466 599.276592 
L 335.304375 602.367222 
L 252.44983 608.548482 
L 253.54892 611.639112 
L 252.703466 614.729742 
L 258.114375 617.820372 
L 256.677102 624.001632 
L 268.513466 627.092261 
L 302.331648 630.182891 
L 260.05892 633.270712 
L 279.250739 639.454781 
L 268.513466 642.820758 
L 272.994375 645.636041 
L 275.86892 648.726671 
L 278.65892 654.90793 
L 282.040739 657.99856 
L 273.83983 661.08919 
L 292.778011 664.17982 
L 272.487102 670.377938 
L 258.368011 673.45171 
L 279.758011 676.54234 
L 271.641648 679.63297 
L 289.64983 685.814229 
L 296.15983 688.904859 
L 244.587102 691.995489 
L 266.56892 701.267379 
L 292.186193 704.358009 
L 273.83983 707.448639 
L 296.413466 710.539269 
L 328.540739 716.720528 
L 346.295284 719.811158 
L 345.703466 722.901788 
L 357.53983 725.992418 
L 396.430739 732.173678 
L 405.054375 735.264308 
L 414.185284 738.354938 
L 425.176193 741.445567 
L 303.430739 747.626827 
L 285.422557 750.717457 
L 273.83983 753.808087 
L 275.530739 756.898717 
L 288.804375 763.079977 
L 271.895284 766.170607 
L 298.696193 769.261237 
L 317.803466 772.351866 
L 317.803466 775.442496 
L 310.532557 778.533126 
L 284.830739 781.640614 
L 269.35892 784.714386 
L 282.632557 787.805016 
L 271.303466 793.986276 
L 262.84892 797.076906 
L 264.286193 800.167535 
L 261.496193 803.258165 
L 262.003466 809.439425 
L 266.822557 812.530055 
L 276.122557 815.620685 
L 303.76892 818.711315 
L 308.24983 824.892575 
L 319.832557 827.983205 
L 325.412557 831.073834 
L 335.896193 834.164464 
L 341.476193 840.345724 
L 355.595284 843.436354 
L 355.595284 846.526984 
L 351.621648 849.617614 
L 292.43983 855.798874 
L 314.421648 858.889503 
L 365.740739 861.980133 
L 384.594375 865.070763 
L 415.36892 871.252023 
L 396.430739 874.342653 
L 301.486193 877.433283 
L 282.040739 880.523913 
L 322.36892 886.705172 
L 323.214375 889.795802 
L 319.832557 892.886432 
L 312.730739 895.977062 
L 277.813466 902.158322 
L 287.705284 905.248952 
L 291.087102 908.339582 
L 316.958011 917.611471 
L 316.704375 920.702101 
L 319.494375 923.792731 
L 352.805284 926.883361 
L 356.440739 933.064621 
L 382.396193 936.155251 
L 381.550739 939.245881 
L 392.541648 942.628716 
L 379.85983 948.51777 
L 392.541648 951.6084 
L 398.713466 954.69903 
L 411.395284 957.78966 
L 406.576193 963.97092 
L 399.55892 967.06155 
L 406.153466 970.435956 
L 413.086193 973.24281 
L 418.412557 979.424069 
L 427.45892 982.806904 
L 435.65983 985.605329 
L 439.887102 988.695959 
L 450.878011 994.877219 
L 443.776193 997.967849 
L 439.295284 1001.058479 
L 465.504375 1004.149108 
L 497.631648 1010.330368 
L 503.803466 1013.420998 
L 437.604375 1016.520057 
L 346.887102 1019.602258 
L 328.540739 1025.783518 
L 315.267102 1029.152304 
L 331.077102 1031.964777 
L 309.940739 1035.055407 
L 283.13983 1041.236667 
L 282.294375 1044.327297 
L 321.185284 1047.426356 
L 262.003466 1050.508557 
L 238.66892 1056.956735 
L 226.832557 1060.367666 
L 236.132557 1063.180139 
L 258.621648 1065.961706 
L 196.64983 1072.142966 
L 210.430739 1075.500514 
L 232.412557 1078.341084 
L 210.430739 1081.414856 
L 249.068011 1087.860224 
L 291.087102 1090.686745 
L 258.95983 1094.041484 
L 234.94892 1096.868005 
L 253.041648 1103.313373 
L 232.581648 1106.148324 
L 225.64892 1109.230525 
L 236.978011 1112.321155 
L 239.768011 1118.502415 
L 265.131648 1121.593044 
L 244.24892 1124.683674 
L 251.350739 1128.032793 
L 245.686193 1133.955564 
L 217.363466 1137.054623 
L 259.213466 1140.136824 
L 298.358011 1143.227454 
L 297.25892 1149.408713 
L 271.472557 1152.507772 
L 298.94983 1155.589973 
L 259.213466 1158.680603 
L 291.594375 1164.863549 
L 315.013466 1167.952493 
L 358.385284 1171.043123 
L 298.358011 1174.386622 
L 312.730739 1180.590359 
L 339.278011 1183.405642 
L 342.913466 1186.771619 
L 295.314375 1189.586902 
L 270.204375 1195.768162 
L 252.44983 1198.858792 
L 258.621648 1201.949422 
L 291.340739 1205.332257 
L 310.194375 1211.221311 
L 305.45983 1214.311941 
L 344.604375 1217.402571 
L 370.221648 1220.493201 
L 408.267102 1226.674461 
L 423.485284 1229.765091 
L 348.831648 1233.147926 
L 348.578011 1236.238555 
L 261.496193 1242.12761 
L 283.731648 1245.21824 
L 307.404375 1248.30887 
L 304.868011 1251.3995 
L 328.540739 1257.889823 
L 343.167102 1260.67139 
L 371.067102 1263.76202 
L 382.903466 1266.852649 
L 388.314375 1273.033909 
L 367.685284 1279.215169 
L 320.678011 1282.305799 
L 303.092557 1567.548461 
L 392.034375 1572.493469 
L 406.153466 1577.438476 
L 445.382557 1582.383484 
L 491.290739 1587.303205 
L 493.150739 1593.509752 
L 476.74892 1598.45476 
L 417.05983 1601.191372 
L 425.42983 1601.774658 
L 424.161648 1602.163516 
L 460.178011 1603.006415 
L 458.064375 1603.62735 
L 449.102557 1604.267954 
L 446.735284 1604.973179 
L 462.883466 1606.09873 
L 466.51892 1606.729219 
L 475.734375 1607.108523 
L 471.422557 1607.954232 
L 461.108011 1608.55831 
L 475.988011 1608.962901 
L 441.493466 1609.918187 
L 419.173466 1610.425612 
L 403.363466 1611.047672 
L 404.800739 1611.664674 
L 386.961648 1611.772565 
L 313.745284 1611.986099 
L 322.36892 1612.458123 
L 279.166193 1612.923403 
L 280.941648 1613.527481 
L 241.036193 1614.137178 
L 241.966193 1614.526035 
L 236.132557 1615.371744 
L 214.48892 1615.90839 
L 225.902557 1616.616425 
L 222.182557 1616.998539 
L 224.127102 1617.616665 
L 214.911648 1618.234791 
L 214.911648 1618.852917 
L 218.378011 1619.471043 
L 226.832557 1620.089169 
L 224.127102 1620.493761 
L 235.118011 1621.325421 
L 231.313466 1621.656961 
L 263.018011 1622.280707 
L 264.286193 1623.157322 
L 308.24983 1623.511339 
L 254.394375 1623.761399 
L 238.66892 1624.129465 
L 275.277102 1624.379525 
L 294.130739 1624.815023 
L 321.185284 1625.011699 
L 254.394375 1625.365717 
L 221.75983 1625.983843 
L 215.24983 1626.601969 
L 217.532557 1627.225714 
L 233.596193 1627.838221 
L 253.54892 1628.456347 
L 304.022557 1628.714836 
L 288.550739 1629.074473 
L 260.05892 1629.338581 
L 241.797102 1629.698218 
L 238.330739 1630.310725 
L 229.622557 1630.928851 
L 238.66892 1631.546977 
L 251.858011 1631.811085 
L 333.951648 1632.170722 
L 284.577102 1632.429211 
L 308.503466 1632.783229 
L 271.641648 1633.418213 
L 266.822557 1634.019481 
L 308.165284 1634.643226 
L 308.503466 1634.884857 
L 256.423466 1635.255733 
L 267.414375 1635.873859 
L 300.894375 1636.491985 
L 300.471648 1637.11573 
L 265.131648 1637.728237 
L 294.46892 1638.964489 
L 319.325284 1639.588234 
L 339.531648 1640.818867 
L 312.477102 1641.436993 
L 342.152557 1642.063547 
L 318.987102 1642.319227 
L 308.841648 1642.673244 
L 319.494375 1643.29137 
L 321.523466 1643.909496 
L 329.724375 1644.533242 
L 352.805284 1645.145748 
L 352.213466 1645.763874 
L 373.941648 1646.382 
L 385.693466 1647.005746 
L 386.285284 1647.612633 
L 413.33983 1648.236378 
L 420.695284 1648.854504 
L 389.836193 1649.47825 
L 365.14892 1650.090756 
L 386.877102 1650.703263 
L 344.858011 1651.327008 
L 316.281648 1651.950753 
L 315.85892 1652.56326 
L 330.231648 1653.181386 
L 312.223466 1653.799512 
L 327.94892 1654.423257 
L 334.205284 1655.035764 
L 329.63983 1655.65389 
L 320.931648 1656.272016 
L 323.552557 1656.895761 
L 315.267102 1657.508268 
L 312.223466 1658.126394 
L 325.750739 1658.74452 
L 334.374375 1659.385123 
L 330.485284 1659.980772 
L 328.794375 1660.598898 
L 357.286193 1661.229948 
L 371.997102 1661.840769 
L 336.14983 1662.453276 
L 382.903466 1663.071402 
L 401.503466 1663.689528 
L 377.746193 1664.313273 
L 385.186193 1664.92578 
L 344.012557 1666.162032 
L 332.42983 1666.785777 
L 311.631648 1667.398284 
L 304.868011 1668.01641 
L 304.022557 1668.634536 
L 305.967102 1669.258281 
L 312.730739 1669.870788 
L 332.176193 1671.123897 
L 301.232557 1671.371148 
L 296.751648 1671.730785 
L 316.958011 1671.989274 
L 322.622557 1672.343291 
L 322.030739 1672.961417 
L 326.258011 1673.579543 
L 315.098011 1674.203289 
L 336.14983 1676.052047 
L 334.374375 1676.675793 
L 345.44983 1677.288299 
L 329.386193 1677.906425 
L 344.350739 1678.524551 
L 330.908011 1679.148297 
L 344.350739 1679.760803 
L 347.986193 1680.378929 
L 350.522557 1680.997055 
L 331.330739 1682.233307 
L 332.514375 1682.497416 
L 285.16892 1682.851433 
L 265.723466 1683.469559 
L 273.417102 1684.093304 
L 248.476193 1684.705811 
L 250.167102 1685.323937 
L 280.34983 1685.942063 
L 273.07892 1686.565808 
L 307.658011 1687.195173 
L 313.06892 1687.796441 
L 288.212557 1688.060549 
L 271.895284 1688.414567 
L 244.24892 1688.678675 
L 230.975284 1689.038312 
L 223.704375 1689.650819 
L 238.077102 1690.268945 
L 235.287102 1690.887071 
L 253.718011 1691.510816 
L 238.66892 1692.741449 
L 222.85892 1693.359575 
L 259.636193 1694.008607 
L 278.912557 1694.595827 
L 292.186193 1695.213953 
L 296.667102 1695.832079 
L 308.080739 1696.455824 
L 267.668011 1696.714313 
L 257.776193 1697.068331 
L 291.594375 1697.686457 
L 316.450739 1698.304583 
L 332.260739 1698.928328 
L 364.303466 1699.540835 
L 381.550739 1700.158961 
L 379.521648 1700.777086 
L 312.223466 1702.013338 
L 267.414375 1702.631464 
L 267.414375 1703.24959 
L 309.34892 1704.480223 
L 316.958011 1705.103968 
L 329.132557 1705.722094 
L 324.905284 1705.986203 
L 285.676193 1706.604329 
L 302.078011 1707.250551 
L 304.022557 1707.576472 
L 313.322557 1708.194598 
L 311.293466 1708.818344 
L 343.167102 1709.43085 
L 340.123466 1710.048976 
L 361.513466 1710.667102 
L 357.70892 1711.290847 
L 382.64983 1711.903354 
L 384.594375 1712.52148 
L 391.358011 1713.145225 
L 380.536193 1713.763351 
L 423.231648 1714.375858 
L 415.622557 1715.010842 
L 422.386193 1715.61211 
L 417.313466 1716.235855 
L 403.194375 1716.848362 
L 413.086193 1717.466488 
L 411.395284 1718.084614 
L 390.681648 1718.708359 
L 391.94983 1719.320866 
L 391.104375 1719.938992 
L 390.005284 1720.557118 
L 383.326193 1721.180863 
L 397.868011 1721.79337 
L 395.331648 1722.411496 
L 409.112557 1723.04648 
L 403.617102 1723.653367 
L 412.240739 1724.265874 
L 410.54983 1724.884 
L 411.64892 1725.502126 
L 399.051648 1726.125871 
L 416.890739 1726.743997 
L 404.631648 1727.356504 
L 400.404375 1727.97463 
L 383.918011 1728.598375 
L 391.358011 1729.210882 
L 386.877102 1729.829007 
L 397.614375 1730.447133 
L 382.565284 1731.070879 
L 402.095284 1731.683385 
L 401.841648 1732.301511 
L 415.876193 1732.919637 
L 407.75983 1733.543383 
L 333.35983 1733.801872 
L 320.086193 1734.155889 
L 302.585284 1734.774015 
L 305.967102 1735.392141 
L 300.97892 1736.015887 
L 290.74892 1737.864645 
L 274.600739 1738.488391 
L 288.804375 1739.100897 
L 299.203466 1739.719023 
L 255.23983 1740.028086 
L 301.486193 1740.960894 
L 348.578011 1742.191527 
L 284.577102 1742.455635 
L 272.14892 1742.809653 
L 286.268011 1743.433398 
L 353.05892 1744.045905 
L 344.858011 1744.66965 
L 351.621648 1745.282157 
L 337.756193 1745.905902 
L 318.395284 1746.518409 
L 343.505284 1747.136535 
L 347.732557 1747.754661 
L 381.71983 1748.378406 
L 380.705284 1748.636895 
L 394.232557 1749.609039 
L 417.05983 1750.227165 
L 400.996193 1750.85091 
L 417.567102 1751.463417 
L 414.777102 1752.081543 
L 409.704375 1752.699669 
L 403.617102 1753.323414 
L 402.34892 1753.935921 
L 408.267102 1754.554047 
L 422.978011 1754.818155 
L 451.723466 1755.186221 
L 376.478011 1755.795918 
L 377.323466 1756.054407 
L 297.512557 1756.408425 
L 293.877102 1756.672533 
L 219.730739 1757.026551 
L 193.85983 1757.644677 
L 211.360739 1758.268422 
L 198.087102 1758.880928 
L 208.73983 1759.487816 
L 208.486193 1760.11718 
L 205.442557 1760.740926 
L 219.730739 1760.999415 
L 255.578011 1761.353432 
L 255.578011 1761.971558 
L 253.041648 1762.645878 
L 243.488011 1763.21343 
L 238.922557 1763.825936 
L 228.523466 1764.444062 
L 243.14983 1765.062188 
L 229.876193 1765.315058 
L 183.545284 1765.685934 
L 196.903466 1766.29844 
L 232.750739 1766.916566 
L 218.03983 1767.534692 
L 242.811648 1768.158437 
L 242.811648 1768.158437 
" clip-path="url(#p3840ad5294)" style="fill: none; stroke: #000000; stroke-linecap: square"/>
   </g>
   <g id="patch_3">
    <path d="M 121.404375 1768.158437 
L 121.404375 104.958437 
" style="fill: none; stroke: #000000; stroke-width: 0.8; stroke-linejoin: miter; stroke-linecap: square"/>
   </g>
   <g id="patch_4">
    <path d="M 679.404375 1768.158437 
L 679.404375 104.958437 
" style="fill: none; stroke: #000000; stroke-width: 0.8; stroke-linejoin: miter; stroke-linecap: square"/>
   </g>
   <g id="patch_5">
    <path d="M 121.404375 1768.158437 
L 679.404375 1768.158437 
" style="fill: none; stroke: #000000; stroke-width: 0.8; stroke-linejoin: miter; stroke-linecap: square"/>
   </g>
   <g id="patch_6">
    <path d="M 121.404375 104.958437 
L 679.404375 104.958437 
" style="fill: none; stroke: #000000; stroke-width: 0.8; stroke-linejoin: miter; stroke-linecap: square"/>
   </g>
   <g id="text_16">
    <!-- unsmoothed -->
    <g style="fill: #777777" transform="translate(348.741328 1797.327859) scale(0.165 -0.165)">
     <defs>
      <path id="DejaVuSans-Oblique-75" d="M 428 1388 
L 838 3500 
L 1416 3500 
L 1006 1409 
Q 975 1256 961 1147 
Q 947 1038 947 966 
Q 947 700 1109 554 
Q 1272 409 1569 409 
Q 2031 409 2368 721 
Q 2706 1034 2809 1563 
L 3194 3500 
L 3769 3500 
L 3091 0 
L 2516 0 
L 2631 550 
Q 2388 244 2052 76 
Q 1716 -91 1338 -91 
Q 878 -91 622 161 
Q 366 413 366 863 
Q 366 956 381 1097 
Q 397 1238 428 1388 
z
" transform="scale(0.015625)"/>
      <path id="DejaVuSans-Oblique-6e" d="M 3566 2113 
L 3156 0 
L 2578 0 
L 2988 2091 
Q 3016 2238 3031 2350 
Q 3047 2463 3047 2528 
Q 3047 2791 2881 2937 
Q 2716 3084 2419 3084 
Q 1956 3084 1622 2776 
Q 1288 2469 1184 1941 
L 800 0 
L 225 0 
L 903 3500 
L 1478 3500 
L 1363 2950 
Q 1603 3253 1940 3418 
Q 2278 3584 2650 3584 
Q 3113 3584 3367 3334 
Q 3622 3084 3622 2631 
Q 3622 2519 3608 2391 
Q 3594 2263 3566 2113 
z
" transform="scale(0.015625)"/>
      <path id="DejaVuSans-Oblique-73" d="M 3200 3397 
L 3091 2853 
Q 2863 2978 2609 3040 
Q 2356 3103 2088 3103 
Q 1634 3103 1373 2948 
Q 1113 2794 1113 2528 
Q 1113 2219 1719 2053 
Q 1766 2041 1788 2034 
L 1972 1978 
Q 2547 1819 2739 1644 
Q 2931 1469 2931 1166 
Q 2931 609 2489 259 
Q 2047 -91 1331 -91 
Q 1053 -91 747 -37 
Q 441 16 72 128 
L 184 722 
Q 500 559 806 475 
Q 1113 391 1394 391 
Q 1816 391 2080 572 
Q 2344 753 2344 1031 
Q 2344 1331 1650 1516 
L 1591 1531 
L 1394 1581 
Q 956 1697 753 1886 
Q 550 2075 550 2369 
Q 550 2928 970 3256 
Q 1391 3584 2113 3584 
Q 2397 3584 2667 3537 
Q 2938 3491 3200 3397 
z
" transform="scale(0.015625)"/>
      <path id="DejaVuSans-Oblique-6d" d="M 5747 2113 
L 5338 0 
L 4763 0 
L 5166 2094 
Q 5191 2228 5203 2325 
Q 5216 2422 5216 2491 
Q 5216 2772 5059 2928 
Q 4903 3084 4622 3084 
Q 4203 3084 3875 2770 
Q 3547 2456 3450 1953 
L 3066 0 
L 2491 0 
L 2900 2094 
Q 2925 2209 2937 2307 
Q 2950 2406 2950 2484 
Q 2950 2769 2794 2926 
Q 2638 3084 2363 3084 
Q 1938 3084 1609 2770 
Q 1281 2456 1184 1953 
L 800 0 
L 225 0 
L 909 3500 
L 1484 3500 
L 1375 2956 
Q 1609 3263 1923 3423 
Q 2238 3584 2597 3584 
Q 2978 3584 3223 3384 
Q 3469 3184 3519 2828 
Q 3781 3197 4126 3390 
Q 4472 3584 4856 3584 
Q 5306 3584 5551 3325 
Q 5797 3066 5797 2591 
Q 5797 2488 5784 2364 
Q 5772 2241 5747 2113 
z
" transform="scale(0.015625)"/>
      <path id="DejaVuSans-Oblique-6f" d="M 1625 -91 
Q 1009 -91 651 289 
Q 294 669 294 1325 
Q 294 1706 417 2101 
Q 541 2497 738 2766 
Q 1047 3184 1428 3384 
Q 1809 3584 2291 3584 
Q 2888 3584 3255 3212 
Q 3622 2841 3622 2241 
Q 3622 1825 3500 1412 
Q 3378 1000 3181 728 
Q 2875 309 2494 109 
Q 2113 -91 1625 -91 
z
M 891 1344 
Q 891 869 1089 633 
Q 1288 397 1691 397 
Q 2269 397 2648 901 
Q 3028 1406 3028 2181 
Q 3028 2634 2825 2865 
Q 2622 3097 2228 3097 
Q 1903 3097 1650 2945 
Q 1397 2794 1197 2484 
Q 1050 2253 970 1956 
Q 891 1659 891 1344 
z
" transform="scale(0.015625)"/>
      <path id="DejaVuSans-Oblique-74" d="M 2706 3500 
L 2619 3053 
L 1472 3053 
L 1100 1153 
Q 1081 1047 1072 975 
Q 1063 903 1063 863 
Q 1063 663 1183 572 
Q 1303 481 1569 481 
L 2150 481 
L 2053 0 
L 1503 0 
Q 991 0 739 200 
Q 488 400 488 806 
Q 488 878 497 964 
Q 506 1050 525 1153 
L 897 3053 
L 409 3053 
L 500 3500 
L 978 3500 
L 1172 4494 
L 1747 4494 
L 1556 3500 
L 2706 3500 
z
" transform="scale(0.015625)"/>
      <path id="DejaVuSans-Oblique-68" d="M 3566 2113 
L 3156 0 
L 2578 0 
L 2988 2091 
Q 3016 2238 3031 2350 
Q 3047 2463 3047 2528 
Q 3047 2791 2881 2937 
Q 2716 3084 2419 3084 
Q 1956 3084 1617 2771 
Q 1278 2459 1178 1941 
L 800 0 
L 225 0 
L 1172 4863 
L 1747 4863 
L 1375 2950 
Q 1594 3244 1934 3414 
Q 2275 3584 2650 3584 
Q 3113 3584 3367 3334 
Q 3622 3084 3622 2631 
Q 3622 2519 3608 2391 
Q 3594 2263 3566 2113 
z
" transform="scale(0.015625)"/>
      <path id="DejaVuSans-Oblique-65" d="M 3078 2063 
Q 3088 2113 3092 2166 
Q 3097 2219 3097 2272 
Q 3097 2653 2873 2875 
Q 2650 3097 2266 3097 
Q 1838 3097 1509 2826 
Q 1181 2556 1013 2059 
L 3078 2063 
z
M 3578 1613 
L 903 1613 
Q 884 1494 878 1425 
Q 872 1356 872 1306 
Q 872 872 1139 634 
Q 1406 397 1894 397 
Q 2269 397 2603 481 
Q 2938 566 3225 728 
L 3116 159 
Q 2806 34 2476 -28 
Q 2147 -91 1806 -91 
Q 1078 -91 686 257 
Q 294 606 294 1247 
Q 294 1794 489 2264 
Q 684 2734 1063 3103 
Q 1306 3334 1642 3459 
Q 1978 3584 2356 3584 
Q 2950 3584 3301 3228 
Q 3653 2872 3653 2272 
Q 3653 2128 3634 1964 
Q 3616 1800 3578 1613 
z
" transform="scale(0.015625)"/>
      <path id="DejaVuSans-Oblique-64" d="M 2675 525 
Q 2444 222 2128 65 
Q 1813 -91 1428 -91 
Q 903 -91 598 267 
Q 294 625 294 1247 
Q 294 1766 478 2236 
Q 663 2706 1013 3078 
Q 1244 3325 1534 3454 
Q 1825 3584 2144 3584 
Q 2481 3584 2739 3421 
Q 2997 3259 3138 2956 
L 3513 4863 
L 4091 4863 
L 3144 0 
L 2566 0 
L 2675 525 
z
M 891 1350 
Q 891 897 1095 644 
Q 1300 391 1663 391 
Q 1931 391 2161 520 
Q 2391 650 2566 903 
Q 2750 1166 2856 1509 
Q 2963 1853 2963 2188 
Q 2963 2622 2758 2865 
Q 2553 3109 2194 3109 
Q 1922 3109 1687 2981 
Q 1453 2853 1288 2613 
Q 1106 2353 998 2009 
Q 891 1666 891 1350 
z
" transform="scale(0.015625)"/>
     </defs>
     <use xlink:href="#DejaVuSans-Oblique-75"/>
     <use xlink:href="#DejaVuSans-Oblique-6e" x="63.378906"/>
     <use xlink:href="#DejaVuSans-Oblique-73" x="126.757812"/>
     <use xlink:href="#DejaVuSans-Oblique-6d" x="178.857422"/>
     <use xlink:href="#DejaVuSans-Oblique-6f" x="276.269531"/>
     <use xlink:href="#DejaVuSans-Oblique-6f" x="337.451172"/>
     <use xlink:href="#DejaVuSans-Oblique-74" x="398.632812"/>
     <use xlink:href="#DejaVuSans-Oblique-68" x="437.841797"/>
     <use xlink:href="#DejaVuSans-Oblique-65" x="501.220703"/>
     <use xlink:href="#DejaVuSans-Oblique-64" x="562.744141"/>
    </g>
   </g>
   <g id="text_17">
    <!-- EPICA  CH -->
    <g transform="translate(302.890313 29.995312) scale(0.3 -0.3)">
     <defs>
      <path id="DejaVuSans-Bold-45" d="M 588 4666 
L 3834 4666 
L 3834 3756 
L 1791 3756 
L 1791 2888 
L 3713 2888 
L 3713 1978 
L 1791 1978 
L 1791 909 
L 3903 909 
L 3903 0 
L 588 0 
L 588 4666 
z
" transform="scale(0.015625)"/>
      <path id="DejaVuSans-Bold-50" d="M 588 4666 
L 2584 4666 
Q 3475 4666 3951 4270 
Q 4428 3875 4428 3144 
Q 4428 2409 3951 2014 
Q 3475 1619 2584 1619 
L 1791 1619 
L 1791 0 
L 588 0 
L 588 4666 
z
M 1791 3794 
L 1791 2491 
L 2456 2491 
Q 2806 2491 2997 2661 
Q 3188 2831 3188 3144 
Q 3188 3456 2997 3625 
Q 2806 3794 2456 3794 
L 1791 3794 
z
" transform="scale(0.015625)"/>
      <path id="DejaVuSans-Bold-49" d="M 588 4666 
L 1791 4666 
L 1791 0 
L 588 0 
L 588 4666 
z
" transform="scale(0.015625)"/>
      <path id="DejaVuSans-Bold-41" d="M 3419 850 
L 1538 850 
L 1241 0 
L 31 0 
L 1759 4666 
L 3194 4666 
L 4922 0 
L 3713 0 
L 3419 850 
z
M 1838 1716 
L 3116 1716 
L 2478 3572 
L 1838 1716 
z
" transform="scale(0.015625)"/>
      <path id="DejaVuSans-Bold-2013" d="M 344 2156 
L 2856 2156 
L 2856 1350 
L 344 1350 
L 344 2156 
z
" transform="scale(0.015625)"/>
      <path id="DejaVuSans-Bold-2084" d="M 1397 1976 
L 650 966 
L 1397 966 
L 1397 1976 
z
M 1341 2585 
L 2116 2585 
L 2116 966 
L 2544 966 
L 2544 482 
L 2116 482 
L 2116 -24 
L 1397 -24 
L 1397 482 
L 175 482 
L 175 1007 
L 1341 2585 
z
" transform="scale(0.015625)"/>
     </defs>
     <use xlink:href="#DejaVuSans-Bold-45"/>
     <use xlink:href="#DejaVuSans-Bold-50" x="68.310547"/>
     <use xlink:href="#DejaVuSans-Bold-49" x="141.601562"/>
     <use xlink:href="#DejaVuSans-Bold-43" x="178.808594"/>
     <use xlink:href="#DejaVuSans-Bold-41" x="252.197266"/>
     <use xlink:href="#DejaVuSans-Bold-20" x="329.589844"/>
     <use xlink:href="#DejaVuSans-Bold-2013" x="364.404297"/>
     <use xlink:href="#DejaVuSans-Bold-20" x="414.404297"/>
     <use xlink:href="#DejaVuSans-Bold-43" x="449.21875"/>
     <use xlink:href="#DejaVuSans-Bold-48" x="522.607422"/>
     <use xlink:href="#DejaVuSans-Bold-2084" x="606.298828"/>
    </g>
   </g>
  </g>
 </g>
 <defs>
  <clipPath id="p3840ad5294">
   <rect x="121.404375" y="104.958437" width="558" height="1663.2"/>
  </clipPath>
 </defs>
</svg>
