<?xml version="1.0" encoding="utf-8" standalone="no"?>
<!DOCTYPE svg PUBLIC "-//W3C//DTD SVG 1.1//EN"
  "http://www.w3.org/Graphics/SVG/1.1/DTD/svg11.dtd">
<svg xmlns:xlink="http://www.w3.org/1999/xlink" width="658.75875pt" height="1238.528625pt" viewBox="0 0 658.75875 1238.528625" xmlns="http://www.w3.org/2000/svg" version="1.1">
 <metadata>
  <rdf:RDF xmlns:dc="http://purl.org/dc/elements/1.1/" xmlns:cc="http://creativecommons.org/ns#" xmlns:rdf="http://www.w3.org/1999/02/22-rdf-syntax-ns#">
   <cc:Work>
    <dc:type rdf:resource="http://purl.org/dc/dcmitype/StillImage"/>
    <dc:date>2026-02-25T18:27:37.954462</dc:date>
    <dc:format>image/svg+xml</dc:format>
    <dc:creator>
     <cc:Agent>
      <dc:title>Matplotlib v3.9.2, https://matplotlib.org/</dc:title>
     </cc:Agent>
    </dc:creator>
   </cc:Work>
  </rdf:RDF>
 </metadata>
 <defs>
  <style type="text/css">*{stroke-linejoin: round; stroke-linecap: butt}</style>
 </defs>
 <g id="figure_1">
  <g id="patch_1">
   <path d="M 0 1238.528625 
L 658.75875 1238.528625 
L 658.75875 0 
L 0 0 
z
" style="fill: #ffffff"/>
  </g>
  <g id="axes_1">
   <g id="patch_2">
    <path d="M 93.55875 1205.940625 
L 651.55875 1205.940625 
L 651.55875 97.140625 
L 93.55875 97.140625 
z
" style="fill: #ffffff"/>
   </g>
   <g id="patch_3">
    <path d="M 93.55875 77.1894 
L 651.55875 77.1894 
L 651.55875 189.988583 
L 93.55875 189.988583 
z
" clip-path="url(#p3ac8ac1733)" style="fill: #fddbc7"/>
   </g>
   <g id="patch_4">
    <path d="M 93.55875 189.988583 
L 651.55875 189.988583 
L 651.55875 310.844851 
L 93.55875 310.844851 
z
" clip-path="url(#p3ac8ac1733)" style="fill: #d6e8f7"/>
   </g>
   <g id="patch_5">
    <path d="M 93.55875 310.844851 
L 651.55875 310.844851 
L 651.55875 536.443217 
L 93.55875 536.443217 
z
" clip-path="url(#p3ac8ac1733)" style="fill: #fef0e6"/>
   </g>
   <g id="patch_6">
    <path d="M 93.55875 536.443217 
L 651.55875 536.443217 
L 651.55875 649.242401 
L 93.55875 649.242401 
z
" clip-path="url(#p3ac8ac1733)" style="fill: #d6e8f7"/>
   </g>
   <g id="patch_7">
    <path d="M 93.55875 649.242401 
L 651.55875 649.242401 
L 651.55875 1124.610387 
L 93.55875 1124.610387 
z
" clip-path="url(#p3ac8ac1733)" style="fill: #fddbc7"/>
   </g>
   <g id="patch_8">
    <path d="M 93.55875 1124.610387 
L 651.55875 1124.610387 
L 651.55875 1616.092543 
L 93.55875 1616.092543 
z
" clip-path="url(#p3ac8ac1733)" style="fill: #d6e8f7"/>
   </g>
   <g id="matplotlib.axis_1">
    <g id="xtick_1">
     <g id="line2d_1">
      <defs>
       <path id="md00d797443" d="M 0 0 
L 0 -3.5 
" style="stroke: #000000; stroke-width: 0.8"/>
      </defs>
      <g>
       <use xlink:href="#md00d797443" x="118.922386" y="97.140625" style="stroke: #000000; stroke-width: 0.8"/>
      </g>
     </g>
     <g id="text_1">
      <!-- -6.0 -->
      <g transform="translate(97.460355 85.565313) scale(0.22 -0.22)">
       <defs>
        <path id="DejaVuSans-2d" d="M 313 2009 
L 1997 2009 
L 1997 1497 
L 313 1497 
L 313 2009 
z
" transform="scale(0.015625)"/>
        <path id="DejaVuSans-36" d="M 2113 2584 
Q 1688 2584 1439 2293 
Q 1191 2003 1191 1497 
Q 1191 994 1439 701 
Q 1688 409 2113 409 
Q 2538 409 2786 701 
Q 3034 994 3034 1497 
Q 3034 2003 2786 2293 
Q 2538 2584 2113 2584 
z
M 3366 4563 
L 3366 3988 
Q 3128 4100 2886 4159 
Q 2644 4219 2406 4219 
Q 1781 4219 1451 3797 
Q 1122 3375 1075 2522 
Q 1259 2794 1537 2939 
Q 1816 3084 2150 3084 
Q 2853 3084 3261 2657 
Q 3669 2231 3669 1497 
Q 3669 778 3244 343 
Q 2819 -91 2113 -91 
Q 1303 -91 875 529 
Q 447 1150 447 2328 
Q 447 3434 972 4092 
Q 1497 4750 2381 4750 
Q 2619 4750 2861 4703 
Q 3103 4656 3366 4563 
z
" transform="scale(0.015625)"/>
        <path id="DejaVuSans-2e" d="M 684 794 
L 1344 794 
L 1344 0 
L 684 0 
L 684 794 
z
" transform="scale(0.015625)"/>
        <path id="DejaVuSans-30" d="M 2034 4250 
Q 1547 4250 1301 3770 
Q 1056 3291 1056 2328 
Q 1056 1369 1301 889 
Q 1547 409 2034 409 
Q 2525 409 2770 889 
Q 3016 1369 3016 2328 
Q 3016 3291 2770 3770 
Q 2525 4250 2034 4250 
z
M 2034 4750 
Q 2819 4750 3233 4129 
Q 3647 3509 3647 2328 
Q 3647 1150 3233 529 
Q 2819 -91 2034 -91 
Q 1250 -91 836 529 
Q 422 1150 422 2328 
Q 422 3509 836 4129 
Q 1250 4750 2034 4750 
z
" transform="scale(0.015625)"/>
       </defs>
       <use xlink:href="#DejaVuSans-2d"/>
       <use xlink:href="#DejaVuSans-36" x="36.083984"/>
       <use xlink:href="#DejaVuSans-2e" x="99.707031"/>
       <use xlink:href="#DejaVuSans-30" x="131.494141"/>
      </g>
     </g>
    </g>
    <g id="xtick_2">
     <g id="line2d_2">
      <g>
       <use xlink:href="#md00d797443" x="288.013295" y="97.140625" style="stroke: #000000; stroke-width: 0.8"/>
      </g>
     </g>
     <g id="text_2">
      <!-- -5.0 -->
      <g transform="translate(266.551264 85.565313) scale(0.22 -0.22)">
       <defs>
        <path id="DejaVuSans-35" d="M 691 4666 
L 3169 4666 
L 3169 4134 
L 1269 4134 
L 1269 2991 
Q 1406 3038 1543 3061 
Q 1681 3084 1819 3084 
Q 2600 3084 3056 2656 
Q 3513 2228 3513 1497 
Q 3513 744 3044 326 
Q 2575 -91 1722 -91 
Q 1428 -91 1123 -41 
Q 819 9 494 109 
L 494 744 
Q 775 591 1075 516 
Q 1375 441 1709 441 
Q 2250 441 2565 725 
Q 2881 1009 2881 1497 
Q 2881 1984 2565 2268 
Q 2250 2553 1709 2553 
Q 1456 2553 1204 2497 
Q 953 2441 691 2322 
L 691 4666 
z
" transform="scale(0.015625)"/>
       </defs>
       <use xlink:href="#DejaVuSans-2d"/>
       <use xlink:href="#DejaVuSans-35" x="36.083984"/>
       <use xlink:href="#DejaVuSans-2e" x="99.707031"/>
       <use xlink:href="#DejaVuSans-30" x="131.494141"/>
      </g>
     </g>
    </g>
    <g id="xtick_3">
     <g id="line2d_3">
      <g>
       <use xlink:href="#md00d797443" x="457.104205" y="97.140625" style="stroke: #000000; stroke-width: 0.8"/>
      </g>
     </g>
     <g id="text_3">
      <!-- -4.0 -->
      <g transform="translate(435.642173 85.565313) scale(0.22 -0.22)">
       <defs>
        <path id="DejaVuSans-34" d="M 2419 4116 
L 825 1625 
L 2419 1625 
L 2419 4116 
z
M 2253 4666 
L 3047 4666 
L 3047 1625 
L 3713 1625 
L 3713 1100 
L 3047 1100 
L 3047 0 
L 2419 0 
L 2419 1100 
L 313 1100 
L 313 1709 
L 2253 4666 
z
" transform="scale(0.015625)"/>
       </defs>
       <use xlink:href="#DejaVuSans-2d"/>
       <use xlink:href="#DejaVuSans-34" x="36.083984"/>
       <use xlink:href="#DejaVuSans-2e" x="99.707031"/>
       <use xlink:href="#DejaVuSans-30" x="131.494141"/>
      </g>
     </g>
    </g>
    <g id="xtick_4">
     <g id="line2d_4">
      <g>
       <use xlink:href="#md00d797443" x="626.195114" y="97.140625" style="stroke: #000000; stroke-width: 0.8"/>
      </g>
     </g>
     <g id="text_4">
      <!-- -3.0 -->
      <g transform="translate(604.733082 85.565313) scale(0.22 -0.22)">
       <defs>
        <path id="DejaVuSans-33" d="M 2597 2516 
Q 3050 2419 3304 2112 
Q 3559 1806 3559 1356 
Q 3559 666 3084 287 
Q 2609 -91 1734 -91 
Q 1441 -91 1130 -33 
Q 819 25 488 141 
L 488 750 
Q 750 597 1062 519 
Q 1375 441 1716 441 
Q 2309 441 2620 675 
Q 2931 909 2931 1356 
Q 2931 1769 2642 2001 
Q 2353 2234 1838 2234 
L 1294 2234 
L 1294 2753 
L 1863 2753 
Q 2328 2753 2575 2939 
Q 2822 3125 2822 3475 
Q 2822 3834 2567 4026 
Q 2313 4219 1838 4219 
Q 1578 4219 1281 4162 
Q 984 4106 628 3988 
L 628 4550 
Q 988 4650 1302 4700 
Q 1616 4750 1894 4750 
Q 2613 4750 3031 4423 
Q 3450 4097 3450 3541 
Q 3450 3153 3228 2886 
Q 3006 2619 2597 2516 
z
" transform="scale(0.015625)"/>
       </defs>
       <use xlink:href="#DejaVuSans-2d"/>
       <use xlink:href="#DejaVuSans-33" x="36.083984"/>
       <use xlink:href="#DejaVuSans-2e" x="99.707031"/>
       <use xlink:href="#DejaVuSans-30" x="131.494141"/>
      </g>
     </g>
    </g>
    <g id="text_5">
     <!-- $\boldsymbol{\delta}^{\mathbf{18}}\mathbf{O}\ \mathbf{[‰]}$ -->
     <g transform="translate(304.56875 56.84875) scale(0.26 -0.26)">
      <defs>
       <path id="DejaVuSans-BoldOblique-3b4" d="M 3913 3950 
Q 3572 4169 2575 4169 
Q 2044 4169 1984 3863 
Q 1981 3841 1981 3822 
Q 1981 3563 2634 3463 
Q 4038 3244 4038 2159 
Q 4038 1963 3994 1734 
Q 3828 888 3222 400 
Q 2613 -91 1719 -91 
Q 822 -91 403 400 
Q 100 750 100 1288 
Q 100 2253 884 2900 
Q 1075 3056 1294 3156 
Q 959 3356 959 3722 
Q 959 3806 978 3900 
Q 1175 4913 2825 4913 
Q 3653 4913 4056 4694 
L 3913 3950 
z
M 2003 2750 
Q 1825 2681 1659 2506 
Q 1400 2234 1306 1744 
Q 1269 1553 1269 1350 
Q 1269 1147 1359 978 
Q 1513 703 1866 703 
Q 2222 703 2481 981 
Q 2744 1263 2834 1731 
Q 2866 1888 2866 2084 
Q 2866 2278 2747 2431 
Q 2572 2669 2269 2703 
Q 2128 2719 2003 2750 
z
" transform="scale(0.015625)"/>
       <path id="DejaVuSans-Bold-31" d="M 750 831 
L 1813 831 
L 1813 3847 
L 722 3622 
L 722 4441 
L 1806 4666 
L 2950 4666 
L 2950 831 
L 4013 831 
L 4013 0 
L 750 0 
L 750 831 
z
" transform="scale(0.015625)"/>
       <path id="DejaVuSans-Bold-38" d="M 2228 2088 
Q 1891 2088 1709 1903 
Q 1528 1719 1528 1375 
Q 1528 1031 1709 848 
Q 1891 666 2228 666 
Q 2563 666 2741 848 
Q 2919 1031 2919 1375 
Q 2919 1722 2741 1905 
Q 2563 2088 2228 2088 
z
M 1350 2484 
Q 925 2613 709 2878 
Q 494 3144 494 3541 
Q 494 4131 934 4440 
Q 1375 4750 2228 4750 
Q 3075 4750 3515 4442 
Q 3956 4134 3956 3541 
Q 3956 3144 3739 2878 
Q 3522 2613 3097 2484 
Q 3572 2353 3814 2058 
Q 4056 1763 4056 1313 
Q 4056 619 3595 264 
Q 3134 -91 2228 -91 
Q 1319 -91 855 264 
Q 391 619 391 1313 
Q 391 1763 633 2058 
Q 875 2353 1350 2484 
z
M 1631 3419 
Q 1631 3141 1786 2991 
Q 1941 2841 2228 2841 
Q 2509 2841 2662 2991 
Q 2816 3141 2816 3419 
Q 2816 3697 2662 3845 
Q 2509 3994 2228 3994 
Q 1941 3994 1786 3844 
Q 1631 3694 1631 3419 
z
" transform="scale(0.015625)"/>
       <path id="DejaVuSans-Bold-4f" d="M 2719 3878 
Q 2169 3878 1866 3472 
Q 1563 3066 1563 2328 
Q 1563 1594 1866 1187 
Q 2169 781 2719 781 
Q 3272 781 3575 1187 
Q 3878 1594 3878 2328 
Q 3878 3066 3575 3472 
Q 3272 3878 2719 3878 
z
M 2719 4750 
Q 3844 4750 4481 4106 
Q 5119 3463 5119 2328 
Q 5119 1197 4481 553 
Q 3844 -91 2719 -91 
Q 1597 -91 958 553 
Q 319 1197 319 2328 
Q 319 3463 958 4106 
Q 1597 4750 2719 4750 
z
" transform="scale(0.015625)"/>
       <path id="DejaVuSans-Bold-5b" d="M 550 4863 
L 2491 4863 
L 2491 4159 
L 1613 4159 
L 1613 -141 
L 2491 -141 
L 2491 -844 
L 550 -844 
L 550 4863 
z
" transform="scale(0.015625)"/>
       <path id="DejaVuSans-Bold-2030" d="M 7822 1925 
Q 7597 1925 7475 1733 
Q 7353 1541 7353 1184 
Q 7353 825 7475 633 
Q 7597 441 7822 441 
Q 8044 441 8162 633 
Q 8281 825 8281 1184 
Q 8281 1541 8162 1733 
Q 8044 1925 7822 1925 
z
M 7822 2450 
Q 8403 2450 8736 2112 
Q 9069 1775 9069 1184 
Q 9069 594 8734 251 
Q 8400 -91 7822 -91 
Q 7241 -91 6903 251 
Q 6566 594 6566 1184 
Q 6566 1772 6902 2111 
Q 7238 2450 7822 2450 
z
M 1453 4225 
Q 1228 4225 1106 4031 
Q 984 3838 984 3481 
Q 984 3122 1106 2926 
Q 1228 2731 1453 2731 
Q 1678 2731 1798 2926 
Q 1919 3122 1919 3481 
Q 1919 3838 1797 4031 
Q 1675 4225 1453 4225 
z
M 1453 4750 
Q 2034 4750 2367 4411 
Q 2700 4072 2700 3481 
Q 2700 2891 2367 2550 
Q 2034 2209 1453 2209 
Q 872 2209 539 2550 
Q 206 2891 206 3481 
Q 206 4072 539 4411 
Q 872 4750 1453 4750 
z
M 2094 -91 
L 1403 -91 
L 4319 4750 
L 5013 4750 
L 2094 -91 
z
M 4959 2450 
Q 5541 2450 5875 2112 
Q 6209 1775 6209 1184 
Q 6209 594 5875 251 
Q 5541 -91 4959 -91 
Q 4378 -91 4042 251 
Q 3706 594 3706 1184 
Q 3706 1772 4042 2111 
Q 4378 2450 4959 2450 
z
M 4959 1925 
Q 4738 1925 4616 1733 
Q 4494 1541 4494 1184 
Q 4494 825 4614 633 
Q 4734 441 4959 441 
Q 5184 441 5303 633 
Q 5422 825 5422 1184 
Q 5422 1541 5301 1733 
Q 5181 1925 4959 1925 
z
" transform="scale(0.015625)"/>
       <path id="DejaVuSans-Bold-5d" d="M 2375 -844 
L 434 -844 
L 434 -141 
L 1313 -141 
L 1313 4159 
L 434 4159 
L 434 4863 
L 2375 4863 
L 2375 -844 
z
" transform="scale(0.015625)"/>
      </defs>
      <use xlink:href="#DejaVuSans-BoldOblique-3b4" transform="translate(0 0.765625)"/>
      <use xlink:href="#DejaVuSans-Bold-31" transform="translate(69.658203 39.046875) scale(0.7)"/>
      <use xlink:href="#DejaVuSans-Bold-38" transform="translate(118.364258 39.046875) scale(0.7)"/>
      <use xlink:href="#DejaVuSans-Bold-4f" transform="translate(169.804688 0.765625)"/>
      <use xlink:href="#DejaVuSans-Bold-5b" transform="translate(287.284832 0.765625)"/>
      <use xlink:href="#DejaVuSans-Bold-2030" transform="translate(332.987957 0.765625)"/>
      <use xlink:href="#DejaVuSans-Bold-5d" transform="translate(476.982097 0.765625)"/>
     </g>
    </g>
   </g>
   <g id="matplotlib.axis_2">
    <g id="ytick_1">
     <g id="line2d_5">
      <path d="M 93.55875 238.33109 
L 651.55875 238.33109 
" clip-path="url(#p3ac8ac1733)" style="fill: none; stroke: #cccccc; stroke-linecap: square"/>
     </g>
     <g id="line2d_6">
      <defs>
       <path id="mfa203746df" d="M 0 0 
L -3.5 0 
" style="stroke: #000000; stroke-width: 0.8"/>
      </defs>
      <g>
       <use xlink:href="#mfa203746df" x="93.55875" y="238.33109" style="stroke: #000000; stroke-width: 0.8"/>
      </g>
     </g>
     <g id="text_6">
      <!-- 20 -->
      <g transform="translate(58.56375 246.689371) scale(0.22 -0.22)">
       <defs>
        <path id="DejaVuSans-32" d="M 1228 531 
L 3431 531 
L 3431 0 
L 469 0 
L 469 531 
Q 828 903 1448 1529 
Q 2069 2156 2228 2338 
Q 2531 2678 2651 2914 
Q 2772 3150 2772 3378 
Q 2772 3750 2511 3984 
Q 2250 4219 1831 4219 
Q 1534 4219 1204 4116 
Q 875 4013 500 3803 
L 500 4441 
Q 881 4594 1212 4672 
Q 1544 4750 1819 4750 
Q 2544 4750 2975 4387 
Q 3406 4025 3406 3419 
Q 3406 3131 3298 2873 
Q 3191 2616 2906 2266 
Q 2828 2175 2409 1742 
Q 1991 1309 1228 531 
z
" transform="scale(0.015625)"/>
       </defs>
       <use xlink:href="#DejaVuSans-32"/>
       <use xlink:href="#DejaVuSans-30" x="63.623047"/>
      </g>
     </g>
    </g>
    <g id="ytick_2">
     <g id="line2d_7">
      <path d="M 93.55875 399.472781 
L 651.55875 399.472781 
" clip-path="url(#p3ac8ac1733)" style="fill: none; stroke: #cccccc; stroke-linecap: square"/>
     </g>
     <g id="line2d_8">
      <g>
       <use xlink:href="#mfa203746df" x="93.55875" y="399.472781" style="stroke: #000000; stroke-width: 0.8"/>
      </g>
     </g>
     <g id="text_7">
      <!-- 40 -->
      <g transform="translate(58.56375 407.831062) scale(0.22 -0.22)">
       <use xlink:href="#DejaVuSans-34"/>
       <use xlink:href="#DejaVuSans-30" x="63.623047"/>
      </g>
     </g>
    </g>
    <g id="ytick_3">
     <g id="line2d_9">
      <path d="M 93.55875 560.614471 
L 651.55875 560.614471 
" clip-path="url(#p3ac8ac1733)" style="fill: none; stroke: #cccccc; stroke-linecap: square"/>
     </g>
     <g id="line2d_10">
      <g>
       <use xlink:href="#mfa203746df" x="93.55875" y="560.614471" style="stroke: #000000; stroke-width: 0.8"/>
      </g>
     </g>
     <g id="text_8">
      <!-- 60 -->
      <g transform="translate(58.56375 568.972752) scale(0.22 -0.22)">
       <use xlink:href="#DejaVuSans-36"/>
       <use xlink:href="#DejaVuSans-30" x="63.623047"/>
      </g>
     </g>
    </g>
    <g id="ytick_4">
     <g id="line2d_11">
      <path d="M 93.55875 721.756161 
L 651.55875 721.756161 
" clip-path="url(#p3ac8ac1733)" style="fill: none; stroke: #cccccc; stroke-linecap: square"/>
     </g>
     <g id="line2d_12">
      <g>
       <use xlink:href="#mfa203746df" x="93.55875" y="721.756161" style="stroke: #000000; stroke-width: 0.8"/>
      </g>
     </g>
     <g id="text_9">
      <!-- 80 -->
      <g transform="translate(58.56375 730.114443) scale(0.22 -0.22)">
       <defs>
        <path id="DejaVuSans-38" d="M 2034 2216 
Q 1584 2216 1326 1975 
Q 1069 1734 1069 1313 
Q 1069 891 1326 650 
Q 1584 409 2034 409 
Q 2484 409 2743 651 
Q 3003 894 3003 1313 
Q 3003 1734 2745 1975 
Q 2488 2216 2034 2216 
z
M 1403 2484 
Q 997 2584 770 2862 
Q 544 3141 544 3541 
Q 544 4100 942 4425 
Q 1341 4750 2034 4750 
Q 2731 4750 3128 4425 
Q 3525 4100 3525 3541 
Q 3525 3141 3298 2862 
Q 3072 2584 2669 2484 
Q 3125 2378 3379 2068 
Q 3634 1759 3634 1313 
Q 3634 634 3220 271 
Q 2806 -91 2034 -91 
Q 1263 -91 848 271 
Q 434 634 434 1313 
Q 434 1759 690 2068 
Q 947 2378 1403 2484 
z
M 1172 3481 
Q 1172 3119 1398 2916 
Q 1625 2713 2034 2713 
Q 2441 2713 2670 2916 
Q 2900 3119 2900 3481 
Q 2900 3844 2670 4047 
Q 2441 4250 2034 4250 
Q 1625 4250 1398 4047 
Q 1172 3844 1172 3481 
z
" transform="scale(0.015625)"/>
       </defs>
       <use xlink:href="#DejaVuSans-38"/>
       <use xlink:href="#DejaVuSans-30" x="63.623047"/>
      </g>
     </g>
    </g>
    <g id="ytick_5">
     <g id="line2d_13">
      <path d="M 93.55875 882.897852 
L 651.55875 882.897852 
" clip-path="url(#p3ac8ac1733)" style="fill: none; stroke: #cccccc; stroke-linecap: square"/>
     </g>
     <g id="line2d_14">
      <g>
       <use xlink:href="#mfa203746df" x="93.55875" y="882.897852" style="stroke: #000000; stroke-width: 0.8"/>
      </g>
     </g>
     <g id="text_10">
      <!-- 100 -->
      <g transform="translate(44.56625 891.256133) scale(0.22 -0.22)">
       <defs>
        <path id="DejaVuSans-31" d="M 794 531 
L 1825 531 
L 1825 4091 
L 703 3866 
L 703 4441 
L 1819 4666 
L 2450 4666 
L 2450 531 
L 3481 531 
L 3481 0 
L 794 0 
L 794 531 
z
" transform="scale(0.015625)"/>
       </defs>
       <use xlink:href="#DejaVuSans-31"/>
       <use xlink:href="#DejaVuSans-30" x="63.623047"/>
       <use xlink:href="#DejaVuSans-30" x="127.246094"/>
      </g>
     </g>
    </g>
    <g id="ytick_6">
     <g id="line2d_15">
      <path d="M 93.55875 1044.039542 
L 651.55875 1044.039542 
" clip-path="url(#p3ac8ac1733)" style="fill: none; stroke: #cccccc; stroke-linecap: square"/>
     </g>
     <g id="line2d_16">
      <g>
       <use xlink:href="#mfa203746df" x="93.55875" y="1044.039542" style="stroke: #000000; stroke-width: 0.8"/>
      </g>
     </g>
     <g id="text_11">
      <!-- 120 -->
      <g transform="translate(44.56625 1052.397824) scale(0.22 -0.22)">
       <use xlink:href="#DejaVuSans-31"/>
       <use xlink:href="#DejaVuSans-32" x="63.623047"/>
       <use xlink:href="#DejaVuSans-30" x="127.246094"/>
      </g>
     </g>
    </g>
    <g id="ytick_7">
     <g id="line2d_17">
      <path d="M 93.55875 1205.181233 
L 651.55875 1205.181233 
" clip-path="url(#p3ac8ac1733)" style="fill: none; stroke: #cccccc; stroke-linecap: square"/>
     </g>
     <g id="line2d_18">
      <g>
       <use xlink:href="#mfa203746df" x="93.55875" y="1205.181233" style="stroke: #000000; stroke-width: 0.8"/>
      </g>
     </g>
     <g id="text_12">
      <!-- 140 -->
      <g transform="translate(44.56625 1213.539514) scale(0.22 -0.22)">
       <use xlink:href="#DejaVuSans-31"/>
       <use xlink:href="#DejaVuSans-34" x="63.623047"/>
       <use xlink:href="#DejaVuSans-30" x="127.246094"/>
      </g>
     </g>
    </g>
    <g id="ytick_8">
     <g id="line2d_19">
      <defs>
       <path id="m129d38071a" d="M 0 0 
L -4 0 
" style="stroke: #000000; stroke-width: 0.8"/>
      </defs>
      <g>
       <use xlink:href="#m129d38071a" x="93.55875" y="117.474822" style="stroke: #000000; stroke-width: 0.8"/>
      </g>
     </g>
    </g>
    <g id="ytick_9">
     <g id="line2d_20">
      <g>
       <use xlink:href="#m129d38071a" x="93.55875" y="157.760245" style="stroke: #000000; stroke-width: 0.8"/>
      </g>
     </g>
    </g>
    <g id="ytick_10">
     <g id="line2d_21">
      <g>
       <use xlink:href="#m129d38071a" x="93.55875" y="198.045668" style="stroke: #000000; stroke-width: 0.8"/>
      </g>
     </g>
    </g>
    <g id="ytick_11">
     <g id="line2d_22">
      <g>
       <use xlink:href="#m129d38071a" x="93.55875" y="278.616513" style="stroke: #000000; stroke-width: 0.8"/>
      </g>
     </g>
    </g>
    <g id="ytick_12">
     <g id="line2d_23">
      <g>
       <use xlink:href="#m129d38071a" x="93.55875" y="318.901935" style="stroke: #000000; stroke-width: 0.8"/>
      </g>
     </g>
    </g>
    <g id="ytick_13">
     <g id="line2d_24">
      <g>
       <use xlink:href="#m129d38071a" x="93.55875" y="359.187358" style="stroke: #000000; stroke-width: 0.8"/>
      </g>
     </g>
    </g>
    <g id="ytick_14">
     <g id="line2d_25">
      <g>
       <use xlink:href="#m129d38071a" x="93.55875" y="439.758203" style="stroke: #000000; stroke-width: 0.8"/>
      </g>
     </g>
    </g>
    <g id="ytick_15">
     <g id="line2d_26">
      <g>
       <use xlink:href="#m129d38071a" x="93.55875" y="480.043626" style="stroke: #000000; stroke-width: 0.8"/>
      </g>
     </g>
    </g>
    <g id="ytick_16">
     <g id="line2d_27">
      <g>
       <use xlink:href="#m129d38071a" x="93.55875" y="520.329048" style="stroke: #000000; stroke-width: 0.8"/>
      </g>
     </g>
    </g>
    <g id="ytick_17">
     <g id="line2d_28">
      <g>
       <use xlink:href="#m129d38071a" x="93.55875" y="600.899894" style="stroke: #000000; stroke-width: 0.8"/>
      </g>
     </g>
    </g>
    <g id="ytick_18">
     <g id="line2d_29">
      <g>
       <use xlink:href="#m129d38071a" x="93.55875" y="641.185316" style="stroke: #000000; stroke-width: 0.8"/>
      </g>
     </g>
    </g>
    <g id="ytick_19">
     <g id="line2d_30">
      <g>
       <use xlink:href="#m129d38071a" x="93.55875" y="681.470739" style="stroke: #000000; stroke-width: 0.8"/>
      </g>
     </g>
    </g>
    <g id="ytick_20">
     <g id="line2d_31">
      <g>
       <use xlink:href="#m129d38071a" x="93.55875" y="762.041584" style="stroke: #000000; stroke-width: 0.8"/>
      </g>
     </g>
    </g>
    <g id="ytick_21">
     <g id="line2d_32">
      <g>
       <use xlink:href="#m129d38071a" x="93.55875" y="802.327007" style="stroke: #000000; stroke-width: 0.8"/>
      </g>
     </g>
    </g>
    <g id="ytick_22">
     <g id="line2d_33">
      <g>
       <use xlink:href="#m129d38071a" x="93.55875" y="842.612429" style="stroke: #000000; stroke-width: 0.8"/>
      </g>
     </g>
    </g>
    <g id="ytick_23">
     <g id="line2d_34">
      <g>
       <use xlink:href="#m129d38071a" x="93.55875" y="923.183274" style="stroke: #000000; stroke-width: 0.8"/>
      </g>
     </g>
    </g>
    <g id="ytick_24">
     <g id="line2d_35">
      <g>
       <use xlink:href="#m129d38071a" x="93.55875" y="963.468697" style="stroke: #000000; stroke-width: 0.8"/>
      </g>
     </g>
    </g>
    <g id="ytick_25">
     <g id="line2d_36">
      <g>
       <use xlink:href="#m129d38071a" x="93.55875" y="1003.75412" style="stroke: #000000; stroke-width: 0.8"/>
      </g>
     </g>
    </g>
    <g id="ytick_26">
     <g id="line2d_37">
      <g>
       <use xlink:href="#m129d38071a" x="93.55875" y="1084.324965" style="stroke: #000000; stroke-width: 0.8"/>
      </g>
     </g>
    </g>
    <g id="ytick_27">
     <g id="line2d_38">
      <g>
       <use xlink:href="#m129d38071a" x="93.55875" y="1124.610387" style="stroke: #000000; stroke-width: 0.8"/>
      </g>
     </g>
    </g>
    <g id="ytick_28">
     <g id="line2d_39">
      <g>
       <use xlink:href="#m129d38071a" x="93.55875" y="1164.89581" style="stroke: #000000; stroke-width: 0.8"/>
      </g>
     </g>
    </g>
    <g id="text_13">
     <!-- Age [ka BP] -->
     <g transform="translate(26.955938 737.513281) rotate(-90) scale(0.26 -0.26)">
      <defs>
       <path id="DejaVuSans-Bold-41" d="M 3419 850 
L 1538 850 
L 1241 0 
L 31 0 
L 1759 4666 
L 3194 4666 
L 4922 0 
L 3713 0 
L 3419 850 
z
M 1838 1716 
L 3116 1716 
L 2478 3572 
L 1838 1716 
z
" transform="scale(0.015625)"/>
       <path id="DejaVuSans-Bold-67" d="M 2919 594 
Q 2688 288 2409 144 
Q 2131 0 1766 0 
Q 1125 0 706 504 
Q 288 1009 288 1791 
Q 288 2575 706 3076 
Q 1125 3578 1766 3578 
Q 2131 3578 2409 3434 
Q 2688 3291 2919 2981 
L 2919 3500 
L 4044 3500 
L 4044 353 
Q 4044 -491 3511 -936 
Q 2978 -1381 1966 -1381 
Q 1638 -1381 1331 -1331 
Q 1025 -1281 716 -1178 
L 716 -306 
Q 1009 -475 1290 -558 
Q 1572 -641 1856 -641 
Q 2406 -641 2662 -400 
Q 2919 -159 2919 353 
L 2919 594 
z
M 2181 2772 
Q 1834 2772 1640 2515 
Q 1447 2259 1447 1791 
Q 1447 1309 1634 1061 
Q 1822 813 2181 813 
Q 2531 813 2725 1069 
Q 2919 1325 2919 1791 
Q 2919 2259 2725 2515 
Q 2531 2772 2181 2772 
z
" transform="scale(0.015625)"/>
       <path id="DejaVuSans-Bold-65" d="M 4031 1759 
L 4031 1441 
L 1416 1441 
Q 1456 1047 1700 850 
Q 1944 653 2381 653 
Q 2734 653 3104 758 
Q 3475 863 3866 1075 
L 3866 213 
Q 3469 63 3072 -14 
Q 2675 -91 2278 -91 
Q 1328 -91 801 392 
Q 275 875 275 1747 
Q 275 2603 792 3093 
Q 1309 3584 2216 3584 
Q 3041 3584 3536 3087 
Q 4031 2591 4031 1759 
z
M 2881 2131 
Q 2881 2450 2695 2645 
Q 2509 2841 2209 2841 
Q 1884 2841 1681 2658 
Q 1478 2475 1428 2131 
L 2881 2131 
z
" transform="scale(0.015625)"/>
       <path id="DejaVuSans-Bold-20" transform="scale(0.015625)"/>
       <path id="DejaVuSans-Bold-6b" d="M 538 4863 
L 1656 4863 
L 1656 2216 
L 2944 3500 
L 4244 3500 
L 2534 1894 
L 4378 0 
L 3022 0 
L 1656 1459 
L 1656 0 
L 538 0 
L 538 4863 
z
" transform="scale(0.015625)"/>
       <path id="DejaVuSans-Bold-61" d="M 2106 1575 
Q 1756 1575 1579 1456 
Q 1403 1338 1403 1106 
Q 1403 894 1545 773 
Q 1688 653 1941 653 
Q 2256 653 2472 879 
Q 2688 1106 2688 1447 
L 2688 1575 
L 2106 1575 
z
M 3816 1997 
L 3816 0 
L 2688 0 
L 2688 519 
Q 2463 200 2181 54 
Q 1900 -91 1497 -91 
Q 953 -91 614 226 
Q 275 544 275 1050 
Q 275 1666 698 1953 
Q 1122 2241 2028 2241 
L 2688 2241 
L 2688 2328 
Q 2688 2594 2478 2717 
Q 2269 2841 1825 2841 
Q 1466 2841 1156 2769 
Q 847 2697 581 2553 
L 581 3406 
Q 941 3494 1303 3539 
Q 1666 3584 2028 3584 
Q 2975 3584 3395 3211 
Q 3816 2838 3816 1997 
z
" transform="scale(0.015625)"/>
       <path id="DejaVuSans-Bold-42" d="M 2456 2859 
Q 2741 2859 2887 2984 
Q 3034 3109 3034 3353 
Q 3034 3594 2887 3720 
Q 2741 3847 2456 3847 
L 1791 3847 
L 1791 2859 
L 2456 2859 
z
M 2497 819 
Q 2859 819 3042 972 
Q 3225 1125 3225 1434 
Q 3225 1738 3044 1889 
Q 2863 2041 2497 2041 
L 1791 2041 
L 1791 819 
L 2497 819 
z
M 3616 2497 
Q 4003 2384 4215 2081 
Q 4428 1778 4428 1338 
Q 4428 663 3972 331 
Q 3516 0 2584 0 
L 588 0 
L 588 4666 
L 2394 4666 
Q 3366 4666 3802 4372 
Q 4238 4078 4238 3431 
Q 4238 3091 4078 2852 
Q 3919 2613 3616 2497 
z
" transform="scale(0.015625)"/>
       <path id="DejaVuSans-Bold-50" d="M 588 4666 
L 2584 4666 
Q 3475 4666 3951 4270 
Q 4428 3875 4428 3144 
Q 4428 2409 3951 2014 
Q 3475 1619 2584 1619 
L 1791 1619 
L 1791 0 
L 588 0 
L 588 4666 
z
M 1791 3794 
L 1791 2491 
L 2456 2491 
Q 2806 2491 2997 2661 
Q 3188 2831 3188 3144 
Q 3188 3456 2997 3625 
Q 2806 3794 2456 3794 
L 1791 3794 
z
" transform="scale(0.015625)"/>
      </defs>
      <use xlink:href="#DejaVuSans-Bold-41"/>
      <use xlink:href="#DejaVuSans-Bold-67" x="77.392578"/>
      <use xlink:href="#DejaVuSans-Bold-65" x="148.974609"/>
      <use xlink:href="#DejaVuSans-Bold-20" x="216.796875"/>
      <use xlink:href="#DejaVuSans-Bold-5b" x="251.611328"/>
      <use xlink:href="#DejaVuSans-Bold-6b" x="297.314453"/>
      <use xlink:href="#DejaVuSans-Bold-61" x="363.818359"/>
      <use xlink:href="#DejaVuSans-Bold-20" x="431.298828"/>
      <use xlink:href="#DejaVuSans-Bold-42" x="466.113281"/>
      <use xlink:href="#DejaVuSans-Bold-50" x="542.333984"/>
      <use xlink:href="#DejaVuSans-Bold-5d" x="615.625"/>
     </g>
    </g>
   </g>
   <g id="text_14">
    <!-- MIS 1 -->
    <g style="fill: #8b1a00" transform="translate(602.14125 147.427729) scale(0.14 -0.14)">
     <defs>
      <path id="DejaVuSans-Bold-4d" d="M 588 4666 
L 2119 4666 
L 3181 2169 
L 4250 4666 
L 5778 4666 
L 5778 0 
L 4641 0 
L 4641 3413 
L 3566 897 
L 2803 897 
L 1728 3413 
L 1728 0 
L 588 0 
L 588 4666 
z
" transform="scale(0.015625)"/>
      <path id="DejaVuSans-Bold-49" d="M 588 4666 
L 1791 4666 
L 1791 0 
L 588 0 
L 588 4666 
z
" transform="scale(0.015625)"/>
      <path id="DejaVuSans-Bold-53" d="M 3834 4519 
L 3834 3531 
Q 3450 3703 3084 3790 
Q 2719 3878 2394 3878 
Q 1963 3878 1756 3759 
Q 1550 3641 1550 3391 
Q 1550 3203 1689 3098 
Q 1828 2994 2194 2919 
L 2706 2816 
Q 3484 2659 3812 2340 
Q 4141 2022 4141 1434 
Q 4141 663 3683 286 
Q 3225 -91 2284 -91 
Q 1841 -91 1394 -6 
Q 947 78 500 244 
L 500 1259 
Q 947 1022 1364 901 
Q 1781 781 2169 781 
Q 2563 781 2772 912 
Q 2981 1044 2981 1288 
Q 2981 1506 2839 1625 
Q 2697 1744 2272 1838 
L 1806 1941 
Q 1106 2091 782 2419 
Q 459 2747 459 3303 
Q 459 4000 909 4375 
Q 1359 4750 2203 4750 
Q 2588 4750 2994 4692 
Q 3400 4634 3834 4519 
z
" transform="scale(0.015625)"/>
     </defs>
     <use xlink:href="#DejaVuSans-Bold-4d"/>
     <use xlink:href="#DejaVuSans-Bold-49" x="99.511719"/>
     <use xlink:href="#DejaVuSans-Bold-53" x="136.71875"/>
     <use xlink:href="#DejaVuSans-Bold-20" x="208.740234"/>
     <use xlink:href="#DejaVuSans-Bold-31" x="243.554688"/>
    </g>
   </g>
   <g id="text_15">
    <!-- MIS 2 -->
    <g style="fill: #003f6b" transform="translate(602.14125 254.279842) scale(0.14 -0.14)">
     <defs>
      <path id="DejaVuSans-Bold-32" d="M 1844 884 
L 3897 884 
L 3897 0 
L 506 0 
L 506 884 
L 2209 2388 
Q 2438 2594 2547 2791 
Q 2656 2988 2656 3200 
Q 2656 3528 2436 3728 
Q 2216 3928 1850 3928 
Q 1569 3928 1234 3808 
Q 900 3688 519 3450 
L 519 4475 
Q 925 4609 1322 4679 
Q 1719 4750 2100 4750 
Q 2938 4750 3402 4381 
Q 3866 4013 3866 3353 
Q 3866 2972 3669 2642 
Q 3472 2313 2841 1759 
L 1844 884 
z
" transform="scale(0.015625)"/>
     </defs>
     <use xlink:href="#DejaVuSans-Bold-4d"/>
     <use xlink:href="#DejaVuSans-Bold-49" x="99.511719"/>
     <use xlink:href="#DejaVuSans-Bold-53" x="136.71875"/>
     <use xlink:href="#DejaVuSans-Bold-20" x="208.740234"/>
     <use xlink:href="#DejaVuSans-Bold-32" x="243.554688"/>
    </g>
   </g>
   <g id="text_16">
    <!-- MIS 3 -->
    <g style="fill: #8b1a00" transform="translate(602.14125 427.507159) scale(0.14 -0.14)">
     <defs>
      <path id="DejaVuSans-Bold-33" d="M 2981 2516 
Q 3453 2394 3698 2092 
Q 3944 1791 3944 1325 
Q 3944 631 3412 270 
Q 2881 -91 1863 -91 
Q 1503 -91 1142 -33 
Q 781 25 428 141 
L 428 1069 
Q 766 900 1098 814 
Q 1431 728 1753 728 
Q 2231 728 2486 893 
Q 2741 1059 2741 1369 
Q 2741 1688 2480 1852 
Q 2219 2016 1709 2016 
L 1228 2016 
L 1228 2791 
L 1734 2791 
Q 2188 2791 2409 2933 
Q 2631 3075 2631 3366 
Q 2631 3634 2415 3781 
Q 2200 3928 1806 3928 
Q 1516 3928 1219 3862 
Q 922 3797 628 3669 
L 628 4550 
Q 984 4650 1334 4700 
Q 1684 4750 2022 4750 
Q 2931 4750 3382 4451 
Q 3834 4153 3834 3553 
Q 3834 3144 3618 2883 
Q 3403 2622 2981 2516 
z
" transform="scale(0.015625)"/>
     </defs>
     <use xlink:href="#DejaVuSans-Bold-4d"/>
     <use xlink:href="#DejaVuSans-Bold-49" x="99.511719"/>
     <use xlink:href="#DejaVuSans-Bold-53" x="136.71875"/>
     <use xlink:href="#DejaVuSans-Bold-20" x="208.740234"/>
     <use xlink:href="#DejaVuSans-Bold-33" x="243.554688"/>
    </g>
   </g>
   <g id="text_17">
    <!-- MIS 4 -->
    <g style="fill: #003f6b" transform="translate(602.14125 596.705934) scale(0.14 -0.14)">
     <defs>
      <path id="DejaVuSans-Bold-34" d="M 2356 3675 
L 1038 1722 
L 2356 1722 
L 2356 3675 
z
M 2156 4666 
L 3494 4666 
L 3494 1722 
L 4159 1722 
L 4159 850 
L 3494 850 
L 3494 0 
L 2356 0 
L 2356 850 
L 288 850 
L 288 1881 
L 2156 4666 
z
" transform="scale(0.015625)"/>
     </defs>
     <use xlink:href="#DejaVuSans-Bold-4d"/>
     <use xlink:href="#DejaVuSans-Bold-49" x="99.511719"/>
     <use xlink:href="#DejaVuSans-Bold-53" x="136.71875"/>
     <use xlink:href="#DejaVuSans-Bold-20" x="208.740234"/>
     <use xlink:href="#DejaVuSans-Bold-34" x="243.554688"/>
    </g>
   </g>
   <g id="text_18">
    <!-- MIS 5 -->
    <g style="fill: #8b1a00" transform="translate(602.14125 890.789519) scale(0.14 -0.14)">
     <defs>
      <path id="DejaVuSans-Bold-35" d="M 678 4666 
L 3669 4666 
L 3669 3781 
L 1638 3781 
L 1638 3059 
Q 1775 3097 1914 3117 
Q 2053 3138 2203 3138 
Q 3056 3138 3531 2711 
Q 4006 2284 4006 1522 
Q 4006 766 3489 337 
Q 2972 -91 2053 -91 
Q 1656 -91 1267 -14 
Q 878 63 494 219 
L 494 1166 
Q 875 947 1217 837 
Q 1559 728 1863 728 
Q 2300 728 2551 942 
Q 2803 1156 2803 1522 
Q 2803 1891 2551 2103 
Q 2300 2316 1863 2316 
Q 1603 2316 1309 2248 
Q 1016 2181 678 2041 
L 678 4666 
z
" transform="scale(0.015625)"/>
     </defs>
     <use xlink:href="#DejaVuSans-Bold-4d"/>
     <use xlink:href="#DejaVuSans-Bold-49" x="99.511719"/>
     <use xlink:href="#DejaVuSans-Bold-53" x="136.71875"/>
     <use xlink:href="#DejaVuSans-Bold-20" x="208.740234"/>
     <use xlink:href="#DejaVuSans-Bold-35" x="243.554688"/>
    </g>
   </g>
   <g id="text_19">
    <!-- MIS 6 -->
    <g style="fill: #003f6b" transform="translate(602.14125 1169.138631) scale(0.14 -0.14)">
     <defs>
      <path id="DejaVuSans-Bold-36" d="M 2316 2303 
Q 2000 2303 1842 2098 
Q 1684 1894 1684 1484 
Q 1684 1075 1842 870 
Q 2000 666 2316 666 
Q 2634 666 2792 870 
Q 2950 1075 2950 1484 
Q 2950 1894 2792 2098 
Q 2634 2303 2316 2303 
z
M 3803 4544 
L 3803 3681 
Q 3506 3822 3243 3889 
Q 2981 3956 2731 3956 
Q 2194 3956 1894 3657 
Q 1594 3359 1544 2772 
Q 1750 2925 1990 3001 
Q 2231 3078 2516 3078 
Q 3231 3078 3670 2659 
Q 4109 2241 4109 1563 
Q 4109 813 3618 361 
Q 3128 -91 2303 -91 
Q 1394 -91 895 523 
Q 397 1138 397 2266 
Q 397 3422 980 4083 
Q 1563 4744 2578 4744 
Q 2900 4744 3203 4694 
Q 3506 4644 3803 4544 
z
" transform="scale(0.015625)"/>
     </defs>
     <use xlink:href="#DejaVuSans-Bold-4d"/>
     <use xlink:href="#DejaVuSans-Bold-49" x="99.511719"/>
     <use xlink:href="#DejaVuSans-Bold-53" x="136.71875"/>
     <use xlink:href="#DejaVuSans-Bold-20" x="208.740234"/>
     <use xlink:href="#DejaVuSans-Bold-36" x="243.554688"/>
    </g>
   </g>
   <g id="line2d_40">
    <path d="M 391.325633 97.140625 
L 368.852229 97.335641 
L 381.362138 97.529891 
L 359.839932 97.724234 
L 354.685165 98.116101 
L 388.869059 98.30699 
L 363.265929 98.500398 
L 407.184062 98.885606 
L 406.788772 99.076444 
L 371.136647 99.269797 
L 335.840208 99.847988 
L 341.243135 100.041957 
L 359.182459 100.232456 
L 293.633407 100.422795 
L 344.613246 100.616924 
L 325.96643 100.81364 
L 330.055926 101.009405 
L 362.814722 101.20428 
L 325.236219 101.59362 
L 342.89029 101.78565 
L 307.18568 101.980682 
L 341.576178 102.17518 
L 326.277131 102.563005 
L 299.594268 102.762236 
L 310.771364 102.959965 
L 299.749555 103.149746 
L 306.969267 103.344296 
L 289.582149 103.539479 
L 311.583048 103.732205 
L 313.847218 103.929206 
L 307.65279 104.122009 
L 296.930022 104.315406 
L 295.562976 104.49829 
L 273.732958 104.659974 
L 320.426128 104.819784 
L 278.773941 104.980894 
L 303.936134 105.14116 
L 285.438291 105.461557 
L 311.113126 105.622637 
L 266.983168 105.781045 
L 306.200304 105.942343 
L 285.438291 106.103665 
L 314.018099 106.426627 
L 278.090418 106.58638 
L 279.115702 106.748191 
L 290.949195 106.91035 
L 264.932599 107.233237 
L 276.723372 107.553674 
L 265.829723 107.715076 
L 290.607434 107.87704 
L 260.190658 108.039176 
L 289.539429 108.359199 
L 282.661478 108.517931 
L 295.520256 108.676652 
L 287.232539 108.836899 
L 288.172383 108.998903 
L 291.84632 109.15728 
L 303.679813 109.318531 
L 256.773042 109.637538 
L 309.276158 109.900827 
L 294.067769 109.980047 
L 291.88904 110.056572 
L 319.699884 110.20285 
L 284.583887 110.275779 
L 302.270046 110.344883 
L 281.550753 110.413212 
L 285.18197 110.47693 
L 279.500184 110.548483 
L 295.306655 110.615628 
L 267.923012 110.692119 
L 307.097428 110.890873 
L 256.694844 110.963408 
L 269.048777 111.036393 
L 270.172262 111.082641 
L 297.888473 111.125188 
L 297.842354 111.170448 
L 263.645264 111.311013 
L 323.438519 111.378609 
L 307.276583 111.443073 
L 278.089836 111.505906 
L 306.982422 111.638406 
L 300.306472 111.703454 
L 339.893353 111.825479 
L 391.314361 111.895896 
L 324.677605 112.091394 
L 319.205241 112.16153 
L 363.743115 112.353282 
L 310.350925 112.4832 
L 325.953866 112.612836 
L 363.788233 112.740925 
L 325.245443 112.862301 
L 348.889228 112.992112 
L 337.469975 113.057694 
L 346.806049 113.121984 
L 326.839535 113.190432 
L 353.598109 113.253277 
L 352.564442 113.320129 
L 351.030341 113.457907 
L 318.879631 113.517575 
L 338.29704 113.586531 
L 337.215163 113.776675 
L 349.390417 113.955371 
L 283.1314 114.13957 
L 293.683288 114.424121 
L 300.689399 114.527405 
L 265.487961 114.63563 
L 326.663276 114.855485 
L 303.338051 115.070199 
L 312.223851 115.173382 
L 285.694612 115.278244 
L 300.219477 115.599678 
L 284.071245 115.701286 
L 308.891676 115.80579 
L 298.809711 115.910095 
L 333.156745 116.019973 
L 297.058183 116.124362 
L 300.262197 116.23339 
L 293.811448 116.342944 
L 301.501083 116.456288 
L 276.595211 116.563058 
L 322.647578 116.668515 
L 295.691137 116.777964 
L 304.149735 116.881436 
L 273.006715 116.987251 
L 297.058183 117.098407 
L 295.434816 117.199191 
L 288.257823 117.310027 
L 269.845421 117.415937 
L 292.615283 117.524262 
L 291.256307 117.630255 
L 302.149472 117.743252 
L 241.361338 117.958915 
L 250.802081 118.061576 
L 249.605969 118.147093 
L 217.225501 118.193248 
L 283.994197 118.326618 
L 250.246743 118.416587 
L 262.677767 118.464976 
L 292.025236 118.598463 
L 271.3923 118.689831 
L 294.374742 118.738738 
L 259.943796 118.786609 
L 290.957279 118.834949 
L 301.337825 118.887492 
L 281.601972 118.938452 
L 319.834846 118.994443 
L 294.844644 119.043026 
L 313.98244 119.163148 
L 323.081437 119.413673 
L 270.36706 119.707732 
L 260.627289 119.81863 
L 294.759207 119.929465 
L 259.730205 120.262299 
L 284.677689 120.372776 
L 266.821442 120.484101 
L 268.829202 120.594529 
L 258.405938 120.706222 
L 312.871764 120.929573 
L 282.071873 121.151386 
L 267.889399 121.262273 
L 282.114592 121.373513 
L 279.807804 121.596018 
L 283.438859 121.708066 
L 251.058391 121.81881 
L 262.036993 121.929103 
L 251.058391 122.039846 
L 285.702928 122.262487 
L 293.94756 122.374633 
L 290.829124 122.486201 
L 248.025392 122.710769 
L 300.910642 122.822265 
L 262.635049 122.932586 
L 282.66993 123.154492 
L 279.508776 123.267889 
L 321.75717 123.508838 
L 325.601816 123.689403 
L 285.489337 123.872222 
L 321.842606 124.049343 
L 313.170792 124.217239 
L 285.745647 124.390473 
L 311.803807 124.566841 
L 311.034878 124.740973 
L 273.741806 124.916991 
L 273.699087 125.095526 
L 278.312663 125.27338 
L 279.55875 940.429869 
L 284.631477 940.511495 
L 306.613295 940.751891 
L 304.922386 940.839155 
L 296.467841 940.995551 
L 298.15875 941.100787 
L 276.176932 941.250803 
L 311.686023 941.458847 
L 294.776932 941.548974 
L 299.849659 941.626968 
L 286.322386 941.752093 
L 289.704205 941.878452 
L 308.304205 941.998699 
L 286.322386 942.106556 
L 316.75875 942.22768 
L 286.322386 942.341607 
L 313.376932 942.573075 
L 308.304205 942.689657 
L 309.995114 942.908307 
L 267.722386 943.027071 
L 296.467841 943.252877 
L 303.231477 943.362888 
L 299.849659 943.479998 
L 321.831477 943.725036 
L 328.595114 943.84417 
L 309.995114 943.968102 
L 309.995114 944.120863 
L 330.286023 944.209046 
L 320.140568 944.303362 
L 347.195114 944.678012 
L 347.195114 944.906553 
L 365.795114 945.295914 
L 335.35875 945.498242 
L 365.795114 945.643443 
L 357.340568 945.90594 
L 325.213295 946.159021 
L 350.576932 946.273656 
L 323.522386 946.397997 
L 326.904205 946.653865 
L 320.140568 946.802382 
L 330.286023 946.937642 
L 304.922386 947.173998 
L 311.686023 947.272013 
L 313.376932 947.38824 
L 333.667841 947.50772 
L 306.613295 947.654907 
L 326.904205 948.00684 
L 342.122386 948.146098 
L 315.067841 948.566793 
L 345.504205 948.867901 
L 345.504205 949.002153 
L 337.049659 949.15835 
L 337.049659 949.2846 
L 331.976932 949.435648 
L 343.813295 949.671295 
L 316.75875 949.966832 
L 318.449659 950.054695 
L 359.031477 950.310421 
L 355.649659 950.421194 
L 318.449659 951.380632 
L 367.486023 952.336401 
L 350.576932 953.215304 
L 369.176932 954.107648 
L 389.467841 954.715347 
L 359.031477 955.216932 
L 404.686023 955.569994 
L 413.140568 956.191269 
L 397.922386 956.771905 
L 404.686023 957.1196 
L 448.649659 957.727464 
L 440.195114 958.042448 
L 453.722386 958.797271 
L 462.176932 959.127855 
L 455.413295 959.446749 
L 428.35875 959.775464 
L 468.940568 959.990726 
L 468.940568 960.770165 
L 477.395114 961.50084 
L 524.740568 962.831102 
L 523.049659 963.46218 
L 543.340568 964.166057 
L 539.95875 964.782742 
L 546.722386 965.377231 
L 539.95875 965.924202 
L 556.867841 966.008812 
L 475.704205 966.193539 
L 546.722386 966.329203 
L 489.231477 966.4457 
L 565.322386 966.530421 
L 523.049659 966.694566 
L 509.522386 966.779864 
L 543.340568 966.916958 
L 519.667841 967.037295 
L 492.613295 967.302218 
L 536.576932 967.514888 
L 558.55875 967.623936 
L 511.213295 967.734694 
L 561.940568 967.855199 
L 463.867841 968.057801 
L 548.413295 968.181983 
L 517.976932 968.265264 
L 534.886023 968.389122 
L 499.376932 968.459334 
L 523.049659 968.568945 
L 487.540568 968.685534 
L 490.922386 968.784752 
L 506.140568 968.906725 
L 475.704205 969.091402 
L 452.031477 969.36782 
L 480.776932 969.841185 
L 448.649659 970.073701 
L 462.176932 970.289266 
L 480.776932 970.890967 
L 452.031477 971.024633 
L 495.995114 971.270459 
L 450.340568 971.568582 
L 430.049659 971.771975 
L 472.322386 971.921117 
L 446.95875 972.132725 
L 446.95875 972.364781 
L 418.213295 972.552771 
L 416.522386 972.692007 
L 441.886023 972.98891 
L 419.904205 973.369623 
L 409.75875 974.164304 
L 428.35875 974.955066 
L 436.813295 976.611035 
L 448.649659 977.456966 
L 409.75875 978.27899 
L 416.522386 979.964628 
L 477.395114 981.626994 
L 409.75875 982.477272 
L 441.886023 983.368279 
L 438.504205 984.105206 
L 430.049659 984.198976 
L 387.776932 984.434015 
L 438.504205 984.616819 
L 443.576932 984.844557 
L 396.231477 985.014482 
L 414.831477 985.195513 
L 404.686023 985.375218 
L 418.213295 985.45851 
L 397.922386 985.652025 
L 384.395114 985.750243 
L 389.467841 985.938636 
L 408.067841 986.160344 
L 396.231477 986.292732 
L 426.667841 986.400701 
L 419.904205 986.467545 
L 387.776932 986.588847 
L 411.449659 986.697256 
L 389.467841 986.794344 
L 426.667841 987.152064 
L 382.704205 987.271987 
L 414.831477 987.353017 
L 408.067841 987.431085 
L 384.395114 987.84346 
L 406.376932 988.030242 
L 382.704205 988.156691 
L 399.613295 988.224711 
L 386.086023 988.319778 
L 401.304205 988.389512 
L 389.467841 988.468585 
L 409.75875 988.604604 
L 397.922386 988.680881 
L 365.795114 988.762795 
L 402.995114 988.939781 
L 375.940568 989.278787 
L 402.995114 989.465784 
L 367.486023 989.644022 
L 419.904205 989.817691 
L 384.395114 989.920586 
L 401.304205 989.995339 
L 389.467841 990.098792 
L 362.413295 990.157336 
L 382.704205 990.33767 
L 377.631477 990.427837 
L 419.904205 990.619287 
L 377.631477 990.698339 
L 377.631477 991.034637 
L 369.176932 991.342702 
L 387.776932 991.680211 
L 370.867841 992.070929 
L 411.449659 992.377184 
L 379.322386 992.707659 
L 377.631477 993.458247 
L 382.704205 993.72237 
L 369.176932 994.482853 
L 389.467841 994.891288 
L 379.322386 995.261906 
L 426.667841 995.60602 
L 377.631477 996.36049 
L 428.35875 996.793665 
L 386.086023 997.153526 
L 419.904205 997.491028 
L 377.631477 997.747738 
L 401.304205 998.030549 
L 382.704205 998.337711 
L 372.55875 998.669804 
L 382.704205 998.991177 
L 389.467841 999.332361 
L 367.486023 999.684241 
L 387.776932 999.988282 
L 370.867841 1000.082124 
L 372.55875 1000.177979 
L 391.15875 1000.37948 
L 396.231477 1000.484472 
L 426.667841 1000.694455 
L 382.704205 1000.924543 
L 402.995114 1001.08328 
L 397.922386 1001.164638 
L 413.140568 1001.276178 
L 402.995114 1001.367349 
L 457.104205 1001.849363 
L 431.740568 1002.064427 
L 411.449659 1002.176643 
L 445.267841 1002.270138 
L 438.504205 1002.379195 
L 455.413295 1002.487759 
L 433.431477 1002.596312 
L 426.667841 1002.875804 
L 450.340568 1002.997393 
L 424.976932 1003.108588 
L 480.776932 1003.209383 
L 479.086023 1003.335625 
L 484.15875 1003.480064 
L 467.249659 1003.595477 
L 502.75875 1003.72173 
L 431.740568 1004.090567 
L 453.722386 1004.17477 
L 452.031477 1004.282022 
L 468.940568 1004.499976 
L 468.940568 1004.594754 
L 458.795114 1004.680143 
L 465.55875 1004.897194 
L 431.740568 1004.996203 
L 448.649659 1005.12848 
L 431.740568 1005.2213 
L 463.867841 1005.344583 
L 446.95875 1005.572434 
L 467.249659 1005.678122 
L 463.867841 1005.896602 
L 465.55875 1005.987902 
L 475.704205 1006.056647 
L 423.286023 1006.101031 
L 463.867841 1006.132122 
L 477.395114 1006.190314 
L 431.740568 1006.274517 
L 457.104205 1006.29813 
L 492.613295 1006.367528 
L 468.940568 1006.443894 
L 480.776932 1006.508464 
L 443.576932 1006.888516 
L 445.267841 1006.965404 
L 409.75875 1007.115432 
L 418.213295 1007.31237 
L 419.904205 1007.393411 
L 441.886023 1007.456389 
L 414.831477 1007.510116 
L 418.213295 1007.583505 
L 377.631477 1007.777559 
L 452.031477 1008.120296 
L 414.831477 1008.189393 
L 443.576932 1008.328033 
L 426.667841 1008.362625 
L 482.467841 1008.446225 
L 396.231477 1008.518996 
L 431.740568 1008.574675 
L 455.413295 1008.66835 
L 431.740568 1008.746162 
L 511.213295 1008.829515 
L 440.195114 1008.916127 
L 487.540568 1008.979481 
L 455.413295 1009.014262 
L 479.086023 1009.184761 
L 430.049659 1009.321304 
L 495.995114 1009.444461 
L 448.649659 1009.596386 
L 458.795114 1009.736268 
L 446.95875 1010.01656 
L 455.413295 1010.173503 
L 482.467841 1010.469182 
L 448.649659 1010.62839 
L 452.031477 1010.781606 
L 433.431477 1010.956327 
L 479.086023 1011.100638 
L 460.486023 1011.416604 
L 463.867841 1011.55558 
L 458.795114 1011.854443 
L 474.013295 1011.995425 
L 433.431477 1012.149202 
L 470.631477 1012.434503 
L 416.522386 1012.566914 
L 477.395114 1012.849986 
L 431.740568 1012.996989 
L 489.231477 1013.13175 
L 445.267841 1013.295496 
L 457.104205 1013.577624 
L 468.940568 1013.728988 
L 463.867841 1013.881922 
L 455.413295 1014.007869 
L 460.486023 1014.189552 
L 458.795114 1014.323655 
L 448.649659 1014.487046 
L 479.086023 1014.625429 
L 446.95875 1014.790253 
L 460.486023 1014.950585 
L 457.104205 1015.069331 
L 463.867841 1015.463568 
L 419.904205 1015.634634 
L 430.049659 1015.776794 
L 468.940568 1015.935982 
L 465.55875 1016.040982 
L 401.304205 1016.199434 
L 484.15875 1016.343464 
L 433.431477 1016.616368 
L 450.340568 1016.756601 
L 445.267841 1016.896572 
L 467.249659 1017.036545 
L 423.286023 1017.4966 
L 446.95875 1017.647734 
L 389.467841 1017.7793 
L 463.867841 1018.100728 
L 431.740568 1018.397188 
L 463.867841 1018.523842 
L 428.35875 1018.657227 
L 440.195114 1018.789794 
L 438.504205 1018.902799 
L 453.722386 1019.018375 
L 441.886023 1019.172281 
L 453.722386 1019.316738 
L 430.049659 1019.610947 
L 479.086023 1019.880476 
L 472.322386 1020.177224 
L 482.467841 1020.334762 
L 472.322386 1020.482655 
L 482.467841 1020.537245 
L 480.776932 1020.589527 
L 455.413295 1020.688902 
L 446.95875 1020.758551 
L 470.631477 1020.849012 
L 455.413295 1020.955619 
L 402.995114 1021.022565 
L 458.795114 1021.120203 
L 450.340568 1021.171499 
L 458.795114 1021.236971 
L 438.504205 1021.282481 
L 460.486023 1021.352544 
L 458.795114 1021.413722 
L 426.667841 1021.53728 
L 446.95875 1021.663209 
L 438.504205 1021.739978 
L 458.795114 1021.833433 
L 404.686023 1021.884948 
L 446.95875 1022.00163 
L 441.886023 1022.139727 
L 460.486023 1022.293482 
L 404.686023 1022.453689 
L 441.886023 1022.592568 
L 463.867841 1022.671027 
L 426.667841 1022.813245 
L 452.031477 1022.990665 
L 413.140568 1023.045797 
L 462.176932 1023.111222 
L 436.813295 1023.176647 
L 435.122386 1023.228892 
L 441.886023 1023.305588 
L 477.395114 1023.365062 
L 408.067841 1023.438163 
L 448.649659 1023.48308 
L 394.540568 1023.56496 
L 475.704205 1023.662636 
L 479.086023 1023.745167 
L 413.140568 1023.830902 
L 430.049659 1023.914015 
L 426.667841 1024.015132 
L 418.213295 1024.078476 
L 445.267841 1024.174394 
L 430.049659 1024.345165 
L 458.795114 1024.528696 
L 455.413295 1024.604302 
L 436.813295 1024.66911 
L 455.413295 1024.725077 
L 416.522386 1024.939319 
L 433.431477 1025.118834 
L 409.75875 1025.204856 
L 414.831477 1025.375288 
L 433.431477 1025.505789 
L 404.686023 1025.694313 
L 431.740568 1025.775133 
L 418.213295 1025.833637 
L 423.286023 1025.97339 
L 404.686023 1026.019297 
L 421.595114 1026.199294 
L 406.376932 1026.250054 
L 411.449659 1026.319466 
L 419.904205 1026.449521 
L 396.231477 1026.528258 
L 421.595114 1026.607203 
L 387.776932 1026.738998 
L 441.886023 1026.805294 
L 408.067841 1026.978834 
L 436.813295 1027.175369 
L 402.995114 1027.232866 
L 409.75875 1027.304825 
L 424.976932 1027.363803 
L 401.304205 1027.43967 
L 418.213295 1027.584864 
L 372.55875 1027.618371 
L 387.776932 1027.715378 
L 424.976932 1027.798695 
L 399.613295 1027.852153 
L 413.140568 1027.932433 
L 408.067841 1027.995245 
L 397.922386 1028.130565 
L 399.613295 1028.187643 
L 424.976932 1028.242756 
L 418.213295 1028.288492 
L 370.867841 1028.352981 
L 384.395114 1028.41659 
L 419.904205 1028.469785 
L 414.831477 1028.548712 
L 414.831477 1028.620645 
L 399.613295 1028.643063 
L 430.049659 1028.710885 
L 392.849659 1028.839329 
L 419.904205 1028.909567 
L 384.395114 1029.089416 
L 421.595114 1029.150488 
L 401.304205 1029.308087 
L 433.431477 1029.438076 
L 402.995114 1029.717863 
L 419.904205 1029.779737 
L 396.231477 1029.828483 
L 430.049659 1029.879615 
L 573.776932 1055.414238 
L 617.740568 1055.624106 
L 546.722386 1055.841183 
L 492.613295 1056.250611 
L 419.904205 1056.420821 
L 406.376932 1056.627659 
L 479.086023 1057.017189 
L 472.322386 1057.207923 
L 517.976932 1057.408236 
L 458.795114 1057.852851 
L 443.576932 1058.079918 
L 455.413295 1058.254414 
L 452.031477 1058.479759 
L 440.195114 1058.655837 
L 419.904205 1058.813701 
L 374.249659 1059.036048 
L 370.867841 1059.221741 
L 355.649659 1059.438873 
L 335.35875 1060.057565 
L 382.704205 1060.429875 
L 333.667841 1060.90345 
L 365.795114 1061.066117 
L 325.213295 1061.280659 
L 313.376932 1061.470278 
L 394.540568 1061.90059 
L 340.431477 1062.131141 
L 379.322386 1062.361566 
L 350.576932 1062.555086 
L 342.122386 1062.754898 
L 326.904205 1062.956211 
L 367.486023 1063.156148 
L 331.976932 1063.574729 
L 431.740568 1063.779743 
L 337.049659 1063.987358 
L 362.413295 1064.41609 
L 433.431477 1064.838626 
L 352.267841 1065.264631 
L 350.576932 1065.496436 
L 288.013295 1065.908494 
L 299.849659 1066.143426 
L 293.086023 1066.545518 
L 392.849659 1066.920892 
L 357.340568 1067.325232 
L 409.75875 1067.529776 
L 409.75875 1067.763477 
L 311.686023 1068.031495 
L 391.15875 1068.129931 
L 357.340568 1068.366469 
L 418.213295 1068.600529 
L 365.795114 1068.732791 
L 421.595114 1068.831282 
L 365.795114 1068.920058 
L 372.55875 1069.09318 
L 397.922386 1069.224602 
L 308.304205 1069.512918 
L 389.467841 1069.765274 
L 359.031477 1069.880776 
L 406.376932 1069.999923 
L 401.304205 1070.106849 
L 374.249659 1070.217423 
L 426.667841 1070.517025 
L 330.286023 1070.657304 
L 331.976932 1070.768226 
L 394.540568 1070.910036 
L 323.522386 1071.029872 
L 387.776932 1071.183927 
L 399.613295 1071.427904 
L 364.104205 1071.542588 
L 370.867841 1071.639723 
L 382.704205 1071.989095 
L 337.049659 1072.21208 
L 370.867841 1072.337093 
L 357.340568 1072.566439 
L 397.922386 1072.803696 
L 353.95875 1073.037358 
L 318.449659 1073.153227 
L 367.486023 1073.265661 
L 355.649659 1073.397688 
L 377.631477 1073.582365 
L 328.595114 1073.725172 
L 372.55875 1073.833557 
L 345.504205 1073.927222 
L 382.704205 1073.994974 
L 335.35875 1074.205166 
L 394.540568 1074.493652 
L 309.995114 1074.706124 
L 367.486023 1074.950139 
L 374.249659 1075.195028 
L 367.486023 1075.331592 
L 342.122386 1075.422085 
L 340.431477 1075.540452 
L 338.740568 1075.807349 
L 301.540568 1075.914995 
L 350.576932 1076.109503 
L 333.667841 1076.225812 
L 436.813295 1076.594385 
L 413.140568 1076.711246 
L 318.449659 1076.834734 
L 370.867841 1076.966042 
L 352.267841 1077.078137 
L 424.976932 1077.207008 
L 362.413295 1077.427685 
L 331.976932 1077.540191 
L 353.95875 1077.662531 
L 347.195114 1077.853825 
L 384.395114 1077.972054 
L 330.286023 1078.200459 
L 338.740568 1078.289018 
L 318.449659 1078.422716 
L 342.122386 1078.614883 
L 391.15875 1078.704737 
L 331.976932 1078.920456 
L 352.267841 1079.038069 
L 326.904205 1079.11096 
L 374.249659 1079.158423 
L 271.104205 1079.317689 
L 345.504205 1079.422318 
L 269.413295 1079.464234 
L 286.322386 1079.522973 
L 308.304205 1079.580489 
L 294.776932 1079.623628 
L 298.15875 1079.717321 
L 244.049659 1079.824386 
L 291.395114 1079.890641 
L 262.649659 1079.952761 
L 271.104205 1080.129257 
L 321.831477 1080.188975 
L 262.649659 1080.239447 
L 311.686023 1080.296135 
L 279.55875 1080.37379 
L 335.35875 1080.417786 
L 301.540568 1080.465374 
L 325.213295 1080.522483 
L 269.413295 1080.564885 
L 343.813295 1080.623671 
L 338.740568 1080.701394 
L 296.467841 1080.749604 
L 311.686023 1080.932822 
L 267.722386 1080.987659 
L 276.176932 1081.044647 
L 281.249659 1081.128927 
L 279.55875 1081.199433 
L 313.376932 1081.238065 
L 301.540568 1081.275717 
L 272.795114 1081.337665 
L 315.067841 1081.484821 
L 286.322386 1081.534967 
L 301.540568 1081.594943 
L 333.667841 1081.712373 
L 289.704205 1081.776204 
L 330.286023 1081.843091 
L 272.795114 1082.049805 
L 316.75875 1082.123731 
L 269.413295 1082.184059 
L 294.776932 1082.228972 
L 294.776932 1082.277826 
L 308.304205 1082.321758 
L 296.467841 1082.382689 
L 266.031477 1082.589835 
L 269.413295 1082.644409 
L 257.576932 1082.70292 
L 299.849659 1082.758302 
L 259.267841 1082.817376 
L 267.722386 1082.871292 
L 284.631477 1082.978679 
L 260.95875 1083.079812 
L 309.995114 1083.284329 
L 277.867841 1083.32793 
L 288.013295 1083.391137 
L 276.176932 1083.732965 
L 286.322386 1085.047343 
L 294.776932 1085.711011 
L 296.467841 1086.356484 
L 271.104205 1086.927001 
L 304.922386 1090.252391 
L 374.249659 1093.114832 
L 374.249659 1094.614251 
L 392.849659 1096.268855 
L 360.722386 1097.802591 
L 391.15875 1098.957472 
L 399.613295 1099.909926 
L 337.049659 1100.900816 
L 394.540568 1102.944676 
L 325.213295 1103.865192 
L 418.213295 1104.732681 
L 335.35875 1104.906077 
L 404.686023 1105.189413 
L 402.995114 1105.347701 
L 338.740568 1105.527154 
L 348.886023 1105.701153 
L 369.176932 1105.876323 
L 342.122386 1106.027948 
L 375.940568 1106.162482 
L 370.867841 1106.311112 
L 321.831477 1106.46185 
L 325.213295 1106.633244 
L 318.449659 1106.831004 
L 340.431477 1107.012849 
L 293.086023 1107.190773 
L 335.35875 1107.560374 
L 308.304205 1107.681368 
L 355.649659 1108.072864 
L 387.776932 1108.209818 
L 394.540568 1108.371063 
L 257.576932 1108.373548 
L 252.504205 1108.500185 
L 328.595114 1108.562525 
L 247.431477 1108.607063 
L 242.35875 1108.729275 
L 299.849659 1108.74686 
L 298.15875 1108.848056 
L 338.740568 1108.914848 
L 250.813295 1108.981866 
L 291.395114 1109.087327 
L 335.35875 1109.089504 
L 262.649659 1109.178082 
L 308.304205 1109.253741 
L 276.176932 1109.294701 
L 259.267841 1109.406808 
L 328.595114 1109.432104 
L 252.504205 1109.490016 
L 333.667841 1109.597466 
L 238.976932 1109.60879 
L 323.522386 1109.77643 
L 227.140568 1109.890934 
L 320.140568 1110.113841 
L 230.522386 1110.126983 
L 325.213295 1110.232034 
L 210.231477 1110.348842 
L 316.75875 1110.417025 
L 215.304205 1110.507155 
L 331.976932 1110.604585 
L 249.122386 1110.648622 
L 252.504205 1110.750979 
L 259.267841 1110.876655 
L 254.195114 1111.001056 
L 340.431477 1111.133781 
L 277.867841 1111.142435 
L 211.922386 1111.278799 
L 215.304205 1111.40625 
L 311.686023 1111.496889 
L 277.867841 1111.544155 
L 330.286023 1111.649867 
L 240.667841 1111.659052 
L 242.35875 1111.76345 
L 342.122386 1111.942642 
L 222.067841 1112.06108 
L 330.286023 1112.073378 
L 274.486023 1112.11881 
L 218.686023 1112.229742 
L 325.213295 1112.256337 
L 215.304205 1112.280791 
L 245.740568 1112.330668 
L 323.522386 1112.400139 
L 238.976932 1112.403525 
L 181.486023 1112.442581 
L 350.576932 1112.568078 
L 208.540568 1112.613363 
L 216.995114 1112.657899 
L 313.376932 1112.696744 
L 223.75875 1112.713458 
L 176.413295 1112.798965 
L 330.286023 1112.846209 
L 232.213295 1112.858193 
L 191.631477 1112.983645 
L 216.995114 1113.039102 
L 178.104205 1113.099392 
L 316.75875 1113.185041 
L 255.886023 1113.208221 
L 213.613295 1113.314582 
L 325.213295 1113.354258 
L 189.940568 1113.373251 
L 205.15875 1113.419551 
L 203.467841 1113.488657 
L 318.449659 1113.522524 
L 230.522386 1113.554395 
L 238.976932 1113.68622 
L 338.740568 1113.70327 
L 225.449659 1113.750371 
L 208.540568 1113.811015 
L 340.431477 1113.852484 
L 211.922386 1113.901508 
L 272.795114 1114.068152 
L 245.740568 1114.141043 
L 320.140568 1114.155967 
L 211.922386 1114.204343 
L 340.431477 1114.342622 
L 247.431477 1114.379401 
L 250.813295 1114.438152 
L 333.667841 1114.510348 
L 225.449659 1114.544215 
L 254.195114 1114.632453 
L 255.886023 1114.769414 
L 225.449659 1114.983241 
L 242.35875 1115.217143 
L 220.376932 1115.492052 
L 254.195114 1115.761256 
L 225.449659 1116.050228 
L 291.395114 1116.294745 
L 289.704205 1116.540113 
L 264.340568 1117.045441 
L 235.595114 1117.143586 
L 240.667841 1117.216797 
L 267.722386 1117.58354 
L 255.886023 1117.680842 
L 316.75875 1117.917935 
L 249.122386 1118.095136 
L 342.122386 1118.301547 
L 301.540568 1118.421519 
L 337.049659 1118.53591 
L 304.922386 1118.842979 
L 353.95875 1118.929896 
L 293.086023 1119.017115 
L 321.831477 1119.121142 
L 293.086023 1119.22822 
L 288.013295 1119.392718 
L 325.213295 1119.556352 
L 315.067841 1119.617398 
L 320.140568 1119.890379 
L 360.722386 1120.0734 
L 350.576932 1120.154713 
L 260.95875 1120.223173 
L 315.067841 1120.270912 
L 328.595114 1120.359382 
L 309.995114 1120.444749 
L 309.995114 1120.933937 
L 343.813295 1122.426447 
L 333.667841 1122.916945 
L 337.049659 1123.370323 
L 342.122386 1123.84214 
L 321.831477 1124.303311 
L 313.376932 1124.830766 
L 352.267841 1125.337168 
L 315.067841 1125.769038 
L 320.140568 1126.266644 
L 316.75875 1126.716879 
L 308.304205 1127.194156 
L 316.75875 1127.605132 
L 286.322386 1128.07015 
L 337.049659 1128.486744 
L 301.540568 1128.902091 
L 301.540568 1129.347902 
L 303.231477 1129.743844 
L 309.995114 1131.65388 
L 301.540568 1133.582957 
L 328.595114 1135.383851 
L 357.340568 1137.168141 
L 381.013295 1138.917469 
L 391.15875 1140.600556 
L 440.195114 1142.142628 
L 485.849659 1143.758148 
L 541.649659 1147.407555 
L 565.322386 1150.878432 
L 594.067841 1158.023729 
L 636.340568 1161.545478 
L 636.340568 1168.488685 
L 624.504205 1171.977437 
L 659.75875 1174.0145 
M 659.75875 1176.888003 
L 638.031477 1178.241865 
L 638.031477 1181.044156 
L 631.267841 1184.020196 
L 651.55875 1186.980129 
L 627.886023 1192.863254 
L 622.813295 1194.592238 
L 617.740568 1195.119121 
L 568.704205 1195.571434 
L 600.831477 1196.096506 
L 605.904205 1196.648304 
L 616.049659 1197.300593 
L 616.049659 1198.519451 
L 624.504205 1199.050537 
L 614.35875 1199.648778 
L 614.35875 1200.240973 
L 656.631477 1200.696053 
L 659.75875 1203.7586 
M 659.75875 1204.024041 
L 629.576932 1205.940625 
L 629.576932 1205.940625 
" clip-path="url(#p3ac8ac1733)" style="fill: none; stroke: #aaaaaa; stroke-linecap: square"/>
   </g>
   <g id="patch_9">
    <path d="M 93.55875 1205.940625 
L 93.55875 97.140625 
" style="fill: none; stroke: #000000; stroke-width: 0.8; stroke-linejoin: miter; stroke-linecap: square"/>
   </g>
   <g id="patch_10">
    <path d="M 651.55875 1205.940625 
L 651.55875 97.140625 
" style="fill: none; stroke: #000000; stroke-width: 0.8; stroke-linejoin: miter; stroke-linecap: square"/>
   </g>
   <g id="patch_11">
    <path d="M 93.55875 1205.940625 
L 651.55875 1205.940625 
" style="fill: none; stroke: #000000; stroke-width: 0.8; stroke-linejoin: miter; stroke-linecap: square"/>
   </g>
   <g id="patch_12">
    <path d="M 93.55875 97.140625 
L 651.55875 97.140625 
" style="fill: none; stroke: #000000; stroke-width: 0.8; stroke-linejoin: miter; stroke-linecap: square"/>
   </g>
   <g id="line2d_41">
    <path d="M 387.900285 97.140625 
L 369.503203 97.529891 
L 364.707465 97.724234 
L 362.846928 97.921865 
L 363.921594 98.116101 
L 388.342015 98.693287 
L 391.087346 98.885606 
L 386.881585 99.076444 
L 375.355186 99.269797 
L 373.193031 99.463361 
L 343.735703 99.847988 
L 330.818964 100.232456 
L 330.828588 100.422795 
L 333.071746 100.616924 
L 333.797954 100.81364 
L 336.850359 101.009405 
L 335.045199 101.20428 
L 339.54511 101.396003 
L 334.933131 101.59362 
L 337.080086 101.78565 
L 323.997807 102.367529 
L 321.224567 102.563005 
L 309.359552 102.959965 
L 302.464717 103.149746 
L 302.335072 103.344296 
L 303.642239 103.539479 
L 307.456901 103.732205 
L 301.555255 103.929206 
L 303.461631 104.122009 
L 299.699167 104.315406 
L 298.645203 104.49829 
L 291.874501 104.819784 
L 295.818102 104.980894 
L 294.182387 105.14116 
L 295.307551 105.304142 
L 293.892706 105.461557 
L 289.026886 105.622637 
L 296.099219 105.781045 
L 295.635869 105.942343 
L 295.686058 106.103665 
L 296.150702 106.266639 
L 294.81134 106.426627 
L 294.66406 106.58638 
L 274.553305 107.071303 
L 274.02015 107.233237 
L 275.104187 107.392346 
L 271.603123 107.553674 
L 270.756885 107.715076 
L 272.3689 107.87704 
L 278.676949 108.200039 
L 287.547812 108.676652 
L 295.339716 108.836899 
L 292.475073 108.998903 
L 285.964974 109.15728 
L 284.071245 109.47939 
L 284.158577 109.637538 
L 283.893194 109.797362 
L 305.080716 110.132033 
L 301.880984 110.20285 
L 280.524672 110.548483 
L 286.922135 110.615628 
L 285.202599 110.692119 
L 286.130246 110.756054 
L 277.772007 110.963408 
L 268.989929 111.011472 
L 272.228926 111.058699 
L 288.569146 111.170448 
L 287.268317 111.195781 
L 273.942605 111.265814 
L 282.966659 111.311013 
L 293.459845 111.378609 
L 300.455108 111.505906 
L 297.698086 111.574175 
L 343.84701 111.964155 
L 331.150467 112.222811 
L 335.459911 112.287471 
L 335.030903 112.353282 
L 333.10295 112.420144 
L 336.36484 112.4832 
L 336.076992 112.54357 
L 331.850409 112.679724 
L 344.299915 112.862301 
L 337.295563 112.992112 
L 338.225247 113.057694 
L 348.304845 113.190432 
L 345.929661 113.253277 
L 343.741681 113.388754 
L 347.346367 113.457907 
L 345.506705 113.517575 
L 335.527053 113.586531 
L 289.607045 114.527405 
L 291.302409 114.63563 
L 305.861928 114.855485 
L 306.774985 114.964023 
L 305.696723 115.070199 
L 306.918481 115.173382 
L 292.445298 115.386191 
L 289.794755 115.49188 
L 308.029505 116.019973 
L 303.068286 116.124362 
L 303.678319 116.23339 
L 299.337589 116.342944 
L 300.605751 116.456288 
L 295.473453 116.563058 
L 297.351349 116.668515 
L 296.837113 116.777964 
L 297.867477 116.881436 
L 284.299614 117.199191 
L 291.167086 117.415937 
L 290.929203 117.524262 
L 249.04615 118.147093 
L 251.645593 118.193248 
L 273.163466 118.416587 
L 270.427304 118.464976 
L 270.85628 118.515995 
L 281.988627 118.689831 
L 278.495187 118.738738 
L 281.105982 118.786609 
L 299.488192 118.938452 
L 310.646131 119.043026 
L 302.487335 119.163148 
L 294.729633 119.596799 
L 272.764662 119.929465 
L 270.059867 120.039937 
L 273.617634 120.151606 
L 271.675694 120.262299 
L 267.040112 120.484101 
L 281.650366 120.818058 
L 281.734807 120.929573 
L 284.87734 121.04022 
L 284.85155 121.151386 
L 286.681865 121.262273 
L 272.549179 121.596018 
L 266.436479 121.81881 
L 265.127846 121.929103 
L 282.696815 122.374633 
L 282.55223 122.486201 
L 281.080192 122.598135 
L 270.343361 122.932586 
L 275.329552 123.043177 
L 295.100655 123.267889 
L 298.37672 123.377795 
L 310.663955 123.508838 
L 311.754716 123.689403 
L 311.943712 123.872222 
L 313.928669 124.049343 
L 281.598562 125.095526 
L 283.306787 125.27338 
L 282.470135 940.429869 
L 288.83146 940.511495 
L 294.978429 940.839155 
L 297.386213 941.100787 
L 297.528108 941.250803 
L 293.531414 941.458847 
L 296.215584 941.548974 
L 294.769049 941.626968 
L 298.797275 941.752093 
L 294.599564 941.998699 
L 305.194351 942.341607 
L 302.43135 942.573075 
L 298.241522 942.689657 
L 297.68971 942.908307 
L 292.471147 943.027071 
L 293.799437 943.135176 
L 292.695813 943.252877 
L 316.415838 943.725036 
L 321.953664 944.209046 
L 338.69327 944.553839 
L 347.719335 944.678012 
L 349.599437 944.906553 
L 360.07992 945.295914 
L 357.809608 945.498242 
L 357.549468 945.643443 
L 342.520479 946.159021 
L 339.379093 946.273656 
L 332.059704 946.397997 
L 313.097084 947.38824 
L 314.925946 947.50772 
L 321.169303 947.654907 
L 324.456525 947.851939 
L 324.125438 948.00684 
L 325.386722 948.146098 
L 335.354808 948.705304 
L 334.858178 948.867901 
L 340.317173 949.15835 
L 338.709036 949.2846 
L 332.02423 949.435648 
L 328.68971 949.671295 
L 332.930778 949.966832 
L 331.953283 950.054695 
L 340.955699 950.421194 
L 350.774007 951.380632 
L 358.657034 952.336401 
L 358.83046 953.215304 
L 361.703823 954.107648 
L 372.137008 954.715347 
L 382.723912 954.98494 
L 382.459831 955.216932 
L 391.868222 955.569994 
L 398.623976 956.191269 
L 407.847116 956.771905 
L 422.474071 957.1196 
L 437.231096 957.727464 
L 439.30039 958.042448 
L 445.831477 958.797271 
L 452.579348 959.127855 
L 453.915521 959.446749 
L 453.182399 959.775464 
L 461.502933 959.990726 
L 469.598801 960.770165 
L 483.232494 961.50084 
L 517.090091 962.831102 
L 525.205667 963.46218 
L 542.394605 964.166057 
L 541.917682 964.782742 
L 543.644065 965.377231 
L 521.725311 966.4457 
L 523.424103 966.530421 
L 530.715902 966.694566 
L 521.705603 966.779864 
L 520.948833 966.916958 
L 518.650931 967.037295 
L 520.964599 967.302218 
L 537.030206 967.514888 
L 528.859449 967.623936 
L 531.303187 967.734694 
L 529.218127 967.855199 
L 517.858686 968.181983 
L 519.021433 968.265264 
L 511.583798 968.389122 
L 515.47013 968.459334 
L 514.599055 968.568945 
L 488.715139 968.906725 
L 472.034656 969.195582 
L 464.049151 969.36782 
L 459.571592 969.841185 
L 463.036182 970.073701 
L 468.495177 970.289266 
L 473.213168 970.890967 
L 467.687167 971.024633 
L 465.968667 971.270459 
L 466.126328 971.423412 
L 456.863772 971.771975 
L 439.465934 972.132725 
L 438.401725 972.364781 
L 437.002488 972.552771 
L 422.178458 972.98891 
L 421.070892 973.223757 
L 425.33561 973.369623 
L 429.150994 974.164304 
L 423.455508 974.955066 
L 427.511325 976.611035 
L 429.955063 977.456966 
L 433.246226 978.27899 
L 436.021051 979.964628 
L 437.219271 981.626994 
L 437.333575 982.477272 
L 430.341331 983.368279 
L 427.842412 984.105206 
L 416.86924 984.302281 
L 425.237072 984.434015 
L 421.362564 984.525233 
L 423.731414 984.844557 
L 423.522514 984.925251 
L 421.323149 985.014482 
L 402.301407 985.45851 
L 402.009735 985.551129 
L 395.462882 985.750243 
L 399.526582 985.938636 
L 399.727599 986.160344 
L 407.49238 986.400701 
L 407.563327 986.467545 
L 405.316665 986.588847 
L 407.460848 986.697256 
L 403.042412 986.921191 
L 410.574643 987.152064 
L 399.420161 987.431085 
L 395.340695 987.751745 
L 391.950994 987.84346 
L 394.382908 988.030242 
L 389.254999 988.156691 
L 398.281064 988.319778 
L 396.046226 988.389512 
L 392.632876 988.468585 
L 394.698229 988.604604 
L 393.50395 988.680881 
L 394.071528 988.762795 
L 390.764599 988.939781 
L 385.825883 989.075355 
L 391.604141 989.195606 
L 381.210371 989.345965 
L 395.585069 989.736622 
L 387.024103 990.098792 
L 379.8269 990.157336 
L 380.934465 990.248234 
L 388.675597 990.427837 
L 393.480301 990.619287 
L 386.783671 990.698339 
L 386.629952 991.034637 
L 385.183416 991.342702 
L 380.560021 991.680211 
L 380.449659 992.070929 
L 385.613041 992.377184 
L 383.851185 992.707659 
L 383.591045 993.458247 
L 376.874707 993.72237 
L 379.04648 994.139073 
L 385.100644 994.891288 
L 392.908782 995.261906 
L 395.51018 995.60602 
L 403.858305 996.004208 
L 405.257542 996.36049 
L 404.831859 996.793665 
L 404.043556 997.153526 
L 396.428553 997.491028 
L 394.386849 997.747738 
L 393.070384 998.030549 
L 383.547688 998.337711 
L 384.194096 998.669804 
L 379.397275 998.991177 
L 378.991299 999.332361 
L 375.786849 999.684241 
L 378.959767 1000.177979 
L 404.721496 1000.589448 
L 404.682081 1000.694455 
L 403.03847 1000.924543 
L 398.690981 1001.164638 
L 401.749596 1001.276178 
L 440.423721 1001.744371 
L 443.202488 1001.849363 
L 440.23847 1002.064427 
L 438.697339 1002.176643 
L 435.6269 1002.270138 
L 436.099882 1002.379195 
L 433.817746 1002.487759 
L 437.1365 1002.596312 
L 441.685006 1002.875804 
L 450.644065 1003.108588 
L 482.928998 1003.480064 
L 478.821941 1003.72173 
L 455.574897 1004.090567 
L 455.062501 1004.17477 
L 452.386213 1004.282022 
L 463.958496 1004.499976 
L 466.358877 1004.594754 
L 458.676868 1004.680143 
L 454.479157 1004.897194 
L 445.882717 1005.12848 
L 445.401852 1005.2213 
L 451.31018 1005.470981 
L 464.057034 1005.678122 
L 464.10039 1005.844402 
L 459.402107 1005.896602 
L 463.832367 1005.987902 
L 461.479284 1006.056647 
L 454.081064 1006.101031 
L 455.653728 1006.190314 
L 464.293524 1006.29813 
L 472.692889 1006.367528 
L 471.687803 1006.443894 
L 473.327472 1006.620558 
L 416.727345 1007.257475 
L 425.099119 1007.456389 
L 402.159513 1007.722015 
L 404.457415 1007.777559 
L 414.114122 1007.967823 
L 441.424866 1008.189393 
L 440.845463 1008.258486 
L 432.745654 1008.446225 
L 434.539042 1008.518996 
L 474.202488 1008.878197 
L 461.471401 1009.014262 
L 460.186468 1009.184761 
L 466.2091 1009.321304 
L 463.493397 1009.444461 
L 454.861484 1009.596386 
L 458.657161 1009.736268 
L 457.541712 1009.867901 
L 461.589646 1010.01656 
L 451.70039 1010.173503 
L 460.083988 1010.956327 
L 458.523149 1011.100638 
L 464.715266 1011.416604 
L 463.087421 1011.55558 
L 466.697847 1011.854443 
L 452.520225 1012.149202 
L 455.291109 1012.290917 
L 449.962183 1012.434503 
L 453.316411 1012.566914 
L 454.108655 1012.718613 
L 457.549596 1012.849986 
L 456.808591 1012.996989 
L 464.766506 1013.295496 
L 460.371719 1013.577624 
L 460.860466 1013.728988 
L 460.777695 1013.881922 
L 458.416728 1014.007869 
L 461.498992 1014.189552 
L 457.652075 1014.487046 
L 461.845845 1014.625429 
L 461.175788 1014.790253 
L 450.175025 1015.069331 
L 453.619907 1015.463568 
L 443.033003 1015.634634 
L 446.024611 1015.935982 
L 446.127091 1016.040982 
L 450.324802 1016.343464 
L 447.463264 1016.616368 
L 454.963963 1016.896572 
L 430.660594 1017.7793 
L 444.838216 1018.243925 
L 444.35341 1018.397188 
L 449.252711 1018.523842 
L 441.968795 1018.657227 
L 441.026773 1018.789794 
L 444.712088 1018.902799 
L 443.600581 1019.018375 
L 440.001979 1019.172281 
L 482.562437 1020.334762 
L 479.350104 1020.482655 
L 446.875978 1020.849012 
L 444.87369 1021.120203 
L 452.831604 1021.352544 
L 442.757097 1021.459402 
L 445.149596 1021.53728 
L 435.650549 1021.739978 
L 442.871401 1021.833433 
L 441.740187 1021.884948 
L 432.907256 1022.139727 
L 434.645463 1022.293482 
L 437.747434 1022.453689 
L 441.996385 1022.492969 
L 437.905095 1022.592568 
L 446.032494 1022.813245 
L 439.986213 1022.990665 
L 434.602107 1023.045797 
L 446.091617 1023.228892 
L 433.738915 1023.438163 
L 447.762819 1023.56496 
L 447.979602 1023.623531 
L 447.364726 1023.662636 
L 449.370956 1023.745167 
L 424.543365 1024.078476 
L 450.261738 1024.604302 
L 420.057924 1025.050241 
L 421.492634 1025.118834 
L 421.989265 1025.204856 
L 424.831096 1025.375288 
L 421.126074 1025.505789 
L 421.323149 1025.558064 
L 423.230842 1025.694313 
L 417.476233 1025.833637 
L 418.741458 1025.898 
L 417.231859 1026.019297 
L 412.919843 1026.10576 
L 415.091617 1026.199294 
L 412.28526 1026.250054 
L 412.714885 1026.319466 
L 415.142857 1026.357871 
L 408.04025 1026.449521 
L 408.217618 1026.528258 
L 411.08704 1026.607203 
L 409.813931 1026.669038 
L 409.833639 1026.738998 
L 419.364217 1026.903086 
L 421.433512 1027.04543 
L 423.018 1027.175369 
L 410.996385 1027.363803 
L 406.625247 1027.531407 
L 401.446099 1027.680099 
L 406.601598 1027.852153 
L 407.807701 1027.932433 
L 404.311579 1027.995245 
L 410.744128 1028.0716 
L 407.20465 1028.130565 
L 400.598674 1028.242756 
L 400.673562 1028.288492 
L 404.441649 1028.469785 
L 408.686658 1028.620645 
L 416.017873 1028.643063 
L 412.44292 1028.710885 
L 402.82957 1028.909567 
L 403.649405 1028.965455 
L 400.515902 1029.024425 
L 402.577313 1029.089416 
L 414.788121 1029.308087 
L 413.995877 1029.371178 
L 417.354046 1029.438076 
L 410.980619 1029.561514 
L 398.793461 1029.717863 
L 492.510816 1029.879615 
L 518.654872 1055.414238 
L 522.97477 1055.624106 
L 519.935864 1055.841183 
L 506.384942 1056.250611 
L 461.199437 1056.627659 
L 454.506747 1057.017189 
L 480.690219 1057.633663 
L 478.147943 1057.852851 
L 455.121623 1058.254414 
L 390.713359 1059.036048 
L 368.447752 1059.221741 
L 357.056779 1059.438873 
L 352.799945 1059.877818 
L 349.209227 1060.057565 
L 354.928362 1060.232692 
L 356.568032 1060.429875 
L 353.028553 1060.692251 
L 346.04025 1060.90345 
L 346.61177 1061.066117 
L 340.20287 1061.280659 
L 342.615075 1061.470278 
L 357.297212 1061.90059 
L 354.301662 1062.131141 
L 361.100772 1062.361566 
L 351.27458 1062.555086 
L 352.34273 1062.754898 
L 350.423213 1062.956211 
L 350.864662 1063.156148 
L 355.921623 1063.574729 
L 382.806684 1063.987358 
L 389.609735 1064.41609 
L 387.985832 1064.838626 
L 380.201344 1065.072379 
L 359.68971 1065.264631 
L 350.986849 1065.496436 
L 298.186341 1065.908494 
L 299.40821 1066.143426 
L 303.333957 1066.371724 
L 315.024484 1066.545518 
L 367.50573 1066.920892 
L 374.222068 1067.325232 
L 382.522895 1067.529776 
L 384.48971 1067.763477 
L 363.130651 1068.031495 
L 367.706747 1068.129931 
L 360.974643 1068.233117 
L 390.445336 1068.600529 
L 393.172863 1068.732791 
L 391.135101 1068.831282 
L 373.299754 1069.09318 
L 361.916665 1069.224602 
L 362.409354 1069.512918 
L 362.409354 1069.644445 
L 387.792698 1069.999923 
L 401.781128 1070.106849 
L 389.913232 1070.217423 
L 388.048896 1070.357299 
L 363.698229 1070.768226 
L 363.828299 1070.910036 
L 360.694796 1071.029872 
L 376.724929 1071.427904 
L 376.287421 1071.542588 
L 367.24559 1071.639723 
L 373.063264 1071.989095 
L 366.429697 1072.21208 
L 368.128489 1072.337093 
L 361.404268 1072.803696 
L 356.855762 1072.920293 
L 358.54273 1073.153227 
L 354.605158 1073.397688 
L 357.182908 1073.504525 
L 367.29683 1073.725172 
L 356.812405 1073.833557 
L 361.222959 1073.994974 
L 349.414185 1074.493652 
L 350.852838 1074.706124 
L 357.009481 1074.950139 
L 355.515648 1075.331592 
L 353.615838 1075.422085 
L 340.340822 1075.540452 
L 326.801725 1075.914995 
L 338.200581 1076.109503 
L 375.495177 1076.341776 
L 387.01622 1076.45228 
L 387.839996 1076.594385 
L 387.177822 1076.711246 
L 389.396894 1076.834734 
L 384.769557 1076.966042 
L 367.028807 1077.207008 
L 365.00287 1077.307355 
L 371.707383 1077.427685 
L 350.450803 1077.853825 
L 349.433893 1077.972054 
L 347.222704 1078.091039 
L 338.626264 1078.289018 
L 341.318318 1078.422716 
L 339.55252 1078.524196 
L 349.016093 1078.704737 
L 356.473435 1078.920456 
L 354.435673 1079.038069 
L 293.693016 1079.422318 
L 297.22067 1079.464234 
L 301.260721 1079.522973 
L 298.982526 1079.580489 
L 274.809227 1079.824386 
L 273.918445 1079.890641 
L 271.250041 1079.952761 
L 275.845845 1080.129257 
L 303.054109 1080.296135 
L 301.820416 1080.37379 
L 303.152647 1080.417786 
L 319.308909 1080.623671 
L 296.07369 1080.932822 
L 280.599309 1081.128927 
L 295.037072 1081.337665 
L 317.909672 1081.712373 
L 290.654109 1081.965706 
L 286.172609 1082.049805 
L 297.55964 1082.277826 
L 295.876614 1082.321758 
L 269.101916 1082.644409 
L 270.091236 1082.70292 
L 271.69149 1082.758302 
L 271.151503 1082.817376 
L 269.180746 1082.871292 
L 269.787739 1082.978679 
L 289.09327 1083.218554 
L 289.601725 1083.284329 
L 291.272927 1083.32793 
L 289.798801 1083.391137 
L 287.902933 1083.732965 
L 276.444955 1085.047343 
L 282.877504 1085.711011 
L 291.142857 1086.356484 
L 310.050295 1086.927001 
L 325.17388 1090.252391 
L 341.649405 1093.114832 
L 364.411643 1094.614251 
L 377.82067 1096.268855 
L 384.016728 1097.802591 
L 386.748197 1098.957472 
L 371.545781 1099.909926 
L 374.316665 1100.900816 
L 361.971846 1103.865192 
L 371.159513 1104.732681 
L 379.535228 1104.906077 
L 374.750231 1105.02937 
L 374.336372 1105.189413 
L 373.492889 1105.347701 
L 363.276487 1105.527154 
L 371.206811 1105.701153 
L 349.280174 1106.162482 
L 352.866951 1106.311112 
L 333.22245 1106.633244 
L 311.713613 1107.190773 
L 319.186722 1107.560374 
L 339.379093 1107.681368 
L 349.993588 1107.881642 
L 343.545273 1108.072864 
L 347.979475 1108.209818 
L 336.785578 1108.371063 
L 318.185578 1108.373548 
L 270.761293 1108.607063 
L 271.991045 1108.729275 
L 292.179475 1108.848056 
L 289.369176 1108.914848 
L 304.145908 1109.087327 
L 290.011643 1109.089504 
L 291.915393 1109.178082 
L 282.826264 1109.253741 
L 295.829316 1109.294701 
L 284.01266 1109.406808 
L 287.690091 1109.432104 
L 290.571337 1109.490016 
L 278.868985 1109.597466 
L 286.026773 1109.60879 
L 276.255762 1109.77643 
L 277.256906 1109.890934 
L 269.965107 1110.126983 
L 269.251693 1110.232034 
L 278.463009 1110.348842 
L 263.765107 1110.604585 
L 261.959894 1110.648622 
L 280.256398 1110.750979 
L 259.16142 1111.133781 
L 262.377695 1111.142435 
L 273.654363 1111.40625 
L 269.196512 1111.496889 
L 257.659704 1111.544155 
L 291.572482 1111.659052 
L 269.184688 1111.864985 
L 276.121751 1111.942642 
L 265.15252 1111.978993 
L 280.950104 1112.06108 
L 276.917936 1112.073378 
L 260.745908 1112.11881 
L 261.526328 1112.229742 
L 277.706239 1112.256337 
L 268.522514 1112.280791 
L 239.978076 1112.400139 
L 240.490473 1112.442581 
L 239.670638 1112.51809 
L 241.128998 1112.564783 
L 255.913613 1112.657899 
L 256.2447 1112.696744 
L 221.693397 1112.858193 
L 215.828426 1112.983645 
L 237.073181 1113.099392 
L 218.792444 1113.158149 
L 256.863518 1113.208221 
L 256.422068 1113.26014 
L 228.267841 1113.419551 
L 273.335101 1113.70327 
L 234.065807 1113.901508 
L 254.541967 1113.957293 
L 251.834147 1114.013569 
L 239.840123 1114.068152 
L 282.968159 1114.272114 
L 282.802615 1114.342622 
L 270.761293 1114.438152 
L 272.586213 1114.510348 
L 249.898864 1114.58046 
L 254.15964 1114.632453 
L 236.761801 1114.769414 
L 239.304077 1114.983241 
L 236.631732 1115.217143 
L 239.532685 1115.492052 
L 255.614058 1116.050228 
L 261.514503 1116.294745 
L 260.942984 1116.540113 
L 263.27636 1117.045441 
L 253.6906 1117.216797 
L 253.576296 1117.385253 
L 294.426137 1118.200643 
L 324.941331 1118.53591 
L 329.344001 1118.842979 
L 309.494541 1119.121142 
L 304.055253 1119.22822 
L 304.942094 1119.392718 
L 299.707765 1119.487442 
L 328.48081 1119.794341 
L 326.100136 1120.0734 
L 311.75697 1120.444749 
L 321.957606 1120.933937 
L 335.386341 1122.426447 
L 329.694796 1122.916945 
L 333.123912 1123.370323 
L 335.685896 1123.84214 
L 333.857034 1124.303311 
L 329.032622 1124.830766 
L 325.922768 1125.337168 
L 324.515648 1125.769038 
L 316.770575 1126.266644 
L 317.219907 1126.716879 
L 314.547561 1127.194156 
L 308.993969 1127.605132 
L 309.545781 1128.07015 
L 308.178076 1128.486744 
L 303.018636 1129.347902 
L 302.868858 1129.743844 
L 309.868985 1131.65388 
L 313.156207 1133.582957 
L 329.02868 1135.383851 
L 347.230587 1137.168141 
L 374.994605 1138.917469 
L 409.139932 1140.600556 
L 486.76409 1143.758148 
L 528.879157 1147.407555 
L 562.527854 1150.878432 
L 599.097212 1158.023729 
L 623.077377 1161.545478 
L 638.831604 1168.488685 
L 644.337898 1171.977437 
L 650.029443 1175.397055 
L 649.639233 1178.241865 
L 645.287803 1181.044156 
L 646.016983 1184.020196 
L 636.758369 1186.980129 
L 622.218127 1192.863254 
L 616.601471 1194.592238 
L 603.716665 1195.571434 
L 599.160276 1196.096506 
L 607.200962 1197.300593 
L 609.467332 1197.93835 
L 617.035037 1198.519451 
L 622.214185 1199.050537 
L 631.246557 1200.240973 
L 636.034707 1200.696053 
L 641.004166 1204.007877 
L 646.154936 1205.940625 
L 646.154936 1205.940625 
" clip-path="url(#p3ac8ac1733)" style="fill: none; stroke: #000000; stroke-width: 1.5; stroke-linecap: square"/>
   </g>
   <g id="text_20">
    <!-- Savitzky-Golay filter  |  window = 11 pts  |  polyorder = 2 -->
    <g style="fill: #777777" transform="translate(168.246383 1227.956953) scale(0.143 -0.143)">
     <defs>
      <path id="DejaVuSans-Oblique-53" d="M 3859 4513 
L 3738 3897 
Q 3422 4066 3111 4152 
Q 2800 4238 2509 4238 
Q 1944 4238 1609 3991 
Q 1275 3744 1275 3334 
Q 1275 3109 1398 2989 
Q 1522 2869 2034 2731 
L 2413 2638 
Q 3053 2472 3303 2217 
Q 3553 1963 3553 1503 
Q 3553 797 2998 353 
Q 2444 -91 1538 -91 
Q 1166 -91 791 -17 
Q 416 56 38 206 
L 166 856 
Q 513 641 861 531 
Q 1209 422 1556 422 
Q 2147 422 2503 684 
Q 2859 947 2859 1369 
Q 2859 1650 2717 1795 
Q 2575 1941 2106 2059 
L 1728 2156 
Q 1081 2325 845 2545 
Q 609 2766 609 3163 
Q 609 3859 1145 4304 
Q 1681 4750 2541 4750 
Q 2875 4750 3203 4690 
Q 3531 4631 3859 4513 
z
" transform="scale(0.015625)"/>
      <path id="DejaVuSans-Oblique-61" d="M 3438 1997 
L 3047 0 
L 2472 0 
L 2578 531 
Q 2325 219 2001 64 
Q 1678 -91 1281 -91 
Q 834 -91 548 182 
Q 263 456 263 884 
Q 263 1497 752 1853 
Q 1241 2209 2100 2209 
L 2900 2209 
L 2931 2363 
Q 2938 2388 2941 2417 
Q 2944 2447 2944 2509 
Q 2944 2788 2717 2942 
Q 2491 3097 2081 3097 
Q 1800 3097 1504 3025 
Q 1209 2953 897 2809 
L 997 3341 
Q 1322 3463 1633 3523 
Q 1944 3584 2234 3584 
Q 2853 3584 3176 3315 
Q 3500 3047 3500 2534 
Q 3500 2431 3484 2292 
Q 3469 2153 3438 1997 
z
M 2816 1759 
L 2241 1759 
Q 1534 1759 1195 1570 
Q 856 1381 856 984 
Q 856 709 1029 553 
Q 1203 397 1509 397 
Q 1978 397 2328 733 
Q 2678 1069 2791 1631 
L 2816 1759 
z
" transform="scale(0.015625)"/>
      <path id="DejaVuSans-Oblique-76" d="M 459 3500 
L 1069 3500 
L 1581 525 
L 3256 3500 
L 3866 3500 
L 1875 0 
L 1100 0 
L 459 3500 
z
" transform="scale(0.015625)"/>
      <path id="DejaVuSans-Oblique-69" d="M 1172 4863 
L 1747 4863 
L 1606 4134 
L 1031 4134 
L 1172 4863 
z
M 909 3500 
L 1484 3500 
L 800 0 
L 225 0 
L 909 3500 
z
" transform="scale(0.015625)"/>
      <path id="DejaVuSans-Oblique-74" d="M 2706 3500 
L 2619 3053 
L 1472 3053 
L 1100 1153 
Q 1081 1047 1072 975 
Q 1063 903 1063 863 
Q 1063 663 1183 572 
Q 1303 481 1569 481 
L 2150 481 
L 2053 0 
L 1503 0 
Q 991 0 739 200 
Q 488 400 488 806 
Q 488 878 497 964 
Q 506 1050 525 1153 
L 897 3053 
L 409 3053 
L 500 3500 
L 978 3500 
L 1172 4494 
L 1747 4494 
L 1556 3500 
L 2706 3500 
z
" transform="scale(0.015625)"/>
      <path id="DejaVuSans-Oblique-7a" d="M 744 3500 
L 3475 3500 
L 3372 2975 
L 738 459 
L 2913 459 
L 2822 0 
L -19 0 
L 84 525 
L 2719 3041 
L 653 3041 
L 744 3500 
z
" transform="scale(0.015625)"/>
      <path id="DejaVuSans-Oblique-6b" d="M 1172 4863 
L 1747 4863 
L 1197 2028 
L 3169 3500 
L 3916 3500 
L 1716 1825 
L 3322 0 
L 2625 0 
L 1131 1709 
L 800 0 
L 225 0 
L 1172 4863 
z
" transform="scale(0.015625)"/>
      <path id="DejaVuSans-Oblique-79" d="M 1588 -325 
Q 1188 -997 936 -1164 
Q 684 -1331 294 -1331 
L -159 -1331 
L -63 -850 
L 269 -850 
Q 509 -850 678 -719 
Q 847 -588 1056 -206 
L 1234 128 
L 459 3500 
L 1069 3500 
L 1650 819 
L 3256 3500 
L 3859 3500 
L 1588 -325 
z
" transform="scale(0.015625)"/>
      <path id="DejaVuSans-Oblique-2d" d="M 391 2009 
L 2075 2009 
L 1978 1497 
L 288 1497 
L 391 2009 
z
" transform="scale(0.015625)"/>
      <path id="DejaVuSans-Oblique-47" d="M 3494 697 
L 3738 1919 
L 2700 1919 
L 2797 2438 
L 4453 2438 
L 4050 384 
Q 3634 156 3143 32 
Q 2653 -91 2156 -91 
Q 1278 -91 783 396 
Q 288 884 288 1753 
Q 288 2475 589 3126 
Q 891 3778 1422 4213 
Q 1756 4484 2153 4617 
Q 2550 4750 3034 4750 
Q 3472 4750 3873 4639 
Q 4275 4528 4641 4306 
L 4513 3634 
Q 4231 3928 3853 4083 
Q 3475 4238 3047 4238 
Q 2550 4238 2172 4048 
Q 1794 3859 1497 3463 
Q 1244 3125 1098 2667 
Q 953 2209 953 1734 
Q 953 1081 1287 751 
Q 1622 422 2284 422 
Q 2616 422 2925 492 
Q 3234 563 3494 697 
z
" transform="scale(0.015625)"/>
      <path id="DejaVuSans-Oblique-6f" d="M 1625 -91 
Q 1009 -91 651 289 
Q 294 669 294 1325 
Q 294 1706 417 2101 
Q 541 2497 738 2766 
Q 1047 3184 1428 3384 
Q 1809 3584 2291 3584 
Q 2888 3584 3255 3212 
Q 3622 2841 3622 2241 
Q 3622 1825 3500 1412 
Q 3378 1000 3181 728 
Q 2875 309 2494 109 
Q 2113 -91 1625 -91 
z
M 891 1344 
Q 891 869 1089 633 
Q 1288 397 1691 397 
Q 2269 397 2648 901 
Q 3028 1406 3028 2181 
Q 3028 2634 2825 2865 
Q 2622 3097 2228 3097 
Q 1903 3097 1650 2945 
Q 1397 2794 1197 2484 
Q 1050 2253 970 1956 
Q 891 1659 891 1344 
z
" transform="scale(0.015625)"/>
      <path id="DejaVuSans-Oblique-6c" d="M 1172 4863 
L 1747 4863 
L 800 0 
L 225 0 
L 1172 4863 
z
" transform="scale(0.015625)"/>
      <path id="DejaVuSans-Oblique-20" transform="scale(0.015625)"/>
      <path id="DejaVuSans-Oblique-66" d="M 3059 4863 
L 2969 4384 
L 2419 4384 
Q 2106 4384 1964 4261 
Q 1822 4138 1753 3809 
L 1691 3500 
L 2638 3500 
L 2553 3053 
L 1606 3053 
L 1013 0 
L 434 0 
L 1031 3053 
L 481 3053 
L 563 3500 
L 1113 3500 
L 1159 3744 
Q 1278 4363 1576 4613 
Q 1875 4863 2516 4863 
L 3059 4863 
z
" transform="scale(0.015625)"/>
      <path id="DejaVuSans-Oblique-65" d="M 3078 2063 
Q 3088 2113 3092 2166 
Q 3097 2219 3097 2272 
Q 3097 2653 2873 2875 
Q 2650 3097 2266 3097 
Q 1838 3097 1509 2826 
Q 1181 2556 1013 2059 
L 3078 2063 
z
M 3578 1613 
L 903 1613 
Q 884 1494 878 1425 
Q 872 1356 872 1306 
Q 872 872 1139 634 
Q 1406 397 1894 397 
Q 2269 397 2603 481 
Q 2938 566 3225 728 
L 3116 159 
Q 2806 34 2476 -28 
Q 2147 -91 1806 -91 
Q 1078 -91 686 257 
Q 294 606 294 1247 
Q 294 1794 489 2264 
Q 684 2734 1063 3103 
Q 1306 3334 1642 3459 
Q 1978 3584 2356 3584 
Q 2950 3584 3301 3228 
Q 3653 2872 3653 2272 
Q 3653 2128 3634 1964 
Q 3616 1800 3578 1613 
z
" transform="scale(0.015625)"/>
      <path id="DejaVuSans-Oblique-72" d="M 2853 2969 
Q 2766 3016 2653 3041 
Q 2541 3066 2413 3066 
Q 1953 3066 1609 2717 
Q 1266 2369 1153 1784 
L 800 0 
L 225 0 
L 909 3500 
L 1484 3500 
L 1375 2956 
Q 1603 3259 1920 3421 
Q 2238 3584 2597 3584 
Q 2691 3584 2781 3573 
Q 2872 3563 2963 3538 
L 2853 2969 
z
" transform="scale(0.015625)"/>
      <path id="DejaVuSans-Oblique-7c" d="M 1344 4891 
L 1344 -1509 
L 813 -1509 
L 813 4891 
L 1344 4891 
z
" transform="scale(0.015625)"/>
      <path id="DejaVuSans-Oblique-77" d="M 544 3500 
L 1113 3500 
L 1259 684 
L 2566 3500 
L 3231 3500 
L 3425 684 
L 4666 3500 
L 5241 3500 
L 3641 0 
L 2969 0 
L 2797 2900 
L 1459 0 
L 781 0 
L 544 3500 
z
" transform="scale(0.015625)"/>
      <path id="DejaVuSans-Oblique-6e" d="M 3566 2113 
L 3156 0 
L 2578 0 
L 2988 2091 
Q 3016 2238 3031 2350 
Q 3047 2463 3047 2528 
Q 3047 2791 2881 2937 
Q 2716 3084 2419 3084 
Q 1956 3084 1622 2776 
Q 1288 2469 1184 1941 
L 800 0 
L 225 0 
L 903 3500 
L 1478 3500 
L 1363 2950 
Q 1603 3253 1940 3418 
Q 2278 3584 2650 3584 
Q 3113 3584 3367 3334 
Q 3622 3084 3622 2631 
Q 3622 2519 3608 2391 
Q 3594 2263 3566 2113 
z
" transform="scale(0.015625)"/>
      <path id="DejaVuSans-Oblique-64" d="M 2675 525 
Q 2444 222 2128 65 
Q 1813 -91 1428 -91 
Q 903 -91 598 267 
Q 294 625 294 1247 
Q 294 1766 478 2236 
Q 663 2706 1013 3078 
Q 1244 3325 1534 3454 
Q 1825 3584 2144 3584 
Q 2481 3584 2739 3421 
Q 2997 3259 3138 2956 
L 3513 4863 
L 4091 4863 
L 3144 0 
L 2566 0 
L 2675 525 
z
M 891 1350 
Q 891 897 1095 644 
Q 1300 391 1663 391 
Q 1931 391 2161 520 
Q 2391 650 2566 903 
Q 2750 1166 2856 1509 
Q 2963 1853 2963 2188 
Q 2963 2622 2758 2865 
Q 2553 3109 2194 3109 
Q 1922 3109 1687 2981 
Q 1453 2853 1288 2613 
Q 1106 2353 998 2009 
Q 891 1666 891 1350 
z
" transform="scale(0.015625)"/>
      <path id="DejaVuSans-Oblique-3d" d="M 678 2906 
L 4684 2906 
L 4684 2381 
L 678 2381 
L 678 2906 
z
M 678 1631 
L 4684 1631 
L 4684 1100 
L 678 1100 
L 678 1631 
z
" transform="scale(0.015625)"/>
      <path id="DejaVuSans-Oblique-31" d="M 416 531 
L 1447 531 
L 2144 4122 
L 978 3897 
L 1088 4441 
L 2247 4666 
L 2881 4666 
L 2075 531 
L 3103 531 
L 3003 0 
L 313 0 
L 416 531 
z
" transform="scale(0.015625)"/>
      <path id="DejaVuSans-Oblique-70" d="M 3175 2156 
Q 3175 2616 2975 2859 
Q 2775 3103 2400 3103 
Q 2144 3103 1911 2972 
Q 1678 2841 1497 2591 
Q 1319 2344 1212 1994 
Q 1106 1644 1106 1300 
Q 1106 863 1306 627 
Q 1506 391 1875 391 
Q 2147 391 2380 519 
Q 2613 647 2778 891 
Q 2956 1147 3065 1494 
Q 3175 1841 3175 2156 
z
M 1394 2969 
Q 1625 3272 1939 3428 
Q 2253 3584 2638 3584 
Q 3175 3584 3472 3232 
Q 3769 2881 3769 2247 
Q 3769 1728 3584 1258 
Q 3400 788 3053 416 
Q 2822 169 2531 39 
Q 2241 -91 1919 -91 
Q 1547 -91 1294 64 
Q 1041 219 916 525 
L 556 -1331 
L -19 -1331 
L 922 3500 
L 1497 3500 
L 1394 2969 
z
" transform="scale(0.015625)"/>
      <path id="DejaVuSans-Oblique-73" d="M 3200 3397 
L 3091 2853 
Q 2863 2978 2609 3040 
Q 2356 3103 2088 3103 
Q 1634 3103 1373 2948 
Q 1113 2794 1113 2528 
Q 1113 2219 1719 2053 
Q 1766 2041 1788 2034 
L 1972 1978 
Q 2547 1819 2739 1644 
Q 2931 1469 2931 1166 
Q 2931 609 2489 259 
Q 2047 -91 1331 -91 
Q 1053 -91 747 -37 
Q 441 16 72 128 
L 184 722 
Q 500 559 806 475 
Q 1113 391 1394 391 
Q 1816 391 2080 572 
Q 2344 753 2344 1031 
Q 2344 1331 1650 1516 
L 1591 1531 
L 1394 1581 
Q 956 1697 753 1886 
Q 550 2075 550 2369 
Q 550 2928 970 3256 
Q 1391 3584 2113 3584 
Q 2397 3584 2667 3537 
Q 2938 3491 3200 3397 
z
" transform="scale(0.015625)"/>
      <path id="DejaVuSans-Oblique-32" d="M 2950 2253 
L 934 525 
L 3163 525 
L 3053 0 
L 25 0 
L 128 531 
L 2234 2338 
Q 2656 2703 2832 2979 
Q 3009 3256 3009 3547 
Q 3009 3850 2796 4040 
Q 2584 4231 2241 4231 
Q 1944 4231 1581 4125 
Q 1219 4019 806 3816 
L 922 4441 
Q 1309 4594 1662 4672 
Q 2016 4750 2316 4750 
Q 2928 4750 3301 4425 
Q 3675 4100 3675 3572 
Q 3675 3216 3497 2892 
Q 3319 2569 2950 2253 
z
" transform="scale(0.015625)"/>
     </defs>
     <use xlink:href="#DejaVuSans-Oblique-53"/>
     <use xlink:href="#DejaVuSans-Oblique-61" x="63.476562"/>
     <use xlink:href="#DejaVuSans-Oblique-76" x="124.755859"/>
     <use xlink:href="#DejaVuSans-Oblique-69" x="183.935547"/>
     <use xlink:href="#DejaVuSans-Oblique-74" x="211.71875"/>
     <use xlink:href="#DejaVuSans-Oblique-7a" x="250.927734"/>
     <use xlink:href="#DejaVuSans-Oblique-6b" x="303.417969"/>
     <use xlink:href="#DejaVuSans-Oblique-79" x="361.328125"/>
     <use xlink:href="#DejaVuSans-Oblique-2d" x="416.882812"/>
     <use xlink:href="#DejaVuSans-Oblique-47" x="452.966797"/>
     <use xlink:href="#DejaVuSans-Oblique-6f" x="530.457031"/>
     <use xlink:href="#DejaVuSans-Oblique-6c" x="591.638672"/>
     <use xlink:href="#DejaVuSans-Oblique-61" x="619.421875"/>
     <use xlink:href="#DejaVuSans-Oblique-79" x="680.701172"/>
     <use xlink:href="#DejaVuSans-Oblique-20" x="739.880859"/>
     <use xlink:href="#DejaVuSans-Oblique-66" x="771.667969"/>
     <use xlink:href="#DejaVuSans-Oblique-69" x="806.873047"/>
     <use xlink:href="#DejaVuSans-Oblique-6c" x="834.65625"/>
     <use xlink:href="#DejaVuSans-Oblique-74" x="862.439453"/>
     <use xlink:href="#DejaVuSans-Oblique-65" x="901.648438"/>
     <use xlink:href="#DejaVuSans-Oblique-72" x="963.171875"/>
     <use xlink:href="#DejaVuSans-Oblique-20" x="1004.285156"/>
     <use xlink:href="#DejaVuSans-Oblique-20" x="1036.072266"/>
     <use xlink:href="#DejaVuSans-Oblique-7c" x="1067.859375"/>
     <use xlink:href="#DejaVuSans-Oblique-20" x="1101.550781"/>
     <use xlink:href="#DejaVuSans-Oblique-20" x="1133.337891"/>
     <use xlink:href="#DejaVuSans-Oblique-77" x="1165.125"/>
     <use xlink:href="#DejaVuSans-Oblique-69" x="1246.912109"/>
     <use xlink:href="#DejaVuSans-Oblique-6e" x="1274.695312"/>
     <use xlink:href="#DejaVuSans-Oblique-64" x="1338.074219"/>
     <use xlink:href="#DejaVuSans-Oblique-6f" x="1401.550781"/>
     <use xlink:href="#DejaVuSans-Oblique-77" x="1462.732422"/>
     <use xlink:href="#DejaVuSans-Oblique-20" x="1544.519531"/>
     <use xlink:href="#DejaVuSans-Oblique-3d" x="1576.306641"/>
     <use xlink:href="#DejaVuSans-Oblique-20" x="1660.095703"/>
     <use xlink:href="#DejaVuSans-Oblique-31" x="1691.882812"/>
     <use xlink:href="#DejaVuSans-Oblique-31" x="1755.505859"/>
     <use xlink:href="#DejaVuSans-Oblique-20" x="1819.128906"/>
     <use xlink:href="#DejaVuSans-Oblique-70" x="1850.916016"/>
     <use xlink:href="#DejaVuSans-Oblique-74" x="1914.392578"/>
     <use xlink:href="#DejaVuSans-Oblique-73" x="1953.601562"/>
     <use xlink:href="#DejaVuSans-Oblique-20" x="2005.701172"/>
     <use xlink:href="#DejaVuSans-Oblique-20" x="2037.488281"/>
     <use xlink:href="#DejaVuSans-Oblique-7c" x="2069.275391"/>
     <use xlink:href="#DejaVuSans-Oblique-20" x="2102.966797"/>
     <use xlink:href="#DejaVuSans-Oblique-20" x="2134.753906"/>
     <use xlink:href="#DejaVuSans-Oblique-70" x="2166.541016"/>
     <use xlink:href="#DejaVuSans-Oblique-6f" x="2230.017578"/>
     <use xlink:href="#DejaVuSans-Oblique-6c" x="2291.199219"/>
     <use xlink:href="#DejaVuSans-Oblique-79" x="2318.982422"/>
     <use xlink:href="#DejaVuSans-Oblique-6f" x="2378.162109"/>
     <use xlink:href="#DejaVuSans-Oblique-72" x="2439.34375"/>
     <use xlink:href="#DejaVuSans-Oblique-64" x="2480.457031"/>
     <use xlink:href="#DejaVuSans-Oblique-65" x="2543.933594"/>
     <use xlink:href="#DejaVuSans-Oblique-72" x="2605.457031"/>
     <use xlink:href="#DejaVuSans-Oblique-20" x="2646.570312"/>
     <use xlink:href="#DejaVuSans-Oblique-3d" x="2678.357422"/>
     <use xlink:href="#DejaVuSans-Oblique-20" x="2762.146484"/>
     <use xlink:href="#DejaVuSans-Oblique-32" x="2793.933594"/>
    </g>
   </g>
   <g id="text_21">
    <!-- SISAL – Antro del Corchia -->
    <g transform="translate(187.528125 26.955938) scale(0.26 -0.26)">
     <defs>
      <path id="DejaVuSans-Bold-4c" d="M 588 4666 
L 1791 4666 
L 1791 909 
L 3903 909 
L 3903 0 
L 588 0 
L 588 4666 
z
" transform="scale(0.015625)"/>
      <path id="DejaVuSans-Bold-2013" d="M 344 2156 
L 2856 2156 
L 2856 1350 
L 344 1350 
L 344 2156 
z
" transform="scale(0.015625)"/>
      <path id="DejaVuSans-Bold-6e" d="M 4056 2131 
L 4056 0 
L 2931 0 
L 2931 347 
L 2931 1631 
Q 2931 2084 2911 2256 
Q 2891 2428 2841 2509 
Q 2775 2619 2662 2680 
Q 2550 2741 2406 2741 
Q 2056 2741 1856 2470 
Q 1656 2200 1656 1722 
L 1656 0 
L 538 0 
L 538 3500 
L 1656 3500 
L 1656 2988 
Q 1909 3294 2193 3439 
Q 2478 3584 2822 3584 
Q 3428 3584 3742 3212 
Q 4056 2841 4056 2131 
z
" transform="scale(0.015625)"/>
      <path id="DejaVuSans-Bold-74" d="M 1759 4494 
L 1759 3500 
L 2913 3500 
L 2913 2700 
L 1759 2700 
L 1759 1216 
Q 1759 972 1856 886 
Q 1953 800 2241 800 
L 2816 800 
L 2816 0 
L 1856 0 
Q 1194 0 917 276 
Q 641 553 641 1216 
L 641 2700 
L 84 2700 
L 84 3500 
L 641 3500 
L 641 4494 
L 1759 4494 
z
" transform="scale(0.015625)"/>
      <path id="DejaVuSans-Bold-72" d="M 3138 2547 
Q 2991 2616 2845 2648 
Q 2700 2681 2553 2681 
Q 2122 2681 1889 2404 
Q 1656 2128 1656 1613 
L 1656 0 
L 538 0 
L 538 3500 
L 1656 3500 
L 1656 2925 
Q 1872 3269 2151 3426 
Q 2431 3584 2822 3584 
Q 2878 3584 2943 3579 
Q 3009 3575 3134 3559 
L 3138 2547 
z
" transform="scale(0.015625)"/>
      <path id="DejaVuSans-Bold-6f" d="M 2203 2784 
Q 1831 2784 1636 2517 
Q 1441 2250 1441 1747 
Q 1441 1244 1636 976 
Q 1831 709 2203 709 
Q 2569 709 2762 976 
Q 2956 1244 2956 1747 
Q 2956 2250 2762 2517 
Q 2569 2784 2203 2784 
z
M 2203 3584 
Q 3106 3584 3614 3096 
Q 4122 2609 4122 1747 
Q 4122 884 3614 396 
Q 3106 -91 2203 -91 
Q 1297 -91 786 396 
Q 275 884 275 1747 
Q 275 2609 786 3096 
Q 1297 3584 2203 3584 
z
" transform="scale(0.015625)"/>
      <path id="DejaVuSans-Bold-64" d="M 2919 2988 
L 2919 4863 
L 4044 4863 
L 4044 0 
L 2919 0 
L 2919 506 
Q 2688 197 2409 53 
Q 2131 -91 1766 -91 
Q 1119 -91 703 423 
Q 288 938 288 1747 
Q 288 2556 703 3070 
Q 1119 3584 1766 3584 
Q 2128 3584 2408 3439 
Q 2688 3294 2919 2988 
z
M 2181 722 
Q 2541 722 2730 984 
Q 2919 1247 2919 1747 
Q 2919 2247 2730 2509 
Q 2541 2772 2181 2772 
Q 1825 2772 1636 2509 
Q 1447 2247 1447 1747 
Q 1447 1247 1636 984 
Q 1825 722 2181 722 
z
" transform="scale(0.015625)"/>
      <path id="DejaVuSans-Bold-6c" d="M 538 4863 
L 1656 4863 
L 1656 0 
L 538 0 
L 538 4863 
z
" transform="scale(0.015625)"/>
      <path id="DejaVuSans-Bold-43" d="M 4288 256 
Q 3956 84 3597 -3 
Q 3238 -91 2847 -91 
Q 1681 -91 1000 561 
Q 319 1213 319 2328 
Q 319 3447 1000 4098 
Q 1681 4750 2847 4750 
Q 3238 4750 3597 4662 
Q 3956 4575 4288 4403 
L 4288 3438 
Q 3953 3666 3628 3772 
Q 3303 3878 2944 3878 
Q 2300 3878 1931 3465 
Q 1563 3053 1563 2328 
Q 1563 1606 1931 1193 
Q 2300 781 2944 781 
Q 3303 781 3628 887 
Q 3953 994 4288 1222 
L 4288 256 
z
" transform="scale(0.015625)"/>
      <path id="DejaVuSans-Bold-63" d="M 3366 3391 
L 3366 2478 
Q 3138 2634 2908 2709 
Q 2678 2784 2431 2784 
Q 1963 2784 1702 2511 
Q 1441 2238 1441 1747 
Q 1441 1256 1702 982 
Q 1963 709 2431 709 
Q 2694 709 2930 787 
Q 3166 866 3366 1019 
L 3366 103 
Q 3103 6 2833 -42 
Q 2563 -91 2291 -91 
Q 1344 -91 809 395 
Q 275 881 275 1747 
Q 275 2613 809 3098 
Q 1344 3584 2291 3584 
Q 2566 3584 2833 3536 
Q 3100 3488 3366 3391 
z
" transform="scale(0.015625)"/>
      <path id="DejaVuSans-Bold-68" d="M 4056 2131 
L 4056 0 
L 2931 0 
L 2931 347 
L 2931 1625 
Q 2931 2084 2911 2256 
Q 2891 2428 2841 2509 
Q 2775 2619 2662 2680 
Q 2550 2741 2406 2741 
Q 2056 2741 1856 2470 
Q 1656 2200 1656 1722 
L 1656 0 
L 538 0 
L 538 4863 
L 1656 4863 
L 1656 2988 
Q 1909 3294 2193 3439 
Q 2478 3584 2822 3584 
Q 3428 3584 3742 3212 
Q 4056 2841 4056 2131 
z
" transform="scale(0.015625)"/>
      <path id="DejaVuSans-Bold-69" d="M 538 3500 
L 1656 3500 
L 1656 0 
L 538 0 
L 538 3500 
z
M 538 4863 
L 1656 4863 
L 1656 3950 
L 538 3950 
L 538 4863 
z
" transform="scale(0.015625)"/>
     </defs>
     <use xlink:href="#DejaVuSans-Bold-53"/>
     <use xlink:href="#DejaVuSans-Bold-49" x="72.021484"/>
     <use xlink:href="#DejaVuSans-Bold-53" x="109.228516"/>
     <use xlink:href="#DejaVuSans-Bold-41" x="181.25"/>
     <use xlink:href="#DejaVuSans-Bold-4c" x="258.642578"/>
     <use xlink:href="#DejaVuSans-Bold-20" x="322.363281"/>
     <use xlink:href="#DejaVuSans-Bold-2013" x="357.177734"/>
     <use xlink:href="#DejaVuSans-Bold-20" x="407.177734"/>
     <use xlink:href="#DejaVuSans-Bold-41" x="441.992188"/>
     <use xlink:href="#DejaVuSans-Bold-6e" x="519.384766"/>
     <use xlink:href="#DejaVuSans-Bold-74" x="590.576172"/>
     <use xlink:href="#DejaVuSans-Bold-72" x="638.378906"/>
     <use xlink:href="#DejaVuSans-Bold-6f" x="687.695312"/>
     <use xlink:href="#DejaVuSans-Bold-20" x="756.396484"/>
     <use xlink:href="#DejaVuSans-Bold-64" x="791.210938"/>
     <use xlink:href="#DejaVuSans-Bold-65" x="862.792969"/>
     <use xlink:href="#DejaVuSans-Bold-6c" x="930.615234"/>
     <use xlink:href="#DejaVuSans-Bold-20" x="964.892578"/>
     <use xlink:href="#DejaVuSans-Bold-43" x="999.707031"/>
     <use xlink:href="#DejaVuSans-Bold-6f" x="1073.095703"/>
     <use xlink:href="#DejaVuSans-Bold-72" x="1141.796875"/>
     <use xlink:href="#DejaVuSans-Bold-63" x="1191.113281"/>
     <use xlink:href="#DejaVuSans-Bold-68" x="1250.390625"/>
     <use xlink:href="#DejaVuSans-Bold-69" x="1321.582031"/>
     <use xlink:href="#DejaVuSans-Bold-61" x="1355.859375"/>
    </g>
   </g>
  </g>
 </g>
 <defs>
  <clipPath id="p3ac8ac1733">
   <rect x="93.55875" y="97.140625" width="558" height="1108.8"/>
  </clipPath>
 </defs>
</svg>
