<?xml version="1.0" encoding="utf-8" standalone="no"?>
<!DOCTYPE svg PUBLIC "-//W3C//DTD SVG 1.1//EN"
  "http://www.w3.org/Graphics/SVG/1.1/DTD/svg11.dtd">
<svg xmlns:xlink="http://www.w3.org/1999/xlink" width="658.75875pt" height="1238.068344pt" viewBox="0 0 658.75875 1238.068344" xmlns="http://www.w3.org/2000/svg" version="1.1">
 <metadata>
  <rdf:RDF xmlns:dc="http://purl.org/dc/elements/1.1/" xmlns:cc="http://creativecommons.org/ns#" xmlns:rdf="http://www.w3.org/1999/02/22-rdf-syntax-ns#">
   <cc:Work>
    <dc:type rdf:resource="http://purl.org/dc/dcmitype/StillImage"/>
    <dc:date>2026-02-25T18:27:38.791496</dc:date>
    <dc:format>image/svg+xml</dc:format>
    <dc:creator>
     <cc:Agent>
      <dc:title>Matplotlib v3.9.2, https://matplotlib.org/</dc:title>
     </cc:Agent>
    </dc:creator>
   </cc:Work>
  </rdf:RDF>
 </metadata>
 <defs>
  <style type="text/css">*{stroke-linejoin: round; stroke-linecap: butt}</style>
 </defs>
 <g id="figure_1">
  <g id="patch_1">
   <path d="M 0 1238.068344 
L 658.75875 1238.068344 
L 658.75875 0 
L 0 0 
z
" style="fill: #ffffff"/>
  </g>
  <g id="axes_1">
   <g id="patch_2">
    <path d="M 93.55875 1205.940625 
L 651.55875 1205.940625 
L 651.55875 97.140625 
L 93.55875 97.140625 
z
" style="fill: #ffffff"/>
   </g>
   <g id="patch_3">
    <path d="M 93.55875 77.1894 
L 651.55875 77.1894 
L 651.55875 189.988583 
L 93.55875 189.988583 
z
" clip-path="url(#p9404502b32)" style="fill: #fddbc7"/>
   </g>
   <g id="patch_4">
    <path d="M 93.55875 189.988583 
L 651.55875 189.988583 
L 651.55875 310.844851 
L 93.55875 310.844851 
z
" clip-path="url(#p9404502b32)" style="fill: #d6e8f7"/>
   </g>
   <g id="patch_5">
    <path d="M 93.55875 310.844851 
L 651.55875 310.844851 
L 651.55875 536.443217 
L 93.55875 536.443217 
z
" clip-path="url(#p9404502b32)" style="fill: #fef0e6"/>
   </g>
   <g id="patch_6">
    <path d="M 93.55875 536.443217 
L 651.55875 536.443217 
L 651.55875 649.242401 
L 93.55875 649.242401 
z
" clip-path="url(#p9404502b32)" style="fill: #d6e8f7"/>
   </g>
   <g id="patch_7">
    <path d="M 93.55875 649.242401 
L 651.55875 649.242401 
L 651.55875 1124.610387 
L 93.55875 1124.610387 
z
" clip-path="url(#p9404502b32)" style="fill: #fddbc7"/>
   </g>
   <g id="patch_8">
    <path d="M 93.55875 1124.610387 
L 651.55875 1124.610387 
L 651.55875 1616.092543 
L 93.55875 1616.092543 
z
" clip-path="url(#p9404502b32)" style="fill: #d6e8f7"/>
   </g>
   <g id="matplotlib.axis_1">
    <g id="xtick_1">
     <g id="line2d_1">
      <defs>
       <path id="m92bb328ed5" d="M 0 0 
L 0 -3.5 
" style="stroke: #000000; stroke-width: 0.8"/>
      </defs>
      <g>
       <use xlink:href="#m92bb328ed5" x="118.922386" y="97.140625" style="stroke: #000000; stroke-width: 0.8"/>
      </g>
     </g>
     <g id="text_1">
      <!-- -3.0 -->
      <g transform="translate(97.460355 85.565313) scale(0.22 -0.22)">
       <defs>
        <path id="DejaVuSans-2d" d="M 313 2009 
L 1997 2009 
L 1997 1497 
L 313 1497 
L 313 2009 
z
" transform="scale(0.015625)"/>
        <path id="DejaVuSans-33" d="M 2597 2516 
Q 3050 2419 3304 2112 
Q 3559 1806 3559 1356 
Q 3559 666 3084 287 
Q 2609 -91 1734 -91 
Q 1441 -91 1130 -33 
Q 819 25 488 141 
L 488 750 
Q 750 597 1062 519 
Q 1375 441 1716 441 
Q 2309 441 2620 675 
Q 2931 909 2931 1356 
Q 2931 1769 2642 2001 
Q 2353 2234 1838 2234 
L 1294 2234 
L 1294 2753 
L 1863 2753 
Q 2328 2753 2575 2939 
Q 2822 3125 2822 3475 
Q 2822 3834 2567 4026 
Q 2313 4219 1838 4219 
Q 1578 4219 1281 4162 
Q 984 4106 628 3988 
L 628 4550 
Q 988 4650 1302 4700 
Q 1616 4750 1894 4750 
Q 2613 4750 3031 4423 
Q 3450 4097 3450 3541 
Q 3450 3153 3228 2886 
Q 3006 2619 2597 2516 
z
" transform="scale(0.015625)"/>
        <path id="DejaVuSans-2e" d="M 684 794 
L 1344 794 
L 1344 0 
L 684 0 
L 684 794 
z
" transform="scale(0.015625)"/>
        <path id="DejaVuSans-30" d="M 2034 4250 
Q 1547 4250 1301 3770 
Q 1056 3291 1056 2328 
Q 1056 1369 1301 889 
Q 1547 409 2034 409 
Q 2525 409 2770 889 
Q 3016 1369 3016 2328 
Q 3016 3291 2770 3770 
Q 2525 4250 2034 4250 
z
M 2034 4750 
Q 2819 4750 3233 4129 
Q 3647 3509 3647 2328 
Q 3647 1150 3233 529 
Q 2819 -91 2034 -91 
Q 1250 -91 836 529 
Q 422 1150 422 2328 
Q 422 3509 836 4129 
Q 1250 4750 2034 4750 
z
" transform="scale(0.015625)"/>
       </defs>
       <use xlink:href="#DejaVuSans-2d"/>
       <use xlink:href="#DejaVuSans-33" x="36.083984"/>
       <use xlink:href="#DejaVuSans-2e" x="99.707031"/>
       <use xlink:href="#DejaVuSans-30" x="131.494141"/>
      </g>
     </g>
    </g>
    <g id="xtick_2">
     <g id="line2d_2">
      <g>
       <use xlink:href="#m92bb328ed5" x="191.389919" y="97.140625" style="stroke: #000000; stroke-width: 0.8"/>
      </g>
     </g>
     <g id="text_2">
      <!-- -2.0 -->
      <g transform="translate(169.927888 85.565313) scale(0.22 -0.22)">
       <defs>
        <path id="DejaVuSans-32" d="M 1228 531 
L 3431 531 
L 3431 0 
L 469 0 
L 469 531 
Q 828 903 1448 1529 
Q 2069 2156 2228 2338 
Q 2531 2678 2651 2914 
Q 2772 3150 2772 3378 
Q 2772 3750 2511 3984 
Q 2250 4219 1831 4219 
Q 1534 4219 1204 4116 
Q 875 4013 500 3803 
L 500 4441 
Q 881 4594 1212 4672 
Q 1544 4750 1819 4750 
Q 2544 4750 2975 4387 
Q 3406 4025 3406 3419 
Q 3406 3131 3298 2873 
Q 3191 2616 2906 2266 
Q 2828 2175 2409 1742 
Q 1991 1309 1228 531 
z
" transform="scale(0.015625)"/>
       </defs>
       <use xlink:href="#DejaVuSans-2d"/>
       <use xlink:href="#DejaVuSans-32" x="36.083984"/>
       <use xlink:href="#DejaVuSans-2e" x="99.707031"/>
       <use xlink:href="#DejaVuSans-30" x="131.494141"/>
      </g>
     </g>
    </g>
    <g id="xtick_3">
     <g id="line2d_3">
      <g>
       <use xlink:href="#m92bb328ed5" x="263.857451" y="97.140625" style="stroke: #000000; stroke-width: 0.8"/>
      </g>
     </g>
     <g id="text_3">
      <!-- -1.0 -->
      <g transform="translate(242.39542 85.565313) scale(0.22 -0.22)">
       <defs>
        <path id="DejaVuSans-31" d="M 794 531 
L 1825 531 
L 1825 4091 
L 703 3866 
L 703 4441 
L 1819 4666 
L 2450 4666 
L 2450 531 
L 3481 531 
L 3481 0 
L 794 0 
L 794 531 
z
" transform="scale(0.015625)"/>
       </defs>
       <use xlink:href="#DejaVuSans-2d"/>
       <use xlink:href="#DejaVuSans-31" x="36.083984"/>
       <use xlink:href="#DejaVuSans-2e" x="99.707031"/>
       <use xlink:href="#DejaVuSans-30" x="131.494141"/>
      </g>
     </g>
    </g>
    <g id="xtick_4">
     <g id="line2d_4">
      <g>
       <use xlink:href="#m92bb328ed5" x="336.324984" y="97.140625" style="stroke: #000000; stroke-width: 0.8"/>
      </g>
     </g>
     <g id="text_4">
      <!-- 0.0 -->
      <g transform="translate(318.831546 85.565313) scale(0.22 -0.22)">
       <use xlink:href="#DejaVuSans-30"/>
       <use xlink:href="#DejaVuSans-2e" x="63.623047"/>
       <use xlink:href="#DejaVuSans-30" x="95.410156"/>
      </g>
     </g>
    </g>
    <g id="xtick_5">
     <g id="line2d_5">
      <g>
       <use xlink:href="#m92bb328ed5" x="408.792516" y="97.140625" style="stroke: #000000; stroke-width: 0.8"/>
      </g>
     </g>
     <g id="text_5">
      <!-- 1.0 -->
      <g transform="translate(391.299079 85.565313) scale(0.22 -0.22)">
       <use xlink:href="#DejaVuSans-31"/>
       <use xlink:href="#DejaVuSans-2e" x="63.623047"/>
       <use xlink:href="#DejaVuSans-30" x="95.410156"/>
      </g>
     </g>
    </g>
    <g id="xtick_6">
     <g id="line2d_6">
      <g>
       <use xlink:href="#m92bb328ed5" x="481.260049" y="97.140625" style="stroke: #000000; stroke-width: 0.8"/>
      </g>
     </g>
     <g id="text_6">
      <!-- 2.0 -->
      <g transform="translate(463.766611 85.565313) scale(0.22 -0.22)">
       <use xlink:href="#DejaVuSans-32"/>
       <use xlink:href="#DejaVuSans-2e" x="63.623047"/>
       <use xlink:href="#DejaVuSans-30" x="95.410156"/>
      </g>
     </g>
    </g>
    <g id="xtick_7">
     <g id="line2d_7">
      <g>
       <use xlink:href="#m92bb328ed5" x="553.727581" y="97.140625" style="stroke: #000000; stroke-width: 0.8"/>
      </g>
     </g>
     <g id="text_7">
      <!-- 3.0 -->
      <g transform="translate(536.234144 85.565313) scale(0.22 -0.22)">
       <use xlink:href="#DejaVuSans-33"/>
       <use xlink:href="#DejaVuSans-2e" x="63.623047"/>
       <use xlink:href="#DejaVuSans-30" x="95.410156"/>
      </g>
     </g>
    </g>
    <g id="xtick_8">
     <g id="line2d_8">
      <g>
       <use xlink:href="#m92bb328ed5" x="626.195114" y="97.140625" style="stroke: #000000; stroke-width: 0.8"/>
      </g>
     </g>
     <g id="text_8">
      <!-- 4.0 -->
      <g transform="translate(608.701676 85.565313) scale(0.22 -0.22)">
       <defs>
        <path id="DejaVuSans-34" d="M 2419 4116 
L 825 1625 
L 2419 1625 
L 2419 4116 
z
M 2253 4666 
L 3047 4666 
L 3047 1625 
L 3713 1625 
L 3713 1100 
L 3047 1100 
L 3047 0 
L 2419 0 
L 2419 1100 
L 313 1100 
L 313 1709 
L 2253 4666 
z
" transform="scale(0.015625)"/>
       </defs>
       <use xlink:href="#DejaVuSans-34"/>
       <use xlink:href="#DejaVuSans-2e" x="63.623047"/>
       <use xlink:href="#DejaVuSans-30" x="95.410156"/>
      </g>
     </g>
    </g>
    <g id="text_9">
     <!-- $\boldsymbol{\delta}^{\mathbf{13}}\mathbf{C}\ \mathbf{[‰]}$ -->
     <g transform="translate(305.99875 56.84875) scale(0.26 -0.26)">
      <defs>
       <path id="DejaVuSans-BoldOblique-3b4" d="M 3913 3950 
Q 3572 4169 2575 4169 
Q 2044 4169 1984 3863 
Q 1981 3841 1981 3822 
Q 1981 3563 2634 3463 
Q 4038 3244 4038 2159 
Q 4038 1963 3994 1734 
Q 3828 888 3222 400 
Q 2613 -91 1719 -91 
Q 822 -91 403 400 
Q 100 750 100 1288 
Q 100 2253 884 2900 
Q 1075 3056 1294 3156 
Q 959 3356 959 3722 
Q 959 3806 978 3900 
Q 1175 4913 2825 4913 
Q 3653 4913 4056 4694 
L 3913 3950 
z
M 2003 2750 
Q 1825 2681 1659 2506 
Q 1400 2234 1306 1744 
Q 1269 1553 1269 1350 
Q 1269 1147 1359 978 
Q 1513 703 1866 703 
Q 2222 703 2481 981 
Q 2744 1263 2834 1731 
Q 2866 1888 2866 2084 
Q 2866 2278 2747 2431 
Q 2572 2669 2269 2703 
Q 2128 2719 2003 2750 
z
" transform="scale(0.015625)"/>
       <path id="DejaVuSans-Bold-31" d="M 750 831 
L 1813 831 
L 1813 3847 
L 722 3622 
L 722 4441 
L 1806 4666 
L 2950 4666 
L 2950 831 
L 4013 831 
L 4013 0 
L 750 0 
L 750 831 
z
" transform="scale(0.015625)"/>
       <path id="DejaVuSans-Bold-33" d="M 2981 2516 
Q 3453 2394 3698 2092 
Q 3944 1791 3944 1325 
Q 3944 631 3412 270 
Q 2881 -91 1863 -91 
Q 1503 -91 1142 -33 
Q 781 25 428 141 
L 428 1069 
Q 766 900 1098 814 
Q 1431 728 1753 728 
Q 2231 728 2486 893 
Q 2741 1059 2741 1369 
Q 2741 1688 2480 1852 
Q 2219 2016 1709 2016 
L 1228 2016 
L 1228 2791 
L 1734 2791 
Q 2188 2791 2409 2933 
Q 2631 3075 2631 3366 
Q 2631 3634 2415 3781 
Q 2200 3928 1806 3928 
Q 1516 3928 1219 3862 
Q 922 3797 628 3669 
L 628 4550 
Q 984 4650 1334 4700 
Q 1684 4750 2022 4750 
Q 2931 4750 3382 4451 
Q 3834 4153 3834 3553 
Q 3834 3144 3618 2883 
Q 3403 2622 2981 2516 
z
" transform="scale(0.015625)"/>
       <path id="DejaVuSans-Bold-43" d="M 4288 256 
Q 3956 84 3597 -3 
Q 3238 -91 2847 -91 
Q 1681 -91 1000 561 
Q 319 1213 319 2328 
Q 319 3447 1000 4098 
Q 1681 4750 2847 4750 
Q 3238 4750 3597 4662 
Q 3956 4575 4288 4403 
L 4288 3438 
Q 3953 3666 3628 3772 
Q 3303 3878 2944 3878 
Q 2300 3878 1931 3465 
Q 1563 3053 1563 2328 
Q 1563 1606 1931 1193 
Q 2300 781 2944 781 
Q 3303 781 3628 887 
Q 3953 994 4288 1222 
L 4288 256 
z
" transform="scale(0.015625)"/>
       <path id="DejaVuSans-Bold-5b" d="M 550 4863 
L 2491 4863 
L 2491 4159 
L 1613 4159 
L 1613 -141 
L 2491 -141 
L 2491 -844 
L 550 -844 
L 550 4863 
z
" transform="scale(0.015625)"/>
       <path id="DejaVuSans-Bold-2030" d="M 7822 1925 
Q 7597 1925 7475 1733 
Q 7353 1541 7353 1184 
Q 7353 825 7475 633 
Q 7597 441 7822 441 
Q 8044 441 8162 633 
Q 8281 825 8281 1184 
Q 8281 1541 8162 1733 
Q 8044 1925 7822 1925 
z
M 7822 2450 
Q 8403 2450 8736 2112 
Q 9069 1775 9069 1184 
Q 9069 594 8734 251 
Q 8400 -91 7822 -91 
Q 7241 -91 6903 251 
Q 6566 594 6566 1184 
Q 6566 1772 6902 2111 
Q 7238 2450 7822 2450 
z
M 1453 4225 
Q 1228 4225 1106 4031 
Q 984 3838 984 3481 
Q 984 3122 1106 2926 
Q 1228 2731 1453 2731 
Q 1678 2731 1798 2926 
Q 1919 3122 1919 3481 
Q 1919 3838 1797 4031 
Q 1675 4225 1453 4225 
z
M 1453 4750 
Q 2034 4750 2367 4411 
Q 2700 4072 2700 3481 
Q 2700 2891 2367 2550 
Q 2034 2209 1453 2209 
Q 872 2209 539 2550 
Q 206 2891 206 3481 
Q 206 4072 539 4411 
Q 872 4750 1453 4750 
z
M 2094 -91 
L 1403 -91 
L 4319 4750 
L 5013 4750 
L 2094 -91 
z
M 4959 2450 
Q 5541 2450 5875 2112 
Q 6209 1775 6209 1184 
Q 6209 594 5875 251 
Q 5541 -91 4959 -91 
Q 4378 -91 4042 251 
Q 3706 594 3706 1184 
Q 3706 1772 4042 2111 
Q 4378 2450 4959 2450 
z
M 4959 1925 
Q 4738 1925 4616 1733 
Q 4494 1541 4494 1184 
Q 4494 825 4614 633 
Q 4734 441 4959 441 
Q 5184 441 5303 633 
Q 5422 825 5422 1184 
Q 5422 1541 5301 1733 
Q 5181 1925 4959 1925 
z
" transform="scale(0.015625)"/>
       <path id="DejaVuSans-Bold-5d" d="M 2375 -844 
L 434 -844 
L 434 -141 
L 1313 -141 
L 1313 4159 
L 434 4159 
L 434 4863 
L 2375 4863 
L 2375 -844 
z
" transform="scale(0.015625)"/>
      </defs>
      <use xlink:href="#DejaVuSans-BoldOblique-3b4" transform="translate(0 0.765625)"/>
      <use xlink:href="#DejaVuSans-Bold-31" transform="translate(69.658203 39.046875) scale(0.7)"/>
      <use xlink:href="#DejaVuSans-Bold-33" transform="translate(118.364258 39.046875) scale(0.7)"/>
      <use xlink:href="#DejaVuSans-Bold-43" transform="translate(169.804688 0.765625)"/>
      <use xlink:href="#DejaVuSans-Bold-5b" transform="translate(275.663738 0.765625)"/>
      <use xlink:href="#DejaVuSans-Bold-2030" transform="translate(321.366863 0.765625)"/>
      <use xlink:href="#DejaVuSans-Bold-5d" transform="translate(465.361003 0.765625)"/>
     </g>
    </g>
   </g>
   <g id="matplotlib.axis_2">
    <g id="ytick_1">
     <g id="line2d_9">
      <path d="M 93.55875 238.33109 
L 651.55875 238.33109 
" clip-path="url(#p9404502b32)" style="fill: none; stroke: #cccccc; stroke-linecap: square"/>
     </g>
     <g id="line2d_10">
      <defs>
       <path id="m8d3fd18124" d="M 0 0 
L -3.5 0 
" style="stroke: #000000; stroke-width: 0.8"/>
      </defs>
      <g>
       <use xlink:href="#m8d3fd18124" x="93.55875" y="238.33109" style="stroke: #000000; stroke-width: 0.8"/>
      </g>
     </g>
     <g id="text_10">
      <!-- 20 -->
      <g transform="translate(58.56375 246.689371) scale(0.22 -0.22)">
       <use xlink:href="#DejaVuSans-32"/>
       <use xlink:href="#DejaVuSans-30" x="63.623047"/>
      </g>
     </g>
    </g>
    <g id="ytick_2">
     <g id="line2d_11">
      <path d="M 93.55875 399.472781 
L 651.55875 399.472781 
" clip-path="url(#p9404502b32)" style="fill: none; stroke: #cccccc; stroke-linecap: square"/>
     </g>
     <g id="line2d_12">
      <g>
       <use xlink:href="#m8d3fd18124" x="93.55875" y="399.472781" style="stroke: #000000; stroke-width: 0.8"/>
      </g>
     </g>
     <g id="text_11">
      <!-- 40 -->
      <g transform="translate(58.56375 407.831062) scale(0.22 -0.22)">
       <use xlink:href="#DejaVuSans-34"/>
       <use xlink:href="#DejaVuSans-30" x="63.623047"/>
      </g>
     </g>
    </g>
    <g id="ytick_3">
     <g id="line2d_13">
      <path d="M 93.55875 560.614471 
L 651.55875 560.614471 
" clip-path="url(#p9404502b32)" style="fill: none; stroke: #cccccc; stroke-linecap: square"/>
     </g>
     <g id="line2d_14">
      <g>
       <use xlink:href="#m8d3fd18124" x="93.55875" y="560.614471" style="stroke: #000000; stroke-width: 0.8"/>
      </g>
     </g>
     <g id="text_12">
      <!-- 60 -->
      <g transform="translate(58.56375 568.972752) scale(0.22 -0.22)">
       <defs>
        <path id="DejaVuSans-36" d="M 2113 2584 
Q 1688 2584 1439 2293 
Q 1191 2003 1191 1497 
Q 1191 994 1439 701 
Q 1688 409 2113 409 
Q 2538 409 2786 701 
Q 3034 994 3034 1497 
Q 3034 2003 2786 2293 
Q 2538 2584 2113 2584 
z
M 3366 4563 
L 3366 3988 
Q 3128 4100 2886 4159 
Q 2644 4219 2406 4219 
Q 1781 4219 1451 3797 
Q 1122 3375 1075 2522 
Q 1259 2794 1537 2939 
Q 1816 3084 2150 3084 
Q 2853 3084 3261 2657 
Q 3669 2231 3669 1497 
Q 3669 778 3244 343 
Q 2819 -91 2113 -91 
Q 1303 -91 875 529 
Q 447 1150 447 2328 
Q 447 3434 972 4092 
Q 1497 4750 2381 4750 
Q 2619 4750 2861 4703 
Q 3103 4656 3366 4563 
z
" transform="scale(0.015625)"/>
       </defs>
       <use xlink:href="#DejaVuSans-36"/>
       <use xlink:href="#DejaVuSans-30" x="63.623047"/>
      </g>
     </g>
    </g>
    <g id="ytick_4">
     <g id="line2d_15">
      <path d="M 93.55875 721.756161 
L 651.55875 721.756161 
" clip-path="url(#p9404502b32)" style="fill: none; stroke: #cccccc; stroke-linecap: square"/>
     </g>
     <g id="line2d_16">
      <g>
       <use xlink:href="#m8d3fd18124" x="93.55875" y="721.756161" style="stroke: #000000; stroke-width: 0.8"/>
      </g>
     </g>
     <g id="text_13">
      <!-- 80 -->
      <g transform="translate(58.56375 730.114443) scale(0.22 -0.22)">
       <defs>
        <path id="DejaVuSans-38" d="M 2034 2216 
Q 1584 2216 1326 1975 
Q 1069 1734 1069 1313 
Q 1069 891 1326 650 
Q 1584 409 2034 409 
Q 2484 409 2743 651 
Q 3003 894 3003 1313 
Q 3003 1734 2745 1975 
Q 2488 2216 2034 2216 
z
M 1403 2484 
Q 997 2584 770 2862 
Q 544 3141 544 3541 
Q 544 4100 942 4425 
Q 1341 4750 2034 4750 
Q 2731 4750 3128 4425 
Q 3525 4100 3525 3541 
Q 3525 3141 3298 2862 
Q 3072 2584 2669 2484 
Q 3125 2378 3379 2068 
Q 3634 1759 3634 1313 
Q 3634 634 3220 271 
Q 2806 -91 2034 -91 
Q 1263 -91 848 271 
Q 434 634 434 1313 
Q 434 1759 690 2068 
Q 947 2378 1403 2484 
z
M 1172 3481 
Q 1172 3119 1398 2916 
Q 1625 2713 2034 2713 
Q 2441 2713 2670 2916 
Q 2900 3119 2900 3481 
Q 2900 3844 2670 4047 
Q 2441 4250 2034 4250 
Q 1625 4250 1398 4047 
Q 1172 3844 1172 3481 
z
" transform="scale(0.015625)"/>
       </defs>
       <use xlink:href="#DejaVuSans-38"/>
       <use xlink:href="#DejaVuSans-30" x="63.623047"/>
      </g>
     </g>
    </g>
    <g id="ytick_5">
     <g id="line2d_17">
      <path d="M 93.55875 882.897852 
L 651.55875 882.897852 
" clip-path="url(#p9404502b32)" style="fill: none; stroke: #cccccc; stroke-linecap: square"/>
     </g>
     <g id="line2d_18">
      <g>
       <use xlink:href="#m8d3fd18124" x="93.55875" y="882.897852" style="stroke: #000000; stroke-width: 0.8"/>
      </g>
     </g>
     <g id="text_14">
      <!-- 100 -->
      <g transform="translate(44.56625 891.256133) scale(0.22 -0.22)">
       <use xlink:href="#DejaVuSans-31"/>
       <use xlink:href="#DejaVuSans-30" x="63.623047"/>
       <use xlink:href="#DejaVuSans-30" x="127.246094"/>
      </g>
     </g>
    </g>
    <g id="ytick_6">
     <g id="line2d_19">
      <path d="M 93.55875 1044.039542 
L 651.55875 1044.039542 
" clip-path="url(#p9404502b32)" style="fill: none; stroke: #cccccc; stroke-linecap: square"/>
     </g>
     <g id="line2d_20">
      <g>
       <use xlink:href="#m8d3fd18124" x="93.55875" y="1044.039542" style="stroke: #000000; stroke-width: 0.8"/>
      </g>
     </g>
     <g id="text_15">
      <!-- 120 -->
      <g transform="translate(44.56625 1052.397824) scale(0.22 -0.22)">
       <use xlink:href="#DejaVuSans-31"/>
       <use xlink:href="#DejaVuSans-32" x="63.623047"/>
       <use xlink:href="#DejaVuSans-30" x="127.246094"/>
      </g>
     </g>
    </g>
    <g id="ytick_7">
     <g id="line2d_21">
      <path d="M 93.55875 1205.181233 
L 651.55875 1205.181233 
" clip-path="url(#p9404502b32)" style="fill: none; stroke: #cccccc; stroke-linecap: square"/>
     </g>
     <g id="line2d_22">
      <g>
       <use xlink:href="#m8d3fd18124" x="93.55875" y="1205.181233" style="stroke: #000000; stroke-width: 0.8"/>
      </g>
     </g>
     <g id="text_16">
      <!-- 140 -->
      <g transform="translate(44.56625 1213.539514) scale(0.22 -0.22)">
       <use xlink:href="#DejaVuSans-31"/>
       <use xlink:href="#DejaVuSans-34" x="63.623047"/>
       <use xlink:href="#DejaVuSans-30" x="127.246094"/>
      </g>
     </g>
    </g>
    <g id="ytick_8">
     <g id="line2d_23">
      <defs>
       <path id="m0a3b506485" d="M 0 0 
L -4 0 
" style="stroke: #000000; stroke-width: 0.8"/>
      </defs>
      <g>
       <use xlink:href="#m0a3b506485" x="93.55875" y="117.474822" style="stroke: #000000; stroke-width: 0.8"/>
      </g>
     </g>
    </g>
    <g id="ytick_9">
     <g id="line2d_24">
      <g>
       <use xlink:href="#m0a3b506485" x="93.55875" y="157.760245" style="stroke: #000000; stroke-width: 0.8"/>
      </g>
     </g>
    </g>
    <g id="ytick_10">
     <g id="line2d_25">
      <g>
       <use xlink:href="#m0a3b506485" x="93.55875" y="198.045668" style="stroke: #000000; stroke-width: 0.8"/>
      </g>
     </g>
    </g>
    <g id="ytick_11">
     <g id="line2d_26">
      <g>
       <use xlink:href="#m0a3b506485" x="93.55875" y="278.616513" style="stroke: #000000; stroke-width: 0.8"/>
      </g>
     </g>
    </g>
    <g id="ytick_12">
     <g id="line2d_27">
      <g>
       <use xlink:href="#m0a3b506485" x="93.55875" y="318.901935" style="stroke: #000000; stroke-width: 0.8"/>
      </g>
     </g>
    </g>
    <g id="ytick_13">
     <g id="line2d_28">
      <g>
       <use xlink:href="#m0a3b506485" x="93.55875" y="359.187358" style="stroke: #000000; stroke-width: 0.8"/>
      </g>
     </g>
    </g>
    <g id="ytick_14">
     <g id="line2d_29">
      <g>
       <use xlink:href="#m0a3b506485" x="93.55875" y="439.758203" style="stroke: #000000; stroke-width: 0.8"/>
      </g>
     </g>
    </g>
    <g id="ytick_15">
     <g id="line2d_30">
      <g>
       <use xlink:href="#m0a3b506485" x="93.55875" y="480.043626" style="stroke: #000000; stroke-width: 0.8"/>
      </g>
     </g>
    </g>
    <g id="ytick_16">
     <g id="line2d_31">
      <g>
       <use xlink:href="#m0a3b506485" x="93.55875" y="520.329048" style="stroke: #000000; stroke-width: 0.8"/>
      </g>
     </g>
    </g>
    <g id="ytick_17">
     <g id="line2d_32">
      <g>
       <use xlink:href="#m0a3b506485" x="93.55875" y="600.899894" style="stroke: #000000; stroke-width: 0.8"/>
      </g>
     </g>
    </g>
    <g id="ytick_18">
     <g id="line2d_33">
      <g>
       <use xlink:href="#m0a3b506485" x="93.55875" y="641.185316" style="stroke: #000000; stroke-width: 0.8"/>
      </g>
     </g>
    </g>
    <g id="ytick_19">
     <g id="line2d_34">
      <g>
       <use xlink:href="#m0a3b506485" x="93.55875" y="681.470739" style="stroke: #000000; stroke-width: 0.8"/>
      </g>
     </g>
    </g>
    <g id="ytick_20">
     <g id="line2d_35">
      <g>
       <use xlink:href="#m0a3b506485" x="93.55875" y="762.041584" style="stroke: #000000; stroke-width: 0.8"/>
      </g>
     </g>
    </g>
    <g id="ytick_21">
     <g id="line2d_36">
      <g>
       <use xlink:href="#m0a3b506485" x="93.55875" y="802.327007" style="stroke: #000000; stroke-width: 0.8"/>
      </g>
     </g>
    </g>
    <g id="ytick_22">
     <g id="line2d_37">
      <g>
       <use xlink:href="#m0a3b506485" x="93.55875" y="842.612429" style="stroke: #000000; stroke-width: 0.8"/>
      </g>
     </g>
    </g>
    <g id="ytick_23">
     <g id="line2d_38">
      <g>
       <use xlink:href="#m0a3b506485" x="93.55875" y="923.183274" style="stroke: #000000; stroke-width: 0.8"/>
      </g>
     </g>
    </g>
    <g id="ytick_24">
     <g id="line2d_39">
      <g>
       <use xlink:href="#m0a3b506485" x="93.55875" y="963.468697" style="stroke: #000000; stroke-width: 0.8"/>
      </g>
     </g>
    </g>
    <g id="ytick_25">
     <g id="line2d_40">
      <g>
       <use xlink:href="#m0a3b506485" x="93.55875" y="1003.75412" style="stroke: #000000; stroke-width: 0.8"/>
      </g>
     </g>
    </g>
    <g id="ytick_26">
     <g id="line2d_41">
      <g>
       <use xlink:href="#m0a3b506485" x="93.55875" y="1084.324965" style="stroke: #000000; stroke-width: 0.8"/>
      </g>
     </g>
    </g>
    <g id="ytick_27">
     <g id="line2d_42">
      <g>
       <use xlink:href="#m0a3b506485" x="93.55875" y="1124.610387" style="stroke: #000000; stroke-width: 0.8"/>
      </g>
     </g>
    </g>
    <g id="ytick_28">
     <g id="line2d_43">
      <g>
       <use xlink:href="#m0a3b506485" x="93.55875" y="1164.89581" style="stroke: #000000; stroke-width: 0.8"/>
      </g>
     </g>
    </g>
    <g id="text_17">
     <!-- Age [ka BP] -->
     <g transform="translate(26.955938 737.513281) rotate(-90) scale(0.26 -0.26)">
      <defs>
       <path id="DejaVuSans-Bold-41" d="M 3419 850 
L 1538 850 
L 1241 0 
L 31 0 
L 1759 4666 
L 3194 4666 
L 4922 0 
L 3713 0 
L 3419 850 
z
M 1838 1716 
L 3116 1716 
L 2478 3572 
L 1838 1716 
z
" transform="scale(0.015625)"/>
       <path id="DejaVuSans-Bold-67" d="M 2919 594 
Q 2688 288 2409 144 
Q 2131 0 1766 0 
Q 1125 0 706 504 
Q 288 1009 288 1791 
Q 288 2575 706 3076 
Q 1125 3578 1766 3578 
Q 2131 3578 2409 3434 
Q 2688 3291 2919 2981 
L 2919 3500 
L 4044 3500 
L 4044 353 
Q 4044 -491 3511 -936 
Q 2978 -1381 1966 -1381 
Q 1638 -1381 1331 -1331 
Q 1025 -1281 716 -1178 
L 716 -306 
Q 1009 -475 1290 -558 
Q 1572 -641 1856 -641 
Q 2406 -641 2662 -400 
Q 2919 -159 2919 353 
L 2919 594 
z
M 2181 2772 
Q 1834 2772 1640 2515 
Q 1447 2259 1447 1791 
Q 1447 1309 1634 1061 
Q 1822 813 2181 813 
Q 2531 813 2725 1069 
Q 2919 1325 2919 1791 
Q 2919 2259 2725 2515 
Q 2531 2772 2181 2772 
z
" transform="scale(0.015625)"/>
       <path id="DejaVuSans-Bold-65" d="M 4031 1759 
L 4031 1441 
L 1416 1441 
Q 1456 1047 1700 850 
Q 1944 653 2381 653 
Q 2734 653 3104 758 
Q 3475 863 3866 1075 
L 3866 213 
Q 3469 63 3072 -14 
Q 2675 -91 2278 -91 
Q 1328 -91 801 392 
Q 275 875 275 1747 
Q 275 2603 792 3093 
Q 1309 3584 2216 3584 
Q 3041 3584 3536 3087 
Q 4031 2591 4031 1759 
z
M 2881 2131 
Q 2881 2450 2695 2645 
Q 2509 2841 2209 2841 
Q 1884 2841 1681 2658 
Q 1478 2475 1428 2131 
L 2881 2131 
z
" transform="scale(0.015625)"/>
       <path id="DejaVuSans-Bold-20" transform="scale(0.015625)"/>
       <path id="DejaVuSans-Bold-6b" d="M 538 4863 
L 1656 4863 
L 1656 2216 
L 2944 3500 
L 4244 3500 
L 2534 1894 
L 4378 0 
L 3022 0 
L 1656 1459 
L 1656 0 
L 538 0 
L 538 4863 
z
" transform="scale(0.015625)"/>
       <path id="DejaVuSans-Bold-61" d="M 2106 1575 
Q 1756 1575 1579 1456 
Q 1403 1338 1403 1106 
Q 1403 894 1545 773 
Q 1688 653 1941 653 
Q 2256 653 2472 879 
Q 2688 1106 2688 1447 
L 2688 1575 
L 2106 1575 
z
M 3816 1997 
L 3816 0 
L 2688 0 
L 2688 519 
Q 2463 200 2181 54 
Q 1900 -91 1497 -91 
Q 953 -91 614 226 
Q 275 544 275 1050 
Q 275 1666 698 1953 
Q 1122 2241 2028 2241 
L 2688 2241 
L 2688 2328 
Q 2688 2594 2478 2717 
Q 2269 2841 1825 2841 
Q 1466 2841 1156 2769 
Q 847 2697 581 2553 
L 581 3406 
Q 941 3494 1303 3539 
Q 1666 3584 2028 3584 
Q 2975 3584 3395 3211 
Q 3816 2838 3816 1997 
z
" transform="scale(0.015625)"/>
       <path id="DejaVuSans-Bold-42" d="M 2456 2859 
Q 2741 2859 2887 2984 
Q 3034 3109 3034 3353 
Q 3034 3594 2887 3720 
Q 2741 3847 2456 3847 
L 1791 3847 
L 1791 2859 
L 2456 2859 
z
M 2497 819 
Q 2859 819 3042 972 
Q 3225 1125 3225 1434 
Q 3225 1738 3044 1889 
Q 2863 2041 2497 2041 
L 1791 2041 
L 1791 819 
L 2497 819 
z
M 3616 2497 
Q 4003 2384 4215 2081 
Q 4428 1778 4428 1338 
Q 4428 663 3972 331 
Q 3516 0 2584 0 
L 588 0 
L 588 4666 
L 2394 4666 
Q 3366 4666 3802 4372 
Q 4238 4078 4238 3431 
Q 4238 3091 4078 2852 
Q 3919 2613 3616 2497 
z
" transform="scale(0.015625)"/>
       <path id="DejaVuSans-Bold-50" d="M 588 4666 
L 2584 4666 
Q 3475 4666 3951 4270 
Q 4428 3875 4428 3144 
Q 4428 2409 3951 2014 
Q 3475 1619 2584 1619 
L 1791 1619 
L 1791 0 
L 588 0 
L 588 4666 
z
M 1791 3794 
L 1791 2491 
L 2456 2491 
Q 2806 2491 2997 2661 
Q 3188 2831 3188 3144 
Q 3188 3456 2997 3625 
Q 2806 3794 2456 3794 
L 1791 3794 
z
" transform="scale(0.015625)"/>
      </defs>
      <use xlink:href="#DejaVuSans-Bold-41"/>
      <use xlink:href="#DejaVuSans-Bold-67" x="77.392578"/>
      <use xlink:href="#DejaVuSans-Bold-65" x="148.974609"/>
      <use xlink:href="#DejaVuSans-Bold-20" x="216.796875"/>
      <use xlink:href="#DejaVuSans-Bold-5b" x="251.611328"/>
      <use xlink:href="#DejaVuSans-Bold-6b" x="297.314453"/>
      <use xlink:href="#DejaVuSans-Bold-61" x="363.818359"/>
      <use xlink:href="#DejaVuSans-Bold-20" x="431.298828"/>
      <use xlink:href="#DejaVuSans-Bold-42" x="466.113281"/>
      <use xlink:href="#DejaVuSans-Bold-50" x="542.333984"/>
      <use xlink:href="#DejaVuSans-Bold-5d" x="615.625"/>
     </g>
    </g>
   </g>
   <g id="text_18">
    <!-- MIS 1 -->
    <g style="fill: #8b1a00" transform="translate(602.14125 147.427729) scale(0.14 -0.14)">
     <defs>
      <path id="DejaVuSans-Bold-4d" d="M 588 4666 
L 2119 4666 
L 3181 2169 
L 4250 4666 
L 5778 4666 
L 5778 0 
L 4641 0 
L 4641 3413 
L 3566 897 
L 2803 897 
L 1728 3413 
L 1728 0 
L 588 0 
L 588 4666 
z
" transform="scale(0.015625)"/>
      <path id="DejaVuSans-Bold-49" d="M 588 4666 
L 1791 4666 
L 1791 0 
L 588 0 
L 588 4666 
z
" transform="scale(0.015625)"/>
      <path id="DejaVuSans-Bold-53" d="M 3834 4519 
L 3834 3531 
Q 3450 3703 3084 3790 
Q 2719 3878 2394 3878 
Q 1963 3878 1756 3759 
Q 1550 3641 1550 3391 
Q 1550 3203 1689 3098 
Q 1828 2994 2194 2919 
L 2706 2816 
Q 3484 2659 3812 2340 
Q 4141 2022 4141 1434 
Q 4141 663 3683 286 
Q 3225 -91 2284 -91 
Q 1841 -91 1394 -6 
Q 947 78 500 244 
L 500 1259 
Q 947 1022 1364 901 
Q 1781 781 2169 781 
Q 2563 781 2772 912 
Q 2981 1044 2981 1288 
Q 2981 1506 2839 1625 
Q 2697 1744 2272 1838 
L 1806 1941 
Q 1106 2091 782 2419 
Q 459 2747 459 3303 
Q 459 4000 909 4375 
Q 1359 4750 2203 4750 
Q 2588 4750 2994 4692 
Q 3400 4634 3834 4519 
z
" transform="scale(0.015625)"/>
     </defs>
     <use xlink:href="#DejaVuSans-Bold-4d"/>
     <use xlink:href="#DejaVuSans-Bold-49" x="99.511719"/>
     <use xlink:href="#DejaVuSans-Bold-53" x="136.71875"/>
     <use xlink:href="#DejaVuSans-Bold-20" x="208.740234"/>
     <use xlink:href="#DejaVuSans-Bold-31" x="243.554688"/>
    </g>
   </g>
   <g id="text_19">
    <!-- MIS 2 -->
    <g style="fill: #003f6b" transform="translate(602.14125 254.279842) scale(0.14 -0.14)">
     <defs>
      <path id="DejaVuSans-Bold-32" d="M 1844 884 
L 3897 884 
L 3897 0 
L 506 0 
L 506 884 
L 2209 2388 
Q 2438 2594 2547 2791 
Q 2656 2988 2656 3200 
Q 2656 3528 2436 3728 
Q 2216 3928 1850 3928 
Q 1569 3928 1234 3808 
Q 900 3688 519 3450 
L 519 4475 
Q 925 4609 1322 4679 
Q 1719 4750 2100 4750 
Q 2938 4750 3402 4381 
Q 3866 4013 3866 3353 
Q 3866 2972 3669 2642 
Q 3472 2313 2841 1759 
L 1844 884 
z
" transform="scale(0.015625)"/>
     </defs>
     <use xlink:href="#DejaVuSans-Bold-4d"/>
     <use xlink:href="#DejaVuSans-Bold-49" x="99.511719"/>
     <use xlink:href="#DejaVuSans-Bold-53" x="136.71875"/>
     <use xlink:href="#DejaVuSans-Bold-20" x="208.740234"/>
     <use xlink:href="#DejaVuSans-Bold-32" x="243.554688"/>
    </g>
   </g>
   <g id="text_20">
    <!-- MIS 3 -->
    <g style="fill: #8b1a00" transform="translate(602.14125 427.507159) scale(0.14 -0.14)">
     <use xlink:href="#DejaVuSans-Bold-4d"/>
     <use xlink:href="#DejaVuSans-Bold-49" x="99.511719"/>
     <use xlink:href="#DejaVuSans-Bold-53" x="136.71875"/>
     <use xlink:href="#DejaVuSans-Bold-20" x="208.740234"/>
     <use xlink:href="#DejaVuSans-Bold-33" x="243.554688"/>
    </g>
   </g>
   <g id="text_21">
    <!-- MIS 4 -->
    <g style="fill: #003f6b" transform="translate(602.14125 596.705934) scale(0.14 -0.14)">
     <defs>
      <path id="DejaVuSans-Bold-34" d="M 2356 3675 
L 1038 1722 
L 2356 1722 
L 2356 3675 
z
M 2156 4666 
L 3494 4666 
L 3494 1722 
L 4159 1722 
L 4159 850 
L 3494 850 
L 3494 0 
L 2356 0 
L 2356 850 
L 288 850 
L 288 1881 
L 2156 4666 
z
" transform="scale(0.015625)"/>
     </defs>
     <use xlink:href="#DejaVuSans-Bold-4d"/>
     <use xlink:href="#DejaVuSans-Bold-49" x="99.511719"/>
     <use xlink:href="#DejaVuSans-Bold-53" x="136.71875"/>
     <use xlink:href="#DejaVuSans-Bold-20" x="208.740234"/>
     <use xlink:href="#DejaVuSans-Bold-34" x="243.554688"/>
    </g>
   </g>
   <g id="text_22">
    <!-- MIS 5 -->
    <g style="fill: #8b1a00" transform="translate(602.14125 890.789519) scale(0.14 -0.14)">
     <defs>
      <path id="DejaVuSans-Bold-35" d="M 678 4666 
L 3669 4666 
L 3669 3781 
L 1638 3781 
L 1638 3059 
Q 1775 3097 1914 3117 
Q 2053 3138 2203 3138 
Q 3056 3138 3531 2711 
Q 4006 2284 4006 1522 
Q 4006 766 3489 337 
Q 2972 -91 2053 -91 
Q 1656 -91 1267 -14 
Q 878 63 494 219 
L 494 1166 
Q 875 947 1217 837 
Q 1559 728 1863 728 
Q 2300 728 2551 942 
Q 2803 1156 2803 1522 
Q 2803 1891 2551 2103 
Q 2300 2316 1863 2316 
Q 1603 2316 1309 2248 
Q 1016 2181 678 2041 
L 678 4666 
z
" transform="scale(0.015625)"/>
     </defs>
     <use xlink:href="#DejaVuSans-Bold-4d"/>
     <use xlink:href="#DejaVuSans-Bold-49" x="99.511719"/>
     <use xlink:href="#DejaVuSans-Bold-53" x="136.71875"/>
     <use xlink:href="#DejaVuSans-Bold-20" x="208.740234"/>
     <use xlink:href="#DejaVuSans-Bold-35" x="243.554688"/>
    </g>
   </g>
   <g id="text_23">
    <!-- MIS 6 -->
    <g style="fill: #003f6b" transform="translate(602.14125 1169.138631) scale(0.14 -0.14)">
     <defs>
      <path id="DejaVuSans-Bold-36" d="M 2316 2303 
Q 2000 2303 1842 2098 
Q 1684 1894 1684 1484 
Q 1684 1075 1842 870 
Q 2000 666 2316 666 
Q 2634 666 2792 870 
Q 2950 1075 2950 1484 
Q 2950 1894 2792 2098 
Q 2634 2303 2316 2303 
z
M 3803 4544 
L 3803 3681 
Q 3506 3822 3243 3889 
Q 2981 3956 2731 3956 
Q 2194 3956 1894 3657 
Q 1594 3359 1544 2772 
Q 1750 2925 1990 3001 
Q 2231 3078 2516 3078 
Q 3231 3078 3670 2659 
Q 4109 2241 4109 1563 
Q 4109 813 3618 361 
Q 3128 -91 2303 -91 
Q 1394 -91 895 523 
Q 397 1138 397 2266 
Q 397 3422 980 4083 
Q 1563 4744 2578 4744 
Q 2900 4744 3203 4694 
Q 3506 4644 3803 4544 
z
" transform="scale(0.015625)"/>
     </defs>
     <use xlink:href="#DejaVuSans-Bold-4d"/>
     <use xlink:href="#DejaVuSans-Bold-49" x="99.511719"/>
     <use xlink:href="#DejaVuSans-Bold-53" x="136.71875"/>
     <use xlink:href="#DejaVuSans-Bold-20" x="208.740234"/>
     <use xlink:href="#DejaVuSans-Bold-36" x="243.554688"/>
    </g>
   </g>
   <g id="line2d_44">
    <path d="M 238.876284 97.140625 
L 230.619535 97.335641 
L 234.26906 97.529891 
L 223.767494 97.724234 
L 235.797451 97.921865 
L 227.235435 98.116101 
L 241.987204 98.30699 
L 234.950054 98.500398 
L 258.111727 98.693287 
L 262.109491 98.885606 
L 262.633043 99.076444 
L 227.846926 99.269797 
L 231.145594 99.463361 
L 249.047229 99.657777 
L 232.770832 100.041957 
L 236.078938 100.232456 
L 227.883624 100.422795 
L 232.484996 100.616924 
L 227.771503 100.81364 
L 239.8714 101.009405 
L 236.386424 101.20428 
L 240.083368 101.59362 
L 236.322319 101.78565 
L 207.415293 101.980682 
L 223.233494 102.17518 
L 225.905166 102.367529 
L 217.398269 102.762236 
L 219.902704 102.959965 
L 208.495013 103.344296 
L 217.463324 103.539479 
L 220.996838 103.732205 
L 204.782133 103.929206 
L 200.997506 104.122009 
L 205.930077 104.315406 
L 189.93061 104.659974 
L 214.521718 104.819784 
L 211.185507 104.980894 
L 211.454556 105.14116 
L 206.378492 105.304142 
L 210.019626 105.461557 
L 197.499865 105.622637 
L 219.795085 105.942343 
L 214.467908 106.103665 
L 224.44067 106.426627 
L 208.746126 106.58638 
L 214.719021 106.748191 
L 230.036895 106.91035 
L 200.871949 107.233237 
L 198.271139 107.392346 
L 205.158802 107.553674 
L 206.826908 107.715076 
L 201.140999 107.87704 
L 205.75071 108.039176 
L 202.557992 108.200039 
L 221.46319 108.359199 
L 226.969733 108.517931 
L 226.090839 108.676652 
L 216.351253 108.836899 
L 216.279507 108.998903 
L 212.351387 109.15728 
L 219.346669 109.47939 
L 209.481528 109.637538 
L 214.073303 109.797362 
L 241.821255 109.980047 
L 240.978234 110.056572 
L 231.776748 110.132033 
L 237.175671 110.20285 
L 232.2431 110.275779 
L 252.403862 110.344883 
L 227.956247 110.548483 
L 259.435017 110.890873 
L 225.374279 110.963408 
L 240.12415 111.011472 
L 261.449039 111.105078 
L 249.101901 111.148224 
L 226.48116 111.265814 
L 226.405807 111.311013 
L 249.567381 111.378609 
L 241.581011 111.505906 
L 251.824287 111.574175 
L 235.798426 111.767303 
L 270.793488 111.895896 
L 250.597397 111.964155 
L 257.57037 112.030156 
L 260.932753 112.091394 
L 250.541054 112.222811 
L 253.997567 112.287471 
L 268.4141 112.420144 
L 258.611866 112.54357 
L 273.739507 112.740925 
L 254.757929 112.862301 
L 263.838878 112.927251 
L 265.579326 112.992112 
L 265.39581 113.057694 
L 272.8574 113.121984 
L 267.797928 113.190432 
L 275.26199 113.320129 
L 257.709725 113.517575 
L 260.294075 113.586531 
L 252.314179 113.776675 
L 267.345067 113.955371 
L 240.458072 114.13957 
L 248.242566 114.319382 
L 231.776748 114.527405 
L 243.830157 114.855485 
L 231.02341 114.964023 
L 233.839459 115.070199 
L 233.086121 115.173382 
L 227.005606 115.278244 
L 228.063867 115.386191 
L 227.938311 115.49188 
L 240.583629 115.599678 
L 235.220579 115.701286 
L 236.565825 115.80579 
L 252.959897 116.019973 
L 240.368389 116.342944 
L 241.229347 116.456288 
L 234.521051 116.563058 
L 218.234599 116.777964 
L 248.188756 116.987251 
L 251.66846 117.098407 
L 232.099607 117.310027 
L 232.960565 117.524262 
L 242.386031 117.630255 
L 237.077235 117.851803 
L 209.905526 117.958915 
L 211.752844 118.061576 
L 238.996293 118.283032 
L 238.045731 118.326618 
L 219.160049 118.464976 
L 244.914883 118.515995 
L 240.951221 118.598463 
L 239.444671 118.646984 
L 250.546511 118.738738 
L 232.055401 118.786609 
L 247.46167 118.834949 
L 259.675487 118.994443 
L 255.335188 119.043026 
L 265.038088 119.163148 
L 271.082224 119.413673 
L 244.879012 119.707732 
L 244.305088 119.81863 
L 252.913946 119.929465 
L 245.919249 120.039937 
L 253.469935 120.151606 
L 242.834409 120.262299 
L 249.918781 120.484101 
L 246.816005 120.594529 
L 249.488338 120.706222 
L 241.596885 120.818058 
L 258.258613 120.929573 
L 250.959018 121.151386 
L 259.926579 121.262273 
L 243.336592 121.596018 
L 243.408332 121.708066 
L 231.678763 121.81881 
L 245.399131 122.039846 
L 241.686561 122.151123 
L 252.501439 122.374633 
L 245.811639 122.486201 
L 255.747696 122.598135 
L 247.371994 122.710769 
L 261.684221 122.822265 
L 261.253778 122.932586 
L 253.846573 123.154492 
L 280.534033 123.267889 
L 263.621214 123.508838 
L 252.573179 123.872222 
L 270.293079 124.049343 
L 258.222742 124.217239 
L 254.815069 124.390473 
L 268.947945 124.566841 
L 251.515007 124.916991 
L 251.766099 125.095526 
L 254.599848 125.27338 
L 209.506802 940.429869 
L 208.782127 940.511495 
L 215.304205 940.751891 
L 206.608101 940.839155 
L 211.680828 940.995551 
L 205.15875 941.100787 
L 210.956153 941.250803 
L 206.608101 941.396018 
L 199.361347 941.458847 
L 207.332776 941.752093 
L 200.810698 941.998699 
L 213.854854 942.22768 
L 205.883425 942.573075 
L 215.304205 942.689657 
L 208.782127 942.908307 
L 218.927581 943.135176 
L 218.927581 943.252877 
L 216.02888 943.362888 
L 216.02888 943.479998 
L 221.826282 943.597776 
L 214.579529 943.84417 
L 229.073036 944.209046 
L 231.247062 944.303362 
L 241.392516 944.435408 
L 239.943166 944.678012 
L 252.987321 944.906553 
L 250.08862 945.047349 
L 255.161347 945.295914 
L 255.161347 945.498242 
L 250.813295 945.760012 
L 247.914594 945.90594 
L 234.145763 946.397997 
L 246.465244 946.653865 
L 230.522386 946.802382 
L 232.696412 946.937642 
L 229.797711 947.09949 
L 230.522386 947.173998 
L 239.943166 947.272013 
L 228.34836 947.50772 
L 230.522386 947.654907 
L 227.623685 947.851939 
L 227.623685 948.00684 
L 221.826282 948.146098 
L 221.826282 948.28228 
L 226.89901 948.566793 
L 222.550958 948.705304 
L 222.550958 948.867901 
L 220.376932 949.002153 
L 222.550958 949.15835 
L 229.073036 949.435648 
L 218.927581 949.671295 
L 227.623685 950.054695 
L 226.174334 950.192497 
L 218.927581 950.421194 
L 219.652256 951.380632 
L 217.478231 952.336401 
L 217.478231 953.215304 
L 221.826282 954.107648 
L 228.34836 954.715347 
L 225.449659 954.98494 
L 237.76914 955.569994 
L 241.392516 956.191269 
L 266.031477 957.1196 
L 269.654854 957.727464 
L 284.14836 958.042448 
L 287.771737 958.797271 
L 282.69901 959.127855 
L 286.322386 959.446749 
L 299.366542 959.990726 
L 310.961347 960.770165 
L 324.730179 961.50084 
L 350.093815 962.17377 
L 353.717192 962.831102 
L 369.660049 963.46218 
L 371.834075 964.166057 
L 389.950958 965.377231 
L 388.501607 965.924202 
L 384.878231 966.008812 
L 383.42888 966.193539 
L 384.878231 966.329203 
L 360.963945 966.530421 
L 364.587321 966.612641 
L 352.267841 966.916958 
L 349.36914 967.037295 
L 331.252256 967.514888 
L 339.94836 967.623936 
L 318.208101 967.734694 
L 318.208101 967.855199 
L 322.556153 967.961426 
L 321.106802 968.057801 
L 307.337971 968.181983 
L 318.932776 968.265264 
L 301.540568 968.459334 
L 307.337971 968.568945 
L 285.597711 968.784752 
L 265.306802 969.091402 
L 266.756153 969.195582 
L 254.436672 969.573369 
L 263.857451 969.841185 
L 253.711997 970.073701 
L 255.886023 970.289266 
L 263.857451 970.890967 
L 262.408101 971.024633 
L 262.408101 971.270459 
L 276.901607 971.423412 
L 274.002906 971.568582 
L 264.582127 971.771975 
L 235.595114 972.132725 
L 225.449659 972.552771 
L 229.073036 972.692007 
L 219.652256 972.98891 
L 229.073036 973.369623 
L 227.623685 974.164304 
L 224.724984 974.955066 
L 233.421088 976.611035 
L 219.652256 977.456966 
L 228.34836 978.27899 
L 231.971737 979.964628 
L 215.304205 981.626994 
L 231.247062 982.477272 
L 229.797711 983.368279 
L 222.550958 984.198976 
L 222.550958 984.302281 
L 220.376932 984.434015 
L 213.130179 984.616819 
L 229.073036 984.844557 
L 203.709399 985.014482 
L 205.883425 985.195513 
L 214.579529 985.288309 
L 203.709399 985.375218 
L 218.927581 985.45851 
L 218.202906 985.551129 
L 211.680828 985.750243 
L 210.956153 985.938636 
L 212.405503 986.160344 
L 218.202906 986.292732 
L 206.608101 986.400701 
L 216.02888 986.467545 
L 205.15875 986.697256 
L 207.332776 986.794344 
L 202.260049 986.921191 
L 210.956153 987.029244 
L 202.984724 987.271987 
L 202.260049 987.353017 
L 205.883425 987.431085 
L 205.883425 987.751745 
L 200.086023 987.84346 
L 197.911997 988.030242 
L 206.608101 988.224711 
L 202.984724 988.319778 
L 208.057451 988.389512 
L 192.839269 988.468585 
L 192.839269 988.604604 
L 200.086023 988.762795 
L 193.563945 988.869789 
L 194.28862 988.939781 
L 201.535373 989.075355 
L 196.462646 989.137543 
L 206.608101 989.345965 
L 200.810698 989.546046 
L 203.709399 989.644022 
L 213.854854 989.736622 
L 212.405503 989.817691 
L 216.02888 989.920586 
L 227.623685 989.995339 
L 222.550958 990.098792 
L 199.361347 990.157336 
L 208.057451 990.248234 
L 207.332776 990.33767 
L 209.506802 990.427837 
L 214.579529 990.525169 
L 202.260049 990.698339 
L 207.332776 991.034637 
L 205.15875 991.342702 
L 200.086023 991.680211 
L 200.810698 992.070929 
L 197.911997 992.377184 
L 202.260049 992.707659 
L 195.013295 993.458247 
L 197.187321 993.72237 
L 203.709399 994.139073 
L 197.187321 994.482853 
L 200.086023 995.261906 
L 197.911997 995.60602 
L 197.187321 996.004208 
L 201.535373 996.36049 
L 195.013295 996.793665 
L 204.434075 997.491028 
L 194.28862 998.030549 
L 204.434075 998.337711 
L 208.782127 998.669804 
L 202.984724 998.991177 
L 207.332776 999.684241 
L 199.361347 999.988282 
L 204.434075 1000.177979 
L 202.260049 1000.28546 
L 209.506802 1000.37948 
L 192.839269 1000.589448 
L 196.462646 1000.803445 
L 195.013295 1001.08328 
L 198.636672 1001.164638 
L 198.636672 1001.276178 
L 199.361347 1001.367349 
L 201.535373 1001.453165 
L 199.361347 1001.534388 
L 200.086023 1001.624038 
L 198.636672 1001.744371 
L 200.810698 1001.849363 
L 199.361347 1001.957579 
L 206.608101 1002.176643 
L 200.810698 1002.379195 
L 203.709399 1002.487759 
L 200.086023 1002.596312 
L 202.260049 1002.875804 
L 202.260049 1002.997393 
L 210.231477 1003.209383 
L 218.927581 1003.480064 
L 230.522386 1003.595477 
L 222.550958 1003.72173 
L 223.275633 1003.971216 
L 221.826282 1004.17477 
L 222.550958 1004.282022 
L 218.202906 1004.499976 
L 229.797711 1004.594754 
L 210.956153 1004.680143 
L 218.927581 1004.897194 
L 216.753555 1004.996203 
L 219.652256 1005.12848 
L 214.579529 1005.2213 
L 220.376932 1005.470981 
L 221.101607 1005.572434 
L 220.376932 1005.678122 
L 220.376932 1005.844402 
L 219.652256 1005.896602 
L 216.753555 1005.987902 
L 217.478231 1006.056647 
L 222.550958 1006.132122 
L 221.826282 1006.190314 
L 219.652256 1006.274517 
L 226.89901 1006.29813 
L 218.927581 1006.367528 
L 219.652256 1006.443894 
L 198.636672 1006.686478 
L 202.984724 1006.717188 
L 200.810698 1006.811628 
L 192.114594 1006.965404 
L 199.361347 1007.182681 
L 189.940568 1007.257475 
L 202.984724 1007.393411 
L 203.709399 1007.456389 
L 194.28862 1007.656064 
L 200.086023 1007.722015 
L 199.361347 1007.777559 
L 203.709399 1007.900893 
L 192.114594 1007.967823 
L 223.275633 1008.362625 
L 205.15875 1008.446225 
L 233.421088 1008.574675 
L 202.260049 1008.781728 
L 216.753555 1008.916127 
L 210.231477 1008.979481 
L 205.883425 1009.014262 
L 205.15875 1009.184761 
L 214.579529 1009.321304 
L 197.187321 1009.444461 
L 204.434075 1009.596386 
L 194.28862 1009.867901 
L 208.782127 1010.01656 
L 195.737971 1010.173503 
L 200.086023 1010.469182 
L 204.434075 1010.62839 
L 203.709399 1010.781606 
L 201.535373 1010.956327 
L 202.260049 1011.100638 
L 196.462646 1011.250333 
L 208.782127 1011.416604 
L 196.462646 1011.55558 
L 208.057451 1011.854443 
L 208.782127 1011.995425 
L 211.680828 1012.149202 
L 206.608101 1012.290917 
L 208.057451 1012.434503 
L 211.680828 1012.566914 
L 196.462646 1012.718613 
L 195.013295 1012.849986 
L 208.057451 1012.996989 
L 207.332776 1013.13175 
L 209.506802 1013.295496 
L 208.057451 1013.577624 
L 200.810698 1013.728988 
L 202.984724 1013.881922 
L 200.810698 1014.007869 
L 210.956153 1014.189552 
L 205.883425 1014.323655 
L 205.15875 1014.487046 
L 203.709399 1014.625429 
L 212.405503 1014.790253 
L 205.883425 1014.950585 
L 212.405503 1015.069331 
L 208.782127 1015.463568 
L 216.753555 1015.776794 
L 192.839269 1016.040982 
L 218.202906 1016.199434 
L 197.187321 1016.343464 
L 208.057451 1016.616368 
L 196.462646 1016.896572 
L 200.086023 1017.036545 
L 209.506802 1017.18245 
L 206.608101 1017.345466 
L 197.187321 1017.4966 
L 195.013295 1017.647734 
L 201.535373 1017.7793 
L 191.389919 1017.948027 
L 190.665244 1018.100728 
L 193.563945 1018.243925 
L 192.114594 1018.397188 
L 187.766542 1018.657227 
L 192.114594 1018.789794 
L 189.940568 1018.902799 
L 189.940568 1019.018375 
L 192.114594 1019.172281 
L 197.187321 1019.316738 
L 188.491218 1019.46277 
L 197.911997 1019.610947 
L 191.389919 1019.735432 
L 212.405503 1019.880476 
L 190.665244 1020.034578 
L 183.41849 1020.334762 
L 198.636672 1020.482655 
L 188.491218 1020.537245 
L 189.940568 1020.589527 
L 200.086023 1020.613036 
L 189.215893 1020.688902 
L 192.839269 1020.758551 
L 185.592516 1020.955619 
L 188.491218 1021.022565 
L 180.519789 1021.120203 
L 198.636672 1021.236971 
L 178.345763 1021.282481 
L 185.592516 1021.352544 
L 189.940568 1021.413722 
L 203.709399 1021.459402 
L 201.535373 1021.53728 
L 194.28862 1021.613318 
L 196.462646 1021.663209 
L 197.187321 1021.739978 
L 194.28862 1021.833433 
L 200.810698 1021.884948 
L 200.086023 1022.00163 
L 197.911997 1022.139727 
L 200.086023 1022.293482 
L 198.636672 1022.453689 
L 208.057451 1022.492969 
L 189.940568 1022.671027 
L 195.737971 1022.73117 
L 194.28862 1022.813245 
L 187.041867 1022.911579 
L 195.013295 1022.990665 
L 192.839269 1023.045797 
L 192.114594 1023.111222 
L 200.086023 1023.176647 
L 196.462646 1023.228892 
L 196.462646 1023.305588 
L 197.911997 1023.365062 
L 208.057451 1023.438163 
L 203.709399 1023.48308 
L 202.984724 1023.56496 
L 199.361347 1023.623531 
L 202.260049 1023.662636 
L 214.579529 1023.830902 
L 208.057451 1023.914015 
L 219.652256 1024.015132 
L 216.02888 1024.078476 
L 205.15875 1024.174394 
L 204.434075 1024.345165 
L 197.911997 1024.528696 
L 195.013295 1024.604302 
L 205.883425 1024.66911 
L 198.636672 1024.725077 
L 205.15875 1024.799467 
L 202.984724 1024.867993 
L 206.608101 1024.997017 
L 201.535373 1025.050241 
L 208.782127 1025.204856 
L 201.535373 1025.375288 
L 208.057451 1025.443851 
L 204.434075 1025.505789 
L 207.332776 1025.614224 
L 202.984724 1025.833637 
L 202.984724 1025.898 
L 203.709399 1025.97339 
L 201.535373 1026.10576 
L 202.260049 1026.199294 
L 197.187321 1026.250054 
L 200.086023 1026.319466 
L 203.709399 1026.357871 
L 192.114594 1026.607203 
L 200.086023 1026.738998 
L 195.013295 1026.903086 
L 210.956153 1026.978834 
L 189.940568 1027.04543 
L 206.608101 1027.175369 
L 199.361347 1027.232866 
L 217.478231 1027.258112 
L 208.782127 1027.304825 
L 209.506802 1027.363803 
L 216.02888 1027.43967 
L 210.956153 1027.531407 
L 191.389919 1027.715378 
L 192.839269 1027.798695 
L 192.114594 1027.852153 
L 187.766542 1027.932433 
L 193.563945 1028.130565 
L 194.28862 1028.187643 
L 189.215893 1028.288492 
L 194.28862 1028.352981 
L 189.940568 1028.41659 
L 191.389919 1028.469785 
L 190.665244 1028.548712 
L 197.187321 1028.839329 
L 193.563945 1028.909567 
L 201.535373 1029.089416 
L 197.187321 1029.150488 
L 205.883425 1029.308087 
L 204.434075 1029.371178 
L 197.187321 1029.438076 
L 202.260049 1029.561514 
L 195.737971 1029.633408 
L 198.636672 1029.717863 
L 191.389919 1029.879615 
L 369.660049 1055.414238 
L 271.104205 1056.250611 
L 237.76914 1056.420821 
L 237.044464 1056.627659 
L 258.784724 1057.017189 
L 259.509399 1057.207923 
L 258.784724 1057.408236 
L 260.95875 1057.633663 
L 279.075633 1058.079918 
L 255.161347 1058.479759 
L 263.857451 1058.655837 
L 224.000308 1058.813701 
L 219.652256 1059.036048 
L 209.506802 1059.221741 
L 209.506802 1059.438873 
L 205.15875 1059.877818 
L 208.057451 1060.057565 
L 217.478231 1060.232692 
L 194.28862 1060.429875 
L 214.579529 1060.692251 
L 187.041867 1060.90345 
L 210.231477 1061.066117 
L 184.143166 1061.470278 
L 210.231477 1061.696207 
L 204.434075 1061.90059 
L 205.15875 1062.131141 
L 201.535373 1062.361566 
L 184.867841 1062.555086 
L 197.911997 1062.754898 
L 202.260049 1062.956211 
L 195.013295 1063.156148 
L 194.28862 1063.574729 
L 251.537971 1063.779743 
L 185.592516 1063.987358 
L 187.041867 1064.41609 
L 246.465244 1065.072379 
L 175.447062 1065.264631 
L 171.09901 1065.496436 
L 171.823685 1065.694866 
L 163.852256 1066.143426 
L 165.301607 1066.371724 
L 179.070438 1066.545518 
L 238.493815 1066.920892 
L 206.608101 1067.325232 
L 243.566542 1067.529776 
L 234.870438 1067.763477 
L 221.101607 1068.031495 
L 256.610698 1068.600529 
L 232.696412 1068.732791 
L 237.044464 1068.831282 
L 234.870438 1068.920058 
L 239.21849 1069.09318 
L 263.857451 1069.224602 
L 237.044464 1069.512918 
L 254.436672 1069.765274 
L 244.291218 1069.880776 
L 254.436672 1069.999923 
L 235.595114 1070.106849 
L 247.914594 1070.217423 
L 242.841867 1070.357299 
L 243.566542 1070.517025 
L 211.680828 1070.768226 
L 239.943166 1071.029872 
L 246.465244 1071.183927 
L 229.797711 1071.542588 
L 226.174334 1071.639723 
L 242.841867 1071.989095 
L 279.800308 1072.21208 
L 263.857451 1072.337093 
L 261.683425 1072.566439 
L 276.176932 1072.803696 
L 245.015893 1072.920293 
L 277.626282 1073.037358 
L 259.509399 1073.153227 
L 266.031477 1073.265661 
L 280.524984 1073.504525 
L 279.800308 1073.582365 
L 263.132776 1073.725172 
L 284.14836 1073.833557 
L 214.579529 1074.101869 
L 275.452256 1074.205166 
L 291.395114 1074.493652 
L 263.857451 1074.597899 
L 266.031477 1074.706124 
L 279.800308 1074.950139 
L 284.14836 1075.195028 
L 298.641867 1075.422085 
L 290.670438 1075.540452 
L 293.56914 1075.807349 
L 282.69901 1075.914995 
L 294.293815 1076.109503 
L 278.350958 1076.225812 
L 294.293815 1076.45228 
L 333.426282 1076.711246 
L 317.483425 1076.834734 
L 316.75875 1076.966042 
L 309.511997 1077.078137 
L 330.527581 1077.307355 
L 331.976932 1077.427685 
L 330.527581 1077.540191 
L 326.904205 1077.662531 
L 329.078231 1077.972054 
L 322.556153 1078.091039 
L 327.62888 1078.289018 
L 321.831477 1078.524196 
L 337.774334 1078.832063 
L 331.976932 1079.11096 
L 310.236672 1079.211661 
L 292.844464 1079.261671 
L 294.293815 1079.317689 
L 311.686023 1079.522973 
L 314.584724 1079.580489 
L 287.771737 1079.952761 
L 314.584724 1080.296135 
L 301.540568 1080.37379 
L 331.252256 1080.522483 
L 331.976932 1080.623671 
L 303.714594 1080.749604 
L 318.932776 1080.932822 
L 289.221088 1081.044647 
L 295.01849 1081.128927 
L 309.511997 1081.275717 
L 301.540568 1081.337665 
L 302.265244 1081.484821 
L 277.626282 1081.594943 
L 285.597711 1081.647561 
L 287.771737 1081.712373 
L 278.350958 1081.920724 
L 286.322386 1082.049805 
L 292.844464 1082.123731 
L 289.945763 1082.184059 
L 282.69901 1082.228972 
L 289.945763 1082.277826 
L 291.395114 1082.321758 
L 303.714594 1082.428998 
L 294.293815 1082.589835 
L 277.626282 1082.644409 
L 288.496412 1082.70292 
L 290.670438 1082.758302 
L 270.379529 1083.02424 
L 266.756153 1083.079812 
L 280.524984 1083.218554 
L 310.961347 1083.284329 
L 284.873036 1083.32793 
L 273.278231 1083.391137 
L 259.509399 1083.732965 
L 265.306802 1084.391964 
L 268.930179 1085.047343 
L 258.784724 1085.711011 
L 272.553555 1086.356484 
L 258.784724 1086.927001 
L 272.553555 1090.252391 
L 364.587321 1093.114832 
L 404.444464 1094.614251 
L 436.330179 1096.268855 
L 436.330179 1097.802591 
L 449.374334 1098.957472 
L 447.200308 1099.909926 
L 440.678231 1100.900816 
L 427.634075 1101.946207 
L 432.706802 1102.944676 
L 430.532776 1103.865192 
L 424.010698 1104.732681 
L 437.054854 1105.02937 
L 429.083425 1105.189413 
L 409.517192 1105.347701 
L 424.010698 1105.527154 
L 418.937971 1105.701153 
L 405.16914 1105.876323 
L 411.691218 1106.027948 
L 402.270438 1106.311112 
L 403.719789 1106.46185 
L 391.400308 1106.633244 
L 412.415893 1106.831004 
L 408.067841 1107.012849 
L 421.836672 1107.190773 
L 405.16914 1107.681368 
L 402.270438 1107.881642 
L 388.501607 1108.209818 
L 388.501607 1108.371063 
L 383.42888 1108.373548 
L 398.647062 1108.562525 
L 395.74836 1108.607063 
L 384.878231 1108.729275 
L 405.893815 1108.74686 
L 371.109399 1108.848056 
L 400.821088 1108.914848 
L 380.530179 1108.981866 
L 385.602906 1109.087327 
L 401.545763 1109.089504 
L 390.675633 1109.178082 
L 408.067841 1109.253741 
L 399.371737 1109.294701 
L 397.922386 1109.406808 
L 405.16914 1109.432104 
L 392.849659 1109.490016 
L 407.343166 1109.597466 
L 381.254854 1109.60879 
L 411.691218 1109.77643 
L 372.55875 1109.890934 
L 371.109399 1110.008177 
L 414.589919 1110.113841 
L 365.311997 1110.126983 
L 412.415893 1110.232034 
L 374.008101 1110.348842 
L 414.589919 1110.417025 
L 356.615893 1110.507155 
L 405.16914 1110.604585 
L 370.384724 1110.648622 
L 379.805503 1110.750979 
L 380.530179 1110.876655 
L 378.356153 1111.001056 
L 408.067841 1111.133781 
L 375.457451 1111.142435 
L 370.384724 1111.278799 
L 372.55875 1111.40625 
L 411.691218 1111.496889 
L 371.109399 1111.544155 
L 413.140568 1111.649867 
L 372.55875 1111.659052 
L 378.356153 1111.76345 
L 370.384724 1111.864985 
L 409.517192 1111.942642 
L 363.137971 1111.978993 
L 366.036672 1112.06108 
L 410.241867 1112.073378 
L 373.283425 1112.11881 
L 367.486023 1112.229742 
L 411.691218 1112.256337 
L 360.963945 1112.280791 
L 376.906802 1112.330668 
L 410.241867 1112.400139 
L 373.283425 1112.403525 
L 356.615893 1112.564783 
L 408.792516 1112.568078 
L 355.166542 1112.657899 
L 413.140568 1112.696744 
L 356.615893 1112.713458 
L 350.093815 1112.798965 
L 410.966542 1112.846209 
L 356.615893 1112.858193 
L 345.745763 1112.983645 
L 356.615893 1113.099392 
L 352.992516 1113.158149 
L 407.343166 1113.185041 
L 340.673036 1113.26014 
L 350.093815 1113.314582 
L 410.966542 1113.354258 
L 342.122386 1113.373251 
L 345.745763 1113.419551 
L 353.717192 1113.488657 
L 413.865244 1113.522524 
L 356.615893 1113.554395 
L 368.935373 1113.68622 
L 416.763945 1113.70327 
L 355.166542 1113.750371 
L 353.717192 1113.811015 
L 413.865244 1113.852484 
L 358.789919 1113.901508 
L 376.182127 1114.068152 
L 373.283425 1114.141043 
L 416.763945 1114.155967 
L 363.137971 1114.204343 
L 377.631477 1114.272114 
L 418.213295 1114.342622 
L 363.137971 1114.379401 
L 370.384724 1114.438152 
L 418.937971 1114.510348 
L 369.660049 1114.544215 
L 352.992516 1114.58046 
L 381.979529 1114.632453 
L 381.254854 1114.703802 
L 376.906802 1114.769414 
L 360.963945 1115.217143 
L 364.587321 1115.492052 
L 352.267841 1115.761256 
L 379.080828 1116.294745 
L 377.631477 1116.540113 
L 394.29901 1117.143586 
L 397.197711 1117.216797 
L 400.096412 1117.58354 
L 403.719789 1117.680842 
L 402.995114 1117.789604 
L 407.343166 1117.917935 
L 417.48862 1117.993619 
L 411.691218 1118.095136 
L 435.605503 1118.421519 
L 446.475633 1118.842979 
L 444.301607 1118.929896 
L 431.982127 1119.121142 
L 448.649659 1119.22822 
L 448.649659 1119.392718 
L 463.867841 1119.556352 
L 458.795114 1119.617398 
L 462.41849 1119.794341 
L 468.940568 1119.890379 
L 466.766542 1120.0734 
L 460.96914 1120.154713 
L 480.535373 1120.223173 
L 447.924984 1120.359382 
L 446.475633 1120.444749 
L 456.621088 1120.933937 
L 495.753555 1122.426447 
L 495.753555 1122.916945 
L 489.956153 1123.370323 
L 471.839269 1123.84214 
L 463.143166 1124.303311 
L 450.823685 1124.830766 
L 435.605503 1125.337168 
L 429.808101 1125.769038 
L 418.937971 1126.266644 
L 436.330179 1127.194156 
L 442.127581 1127.605132 
L 455.171737 1128.07015 
L 471.114594 1128.486744 
L 489.956153 1129.347902 
L 494.304205 1131.65388 
L 493.579529 1133.582957 
L 487.782127 1135.383851 
L 500.826282 1137.168141 
L 503.724984 1138.917469 
L 510.971737 1140.600556 
L 521.117192 1142.142628 
L 534.886023 1143.758148 
L 540.683425 1147.407555 
L 562.423685 1150.878432 
L 579.091218 1158.023729 
L 579.091218 1161.545478 
L 574.01849 1168.488685 
L 573.293815 1171.977437 
L 565.322386 1175.397055 
L 571.844464 1178.241865 
L 560.249659 1181.044156 
L 549.379529 1184.020196 
L 537.784724 1186.980129 
L 533.436672 1192.863254 
L 519.667841 1194.592238 
L 506.623685 1195.119121 
L 508.073036 1195.571434 
L 500.826282 1196.096506 
L 502.275633 1196.648304 
L 510.247062 1197.300593 
L 514.595114 1197.93835 
L 516.76914 1198.519451 
L 525.465244 1199.050537 
L 529.813295 1199.648778 
L 541.408101 1200.240973 
L 563.14836 1200.696053 
L 560.974334 1204.007877 
L 568.945763 1205.940625 
L 568.945763 1205.940625 
" clip-path="url(#p9404502b32)" style="fill: none; stroke: #000000; stroke-linecap: square"/>
   </g>
   <g id="patch_9">
    <path d="M 93.55875 1205.940625 
L 93.55875 97.140625 
" style="fill: none; stroke: #000000; stroke-width: 0.8; stroke-linejoin: miter; stroke-linecap: square"/>
   </g>
   <g id="patch_10">
    <path d="M 651.55875 1205.940625 
L 651.55875 97.140625 
" style="fill: none; stroke: #000000; stroke-width: 0.8; stroke-linejoin: miter; stroke-linecap: square"/>
   </g>
   <g id="patch_11">
    <path d="M 93.55875 1205.940625 
L 651.55875 1205.940625 
" style="fill: none; stroke: #000000; stroke-width: 0.8; stroke-linejoin: miter; stroke-linecap: square"/>
   </g>
   <g id="patch_12">
    <path d="M 93.55875 97.140625 
L 651.55875 97.140625 
" style="fill: none; stroke: #000000; stroke-width: 0.8; stroke-linejoin: miter; stroke-linecap: square"/>
   </g>
   <g id="text_24">
    <!-- unsmoothed -->
    <g style="fill: #777777" transform="translate(327.784109 1227.894391) scale(0.143 -0.143)">
     <defs>
      <path id="DejaVuSans-Oblique-75" d="M 428 1388 
L 838 3500 
L 1416 3500 
L 1006 1409 
Q 975 1256 961 1147 
Q 947 1038 947 966 
Q 947 700 1109 554 
Q 1272 409 1569 409 
Q 2031 409 2368 721 
Q 2706 1034 2809 1563 
L 3194 3500 
L 3769 3500 
L 3091 0 
L 2516 0 
L 2631 550 
Q 2388 244 2052 76 
Q 1716 -91 1338 -91 
Q 878 -91 622 161 
Q 366 413 366 863 
Q 366 956 381 1097 
Q 397 1238 428 1388 
z
" transform="scale(0.015625)"/>
      <path id="DejaVuSans-Oblique-6e" d="M 3566 2113 
L 3156 0 
L 2578 0 
L 2988 2091 
Q 3016 2238 3031 2350 
Q 3047 2463 3047 2528 
Q 3047 2791 2881 2937 
Q 2716 3084 2419 3084 
Q 1956 3084 1622 2776 
Q 1288 2469 1184 1941 
L 800 0 
L 225 0 
L 903 3500 
L 1478 3500 
L 1363 2950 
Q 1603 3253 1940 3418 
Q 2278 3584 2650 3584 
Q 3113 3584 3367 3334 
Q 3622 3084 3622 2631 
Q 3622 2519 3608 2391 
Q 3594 2263 3566 2113 
z
" transform="scale(0.015625)"/>
      <path id="DejaVuSans-Oblique-73" d="M 3200 3397 
L 3091 2853 
Q 2863 2978 2609 3040 
Q 2356 3103 2088 3103 
Q 1634 3103 1373 2948 
Q 1113 2794 1113 2528 
Q 1113 2219 1719 2053 
Q 1766 2041 1788 2034 
L 1972 1978 
Q 2547 1819 2739 1644 
Q 2931 1469 2931 1166 
Q 2931 609 2489 259 
Q 2047 -91 1331 -91 
Q 1053 -91 747 -37 
Q 441 16 72 128 
L 184 722 
Q 500 559 806 475 
Q 1113 391 1394 391 
Q 1816 391 2080 572 
Q 2344 753 2344 1031 
Q 2344 1331 1650 1516 
L 1591 1531 
L 1394 1581 
Q 956 1697 753 1886 
Q 550 2075 550 2369 
Q 550 2928 970 3256 
Q 1391 3584 2113 3584 
Q 2397 3584 2667 3537 
Q 2938 3491 3200 3397 
z
" transform="scale(0.015625)"/>
      <path id="DejaVuSans-Oblique-6d" d="M 5747 2113 
L 5338 0 
L 4763 0 
L 5166 2094 
Q 5191 2228 5203 2325 
Q 5216 2422 5216 2491 
Q 5216 2772 5059 2928 
Q 4903 3084 4622 3084 
Q 4203 3084 3875 2770 
Q 3547 2456 3450 1953 
L 3066 0 
L 2491 0 
L 2900 2094 
Q 2925 2209 2937 2307 
Q 2950 2406 2950 2484 
Q 2950 2769 2794 2926 
Q 2638 3084 2363 3084 
Q 1938 3084 1609 2770 
Q 1281 2456 1184 1953 
L 800 0 
L 225 0 
L 909 3500 
L 1484 3500 
L 1375 2956 
Q 1609 3263 1923 3423 
Q 2238 3584 2597 3584 
Q 2978 3584 3223 3384 
Q 3469 3184 3519 2828 
Q 3781 3197 4126 3390 
Q 4472 3584 4856 3584 
Q 5306 3584 5551 3325 
Q 5797 3066 5797 2591 
Q 5797 2488 5784 2364 
Q 5772 2241 5747 2113 
z
" transform="scale(0.015625)"/>
      <path id="DejaVuSans-Oblique-6f" d="M 1625 -91 
Q 1009 -91 651 289 
Q 294 669 294 1325 
Q 294 1706 417 2101 
Q 541 2497 738 2766 
Q 1047 3184 1428 3384 
Q 1809 3584 2291 3584 
Q 2888 3584 3255 3212 
Q 3622 2841 3622 2241 
Q 3622 1825 3500 1412 
Q 3378 1000 3181 728 
Q 2875 309 2494 109 
Q 2113 -91 1625 -91 
z
M 891 1344 
Q 891 869 1089 633 
Q 1288 397 1691 397 
Q 2269 397 2648 901 
Q 3028 1406 3028 2181 
Q 3028 2634 2825 2865 
Q 2622 3097 2228 3097 
Q 1903 3097 1650 2945 
Q 1397 2794 1197 2484 
Q 1050 2253 970 1956 
Q 891 1659 891 1344 
z
" transform="scale(0.015625)"/>
      <path id="DejaVuSans-Oblique-74" d="M 2706 3500 
L 2619 3053 
L 1472 3053 
L 1100 1153 
Q 1081 1047 1072 975 
Q 1063 903 1063 863 
Q 1063 663 1183 572 
Q 1303 481 1569 481 
L 2150 481 
L 2053 0 
L 1503 0 
Q 991 0 739 200 
Q 488 400 488 806 
Q 488 878 497 964 
Q 506 1050 525 1153 
L 897 3053 
L 409 3053 
L 500 3500 
L 978 3500 
L 1172 4494 
L 1747 4494 
L 1556 3500 
L 2706 3500 
z
" transform="scale(0.015625)"/>
      <path id="DejaVuSans-Oblique-68" d="M 3566 2113 
L 3156 0 
L 2578 0 
L 2988 2091 
Q 3016 2238 3031 2350 
Q 3047 2463 3047 2528 
Q 3047 2791 2881 2937 
Q 2716 3084 2419 3084 
Q 1956 3084 1617 2771 
Q 1278 2459 1178 1941 
L 800 0 
L 225 0 
L 1172 4863 
L 1747 4863 
L 1375 2950 
Q 1594 3244 1934 3414 
Q 2275 3584 2650 3584 
Q 3113 3584 3367 3334 
Q 3622 3084 3622 2631 
Q 3622 2519 3608 2391 
Q 3594 2263 3566 2113 
z
" transform="scale(0.015625)"/>
      <path id="DejaVuSans-Oblique-65" d="M 3078 2063 
Q 3088 2113 3092 2166 
Q 3097 2219 3097 2272 
Q 3097 2653 2873 2875 
Q 2650 3097 2266 3097 
Q 1838 3097 1509 2826 
Q 1181 2556 1013 2059 
L 3078 2063 
z
M 3578 1613 
L 903 1613 
Q 884 1494 878 1425 
Q 872 1356 872 1306 
Q 872 872 1139 634 
Q 1406 397 1894 397 
Q 2269 397 2603 481 
Q 2938 566 3225 728 
L 3116 159 
Q 2806 34 2476 -28 
Q 2147 -91 1806 -91 
Q 1078 -91 686 257 
Q 294 606 294 1247 
Q 294 1794 489 2264 
Q 684 2734 1063 3103 
Q 1306 3334 1642 3459 
Q 1978 3584 2356 3584 
Q 2950 3584 3301 3228 
Q 3653 2872 3653 2272 
Q 3653 2128 3634 1964 
Q 3616 1800 3578 1613 
z
" transform="scale(0.015625)"/>
      <path id="DejaVuSans-Oblique-64" d="M 2675 525 
Q 2444 222 2128 65 
Q 1813 -91 1428 -91 
Q 903 -91 598 267 
Q 294 625 294 1247 
Q 294 1766 478 2236 
Q 663 2706 1013 3078 
Q 1244 3325 1534 3454 
Q 1825 3584 2144 3584 
Q 2481 3584 2739 3421 
Q 2997 3259 3138 2956 
L 3513 4863 
L 4091 4863 
L 3144 0 
L 2566 0 
L 2675 525 
z
M 891 1350 
Q 891 897 1095 644 
Q 1300 391 1663 391 
Q 1931 391 2161 520 
Q 2391 650 2566 903 
Q 2750 1166 2856 1509 
Q 2963 1853 2963 2188 
Q 2963 2622 2758 2865 
Q 2553 3109 2194 3109 
Q 1922 3109 1687 2981 
Q 1453 2853 1288 2613 
Q 1106 2353 998 2009 
Q 891 1666 891 1350 
z
" transform="scale(0.015625)"/>
     </defs>
     <use xlink:href="#DejaVuSans-Oblique-75"/>
     <use xlink:href="#DejaVuSans-Oblique-6e" x="63.378906"/>
     <use xlink:href="#DejaVuSans-Oblique-73" x="126.757812"/>
     <use xlink:href="#DejaVuSans-Oblique-6d" x="178.857422"/>
     <use xlink:href="#DejaVuSans-Oblique-6f" x="276.269531"/>
     <use xlink:href="#DejaVuSans-Oblique-6f" x="337.451172"/>
     <use xlink:href="#DejaVuSans-Oblique-74" x="398.632812"/>
     <use xlink:href="#DejaVuSans-Oblique-68" x="437.841797"/>
     <use xlink:href="#DejaVuSans-Oblique-65" x="501.220703"/>
     <use xlink:href="#DejaVuSans-Oblique-64" x="562.744141"/>
    </g>
   </g>
   <g id="text_25">
    <!-- SISAL – Antro del Corchia -->
    <g transform="translate(187.528125 26.955938) scale(0.26 -0.26)">
     <defs>
      <path id="DejaVuSans-Bold-4c" d="M 588 4666 
L 1791 4666 
L 1791 909 
L 3903 909 
L 3903 0 
L 588 0 
L 588 4666 
z
" transform="scale(0.015625)"/>
      <path id="DejaVuSans-Bold-2013" d="M 344 2156 
L 2856 2156 
L 2856 1350 
L 344 1350 
L 344 2156 
z
" transform="scale(0.015625)"/>
      <path id="DejaVuSans-Bold-6e" d="M 4056 2131 
L 4056 0 
L 2931 0 
L 2931 347 
L 2931 1631 
Q 2931 2084 2911 2256 
Q 2891 2428 2841 2509 
Q 2775 2619 2662 2680 
Q 2550 2741 2406 2741 
Q 2056 2741 1856 2470 
Q 1656 2200 1656 1722 
L 1656 0 
L 538 0 
L 538 3500 
L 1656 3500 
L 1656 2988 
Q 1909 3294 2193 3439 
Q 2478 3584 2822 3584 
Q 3428 3584 3742 3212 
Q 4056 2841 4056 2131 
z
" transform="scale(0.015625)"/>
      <path id="DejaVuSans-Bold-74" d="M 1759 4494 
L 1759 3500 
L 2913 3500 
L 2913 2700 
L 1759 2700 
L 1759 1216 
Q 1759 972 1856 886 
Q 1953 800 2241 800 
L 2816 800 
L 2816 0 
L 1856 0 
Q 1194 0 917 276 
Q 641 553 641 1216 
L 641 2700 
L 84 2700 
L 84 3500 
L 641 3500 
L 641 4494 
L 1759 4494 
z
" transform="scale(0.015625)"/>
      <path id="DejaVuSans-Bold-72" d="M 3138 2547 
Q 2991 2616 2845 2648 
Q 2700 2681 2553 2681 
Q 2122 2681 1889 2404 
Q 1656 2128 1656 1613 
L 1656 0 
L 538 0 
L 538 3500 
L 1656 3500 
L 1656 2925 
Q 1872 3269 2151 3426 
Q 2431 3584 2822 3584 
Q 2878 3584 2943 3579 
Q 3009 3575 3134 3559 
L 3138 2547 
z
" transform="scale(0.015625)"/>
      <path id="DejaVuSans-Bold-6f" d="M 2203 2784 
Q 1831 2784 1636 2517 
Q 1441 2250 1441 1747 
Q 1441 1244 1636 976 
Q 1831 709 2203 709 
Q 2569 709 2762 976 
Q 2956 1244 2956 1747 
Q 2956 2250 2762 2517 
Q 2569 2784 2203 2784 
z
M 2203 3584 
Q 3106 3584 3614 3096 
Q 4122 2609 4122 1747 
Q 4122 884 3614 396 
Q 3106 -91 2203 -91 
Q 1297 -91 786 396 
Q 275 884 275 1747 
Q 275 2609 786 3096 
Q 1297 3584 2203 3584 
z
" transform="scale(0.015625)"/>
      <path id="DejaVuSans-Bold-64" d="M 2919 2988 
L 2919 4863 
L 4044 4863 
L 4044 0 
L 2919 0 
L 2919 506 
Q 2688 197 2409 53 
Q 2131 -91 1766 -91 
Q 1119 -91 703 423 
Q 288 938 288 1747 
Q 288 2556 703 3070 
Q 1119 3584 1766 3584 
Q 2128 3584 2408 3439 
Q 2688 3294 2919 2988 
z
M 2181 722 
Q 2541 722 2730 984 
Q 2919 1247 2919 1747 
Q 2919 2247 2730 2509 
Q 2541 2772 2181 2772 
Q 1825 2772 1636 2509 
Q 1447 2247 1447 1747 
Q 1447 1247 1636 984 
Q 1825 722 2181 722 
z
" transform="scale(0.015625)"/>
      <path id="DejaVuSans-Bold-6c" d="M 538 4863 
L 1656 4863 
L 1656 0 
L 538 0 
L 538 4863 
z
" transform="scale(0.015625)"/>
      <path id="DejaVuSans-Bold-63" d="M 3366 3391 
L 3366 2478 
Q 3138 2634 2908 2709 
Q 2678 2784 2431 2784 
Q 1963 2784 1702 2511 
Q 1441 2238 1441 1747 
Q 1441 1256 1702 982 
Q 1963 709 2431 709 
Q 2694 709 2930 787 
Q 3166 866 3366 1019 
L 3366 103 
Q 3103 6 2833 -42 
Q 2563 -91 2291 -91 
Q 1344 -91 809 395 
Q 275 881 275 1747 
Q 275 2613 809 3098 
Q 1344 3584 2291 3584 
Q 2566 3584 2833 3536 
Q 3100 3488 3366 3391 
z
" transform="scale(0.015625)"/>
      <path id="DejaVuSans-Bold-68" d="M 4056 2131 
L 4056 0 
L 2931 0 
L 2931 347 
L 2931 1625 
Q 2931 2084 2911 2256 
Q 2891 2428 2841 2509 
Q 2775 2619 2662 2680 
Q 2550 2741 2406 2741 
Q 2056 2741 1856 2470 
Q 1656 2200 1656 1722 
L 1656 0 
L 538 0 
L 538 4863 
L 1656 4863 
L 1656 2988 
Q 1909 3294 2193 3439 
Q 2478 3584 2822 3584 
Q 3428 3584 3742 3212 
Q 4056 2841 4056 2131 
z
" transform="scale(0.015625)"/>
      <path id="DejaVuSans-Bold-69" d="M 538 3500 
L 1656 3500 
L 1656 0 
L 538 0 
L 538 3500 
z
M 538 4863 
L 1656 4863 
L 1656 3950 
L 538 3950 
L 538 4863 
z
" transform="scale(0.015625)"/>
     </defs>
     <use xlink:href="#DejaVuSans-Bold-53"/>
     <use xlink:href="#DejaVuSans-Bold-49" x="72.021484"/>
     <use xlink:href="#DejaVuSans-Bold-53" x="109.228516"/>
     <use xlink:href="#DejaVuSans-Bold-41" x="181.25"/>
     <use xlink:href="#DejaVuSans-Bold-4c" x="258.642578"/>
     <use xlink:href="#DejaVuSans-Bold-20" x="322.363281"/>
     <use xlink:href="#DejaVuSans-Bold-2013" x="357.177734"/>
     <use xlink:href="#DejaVuSans-Bold-20" x="407.177734"/>
     <use xlink:href="#DejaVuSans-Bold-41" x="441.992188"/>
     <use xlink:href="#DejaVuSans-Bold-6e" x="519.384766"/>
     <use xlink:href="#DejaVuSans-Bold-74" x="590.576172"/>
     <use xlink:href="#DejaVuSans-Bold-72" x="638.378906"/>
     <use xlink:href="#DejaVuSans-Bold-6f" x="687.695312"/>
     <use xlink:href="#DejaVuSans-Bold-20" x="756.396484"/>
     <use xlink:href="#DejaVuSans-Bold-64" x="791.210938"/>
     <use xlink:href="#DejaVuSans-Bold-65" x="862.792969"/>
     <use xlink:href="#DejaVuSans-Bold-6c" x="930.615234"/>
     <use xlink:href="#DejaVuSans-Bold-20" x="964.892578"/>
     <use xlink:href="#DejaVuSans-Bold-43" x="999.707031"/>
     <use xlink:href="#DejaVuSans-Bold-6f" x="1073.095703"/>
     <use xlink:href="#DejaVuSans-Bold-72" x="1141.796875"/>
     <use xlink:href="#DejaVuSans-Bold-63" x="1191.113281"/>
     <use xlink:href="#DejaVuSans-Bold-68" x="1250.390625"/>
     <use xlink:href="#DejaVuSans-Bold-69" x="1321.582031"/>
     <use xlink:href="#DejaVuSans-Bold-61" x="1355.859375"/>
    </g>
   </g>
  </g>
 </g>
 <defs>
  <clipPath id="p9404502b32">
   <rect x="93.55875" y="97.140625" width="558" height="1108.8"/>
  </clipPath>
 </defs>
</svg>
